<svg width="39" height="11" viewBox="0 0 39 11" fill="none" xmlns="http://www.w3.org/2000/svg">
<g clip-path="url(#clip0_41_326)">
<path d="M19.4595 9.06791C19.2681 9.06791 19.0768 9.00071 18.9021 8.86633C12.5009 3.8879 2.08163 8.12109 1.97765 8.16385C1.36622 8.4143 0.725675 7.91951 0.546823 7.0521C0.36797 6.18469 0.717357 5.28064 1.32462 5.02408C1.778 4.83472 12.2679 0.5832 19.4969 5.62271C21.5184 4.44377 28.7931 0.91306 37.5569 5.15236C38.16 5.44557 38.4844 6.37406 38.2765 7.22314C38.0685 8.07833 37.4155 8.53647 36.8124 8.24326C27.5744 3.77795 20.0335 8.85411 19.9544 8.90298C19.7964 9.01293 19.6259 9.06791 19.4553 9.06791H19.4595Z" fill="url(#paint0_linear_41_326)"/>
<path d="M19.558 4.521C19.508 4.521 19.454 4.50267 19.4041 4.47213C12.096 -0.62236 1.40646 3.70246 0.953091 3.88571C0.76176 3.96512 0.56627 3.80019 0.512198 3.5192C0.458126 3.23821 0.570429 2.95111 0.757601 2.8717C1.06539 2.74342 3.87297 1.61335 7.55817 1.143C12.3914 0.526038 16.4301 1.2896 19.5663 3.42147C21.8622 2.12036 29.3283 -1.30651 38.2502 3.0122C38.4373 3.10382 38.5413 3.39703 38.4789 3.67192C38.4165 3.9468 38.2169 4.09951 38.0256 4.00788C29.137 -0.292501 21.7375 3.28708 19.6869 4.48435C19.6453 4.50878 19.5995 4.521 19.5538 4.521H19.558Z" fill="url(#paint1_linear_41_326)"/>
</g>
<defs>
<linearGradient id="paint0_linear_41_326" x1="1.68248" y1="3.72355" x2="11.962" y2="22.2903" gradientUnits="userSpaceOnUse">
<stop stop-color="#29C4E7"/>
<stop offset="1" stop-color="#0193FE"/>
</linearGradient>
<linearGradient id="paint1_linear_41_326" x1="1.68605" y1="1.26512" x2="6.14664" y2="14.5453" gradientUnits="userSpaceOnUse">
<stop stop-color="#29C4E7"/>
<stop offset="1" stop-color="#0193FE"/>
</linearGradient>
<clipPath id="clip0_41_326">
<rect width="38" height="10.9281" fill="white" transform="translate(0.5)"/>
</clipPath>
</defs>
</svg>
