<?xml version="1.0" encoding="UTF-8"?><svg xmlns="http://www.w3.org/2000/svg" xmlns:xlink="http://www.w3.org/1999/xlink" viewBox="0 0 120 120"><defs><style>.cls-1{fill:none;}.cls-2,.cls-3,.cls-4,.cls-5{mix-blend-mode:screen;}.cls-2,.cls-6,.cls-7{fill:#44352a;}.cls-2,.cls-8,.cls-7,.cls-9{opacity:.3;}.cls-3,.cls-4,.cls-10,.cls-11,.cls-12,.cls-5,.cls-13{opacity:.5;}.cls-3,.cls-14,.cls-8,.cls-12{fill:#efca6f;}.cls-4,.cls-15,.cls-11{fill:#f8b805;}.cls-16{clip-path:url(#clippath);}.cls-17{fill:#f98ce2;}.cls-18{fill:#66c5ea;}.cls-19,.cls-20{fill:#fff;}.cls-21{fill:#f73131;}.cls-22{fill:#ffd522;}.cls-23{fill:#63eae4;}.cls-24{fill:#a252ff;}.cls-25{fill:#124956;}.cls-26{fill:#21677c;}.cls-27{clip-path:url(#clippath-3);}.cls-28{clip-path:url(#clippath-2);}.cls-8,.cls-7,.cls-10,.cls-11,.cls-12,.cls-9,.cls-13{mix-blend-mode:multiply;}.cls-10{fill:#f7a108;}.cls-20{opacity:.2;}.cls-29{opacity:.16;}.cls-30{isolation:isolate;}</style><clipPath id="clippath"><path class="cls-1" d="M112.08-3H9.08V29.45c-.74,1.5-1.16,3.17-1.16,4.9v47.12c0,3.98,2.13,7.67,5.58,9.66l40.81,23.56c3.45,1.99,7.7,1.99,11.15,0l40.81-23.56c3.45-1.99,5.58-5.67,5.58-9.66V40h.24V-3Z"/></clipPath><clipPath id="clippath-1"><circle class="cls-1" cx="200" cy="200" r="58.5"/></clipPath><clipPath id="clippath-2"><circle class="cls-1" cx="60.5" cy="200.12" r="56.5"/></clipPath><clipPath id="clippath-3"><path class="cls-1" d="M230.39,7.83h-59.4c-12.15,0-22,10.1-22,22.56v42.75c0,23.67,23.15,42.86,51.7,42.86s51.7-19.19,51.7-42.86V30.39c0-12.46-9.85-22.56-22-22.56Z"/></clipPath></defs><g class="cls-30"><g id="_레이어_1"><g><g class="cls-29"><circle class="cls-19" cx="15.78" cy="98.55" r=".78"/></g><polygon class="cls-19" points="20.81 21.72 22.5 24.81 25.58 26.49 22.5 28.18 20.81 31.27 19.12 28.18 16.04 26.49 19.12 24.81 20.81 21.72"/><path class="cls-18" d="M107.59,80.14V37.3c0-3.98-2.13-7.67-5.58-9.66L64.91,6.22c-3.45-1.99-7.7-1.99-11.15,0L16.66,27.64c-3.45,1.99-5.58,5.67-5.58,9.66v42.84c0,3.98,2.13,7.67,5.58,9.66l37.1,21.42c3.45,1.99,7.7,1.99,11.15,0l37.1-21.42c3.45-1.99,5.58-5.67,5.58-9.66Z"/><path class="cls-26" d="M96.26,74.47v-29.12c0-3.98-2.13-7.67-5.58-9.66l-25.22-14.56c-3.45-1.99-7.7-1.99-11.15,0l-25.22,14.56c-3.45,1.99-5.58,5.67-5.58,9.66v29.12c0,3.98,2.13,7.67,5.58,9.66l25.22,14.56c3.45,1.99,7.7,1.99,11.15,0l25.22-14.56c3.45-1.99,5.58-5.67,5.58-9.66Z"/><path class="cls-25" d="M85.34,68.17v-16.52c0-3.98-2.13-7.67-5.58-9.66l-14.31-8.26c-3.45-1.99-7.7-1.99-11.15,0l-14.31,8.26c-3.45,1.99-5.58,5.67-5.58,9.66v16.52c0,3.98,2.13,7.67,5.58,9.66l14.31,8.26c3.45,1.99,7.7,1.99,11.15,0l14.31-8.26c3.45-1.99,5.58-5.67,5.58-9.66Z"/><path class="cls-19" d="M106.29,26.22L65.48,2.51c-1.73-1.01-3.67-1.51-5.6-1.51s-3.87,.5-5.6,1.51L13.47,26.22c-3.44,2-5.55,5.67-5.55,9.64v2.14h6.02v-2.14c0-1.82,.98-3.52,2.55-4.44L57.3,7.71c.78-.45,1.67-.69,2.58-.69s1.8,.24,2.58,.69l40.81,23.71c1.58,.92,2.55,2.62,2.55,4.44v2.14h6.02v-2.14c0-3.97-2.11-7.65-5.55-9.64Z"/><g class="cls-16"><g><path class="cls-15" d="M51.13,96.43c2.51-4.56,4.11-11.57,4.11-19.44,0-.73-.01-1.45-.04-2.16h7.25c-.03,.71-.04,1.43-.04,2.16,0,7.87,1.61,14.89,4.11,19.44h-15.4Z"/><path class="cls-11" d="M62.42,76.99c0-.73,.01-1.45,.04-2.16h-7.25c.03,.71,.04,1.43,.04,2.16,0,1.4-.05,2.78-.15,4.12,0,0,0,0,0,0,0,0,3.49-2.14,7.47,0-.1-1.34-.15-2.71-.15-4.12Z"/><path class="cls-4" d="M57.01,74.83h-1.04c.02,.71,.03,1.43,.03,2.16,0,7.87-1.27,14.89-3.24,19.44h2.21c1.26-4.56,2.06-11.57,2.06-19.44,0-.73,0-1.45-.02-2.16Z"/><path class="cls-11" d="M66.53,96.43h-3.84c-1.26-4.56-2.06-11.57-2.06-19.44,0-.73,0-1.45,.02-2.16h1.81c-.03,.71-.04,1.43-.04,2.16,0,7.87,1.61,14.89,4.11,19.44Z"/><g><g><path class="cls-15" d="M48.86,70.5h0c-5.66-.02-10.02-.45-13.71-1.36-4.42-1.09-7.93-2.88-10.74-5.49-6.02-5.59-8.82-14.96-8.82-29.51,0-.63,.26-1.24,.72-1.67,.46-.44,1.07-.67,1.7-.64,.18,0,17.94,.79,30.76,.2,.63-.03,1.25,.2,1.71,.64,.46,.44,.72,1.04,.72,1.67v33.84c0,.62-.25,1.21-.68,1.64-.43,.43-1.02,.68-1.63,.68ZM20.24,36.55c.27,11.78,2.62,19.35,7.32,23.71,3.88,3.6,9.63,5.31,18.99,5.57v-29.08c-9.75,.31-21.35-.02-26.31-.2Z"/><path class="cls-11" d="M22.34,34.41c-1.18-.04-2.16,.93-2.11,2.11,0,0,0,.01,0,.02,5,.18,16.61,.51,26.31,.2v-2.21c-8.56,.28-18.53,.05-24.2-.13Z"/><g class="cls-5"><g><path class="cls-15" d="M46.54,65.83v-.56c.05,.29,.05,.48,0,.56Z"/><path class="cls-15" d="M20.24,36.52l.05,.02s-.03,0-.05,0c.27,11.78,2.62,19.35,7.32,23.71,3.88,3.6,9.63,5.31,18.99,5.57-.65,1.11-4.39,.55-4.39,.55-25.3-.32-21.92-29.85-21.92-29.85Z"/></g></g><g class="cls-5"><path class="cls-15" d="M51.12,68.54V34.7c0-.63-.26-1.24-.72-1.67-.46-.44-1.07-.67-1.71-.64-12.82,.59-30.58-.19-30.76-.2-.63-.03-1.25,.2-1.7,.64-.32,.3-.54,.68-.64,1.1,.05-.55,.3-1.07,.71-1.46,.46-.44,1.07-.67,1.7-.64,.18,0,17.94,.79,30.76,.2,.63-.03,1.25,.2,1.71,.64,.46,.44,.72,1.04,.72,1.67v33.84c0,.19-.02,.39-.07,.57,0-.07,0-.14,0-.21Z"/></g><g class="cls-13"><path class="cls-15" d="M44.72,69.6c2.12,.03,3.99,.15,5.63,.35-.42,.35-.94,.54-1.49,.54h0c-5.66-.02-10.02-.45-13.71-1.36-4.42-1.09-7.93-2.88-10.74-5.49-3.16-2.93-5.43-6.91-6.88-12.13,2.56,7.74,9.32,17.87,27.19,18.09Z"/></g></g><g><path class="cls-15" d="M67.16,69.82c-.44-.43-.68-1.03-.68-1.64V34.34c0-.63,.26-1.24,.72-1.67,.46-.44,1.07-.67,1.71-.64,12.82,.59,30.58-.19,30.76-.2,.63-.03,1.25,.2,1.7,.64,.46,.44,.72,1.04,.72,1.67,0,14.55-2.8,23.93-8.82,29.51-2.81,2.61-6.32,4.4-10.74,5.49-3.69,.91-8.04,1.34-13.71,1.36h0c-.61,0-1.2-.24-1.63-.68Zm3.95-33.08v29.08c9.36-.27,15.11-1.97,18.99-5.57,4.7-4.36,7.04-11.92,7.32-23.71-4.96,.18-16.56,.51-26.31,.2Z"/><path class="cls-11" d="M71.11,34.54v2.21c9.7,.31,21.3-.02,26.31-.2,0,0,0-.01,0-.02,.05-1.18-.92-2.15-2.11-2.11-5.67,.18-15.65,.4-24.2,.13Z"/><g class="cls-5"><g><path class="cls-15" d="M71.11,65.83v-.56c-.05,.29-.05,.48,0,.56Z"/><path class="cls-15" d="M97.42,36.52l-.05,.02s.03,0,.05,0c-.27,11.78-2.62,19.35-7.32,23.71-3.88,3.6-9.63,5.31-18.99,5.57,.65,1.11,4.39,.55,4.39,.55,25.3-.32,21.92-29.85,21.92-29.85Z"/></g></g><g class="cls-5"><path class="cls-15" d="M66.54,68.54V34.7c0-.63,.26-1.24,.72-1.67,.46-.44,1.07-.67,1.71-.64,12.82,.59,30.58-.19,30.76-.2,.63-.03,1.25,.2,1.7,.64,.32,.3,.54,.68,.64,1.1-.05-.55-.3-1.07-.71-1.46-.46-.44-1.07-.67-1.7-.64-.18,0-17.94,.79-30.76,.2-.63-.03-1.25,.2-1.71,.64-.46,.44-.72,1.04-.72,1.67v33.84c0,.19,.02,.39,.07,.57,0-.07,0-.14,0-.21Z"/></g><g class="cls-13"><path class="cls-15" d="M72.94,69.6c-2.12,.03-3.99,.15-5.63,.35,.42,.35,.94,.54,1.49,.54h0c5.66-.02,10.02-.45,13.71-1.36,4.42-1.09,7.93-2.88,10.74-5.49,3.16-2.93,5.43-6.91,6.88-12.13-2.56,7.74-9.32,17.87-27.19,18.09Z"/></g></g><path class="cls-15" d="M32.6,25c-.63,3.62-.97,7.44-.97,11.38,0,23.65,12.17,42.83,27.19,42.83s27.19-19.17,27.19-42.83c0-3.94-.34-7.76-.97-11.38H32.6Z"/><path class="cls-15" d="M32.6,25c-.63,3.62-.97,7.44-.97,11.38,0,23.65,12.17,42.83,27.19,42.83s27.19-19.17,27.19-42.83c0-3.94-.34-7.76-.97-11.38H32.6Z"/><path class="cls-11" d="M85.03,25h-9.8c.4,3.62,.61,7.44,.61,11.38,0,23.65-7.62,42.83-17.03,42.83,15.02,0,27.19-19.17,27.19-42.83,0-3.94-.34-7.76-.97-11.38Z"/><polygon class="cls-10" points="59.2 39.03 62.76 46.25 70.73 47.41 64.96 53.03 66.32 60.97 59.2 57.22 52.07 60.97 53.43 53.03 47.67 47.41 55.63 46.25 59.2 39.03"/><path class="cls-4" d="M41.79,36.38c0-3.94,.21-7.76,.61-11.38h-6.71c-.56,3.62-.86,7.44-.86,11.38,0,23.65,10.74,42.83,23.98,42.83-9.4,0-17.03-19.17-17.03-42.83Z"/><path class="cls-19" d="M44.74,32.41c-3.16,0-5.72-2.56-5.72-5.72,0,3.16-2.56,5.72-5.72,5.72,3.16,0,5.72,2.56,5.72,5.72,0-3.16,2.56-5.72,5.72-5.72Z"/><path class="cls-19" d="M47.01,38.12c-1.25,0-2.27-1.01-2.27-2.27,0,1.25-1.01,2.27-2.27,2.27,1.25,0,2.27,1.01,2.27,2.27,0-1.25,1.01-2.27,2.27-2.27Z"/><path class="cls-4" d="M58.44,25.84c14.27,0,25.84-.38,25.84-.84H32.6c0,.47,11.57,.84,25.84,.84Z"/></g><path class="cls-15" d="M69.81,96.43h-21.97c-2.9,0-5.25,2.35-5.25,5.25h32.47c0-2.9-2.35-5.25-5.25-5.25Z"/><path class="cls-4" d="M47.85,96.82h21.97c2.77,0,5.03,2.14,5.24,4.86h.02c0-2.9-2.35-5.25-5.25-5.25h-21.97c-2.9,0-5.25,2.35-5.25,5.25h.02c.2-2.72,2.47-4.86,5.24-4.86Z"/><path class="cls-11" d="M75.06,101.68h-5.87c0-2.9-1.5-5.25-3.35-5.25h3.97c2.9,0,5.25,2.35,5.25,5.25Z"/><path class="cls-4" d="M54.33,96.43h-4.34c-2.9,0-5.25,2.35-5.25,5.25h4.34c0-2.9,2.35-5.25,5.25-5.25Z"/><rect class="cls-6" x="33.63" y="101.68" width="50.41" height="20.18" rx=".49" ry=".49"/><path class="cls-7" d="M83.55,118.39H34.11c-.27,0-.49-.22-.49-.49v3.47c0,.27,.22,.49,.49,.49h49.44c.27,0,.49-.22,.49-.49v-3.47c0,.27-.22,.49-.49,.49Z"/><g class="cls-9"><path class="cls-6" d="M83.55,101.68h-15.11c-2.33,11.43-15.45,20.18-31.28,20.18h46.39c.27,0,.49-.22,.49-.49v-19.2c0-.27-.22-.49-.49-.49Z"/></g><path class="cls-2" d="M83.55,101.68H34.11c-.27,0-.49,.22-.49,.49v.63c0-.27,.22-.49,.49-.49h49.44c.27,0,.49,.22,.49,.49v-.63c0-.27-.22-.49-.49-.49Z"/><rect class="cls-6" x="29.75" y="119.26" width="58.16" height="4.26" rx=".61" ry=".61"/><path class="cls-2" d="M87.3,119.26H30.36c-.34,0-.61,.27-.61,.61v.57c0-.34,.27-.61,.61-.61h56.94c.34,0,.61,.27,.61,.61v-.57c0-.34-.27-.61-.61-.61Z"/><path class="cls-7" d="M87.3,119.26h-16.24c.34,0,.61,.27,.61,.61v3.03c0,.34-.27,.61-.61,.61h16.24c.34,0,.61-.27,.61-.61v-3.03c0-.34-.27-.61-.61-.61Z"/><path class="cls-2" d="M43.33,122.9v-3.03c0-.34,.27-.61,.61-.61h-8.83c-.34,0-.61,.27-.61,.61v3.03c0,.34,.27,.61,.61,.61h8.83c-.34,0-.61-.27-.61-.61Z"/><rect class="cls-14" x="38.1" y="104.66" width="41.38" height="12.19"/><polygon class="cls-12" points="38.14 116.57 38.14 104.66 38.1 104.66 38.1 116.85 79.47 116.85 79.47 116.57 38.14 116.57"/><rect class="cls-3" x="38.1" y="104.66" width="41.38" height=".21"/><path class="cls-11" d="M42.59,101.68h32.47c0-.32-.03-.64-.09-.95H42.68c-.06,.31-.09,.62-.09,.95Z"/><path class="cls-8" d="M67.56,104.66c-1.88,4.89-5.79,9.14-10.99,12.19h22.91v-12.19h-11.91Z"/><circle class="cls-6" cx="39.67" cy="106.09" r=".71"/><circle class="cls-6" cx="39.67" cy="115.24" r=".71"/><circle class="cls-6" cx="77.9" cy="106.09" r=".71"/><circle class="cls-6" cx="77.9" cy="115.24" r=".71"/></g></g><path class="cls-1" d="M16.49,87.83l40.81,23.71c.78,.45,1.67,.69,2.58,.69s1.8-.24,2.58-.69l40.81-23.71c1.58-.92,2.55-2.62,2.55-4.44V38H13.94v45.39c0,1.82,.98,3.52,2.55,4.44Z"/><path class="cls-19" d="M105.83,83.39c0,1.82-.98,3.52-2.55,4.44l-40.81,23.71c-.78,.45-1.67,.69-2.58,.69s-1.8-.24-2.58-.69l-40.81-23.71c-1.58-.92-2.55-2.62-2.55-4.44V38H7.92v45.39c0,3.97,2.11,7.65,5.55,9.64l40.81,23.71c1.73,1.01,3.67,1.51,5.6,1.51s3.87-.5,5.6-1.51l40.81-23.71c3.44-2,5.55-5.67,5.55-9.64V38h-6.02v45.39Z"/><rect class="cls-21" x="16.7" y="25.07" width="7.53" height="3.51" transform="translate(-11.22 38.43) rotate(-72.78)"/><polygon class="cls-21" points="54.74 5.44 48.7 8.84 46.08 5.8 52.73 .99 54.74 5.44"/><polygon class="cls-23" points="41.75 4.58 37.39 4.99 37.12 7.51 42.3 7.62 41.75 4.58"/><path class="cls-23" d="M18.45,16.46c-.17,0-.34-.03-.5-.06-.45-.07-.88-.18-1.31-.31-.63-.2-1.24-.45-1.81-.76-.73-.39-1.41-.88-2.03-1.43-.74-.67-1.39-1.45-1.92-2.29-.08-.12-.15-.24-.22-.36,0-.01,1.46-.81,1.58-.88,.12-.06,1.58-.88,1.6-.85,.52,.88,1.15,1.7,1.89,2.41,.61,.59,1.3,1.11,2.03,1.53,.59,.34,1.21,.62,1.86,.84,.46,.15,.92,.27,1.39,.36,.14,.02,.28,.04,.42,.06,.04,0,.09,0,.13,.01,.02,0,.05,0,.07,0,0,0,0,0,0,0-.04,.03-.09,.06-.13,.08-.11,.06-.22,.12-.33,.18-.37,.21-.75,.41-1.12,.61-.37,.2-.75,.41-1.13,.61-.08,.04-.17,.09-.25,.13-.07,.04-.15,.08-.22,.11h0Z"/><polygon class="cls-24" points="71.4 10.81 65.01 8.12 62.75 11.44 69.9 15.46 71.4 10.81"/><path class="cls-24" d="M107.02,21.9c-.31,.31-.55,.69-.77,1.06-.53,.91-.85,1.94-.94,2.99-.07,.81-.01,1.63,.16,2.42,0,.02,.41,.11,.36,.09,.29,.07,.59,.14,.88,.21s.59,.14,.88,.2c.07,.01,.13,.03,.2,.04,.06,.01,.11,.03,.17,.03-.28-1.3-.25-2.66,.14-3.94,.24-.78,.62-1.54,1.12-2.19,.09-.12,.19-.24,.29-.35,0,0-.41-.11-.36-.09-.29-.07-.59-.14-.88-.21-.29-.07-.59-.14-.88-.2-.07-.01-.13-.03-.2-.04-.06-.01-.11-.03-.17-.03h0Z"/><rect class="cls-17" x="87.69" y="10.7" width="4.19" height="1.95" transform="translate(64.53 -75.28) rotate(66.4)"/><rect class="cls-17" x="28.69" y="10.7" width="4.19" height="1.95" transform="translate(29.15 -21.21) rotate(66.4)"/><path class="cls-22" d="M105.85,11.26c-.08,.13-.17,.25-.25,.36-.24,.32-.51,.61-.79,.89-.41,.4-.87,.77-1.35,1.08-.61,.4-1.27,.73-1.96,.97-.83,.29-1.7,.47-2.58,.53-.12,0-.25,.01-.37,.02-.01,0-.02-1.47-.02-1.59,0-.12-.01-1.59,.02-1.59,.9-.03,1.8-.18,2.66-.45,.71-.23,1.4-.54,2.04-.93,.51-.31,.99-.68,1.43-1.09,.31-.29,.6-.6,.86-.93,.08-.1,.15-.2,.22-.3,.02-.03,.04-.06,.06-.09,0-.01,.02-.04,.03-.05,0,0,0,0,0,0,0,.05,0,.09,0,.14,0,.11,0,.22,0,.33,0,.38,0,.75,0,1.13,0,.38,0,.75,0,1.13,0,.08,0,.17,0,.25,0,.07,0,.14,0,.22h0Z"/><rect class="cls-22" x="73.66" y="4.06" width="4.19" height="1.95" transform="translate(107.65 73.93) rotate(-118.64)"/><path class="cls-24" d="M56.27,14.06c-.11,.49-.33,.97-.56,1.41-.56,1.08-1.36,2.03-2.32,2.77-.74,.58-1.58,1.02-2.46,1.35-.02,0-.36-.33-.32-.3-.25-.24-.5-.48-.75-.73s-.5-.49-.75-.73c-.05-.05-.11-.11-.16-.16-.05-.05-.1-.1-.14-.15,1.44-.54,2.75-1.41,3.75-2.58,.61-.72,1.11-1.55,1.43-2.44,.06-.16,.12-.33,.16-.5,0,.01,.36,.34,.32,.3,.25,.24,.5,.48,.75,.73,.25,.24,.5,.49,.75,.73,.05,.05,.11,.11,.16,.16,.05,.05,.1,.1,.14,.15h0Z"/></g><g class="cls-28"><g><polygon class="cls-20" points="60.28 189.35 103.91 96.76 119.5 105.76 60.28 189.35"/><polygon class="cls-20" points="60.28 189.35 51.78 87.35 69.78 87.35 60.28 189.35"/><polygon class="cls-20" points="60.28 189.35 1.91 105.26 17.5 96.26 60.28 189.35"/></g></g><g class="cls-27"><g><polygon class="cls-20" points="199.54 58.33 97.54 66.83 97.54 48.83 199.54 58.33"/><polygon class="cls-20" points="199.54 58.33 115.46 116.69 106.46 101.11 199.54 58.33"/><polygon class="cls-20" points="199.54 58.33 106.96 14.69 115.96 -.89 199.54 58.33"/></g></g></g></g></svg>