<?xml version="1.0" encoding="UTF-8"?><svg id="_레이어_1" xmlns="http://www.w3.org/2000/svg" xmlns:xlink="http://www.w3.org/1999/xlink" viewBox="0 0 120 120"><defs><style>.cls-1{fill:none;}.cls-2{fill:url(#linear-gradient);}.cls-3{clip-path:url(#clippath);}.cls-4{fill:#eab963;}.cls-5,.cls-6{fill:#fff;}.cls-7{fill:#f2cb7b;}.cls-8{fill:#efbf69;}.cls-9{fill:#90caf9;}.cls-10{fill:#64b5f6;}.cls-11{fill:#bbdb91;}.cls-12{fill:#aace7c;}.cls-13{fill:#d3a14f;}.cls-14{fill:#aed581;}.cls-15{fill:#1e88e5;}.cls-16{fill:#42a5f5;}.cls-17{fill:#1976d2;}.cls-18{fill:#6fbf11;}.cls-19{fill:#568e0e;}.cls-20{clip-path:url(#clippath-1);}.cls-21{clip-path:url(#clippath-2);}.cls-6{opacity:.2;}</style><clipPath id="clippath"><circle class="cls-1" cx="60" cy="-80" r="58.5"/></clipPath><clipPath id="clippath-1"><path class="cls-1" d="M-33.65,23.51c0-2.62-2.12-4.74-4.74-4.74h-8.49c-4.85-8.84-17.91-15.17-33.27-15.17s-28.43,6.33-33.27,15.17h-8.49c-2.62,0-4.74,2.12-4.74,4.74v61.55c0,17.3,20.82,31.33,46.5,31.33s46.5-14.03,46.5-31.33V23.51Z"/></clipPath><linearGradient id="linear-gradient" x1="60.6" y1="110.07" x2="60.33" y2="13.31" gradientUnits="userSpaceOnUse"><stop offset="0" stop-color="#fff"/><stop offset=".33" stop-color="#c9ebff"/><stop offset=".36" stop-color="#c3e9ff"/><stop offset=".53" stop-color="#a7dfff"/><stop offset=".87" stop-color="#6ecbff"/><stop offset="1" stop-color="#59c3ff"/></linearGradient><clipPath id="clippath-2"><path class="cls-1" d="M113.08-1.33h-39V8.68l-7.62-4.4c-3.45-1.99-7.7-1.99-11.15,0L14.49,27.84c-3.45,1.99-5.58,5.67-5.58,9.66l4,47.12c0,3.98,2.13,7.67,5.58,9.66l36.81,19.56c3.45,1.99,7.7,1.99,11.15,0l38.81-19.56c3.45-1.99,5.58-5.67,5.58-9.66l2-42.95h.24V-1.33Z"/></clipPath><clipPath id="clippath-3"><circle class="cls-1" cx="-79.5" cy="-79.88" r="56.5"/></clipPath></defs><g class="cls-3"><g><polygon class="cls-6" points="60 -80 16.36 12.58 .77 3.58 60 -80"/><polygon class="cls-6" points="60 -80 68.5 22 50.5 22 60 -80"/><polygon class="cls-6" points="60 -80 118.36 4.08 102.77 13.08 60 -80"/></g></g><g class="cls-20"><g><polygon class="cls-6" points="-79.11 74.38 13.48 118.02 4.48 133.6 -79.11 74.38"/><polygon class="cls-6" points="-79.11 74.38 22.89 65.88 22.89 83.88 -79.11 74.38"/><polygon class="cls-6" points="-79.11 74.38 4.98 16.02 13.98 31.6 -79.11 74.38"/></g></g><g><path class="cls-2" d="M108.85,83.03V40.04c0-3.98-2.13-7.67-5.58-9.66L66.04,8.89c-3.45-1.99-7.7-1.99-11.15,0L17.66,30.38c-3.45,1.99-5.58,5.67-5.58,9.66v42.99c0,3.98,2.13,7.67,5.58,9.66l37.23,21.5c3.45,1.99,7.7,1.99,11.15,0l37.23-21.5c3.45-1.99,5.58-5.67,5.58-9.66Z"/><path class="cls-5" d="M107.27,27.84L66.46,4.28c-1.06-.61-2.21-1.02-3.38-1.25v6.3c.12,.06,.24,.11,.36,.18l40.81,23.56c1.58,.91,2.56,2.61,2.56,4.43v4.17h6.03v-4.17c0-3.98-2.13-7.67-5.58-9.66Z"/><g class="cls-21"><g><g><rect class="cls-19" x="80.3" y="13.83" width="16.04" height="32.37" transform="translate(20.06 -33.56) rotate(24.2)"/><path class="cls-19" d="M68.92,118.71l-34.06-15.31c-1.82-.82-2.63-2.95-1.81-4.77l22.43-49.92c5.04-11.22,18.23-16.23,29.46-11.19h0c11.22,5.04,16.23,18.23,11.19,29.46l-22.43,49.92c-.82,1.82-2.95,2.63-4.77,1.81Z"/><path class="cls-12" d="M36.48,100.06l22.39-49.83c4.2-9.34,15.21-13.52,24.55-9.32,9.34,4.2,13.52,15.21,9.33,24.55l-22.39,49.83-33.87-15.22Z"/><path class="cls-12" d="M62.62,44.77c-1.53,1.54-2.81,3.37-3.75,5.45l-22.39,49.83,33.87,15.22,22.39-49.83c.94-2.09,1.45-4.26,1.59-6.42l-31.72-14.25Z"/><rect class="cls-19" x="85.57" y="8.26" width="20.38" height="10.35" rx="4.2" ry="4.2" transform="translate(13.92 -38.07) rotate(24.2)"/><rect class="cls-18" x="68.14" y="24.58" width="32.37" height="7.28" transform="translate(24.02 93.57) rotate(-65.8)"/><path class="cls-18" d="M84.26,37.23c-11.07-4.55-23.83,.48-28.78,11.47l-22.43,49.92c-.82,1.82,0,3.96,1.81,4.77l16.36,7.35L84.26,37.23Z"/><path class="cls-14" d="M82.74,40.62c-9.19-3.7-19.77,.5-23.87,9.61l-22.39,49.83,16.27,7.31,30-66.75Z"/><path class="cls-14" d="M77.81,51.6l-15.19-6.83c-1.53,1.54-2.81,3.37-3.75,5.45l-22.39,49.83,16.27,7.31,25.06-55.77Z"/><path class="cls-11" d="M68.76,40.68l-27.62,61.47,4.35,1.96,29.11-64.78c-2.02,.13-3.99,.6-5.85,1.36Z"/><rect class="cls-11" x="25.27" y="72.86" width="61.14" height="4.77" transform="translate(-35.68 95.34) rotate(-65.8)"/><path class="cls-18" d="M97.22,8.41l-6.49-2.92c-1.18-.53-2.56,0-3.09,1.18l-2.32,5.17c-.53,1.18,0,2.57,1.18,3.09l6.49,2.92,4.24-9.44Z"/><g><rect class="cls-7" x="32.44" y="74.34" width="59.66" height="8.02" transform="translate(-37.65 72.58) rotate(-48.22)"/><rect class="cls-4" x="79.89" y="53.11" width="2.71" height="8.02" transform="translate(-15.48 79.64) rotate(-48.22)"/><path class="cls-8" d="M45.13,103.04c-.09-.08-.16-.16-.24-.24l45.15-50.53c.09,.07,.18,.14,.26,.21,2.5,2.24,2.72,6.11,.48,8.62l-37.04,41.45c-2.24,2.5-6.11,2.72-8.61,.48Z"/><path class="cls-4" d="M90.74,60.15c.99-1.11,1.44-2.53,1.36-3.92-.08-1.39-.68-2.75-1.8-3.74-2.09-1.86-5.24-1.81-7.26,.03-.14,.13-.27,.26-.4,.4-.66,.74-1.08,1.61-1.26,2.52-.1,.46-.13,.94-.11,1.4,.08,1.39,.68,2.75,1.8,3.74,1.11,1,2.53,1.44,3.92,1.37,1.39-.08,2.75-.69,3.74-1.8Z"/><path class="cls-13" d="M88.72,54.26c-1.18-1.06-3.01-.96-4.07,.23-1.06,1.18-.96,3.01,.23,4.07,1.18,1.06,3.01,.96,4.07-.23,1.06-1.18,.96-3.01-.23-4.07Z"/><path class="cls-13" d="M84.73,58.42l2.19-2.45-3.87-3.46c-.14,.13-.27,.26-.4,.4-.66,.74-1.08,1.61-1.26,2.52l3.35,2.99Z"/></g></g><g><path class="cls-17" d="M107.09,122.73h20.99l-15.77-40.55c-1.85-4.75-7.25-7.13-12-5.28l-.96,.37c-4.75,1.85-7.13,7.25-5.28,12l13.01,33.46Z"/><path class="cls-15" d="M86.5,122.73h20.99l-15.77-40.55c-1.85-4.75-7.25-7.13-12-5.28l-.96,.37c-4.75,1.85-7.13,7.25-5.28,12l13.01,33.46Z"/><path class="cls-16" d="M65.91,122.73h20.99l-15.77-40.55c-1.85-4.75-7.25-7.13-12-5.28l-.96,.37c-4.75,1.85-7.13,7.25-5.28,12l13.01,33.46Z"/><path class="cls-10" d="M45.31,122.73h20.99l-15.77-40.55c-1.85-4.75-7.25-7.13-12-5.28l-.96,.37c-4.75,1.85-7.13,7.25-5.28,12l13.01,33.46Z"/><path class="cls-9" d="M24.72,122.73h20.99l-15.77-40.55c-1.85-4.75-7.25-7.13-12-5.28l-.96,.37c-4.75,1.85-7.13,7.25-5.28,12l13.01,33.46Z"/><rect class="cls-5" x="11.3" y="75.28" width="101.21" height="17.83" rx="8.91" ry="8.91"/><path class="cls-5" d="M111.78,80.37c-1.32-2.99-4.32-5.1-7.78-5.1H19.8c-3.47,0-6.46,2.11-7.78,5.1H111.78Z"/><circle class="cls-5" cx="21.26" cy="89.43" r="9.96"/><circle class="cls-5" cx="41.19" cy="89.43" r="9.96"/><circle class="cls-5" cx="61.64" cy="89.43" r="9.96"/><circle class="cls-5" cx="82.09" cy="89.43" r="9.96"/><circle class="cls-5" cx="102.54" cy="89.43" r="9.96"/></g></g></g><path class="cls-1" d="M58.32,9.5L17.51,33.06c-1.58,.91-2.56,2.61-2.56,4.43v47.12c0,1.82,.98,3.52,2.56,4.43l40.81,23.56c.78,.45,1.66,.69,2.56,.69s1.78-.24,2.56-.69l40.81-23.56c1.58-.91,2.56-2.61,2.56-4.43V41.67H63.08V9.33c-.69-.33-1.44-.51-2.2-.51-.9,0-1.78,.24-2.56,.69Z"/><path class="cls-5" d="M106.81,84.62c0,1.82-.98,3.52-2.56,4.43l-40.81,23.56c-.78,.45-1.66,.69-2.56,.69s-1.78-.24-2.56-.69l-40.81-23.56c-1.58-.91-2.56-2.61-2.56-4.43V37.49c0-1.82,.98-3.52,2.56-4.43L58.32,9.5c.78-.45,1.66-.69,2.56-.69,.76,0,1.51,.18,2.2,.51V3.02c-.73-.15-1.46-.24-2.2-.24-1.93,0-3.85,.5-5.58,1.49L14.49,27.84c-3.45,1.99-5.58,5.67-5.58,9.66v47.12c0,3.98,2.13,7.67,5.58,9.66l40.81,23.56c1.73,1,3.65,1.49,5.58,1.49s3.85-.5,5.58-1.49l40.81-23.56c3.45-1.99,5.58-5.67,5.58-9.66V41.67h-6.03v42.95Z"/><path class="cls-5" d="M48.93,33.14c-1.37,0-2.63,.48-3.62,1.28,0,0,0,0,0-.01,0-3.18-2.58-5.77-5.77-5.77s-5.77,2.58-5.77,5.77c0,.24,.02,.47,.05,.7-1.06-1.21-2.6-1.97-4.33-1.97-3.18,0-5.77,2.58-5.77,5.77s2.58,5.77,5.77,5.77h19.43c3.18,0,5.77-2.58,5.77-5.77s-2.58-5.77-5.77-5.77Z"/></g></svg>