<?xml version="1.0" encoding="UTF-8"?><svg id="_레이어_1" xmlns="http://www.w3.org/2000/svg" viewBox="0 0 120 120"><defs><style>.cls-1{fill:#f8b908;}.cls-2{fill:#fff9c7;}.cls-3{fill:#fff;}.cls-4{fill:#64b5f6;}.cls-5{fill:#aa531e;}.cls-6{fill:#c4611e;}.cls-7{fill:#e28320;}.cls-8{fill:#1e88e5;}.cls-9{fill:#42a5f5;}</style></defs><path class="cls-4" d="M110.23,81.81V37.19c0-3.98-2.13-7.67-5.58-9.66L66.01,5.22c-3.45-1.99-7.7-1.99-11.15,0L16.21,27.53c-3.45,1.99-5.58,5.67-5.58,9.66v44.62c0,3.98,2.13,7.67,5.58,9.66l38.64,22.31c3.45,1.99,7.7,1.99,11.15,0l38.64-22.31c3.45-1.99,5.58-5.67,5.58-9.66Z"/><path class="cls-9" d="M96.37,74.56v-29.12c0-3.98-2.13-7.67-5.58-9.66l-25.22-14.56c-3.45-1.99-7.7-1.99-11.15,0l-25.22,14.56c-3.45,1.99-5.58,5.67-5.58,9.66v29.12c0,3.98,2.13,7.67,5.58,9.66l25.22,14.56c3.45,1.99,7.7,1.99,11.15,0l25.22-14.56c3.45-1.99,5.58-5.67,5.58-9.66Z"/><path class="cls-8" d="M85.46,68.26v-16.52c0-3.98-2.13-7.67-5.58-9.66l-14.31-8.26c-3.45-1.99-7.7-1.99-11.15,0l-14.31,8.26c-3.45,1.99-5.58,5.67-5.58,9.66v16.52c0,3.98,2.13,7.67,5.58,9.66l14.31,8.26c3.45,1.99,7.7,1.99,11.15,0l14.31-8.26c3.45-1.99,5.58-5.67,5.58-9.66Z"/><path class="cls-3" d="M60,7.72c.9,0,1.79,.24,2.58,.69l40.81,23.56c1.59,.92,2.58,2.63,2.58,4.46v47.12c0,1.83-.99,3.54-2.58,4.46l-40.81,23.56c-.78,.45-1.67,.69-2.58,.69s-1.79-.24-2.58-.69l-40.81-23.56c-1.59-.92-2.58-2.63-2.58-4.46V36.44c0-1.83,.99-3.54,2.58-4.46L57.42,8.42c.78-.45,1.67-.69,2.58-.69m0-6c-1.93,0-3.85,.5-5.58,1.49L13.61,26.78c-3.45,1.99-5.58,5.67-5.58,9.66v47.12c0,3.98,2.13,7.67,5.58,9.66l40.81,23.56c1.73,1,3.65,1.49,5.58,1.49s3.85-.5,5.58-1.49l40.81-23.56c3.45-1.99,5.58-5.67,5.58-9.66V36.44c0-3.98-2.13-7.67-5.58-9.66L65.58,3.22c-1.73-1-3.65-1.49-5.58-1.49h0Z"/><g><polygon class="cls-7" points="51.95 79.92 31.51 79.92 23.4 94.29 60.06 94.29 51.95 79.92"/><polygon class="cls-3" points="51.95 37.87 31.51 37.87 23.4 55.83 60.06 55.83 51.95 37.87"/><rect class="cls-2" x="31.51" y="37.87" width="20.43" height="42.05"/><polygon class="cls-1" points="31.51 37.87 23.4 53.71 23.4 94.29 31.51 79.92 31.51 37.87"/><polygon class="cls-5" points="51.95 37.87 60.06 55.83 60.06 97.89 51.95 79.92 51.95 37.87"/><polygon class="cls-7" points="88.48 79.92 68.05 79.92 59.94 97.89 96.6 97.89 88.48 79.92"/><polygon class="cls-3" points="88.48 37.87 68.05 37.87 59.94 55.83 96.6 55.83 88.48 37.87"/><rect class="cls-1" x="68.05" y="37.87" width="20.43" height="42.05"/><polygon class="cls-6" points="68.05 37.87 59.94 55.83 59.94 97.89 68.05 79.92 68.05 37.87"/><polygon class="cls-5" points="88.48 37.87 96.59 55.83 96.59 97.89 88.48 79.92 88.48 37.87"/><polygon class="cls-7" points="70.56 58.89 50.13 58.89 42.02 76.86 78.68 76.86 70.56 58.89"/><rect class="cls-2" x="50.13" y="16.84" width="20.43" height="42.05"/><polygon class="cls-7" points="83.28 72.64 77.36 72.64 74.08 66.09 83.28 66.09 83.28 72.64"/><polygon class="cls-7" points="83.28 53.81 83.28 54.27 83.28 55.59 74.08 55.59 74.08 54.27 74.08 53.81 74.08 52.49 83.28 52.49 83.28 53.81"/><path class="cls-7" d="M78.67,42.02c3.81,0,6.9,1.64,6.9,3.67s-3.09,3.67-6.9,3.67-6.9-1.64-6.9-3.67,3.09-3.67,6.9-3.67Z"/><polygon class="cls-1" points="50.13 16.84 42.02 34.81 42.02 76.86 50.13 58.89 50.13 16.84"/><polygon class="cls-5" points="70.56 16.84 78.67 34.81 78.67 76.86 70.56 58.89 70.56 16.84"/><rect class="cls-1" x="55.75" y="46.24" width="9.2" height="6.55"/><polygon class="cls-1" points="55.75 33.97 55.75 34.42 55.75 35.74 64.95 35.74 64.95 34.42 64.95 33.97 64.95 32.64 55.75 32.64 55.75 33.97"/><path class="cls-1" d="M60.35,22.18c-3.81,0-6.9,1.64-6.9,3.67s3.09,3.67,6.9,3.67,6.9-1.64,6.9-3.67-3.09-3.67-6.9-3.67Z"/><polygon class="cls-1" points="37.22 72.64 43.14 72.64 46.42 66.09 37.22 66.09 37.22 72.64"/><polygon class="cls-1" points="37.22 53.81 37.22 54.27 37.22 55.59 46.42 55.59 46.42 54.27 46.42 53.81 46.42 52.49 37.22 52.49 37.22 53.81"/><path class="cls-1" d="M41.83,42.02c-3.81,0-6.9,1.64-6.9,3.67s3.09,3.67,6.9,3.67,6.9-1.64,6.9-3.67-3.09-3.67-6.9-3.67Z"/><rect class="cls-6" x="23.4" y="94.29" width="73.19" height="3.6"/></g></svg>