<?xml version="1.0" encoding="UTF-8"?><svg id="_레이어_1" xmlns="http://www.w3.org/2000/svg" xmlns:xlink="http://www.w3.org/1999/xlink" viewBox="0 0 120 120"><defs><style>.cls-1{fill:none;}.cls-2{clip-path:url(#clippath);}.cls-3{fill:#f48e08;}.cls-4{fill:#f2f2f2;}.cls-5{fill:#ffe603;}.cls-6{fill:#fff;}.cls-7{fill:#efc807;}.cls-8{fill:#63c864;}.cls-9{fill:#d87c0e;}.cls-10{fill:#dbb30b;}.cls-11{fill:#5e230d;}.cls-12{clip-path:url(#clippath-1);}.cls-13{fill:url(#_무제_그라디언트_8);}</style><linearGradient id="_무제_그라디언트_8" x1="59" y1="113.14" x2="59" y2="3.14" gradientUnits="userSpaceOnUse"><stop offset="0" stop-color="#fff"/><stop offset=".72" stop-color="#c9ebff"/><stop offset=".88" stop-color="#a7dfff"/><stop offset="1" stop-color="#59c3ff"/></linearGradient><clipPath id="clippath"><circle class="cls-1" cx="60.5" cy="59.5" r="55.5"/></clipPath><clipPath id="clippath-1"><path class="cls-1" d="M86.41,42.59c0,11.72-12.42,21.22-27.73,21.22s-27.73-9.5-27.73-21.22,12.42-27.57,27.73-27.57,27.73,15.85,27.73,27.57Z"/></clipPath></defs><path class="cls-6" d="M33.55,23.37c-1.03,0-1.97,.36-2.71,.96,0,0,0,0,0,0,0-2.38-1.93-4.32-4.32-4.32s-4.32,1.93-4.32,4.32c0,.18,.01,.35,.04,.53-.79-.9-1.95-1.47-3.24-1.47-2.38,0-4.32,1.93-4.32,4.32s1.93,4.32,4.32,4.32h14.55c2.38,0,4.32-1.93,4.32-4.32s-1.93-4.32-4.32-4.32Z"/><path class="cls-6" d="M108.98,45.26c-.68,0-1.31,.2-1.8,.53,0,0,0,0,0,0,0-1.31-1.29-2.37-2.88-2.37s-2.88,1.06-2.88,2.37c0,.1,0,.19,.02,.29-.53-.5-1.3-.81-2.16-.81-1.59,0-2.88,1.06-2.88,2.37s1.29,2.37,2.88,2.37h9.7c1.59,0,2.88-1.06,2.88-2.37s-1.29-2.37-2.88-2.37Z"/><g><circle class="cls-13" cx="59" cy="59" r="55"/><g class="cls-2"><rect class="cls-8" x="-15" y="81" width="160" height="57"/></g><g><path class="cls-7" d="M53.53,15.69s1.75-4.15,5.56-5.1c0,0-1.03,3.33-1.14,6.08-.09,2.27-4.42-.98-4.42-.98Z"/><path class="cls-7" d="M50.03,18.17s-.45-4.48,2.43-7.14c0,0,.69,3.42,1.92,5.88,1.01,2.03-4.35,1.26-4.35,1.26Z"/><path class="cls-7" d="M24.03,66.57c-5.66-5.35-2.3-16.11-2.3-16.11,0,0,9.05,2.59,15.52,8.33,6.18,5.49,1.57,4.81,3.11,8.12,.07,.16,.43,2.04-1.67,2.44-2.55,.48-9.33,2.26-14.66-2.78Z"/><path class="cls-5" d="M58.4,44.24v46.1c16.51,0,29.9,16.76,29.9-2.05s-13.38-44.05-29.9-44.05Z"/><path class="cls-7" d="M28.5,88.29c0,18.81,13.38,2.05,29.9,2.05V44.24c-16.51,0-29.9,25.25-29.9,44.05Z"/><path class="cls-5" d="M93.12,66.57c5.66-5.35,2.3-16.11,2.3-16.11,0,0-9.05,2.59-15.52,8.33-6.18,5.49-1.57,4.81-3.11,8.12-.07,.16-.43,2.04,1.67,2.44,2.55,.48,9.33,2.26,14.66-2.78Z"/><g><path class="cls-7" d="M77.19,58.05c-5.25,3.23-12.14,4.92-19.53,4.34-.12,0-.25-.03-.37-.04l-.25,3.14c8.11-.1,15.37-2.92,20.15-7.44Z"/><path class="cls-5" d="M77.19,58.05c.19-.12,.39-.24,.58-.36-.03-.04-.05-.09-.08-.13-.16,.16-.33,.33-.5,.49Z"/></g><path class="cls-7" d="M80.08,62.77s6.1-7.82,12.4-9.29c0,0-6.91,3.02-8.75,12.17-.31,.65-3.66-2.88-3.66-2.88Z"/><path class="cls-10" d="M37.07,62.77s-6.1-7.82-12.4-9.29c0,0,6.91,3.02,8.75,12.17,.31,.65,3.66-2.88,3.66-2.88Z"/><g><path class="cls-4" d="M87.58,103.96c-1.17,1.16-2.41,2.24-3.7,3.23,0,0,0,0,0,0-7.1,5.42-16.01,8.34-24.82,8.34-13.83,0-27.67-7.12-34.77-19.9h0c-4.21-7.75-5.87-17.58-3.41-29.17l3.35,3.19,1.43,1.36,4.54,4.34,15.52-8.35,13.65,9.17,5.69-3.81,8.02-5.36,.16,.1,14.04,8.25,4.21-3.78,.6-.53,5.16-4.64c.01,.05,.02,.11,.04,.16,.08,.38,.16,.76,.24,1.14,.3,1.51,.52,3,.67,4.45,1.45,13.54-3.1,24.37-10.6,31.82Z"/><path class="cls-6" d="M87.58,103.96c-1.17,1.16-2.41,2.24-3.7,3.23-5.85,3.04-12.41,4.64-18.94,4.64-13.83,0-27.76-7.12-34.74-19.9h0c-3.19-5.84-4.92-12.86-4.53-20.92l4.53,4.34,15.52-8.35,13.65,9.17,5.69-3.81,.15,.1,5.69-3.81,2.34-1.56,14.04,8.25,4.21-3.78,.6-.53,5.16-4.64c.01,.05,.02,.11,.04,.16,.08,.38,.16,.76,.24,1.14,.3,1.51,.52,3,.67,4.45,1.45,13.54-3.1,24.37-10.6,31.82Z"/></g><g><g><path class="cls-5" d="M58.77,15.01c-.17,0-.34,.01-.52,.02V63.8c.17,0,.34,0,.52,0,15.32,0,27.73-9.5,27.73-21.22s-12.42-27.57-27.73-27.57Z"/><path class="cls-7" d="M31.04,42.59c0,11.59,12.14,21,27.21,21.21V15.03c-15.08,.35-27.21,15.97-27.21,27.56Z"/></g><g class="cls-12"><rect class="cls-1" x="30.23" y="14.05" width="28.08" height="50.73"/><path class="cls-1" d="M41.84,50.38c0,3.83-3.11,6.95-6.95,6.95s-6.95-3.11-6.95-6.95,3.11-6.95,6.95-6.95,6.95,3.11,6.95,6.95Z"/><path class="cls-1" d="M89.8,50.42c0,3.84-3.11,6.95-6.95,6.95s-6.95-3.11-6.95-6.95,3.11-6.94,6.95-6.94,6.95,3.11,6.95,6.94Z"/></g><path class="cls-11" d="M50.12,42.19c0,1.7-1.38,3.08-3.08,3.08s-3.08-1.38-3.08-3.08,1.38-3.08,3.08-3.08,3.08,1.38,3.08,3.08Z"/><path class="cls-6" d="M46.53,41.09c0,.48-.39,.87-.86,.87s-.87-.39-.87-.87,.39-.87,.87-.87,.86,.39,.86,.87Z"/><path class="cls-6" d="M48.31,42.09c0,.28-.23,.51-.51,.51s-.51-.23-.51-.51,.23-.51,.51-.51,.51,.23,.51,.51Z"/><g><path class="cls-11" d="M73.57,42.19c0,1.7-1.38,3.08-3.08,3.08s-3.08-1.38-3.08-3.08,1.38-3.08,3.08-3.08,3.08,1.38,3.08,3.08Z"/><path class="cls-6" d="M69.98,41.09c0,.48-.39,.87-.87,.87s-.87-.39-.87-.87,.39-.87,.87-.87,.87,.39,.87,.87Z"/><path class="cls-6" d="M71.76,42.09c0,.28-.23,.51-.51,.51s-.51-.23-.51-.51,.23-.51,.51-.51,.51,.23,.51,.51Z"/></g><path class="cls-3" d="M69.55,50.78l-10.79,4.72-11.04-4.27s4.94-9.66,11.04-9.66,10.79,9.2,10.79,9.2Z"/></g><path class="cls-11" d="M62.47,45.46c0,.46-.37,.84-.84,.84s-.84-.37-.84-.84,.37-.84,.84-.84,.84,.37,.84,.84Z"/><path class="cls-9" d="M58.32,41.59c-5.89,.46-10.58,9.64-10.58,9.64l10.58,4.09v-13.73Z"/><path class="cls-11" d="M56.92,45.46c0,.46-.37,.84-.84,.84s-.84-.37-.84-.84,.37-.84,.84-.84,.84,.37,.84,.84Z"/></g><path class="cls-6" d="M60,8.19c28.84,0,52.31,23.47,52.31,52.31s-23.47,52.31-52.31,52.31S7.69,89.34,7.69,60.5,31.16,8.19,60,8.19m0-6.19C27.69,2,1.5,28.19,1.5,60.5s26.19,58.5,58.5,58.5,58.5-26.19,58.5-58.5S92.31,2,60,2h0Z"/></g></svg>