<?xml version="1.0" encoding="UTF-8"?><svg id="_레이어_1" xmlns="http://www.w3.org/2000/svg" xmlns:xlink="http://www.w3.org/1999/xlink" viewBox="0 0 120 120"><defs><style>.cls-1{fill:none;}.cls-2{fill:#f7f7f7;}.cls-3{fill:#f5f5f5;}.cls-4,.cls-5{fill:#fff;}.cls-6{fill:#efbf69;}.cls-7{fill:#304a51;}.cls-8{fill:#ddae64;}.cls-9{fill:#41585e;}.cls-10{fill:#31d8f4;}.cls-11{clip-path:url(#clippath-1);}.cls-12{clip-path:url(#clippath-2);}.cls-5{opacity:.2;}</style><clipPath id="clippath"><circle class="cls-1" cx="200" cy="-80" r="58.5"/></clipPath><clipPath id="clippath-1"><path class="cls-1" d="M106.35,23.51c0-2.62-2.12-4.74-4.74-4.74h-8.49c-4.85-8.84-17.91-15.17-33.27-15.17s-28.43,6.33-33.27,15.17h-8.49c-2.62,0-4.74,2.12-4.74,4.74v61.55c0,17.3,20.82,31.33,46.5,31.33s46.5-14.03,46.5-31.33V23.51Z"/></clipPath><clipPath id="clippath-2"><circle class="cls-1" cx="60.5" cy="-79.88" r="56.5"/></clipPath></defs><g><g class="cls-11"><g><rect class="cls-10" x="-2.61" y="1.38" width="125" height="122"/><g><polygon class="cls-5" points="60.89 74.38 -41.11 82.88 -41.11 64.88 60.89 74.38"/><polygon class="cls-5" points="60.89 74.38 -23.19 132.74 -32.19 117.15 60.89 74.38"/><polygon class="cls-5" points="60.89 74.38 17.25 166.96 1.66 157.96 60.89 74.38"/><polygon class="cls-5" points="60.89 74.38 69.39 176.38 51.39 176.38 60.89 74.38"/><polygon class="cls-5" points="60.89 74.38 119.25 158.46 103.66 167.46 60.89 74.38"/><polygon class="cls-5" points="60.89 74.38 153.48 118.02 144.48 133.6 60.89 74.38"/><polygon class="cls-5" points="60.89 74.38 162.89 65.88 162.89 83.88 60.89 74.38"/><polygon class="cls-5" points="60.89 74.38 144.98 16.02 153.98 31.6 60.89 74.38"/><polygon class="cls-5" points="60.89 74.38 104.53 -18.21 120.12 -9.21 60.89 74.38"/><polygon class="cls-5" points="60.89 74.38 52.39 -27.62 70.39 -27.62 60.89 74.38"/><polygon class="cls-5" points="60.89 74.38 2.53 -9.71 18.12 -18.71 60.89 74.38"/><polygon class="cls-5" points="60.89 74.38 -31.69 30.74 -22.69 15.15 60.89 74.38"/></g></g></g><path class="cls-2" d="M88.66,60.26c0-.27-2.48-.49-5.64-.51-.02-3.16-.24-5.64-.51-5.64s-.49,2.48-.51,5.64c-3.16,.02-5.64,.24-5.64,.51s2.48,.49,5.64,.51c.02,3.16,.24,5.64,.51,5.64s.49-2.48,.51-5.64c3.16-.02,5.64-.24,5.64-.51Z"/><path class="cls-4" d="M60,7.18c13.23,0,25.34,5.23,29.44,12.71l1.71,3.12h11.35v63.14c0,14.46-19.46,26.68-42.5,26.68s-42.5-12.22-42.5-26.68V23h11.35l1.71-3.12c4.1-7.48,16.21-12.71,29.44-12.71m0-6c-16.02,0-29.65,6.61-34.7,15.82h-8.86c-2.73,0-4.94,2.21-4.94,4.94V86.14c0,18.05,21.71,32.68,48.5,32.68s48.5-14.63,48.5-32.68V21.94c0-2.73-2.21-4.94-4.94-4.94h-8.86C89.65,7.79,76.02,1.18,60,1.18h0Z"/><g><path class="cls-6" d="M79.44,105.5c-7.09,3.1-13.94,5.92-21.95,5.61-6.59-.26-13-2.86-17.46-7.48-8.33-8.6-5.34-23.82,7.7-26.16,6.96-1.25,14.19,.24,20.97-2.17,5.71-2.04,10.71-6.12,11-12.23,.29-6.19-4.89-11.02-10.13-13.96-5.3-2.97-11.56-4.07-16.63-7.45-2.7-1.81-4.76-4.46-4.7-7.68,.06-3.25,2.14-6.2,4.64-8.3,6.67-5.62,16.98-4.49,25.17-3.77,3.12,.28,3.03-4.2,0-4.55-8.35-.96-17.64-1.89-25.32,2.13-5.83,3.05-10.68,9.24-10.11,15.76,.58,6.66,6.09,11.01,12.08,13.75,5.93,2.71,13.54,4.31,17.42,9.79,4.23,5.97-2.3,10.39-8,11.6-7.97,1.7-16.2-.45-23.84,3.11-5.89,2.74-9.86,8.58-11.04,14.56-1.3,6.58,.49,13.08,4.87,18.33,11.33,13.62,34.29,14.07,48.52,4.26,3.27-2.26,.53-6.75-3.18-5.13Z"/><path class="cls-7" d="M84.97,78.6l6.51,1.1c-2.09,2.53-7.26,7.25-16.9,7.42-9.26,.17-10.24-28.74-10.01-46h3.22c.75,.65,1.72,1.04,2.78,1.04,2.35,0,4.26-1.91,4.26-4.26s-1.91-4.26-4.26-4.26c-1.06,0-2.04,.39-2.78,1.04h-3.07c.06-1.83,.13-3.32,.18-4.38,3.9-1.84,6.59-5.81,6.59-10.4,0-6.35-5.15-11.5-11.5-11.5s-11.5,5.15-11.5,11.5c0,4.6,2.7,8.56,6.59,10.4,.05,1.06,.12,2.55,.18,4.38h-3.07c-.75-.65-1.72-1.04-2.78-1.04-2.35,0-4.26,1.91-4.26,4.26s1.91,4.26,4.26,4.26c1.06,0,2.04-.39,2.78-1.04h3.22c.24,17.26-.75,46.16-10.01,46-9.64-.17-14.81-4.89-16.9-7.42l6.51-1.1-15.23-9.27v16.84l4.44-3.96c3.57,3.68,12.12,12.22,16.45,14.21,5.56,2.55,18.69,7.99,19.25,11.3,.02,.12,.04,.12,.06,.04,.02,.09,.04,.08,.06-.04,.56-3.32,13.69-8.75,19.25-11.3,4.33-1.99,12.89-10.53,16.45-14.21l4.44,3.96v-16.84l-15.23,9.27ZM60,13.93c3.3,0,5.98,2.68,5.98,5.98s-2.68,5.98-5.98,5.98-5.98-2.68-5.98-5.98,2.68-5.98,5.98-5.98Z"/><path class="cls-9" d="M59.82,25.88c-3.21-.09-5.8-2.73-5.8-5.97s2.59-5.87,5.8-5.97v-5.52c-6.27,.09-11.32,5.2-11.32,11.49,0,4.6,2.7,8.56,6.59,10.4,.05,1.06,.12,2.55,.18,4.38h-3.07c-.75-.65-1.72-1.04-2.78-1.04-2.35,0-4.26,1.91-4.26,4.26s1.91,4.26,4.26,4.26c1.06,0,2.04-.39,2.78-1.04h3.22c.24,17.26-.75,46.16-10.01,46-9.64-.17-14.81-4.89-16.9-7.42l6.51-1.1-15.23-9.27v16.84l4.44-3.96c3.57,3.68,12.12,12.22,16.45,14.21,5.36,2.46,17.71,7.58,19.13,10.92V25.88Z"/><path class="cls-6" d="M65.56,19.9c0,.51-.06,1-.18,1.47-3.48,.21-6.87,.9-9.81,2.48-.1,.05-.21,.11-.31,.17-.14,.08-.28,.16-.42,.25-.28,.17-.56,.35-.84,.54-.18,.13-.37,.26-.55,.4-.17,.13-.33,.26-.5,.4-.02,.02-.05,.04-.07,.06-.14,.12-.28,.24-.42,.37-.09,.08-.19,.16-.28,.26-.02,0-.03,.02-.04,.04-.12,.11-.24,.23-.36,.35-.18,.18-.35,.36-.52,.55-.08,.09-.16,.18-.24,.27-.61,.71-1.15,1.47-1.58,2.28-.38,.69-.68,1.41-.88,2.16-.15,.57-.25,1.15-.28,1.75,0,.04,0,.07,0,.11,0,.05,0,.09,0,.14v.04c0,.78,.1,1.52,.32,2.23,.37,1.25,1.07,2.38,1.98,3.37,.49,.54,1.05,1.04,1.65,1.5,.01,.01,.03,.02,.04,.03,.09,.07,.18,.14,.28,.21,.14,.1,.28,.2,.43,.29,.68,.45,1.38,.87,2.1,1.25,.15,.08,.31,.16,.47,.24,.01,1.96,.01,4.03-.01,6.18-.16-.06-.31-.13-.47-.2-.11-.04-.21-.09-.32-.14-.63-.29-1.26-.59-1.87-.92-.58-.3-1.15-.62-1.7-.96-4.46-2.73-8.05-6.56-8.51-11.86-.3-3.46,.93-6.83,3.02-9.69,.32-.44,.67-.87,1.03-1.28h0c.23-.27,.47-.53,.71-.78,.33-.33,.66-.66,1.01-.97,.05-.04,.1-.09,.16-.14,.07-.07,.15-.14,.23-.21,1.22-1.04,2.55-1.95,3.94-2.67,.31-.16,.63-.32,.95-.46,.17-.08,.34-.16,.51-.23,3.27-1.42,6.79-2.04,10.38-2.21,.63,.95,1.01,2.09,1.01,3.31Z"/><path class="cls-6" d="M80.11,63.08c-.28,6.11-5.29,10.19-11,12.23-.7,.25-1.41,.46-2.12,.63-2.2,.54-4.44,.75-6.69,.84-2.35,.1-4.71,.08-7.05,.19-.16,0-.32,.01-.48,.02-1.55,.07-3.09,.22-4.63,.49-5.35,.96-9.01,4.09-10.88,8.03-.02,.05-.05,.1-.07,.15-1.51-.55-2.83-1.21-3.96-1.91-.06,.04-.13,0-.1-.06-.48-.3-.93-.61-1.34-.92,0,0-.02,.02-.04,.02-.15,.1-.29-.04-.2-.21,.04-.08,.09-.17,.14-.26,.63-1.22,1.39-2.38,2.26-3.46,.02-.03,.05-.06,.07-.09,.14-.18,.29-.35,.44-.52,.05-.06,.1-.12,.16-.18,1.68-1.9,3.72-3.48,6.07-4.58,.64-.3,1.29-.55,1.94-.78,.82-.28,1.65-.51,2.48-.7,2.89-.63,5.84-.74,8.8-.8,.16,0,.31,0,.47,0h0c1.98-.04,3.95-.07,5.93-.23,1.42-.11,2.83-.29,4.23-.59,.46-.1,.93-.22,1.4-.36,5.29-1.58,10.49-5.76,6.6-11.24-1.93-2.72-4.77-4.48-7.88-5.91-.06-2.12-.09-4.21-.09-6.21,1.86,.71,3.69,1.48,5.42,2.45,5.24,2.94,10.42,7.77,10.13,13.96Z"/><path class="cls-8" d="M81.43,111.4c-1.51,.95-3.1,1.79-4.77,2.52,.34-.49,.64-1.03,.86-1.67,.63-1.8,.85-4.18-.05-5.91,.65-.28,1.3-.56,1.95-.85,.54-.24,1.06-.34,1.55-.34,.75,1.72,.86,3.99,.45,6.25Z"/><path class="cls-8" d="M73.4,115.19c-1.45,.49-2.93,.89-4.44,1.22,.26-.38,.5-.8,.69-1.28,.81-2.02,.7-3.97,.09-5.84,1.1-.34,2.2-.72,3.28-1.14,.83,2.23,.97,4.73,.37,7.03Z"/><path class="cls-8" d="M63.52,117.22c-1.33,.11-2.67,.16-4,.14,.1-.16,.2-.33,.3-.51,.98-1.9,1.11-3.85,.7-5.78,1.2-.06,2.37-.2,3.52-.39,.42,2.17,.24,4.47-.52,6.54Z"/><path class="cls-8" d="M55.21,110.92c-.14,1.32-.66,2.63-1.5,3.79-.46,.65-1.08,1.28-1.78,1.86h0c-1.68-.34-3.31-.8-4.91-1.37,1.12-.34,2.24-.74,3.18-1.59,.97-.87,1.62-2.05,1.78-3.27,1.06,.26,2.14,.46,3.22,.59Z"/><path class="cls-8" d="M46.18,108.16c-1.53,1.67-3.54,3-5.73,3.81-1.25-.81-2.44-1.71-3.55-2.72,2.43-.39,4.47-1.3,6.33-2.88h0c.93,.66,1.91,1.26,2.94,1.79Z"/><path class="cls-8" d="M39.63,103.2c-2.21,.87-4.69,1.18-6.99,1.04-.04,0-.08,0-.12,0-.86-1.3-1.58-2.65-2.15-4.05,.82,.26,1.69,.44,2.65,.49,1.57,.06,3.01-.16,4.41-.56,.59,1.09,1.33,2.13,2.2,3.09Z"/><path class="cls-8" d="M35.5,96.28c-2.28-.06-4.98-1.38-6.68-2.45,.02-1.26,.15-2.54,.41-3.81,.36,.31,.75,.6,1.16,.87,1.18,.77,2.47,1.38,3.83,1.75,.39,.1,.79,.17,1.19,.23-.09,1.13-.06,2.27,.09,3.41Z"/><path class="cls-8" d="M39.71,81.47c-.84,.82-1.55,1.72-2.15,2.7-1.57-1.64-2.6-3.91-3.08-6-.02-.11-.05-.23-.07-.35,.91-.99,1.92-1.9,3.02-2.68,.01,.72,.11,1.44,.26,2.14,.38,1.69,1.13,2.97,2.02,4.19Z"/><path class="cls-8" d="M48.37,77.36c-.22,.03-.43,.07-.65,.11-.81,.14-1.59,.34-2.32,.58-.69-1.85-.96-4.01-.74-6.05,1.17-.26,2.36-.43,3.55-.55-.2,.56-.34,1.16-.4,1.83-.11,1.43,.13,2.78,.57,4.08Z"/><path class="cls-8" d="M58.03,72.66c-.65,1.41-.75,2.78-.54,4.17-1.03,.02-2.06,.03-3.09,.06-.23-1.89,0-3.94,.68-5.74,1.37-.02,2.73-.06,4.09-.15-.45,.47-.84,1-1.15,1.66Z"/><path class="cls-8" d="M68.88,68.6c-.96,2.26-1.54,4.48-.69,6.86-1.1,.36-2.22,.63-3.34,.82-.67-1.88-.62-3.98-.15-6.05,1.43-.35,2.88-.9,4.18-1.63Z"/><path class="cls-8" d="M79.59,64.12c-.21,1.51-.72,2.88-1.45,4.12-1.16,.26-2.36,.36-3.55,.3-1.26-.06-2.89-.27-4.33-.8,1.2-.86,2.16-1.89,2.71-3.06,.52,.18,1.06,.32,1.62,.36,1.81,.13,3.43-.24,5-.92Z"/><path class="cls-8" d="M77.94,56.62c-1.06,1.94-2.7,3.53-4.64,4.63-.19-.79-.58-1.63-1.19-2.49-.14-.2-.28-.39-.43-.58,1.73-1.04,3.01-2.67,3.83-4.65,.94,.95,1.77,1.98,2.44,3.09Z"/><path class="cls-8" d="M68.37,55.15c-.93-.64-1.92-1.21-2.96-1.72,.05-.15,.08-.32,.12-.49,.39-2.02-.15-4.07-.76-6.05,1.27,.5,2.53,1.04,3.74,1.65,.5,2.2,.61,4.45-.15,6.6Z"/><path class="cls-8" d="M51.78,40.8c-1.3,1.37-3.12,2.27-5.1,2.84-.85-.86-1.6-1.8-2.22-2.81,1.99-.36,3.76-1.04,5.08-2.48,.59,.91,1.36,1.73,2.24,2.46Z"/><path class="cls-8" d="M49.42,29.77c-.53,.97-.92,2.02-1.08,3.1-1.13-.41-2.18-1.04-3.1-1.81-.56-.46-1.16-1.06-1.71-1.75,.46-1.18,1.08-2.32,1.82-3.38,.05,.14,.12,.28,.19,.41,.46,.86,1.11,1.62,1.87,2.25,.63,.51,1.31,.89,2.02,1.17Z"/><path class="cls-8" d="M55.37,23.94c-.88,.48-1.71,1.05-2.5,1.72-.02,.02-.05,.04-.07,.06-.9-1.68-1.31-3.72-1.17-5.64,.36-.21,.72-.42,1.09-.61,.86-.45,1.75-.84,2.65-1.17-.45,1.22-.79,2.43-.56,3.89,.1,.65,.3,1.22,.57,1.75Z"/><path class="cls-8" d="M64.56,16.59c-.65,.85-1.27,1.76-1.69,2.91-.29,.77-.48,1.57-.61,2.37-.95,.1-1.9,.24-2.82,.46,.1-1.28,.36-2.55,.77-3.79,.19-.59,.43-1.2,.7-1.8,1.21-.13,2.43-.17,3.66-.16Z"/><path class="cls-8" d="M78.01,17.34c-.6,.52-1.17,1.1-1.63,1.83-.46,.74-.89,1.58-1.23,2.47-1.03-.08-2.08-.16-3.13-.23,.27-1.44,.81-2.82,1.7-4.2,.06-.1,.13-.2,.2-.3,1.38,.13,2.75,.28,4.1,.43Z"/><path class="cls-3" d="M57.35,54.79h0c-.59,0-1.07-.48-1.07-1.07v-6.12c0-.59,.48-1.07,1.07-1.07h0c.59,0,1.07,.48,1.07,1.07v6.12c0,.59-.48,1.07-1.07,1.07Z"/><polygon class="cls-4" points="51.42 87.59 52.74 90.01 55.16 91.33 52.74 92.65 51.42 95.07 50.1 92.65 47.68 91.33 50.1 90.01 51.42 87.59"/></g></g><g class="cls-12"><g><polygon class="cls-5" points="60.28 -90.65 16.64 1.93 1.05 -7.07 60.28 -90.65"/><polygon class="cls-5" points="60.28 -90.65 68.78 11.35 50.78 11.35 60.28 -90.65"/><polygon class="cls-5" points="60.28 -90.65 118.64 -6.57 103.05 2.43 60.28 -90.65"/></g></g></svg>