<?xml version="1.0" encoding="UTF-8"?><svg id="_레이어_1" xmlns="http://www.w3.org/2000/svg" xmlns:xlink="http://www.w3.org/1999/xlink" viewBox="0 0 120 120"><defs><style>.cls-1{fill:none;}.cls-2{clip-path:url(#clippath);}.cls-3{mask:url(#mask);}.cls-4{filter:url(#luminosity-noclip-2);}.cls-5{fill:#ffde3e;}.cls-6{fill:#e3e4e4;}.cls-7,.cls-8{fill:#fff;}.cls-9{fill:#fff8c2;}.cls-10{fill:#fff39c;}.cls-11{fill:#ffeb73;}.cls-12{fill:#ffbf1f;}.cls-13{fill:#ffbe06;}.cls-14{fill:#ffc533;}.cls-15{fill:#00a0e1;}.cls-16{fill:#a9aaaa;}.cls-17{fill:#cd000d;}.cls-18{fill:#e2a213;}.cls-19{fill:#e1e3e7;}.cls-20,.cls-21{fill:#231815;}.cls-22{fill:#4c4948;}.cls-23{clip-path:url(#clippath-1);}.cls-24{fill:url(#_무제_그라디언트_28);}.cls-25{fill:url(#linear-gradient-2);}.cls-26{opacity:.2;}.cls-27{fill:url(#linear-gradient);mix-blend-mode:multiply;}.cls-28{mask:url(#mask-1);}.cls-8{opacity:.7;}.cls-21{opacity:.36;}</style><linearGradient id="_무제_그라디언트_28" x1="59.82" y1="7.56" x2="59.82" y2="114.05" gradientUnits="userSpaceOnUse"><stop offset="0" stop-color="#0c2561"/><stop offset=".31" stop-color="#14477e"/><stop offset=".84" stop-color="#2280af"/></linearGradient><clipPath id="clippath"><path class="cls-1" d="M91.56,1.49H28.44C15.53,1.49,5.06,11.58,5.06,24.02v50.68c0,23.64,24.6,42.8,54.94,42.8s54.94-19.16,54.94-42.8V24.02c0-12.44-10.47-22.52-23.38-22.52Z"/></clipPath><clipPath id="clippath-1"><path class="cls-1" d="M96.79,65.74c.08,21.45-16.36,24.38-36.66,24.46-20.29,.07-36.76-2.74-36.84-24.19S39.61,29.62,59.91,29.54c20.29-.07,36.8,14.75,36.88,36.19Z"/></clipPath><filter id="luminosity-noclip-2" x="32.56" y="54.94" width="56.11" height="56.11" color-interpolation-filters="sRGB" filterUnits="userSpaceOnUse"><feFlood flood-color="#fff" result="bg"/><feBlend in="SourceGraphic" in2="bg"/></filter><filter id="luminosity-noclip-3" x="8182" y="-8532" width="-32766" height="32766" color-interpolation-filters="sRGB" filterUnits="userSpaceOnUse"><feFlood flood-color="#fff" result="bg"/><feBlend in="SourceGraphic" in2="bg"/></filter><mask id="mask-1" x="8182" y="-8532" width="-32766" height="32766" maskUnits="userSpaceOnUse"/><linearGradient id="linear-gradient" x1="58.39" y1="81.14" x2="87.1" y2="103.48" gradientUnits="userSpaceOnUse"><stop offset="0" stop-color="#000"/><stop offset="1" stop-color="#fff"/></linearGradient><mask id="mask" x="32.56" y="54.94" width="56.11" height="56.11" maskUnits="userSpaceOnUse"><g class="cls-4"><g class="cls-28"><path class="cls-27" d="M68.08,54.94c.74,2.55,1.15,5.24,1.15,8.03,0,15.81-12.82,28.63-28.63,28.63-2.79,0-5.48-.41-8.03-1.15,3.47,11.9,14.46,20.6,27.48,20.6,15.81,0,28.63-12.82,28.63-28.63,0-13.02-8.7-24.01-20.6-27.48Z"/></g></g></mask><linearGradient id="linear-gradient-2" x1="58.39" y1="81.14" x2="87.1" y2="103.48" gradientUnits="userSpaceOnUse"><stop offset="0" stop-color="#ff3b00"/><stop offset="1" stop-color="#ff8d00"/></linearGradient></defs><path class="cls-24" d="M90.41,3.47H29.23C16.72,3.47,6.57,13.24,6.57,25.3v49.12c0,22.91,23.84,41.48,53.25,41.48s53.25-18.57,53.25-41.48V25.3c0-12.06-10.14-21.83-22.66-21.83Z"/><path class="cls-7" d="M45.47,21.74c-4.14,0-7.5-3.36-7.5-7.5,0,4.14-3.36,7.5-7.5,7.5,4.14,0,7.5,3.36,7.5,7.5,0-4.14,3.36-7.5,7.5-7.5Z"/><g class="cls-2"><g><g><path class="cls-16" d="M86.83,126.57h0c-2.9-.5-4.87-3.28-4.37-6.18l2.17-12.66c.5-2.9,3.28-4.87,6.18-4.37h0c2.9,.5,4.87,3.28,4.37,6.18l-2.17,12.66c-.5,2.9-3.28,4.87-6.18,4.37Z"/><path class="cls-17" d="M93.07,104.32l-3.46,21.97c1.72-.65,3.07-2.17,3.4-4.1l2.17-12.66c.35-2.05-.53-4.05-2.11-5.21Z"/><path class="cls-16" d="M32.47,126.76h0c2.9-.52,4.84-3.31,4.33-6.21l-2.26-12.64c-.52-2.9-3.31-4.84-6.21-4.33h0c-2.9,.52-4.84,3.31-4.33,6.21l2.26,12.64c.52,2.9,3.31,4.84,6.21,4.33Z"/><path class="cls-17" d="M26.07,104.57l3.62,21.95c-1.73-.64-3.09-2.15-3.43-4.08l-2.26-12.64c-.37-2.05,.5-4.05,2.07-5.23Z"/><path class="cls-6" d="M38.36,151.25l43.13-.16c2.36,0,4.53-1.31,5.63-3.4,.99-1.86,1.54-3.98,1.53-6.23l-.13-34.54c0-2.43-1.98-4.39-4.41-4.38l-48.74,.18c-2.43,0-4.39,1.98-4.38,4.41l.13,34.54c0,2.24,.58,4.36,1.58,6.22,1.12,2.08,3.29,3.36,5.65,3.36Z"/><path class="cls-7" d="M76.87,102.58l-34.25,.13c-.83,0-1.5,.67-1.51,1.49-.32,19.97-8.49,24.41-11.45,25.37-.63,.2-1.06,.79-1.05,1.45l.04,11.12c0,.84,.69,1.52,1.52,1.51l59.46-.22c.84,0,1.52-.69,1.51-1.52l-.04-11.12c0-.66-.43-1.25-1.07-1.44-2.97-.93-11.18-5.31-11.64-25.28-.02-.83-.7-1.49-1.52-1.48Z"/><rect class="cls-16" x="44.25" y="115.43" width="31.15" height="18.39" rx="3.93" ry="3.93" transform="translate(-.46 .22) rotate(-.21)"/><g><circle class="cls-22" cx="68.47" cy="120.98" r="2.03"/><rect class="cls-22" x="48.53" y="119.57" width="15.46" height="3.05" transform="translate(-.44 .21) rotate(-.21)"/></g></g><g><path class="cls-16" d="M28.56,77.07l-12.08,.04c-4.64,.02-8.44-3.76-8.46-8.4l-.05-15.01c-.02-4.64,3.76-8.44,8.4-8.46l12.08-.04c.31,0,.57,.25,.57,.57l.11,30.74c0,.31-.25,.57-.57,.57Z"/><circle class="cls-7" cx="13.78" cy="53.8" r="2.8"/><circle class="cls-7" cx="13.83" cy="68.81" r="2.8"/><path class="cls-16" d="M91.52,76.84l12.08-.04c4.64-.02,8.42-3.82,8.4-8.46l-.05-15.01c-.02-4.64-3.82-8.42-8.46-8.4l-12.08,.04c-.31,0-.57,.26-.57,.57l.11,30.74c0,.31,.26,.57,.57,.57Z"/><circle class="cls-22" cx="105.37" cy="70.3" r="1.82"/><circle class="cls-22" cx="105.31" cy="52.41" r="3.65"/><path class="cls-7" d="M90.86,91.07c6.65-7.57,10.67-17.52,10.63-28.3-.08-23.19-18.95-39.95-42.14-39.86-23.19,.08-41.93,16.98-41.84,40.17,.04,10.78,4.14,20.7,10.84,28.22l62.51-.23Z"/><path class="cls-19" d="M59.95,78.54c-15.77,.06-30.28-2.91-41.74-7.92,1.44,7.83,5.03,14.95,10.14,20.68l62.51-.23c4.98-5.68,8.49-12.69,9.92-20.38-11.28,4.87-25.44,7.79-40.82,7.85Z"/><path class="cls-20" d="M96.26,66.04c.08,21.45-16.36,24.38-36.66,24.46-20.29,.07-36.76-2.74-36.84-24.19S39.08,29.92,59.38,29.85c20.29-.07,36.8,14.75,36.88,36.19Z"/><path class="cls-20" d="M90.49,59.9c-.05-13.95-10.89-25.73-25.83-29.73-1.72-.22-3.49-.33-5.28-.32-20.29,.07-36.69,15.02-36.61,36.46,.02,4.18,.65,7.65,1.82,10.53,6.82,4.95,17.23,6.99,28.87,6.94,20.5-.07,37.09-6.58,37.03-23.88Z"/><path class="cls-7" d="M65.42,36.34c1.16,.02,1.37-1.66,.24-1.93-2.49-.61-5.1-.92-7.78-.91-17.57,.06-31.77,13.87-31.69,33.7,0,.03,0,.07,0,.1,0,1.18,1.72,1.34,1.94,.18,1.12-5.97,3.42-11.3,6.61-15.79,0,1.17,.31,2.28,.99,3.2,2.16,2.93,7.15,2.92,11.15-.02,4-2.94,5.49-7.7,3.34-10.63-1.16-1.57-3.13-2.3-5.33-2.18,5.75-3.65,12.56-5.69,19.86-5.72,.23,0,.45,0,.68,0Z"/><path class="cls-15" d="M89.52,102.53l-60.29,.22c-1.41,0-2.57-1.15-2.58-2.56h0c0-1.41,1.15-2.57,2.56-2.58l60.29-.22c1.41,0,2.57,1.15,2.58,2.56h0c0,1.41-1.15,2.57-2.56,2.58Z"/><path class="cls-7" d="M91.03,98.71l-64.27,.23c-2.1,0-3.83-1.7-3.83-3.81h0c0-2.1,1.7-3.83,3.81-3.83l64.27-.23c2.1,0,3.83,1.7,3.83,3.81h0c0,2.1-1.7,3.83-3.81,3.83Z"/></g></g></g><g class="cls-23"><g><g><g><g><path class="cls-9" d="M72.88,61.69c1.68,0,3.72-.36,5.72-1.07-5-4.26-11.47-6.83-18.55-6.83-3.64,0-7.12,.69-10.33,1.93,6.5,4.99,15.47,6.57,23.16,5.98Z"/><path class="cls-10" d="M80.98,65.74c.53-.36,1.1-.63,1.69-.85-1.21-1.56-2.57-2.99-4.08-4.27-1.99,.71-4.03,1.07-5.72,1.07-7.69,.59-16.66-.99-23.16-5.98-3.37,1.31-6.44,3.23-9.05,5.64,11.42,9.07,25.56,12.82,40.32,4.39Z"/><path class="cls-11" d="M87.16,73.22c-1.03-3.04-2.56-5.85-4.49-8.33-.59,.22-1.15,.5-1.69,.85-14.75,8.43-28.89,4.68-40.32-4.39-2.01,1.85-3.75,3.99-5.17,6.34,6.72,2.22,11.16,9.36,17.93,11.82,12.86,5.51,23.4,.38,33.73-6.3Z"/><path class="cls-13" d="M46.14,101.4c-4.76-2.64-8.48-7-13.19-9.72,3.85,11.27,14.52,19.38,27.09,19.38,4.01,0,7.82-.83,11.28-2.32-8.61,.48-17.63-2.45-25.19-7.34Z"/><path class="cls-14" d="M87.67,89.93c-15.04,9.49-36.24,7.74-51.26-5.55-1.42-1.06-3.14-1.04-4.97-.82,.11,2.83,.64,5.55,1.51,8.11,4.71,2.72,8.43,7.08,13.19,9.72,7.56,4.89,16.58,7.82,25.19,7.34,7.95-3.42,14.05-10.33,16.35-18.81Z"/><path class="cls-5" d="M36.41,84.38c15.02,13.29,36.22,15.03,51.26,5.55,.65-2.39,1-4.91,1-7.51,0-3.22-.54-6.31-1.52-9.2-10.33,6.68-20.87,11.81-33.73,6.3-6.78-2.46-11.21-9.6-17.93-11.82-2.59,4.3-4.09,9.34-4.09,14.72,0,.38,.01,.76,.03,1.15,1.83-.22,3.56-.25,4.97,.82Z"/></g><g><g><path class="cls-18" d="M54.06,65.85c0,1.9-1.54,3.44-3.44,3.44s-3.44-1.54-3.44-3.44,1.54-3.44,3.44-3.44,3.44,1.54,3.44,3.44Z"/><path class="cls-12" d="M53.15,65.85c0,1.4-1.13,2.53-2.53,2.53s-2.53-1.13-2.53-2.53,1.13-2.53,2.53-2.53,2.53,1.13,2.53,2.53Z"/></g><g><path class="cls-18" d="M65.21,102.92c0,1.9-1.54,3.44-3.44,3.44s-3.44-1.54-3.44-3.44,1.54-3.44,3.44-3.44,3.44,1.54,3.44,3.44Z"/><path class="cls-12" d="M64.3,102.92c0,1.4-1.13,2.53-2.53,2.53s-2.53-1.13-2.53-2.53,1.13-2.53,2.53-2.53,2.53,1.13,2.53,2.53Z"/></g><g><path class="cls-18" d="M47.78,83.98c0,2.74-2.22,4.96-4.96,4.96s-4.96-2.22-4.96-4.96,2.22-4.96,4.96-4.96,4.96,2.22,4.96,4.96Z"/><path class="cls-12" d="M46.47,83.98c0,2.02-1.63,3.65-3.65,3.65s-3.65-1.63-3.65-3.65,1.63-3.65,3.65-3.65,3.65,1.63,3.65,3.65Z"/></g><g><path class="cls-18" d="M80.81,75.88c0,2.74-2.22,4.96-4.96,4.96s-4.96-2.22-4.96-4.96,2.22-4.96,4.96-4.96,4.96,2.22,4.96,4.96Z"/><path class="cls-12" d="M79.49,75.88c0,2.02-1.63,3.65-3.65,3.65s-3.65-1.63-3.65-3.65,1.63-3.65,3.65-3.65,3.65,1.63,3.65,3.65Z"/></g><g><path class="cls-18" d="M77.36,96.94c0,1.96-1.59,3.54-3.55,3.54s-3.54-1.59-3.54-3.54,1.59-3.55,3.54-3.55,3.55,1.59,3.55,3.55Z"/><path class="cls-12" d="M76.42,96.94c0,1.44-1.17,2.61-2.61,2.61s-2.61-1.17-2.61-2.61,1.17-2.61,2.61-2.61,2.61,1.17,2.61,2.61Z"/></g><g><path class="cls-18" d="M50.52,101.4c0,1.46-1.18,2.63-2.63,2.63s-2.63-1.18-2.63-2.63,1.18-2.63,2.63-2.63,2.63,1.18,2.63,2.63Z"/><path class="cls-12" d="M49.82,101.4c0,1.07-.87,1.94-1.94,1.94s-1.94-.87-1.94-1.94,.87-1.94,1.94-1.94,1.94,.87,1.94,1.94Z"/></g><g><path class="cls-18" d="M52.55,90.06c0,1.46-1.18,2.63-2.63,2.63s-2.63-1.18-2.63-2.63,1.18-2.63,2.63-2.63,2.63,1.18,2.63,2.63Z"/><path class="cls-12" d="M51.85,90.06c0,1.07-.87,1.94-1.94,1.94s-1.94-.87-1.94-1.94,.87-1.94,1.94-1.94,1.94,.87,1.94,1.94Z"/></g><g><path class="cls-18" d="M62.68,76.28c0,1.46-1.18,2.63-2.63,2.63s-2.63-1.18-2.63-2.63,1.18-2.63,2.63-2.63,2.63,1.18,2.63,2.63Z"/><path class="cls-12" d="M61.98,76.28c0,1.07-.87,1.94-1.94,1.94s-1.94-.87-1.94-1.94,.87-1.94,1.94-1.94,1.94,.87,1.94,1.94Z"/></g><g><path class="cls-18" d="M85.47,85.5c0,1.46-1.18,2.63-2.63,2.63s-2.63-1.18-2.63-2.63,1.18-2.63,2.63-2.63,2.63,1.18,2.63,2.63Z"/><path class="cls-12" d="M84.77,85.5c0,1.07-.87,1.94-1.94,1.94s-1.94-.87-1.94-1.94,.87-1.94,1.94-1.94,1.94,.87,1.94,1.94Z"/></g><g><path class="cls-18" d="M67.64,61.59c0,1.46-1.18,2.63-2.63,2.63s-2.63-1.18-2.63-2.63,1.18-2.63,2.63-2.63,2.63,1.18,2.63,2.63Z"/><path class="cls-12" d="M66.94,61.59c0,1.07-.87,1.94-1.94,1.94s-1.94-.87-1.94-1.94,.87-1.94,1.94-1.94,1.94,.87,1.94,1.94Z"/></g><g><path class="cls-18" d="M67.64,88.33c0,1.45-1.18,2.63-2.63,2.63s-2.63-1.18-2.63-2.63,1.18-2.63,2.63-2.63,2.63,1.18,2.63,2.63Z"/><path class="cls-12" d="M66.94,88.33c0,1.07-.87,1.94-1.94,1.94s-1.94-.87-1.94-1.94,.87-1.94,1.94-1.94,1.94,.87,1.94,1.94Z"/></g><g><path class="cls-18" d="M39.88,73.75c0,1.46-1.18,2.63-2.63,2.63s-2.63-1.18-2.63-2.63,1.18-2.63,2.63-2.63,2.63,1.18,2.63,2.63Z"/><path class="cls-12" d="M39.19,73.75c0,1.07-.87,1.94-1.94,1.94s-1.94-.87-1.94-1.94,.87-1.94,1.94-1.94,1.94,.87,1.94,1.94Z"/></g></g></g><g class="cls-3"><path class="cls-25" d="M68.08,54.94c.74,2.55,1.15,5.24,1.15,8.03,0,15.81-12.82,28.63-28.63,28.63-2.79,0-5.48-.41-8.03-1.15,3.47,11.9,14.46,20.6,27.48,20.6,15.81,0,28.63-12.82,28.63-28.63,0-13.02-8.7-24.01-20.6-27.48Z"/></g></g><path class="cls-8" d="M49.19,62.09c.87,1.14-.04,3.28-2.02,4.78-1.98,1.5-4.29,1.79-5.15,.64-.86-1.14,.04-3.28,2.02-4.78,1.98-1.5,4.29-1.79,5.15-.64Z"/></g></g><g class="cls-26"><path class="cls-7" d="M23.21,70.34c-.02-.18-.04-.36-.06-.54,.02,.18,.04,.36,.06,.54Z"/><path class="cls-7" d="M62.61,29.94c.65,.05,1.3,.11,1.94,.18-.64-.08-1.29-.14-1.94-.18Z"/><path class="cls-7" d="M59.59,29.83c.8,0,1.6,.03,2.39,.07-.79-.04-1.58-.07-2.39-.07Z"/><path class="cls-7" d="M23.44,71.94c-.02-.13-.04-.26-.06-.39,.02,.13,.04,.26,.06,.39Z"/><path class="cls-7" d="M23.06,68.6c-.01-.17-.02-.35-.03-.52,0,.18,.02,.35,.03,.52Z"/><path class="cls-7" d="M24.73,76.64c-.05-.14-.1-.28-.15-.41,.05,.14,.1,.28,.15,.41Z"/><path class="cls-7" d="M64.9,30.17c14.92,4.01,25.75,15.79,25.8,29.72,.06,17.3-16.53,23.81-37.03,23.88-11.64,.04-22.03-2-28.86-6.94,4.83,11.89,18.67,13.71,35,13.65,20.29-.07,36.74-3.01,36.66-24.46-.07-19.54-13.78-33.58-31.57-35.86Z"/><path class="cls-7" d="M24.25,75.3c-.05-.15-.1-.31-.14-.46,.05,.16,.09,.31,.14,.46Z"/><path class="cls-7" d="M23.82,73.77c-.03-.12-.06-.23-.09-.34,.03,.12,.06,.23,.09,.34Z"/></g><circle class="cls-7" cx="61.59" cy="40.69" r="1.05"/><circle class="cls-7" cx="61.59" cy="50.17" r="1.05"/><path class="cls-21" d="M96.49,66.03c.08,21.45-16.36,24.38-36.66,24.46s-36.76-2.74-36.84-24.19S39.31,29.91,59.61,29.83c20.29-.07,36.8,14.75,36.88,36.19Z"/><path class="cls-7" d="M90.81,8.51c9.43,0,17.11,7.41,17.11,16.52v50.68c0,20.29-21.67,36.8-48.3,36.8S11.31,96,11.31,75.71V25.03c0-9.11,7.67-16.52,17.11-16.52h62.39m0-6H28.42C15.66,2.51,5.31,12.59,5.31,25.03v50.68c0,23.64,24.31,42.8,54.3,42.8s54.3-19.16,54.3-42.8V25.03c0-12.44-10.35-22.52-23.11-22.52h0Z"/><path class="cls-7" d="M65.3,36.07c1.16,.02,1.37-1.66,.24-1.93-2.49-.61-5.1-.92-7.78-.91-17.57,.06-31.77,13.87-31.69,33.7,0,.03,0,.07,0,.1,0,1.18,1.72,1.34,1.94,.18,1.12-5.97,3.42-11.3,6.61-15.79,0,1.17,.31,2.28,.99,3.2,2.16,2.93,7.15,2.92,11.15-.02,4-2.94,5.49-7.7,3.34-10.63-1.16-1.57-3.13-2.3-5.33-2.18,5.75-3.65,12.56-5.69,19.86-5.72,.23,0,.45,0,.68,0Z"/></svg>