<?xml version="1.0" encoding="UTF-8"?><svg id="_레이어_1" xmlns="http://www.w3.org/2000/svg" xmlns:xlink="http://www.w3.org/1999/xlink" viewBox="0 0 120 120"><defs><style>.cls-1{fill:none;}.cls-2{fill:url(#linear-gradient);}.cls-3{fill:#f8dcd5;}.cls-4{fill:#f6c11e;}.cls-5{fill:#f4fbff;}.cls-6{fill:#e4de54;}.cls-7{fill:#fff;}.cls-8{fill:#ef1e2d;}.cls-9{fill:#ffab2b;}.cls-10{fill:#ff461a;}.cls-11{fill:#7d4921;}.cls-12{fill:#d12b3c;}.cls-13{fill:#a6a8ab;}.cls-14{fill:#a59059;}.cls-15{fill:#a3c24c;}.cls-16{fill:#aaaf8c;}.cls-17{fill:#cc0;}.cls-18{fill:#d0d2d3;}.cls-19{fill:#dcc076;}.cls-20{fill:#04aab3;}.cls-21{fill:#1856b3;}.cls-22{fill:#a36c35;}.cls-23{fill:#533714;}.cls-24{fill:#88572a;}.cls-25{fill:#3b2314;}.cls-26{fill:#603813;}.cls-27{fill:#60b73f;}.cls-28{fill:#794913;}.cls-29{fill:#7b4d26;}.cls-30{clip-path:url(#clippath-1);}.cls-31{opacity:.2;}</style><clipPath id="clippath"><path class="cls-1" d="M246.35-116.49c0-2.62-2.12-4.74-4.74-4.74h-8.49c-4.85-8.84-17.91-15.17-33.27-15.17s-28.43,6.33-33.27,15.17h-8.49c-2.62,0-4.74,2.12-4.74,4.74V-54.94c0,17.3,20.82,31.33,46.5,31.33s46.5-14.03,46.5-31.33v-61.55Z"/></clipPath><linearGradient id="linear-gradient" x1="60.5" y1="118.49" x2="60.5" y2="9.8" gradientUnits="userSpaceOnUse"><stop offset="0" stop-color="#fff"/><stop offset=".33" stop-color="#c9ebff"/><stop offset=".36" stop-color="#c3e9ff"/><stop offset=".53" stop-color="#a7dfff"/><stop offset=".87" stop-color="#6ecbff"/><stop offset="1" stop-color="#59c3ff"/></linearGradient><clipPath id="clippath-1"><path class="cls-1" d="M30.8,114h59.25c12.12,0,21.95-9.47,21.95-21.15V45.28c0-22.19-23.09-40.18-51.57-40.18S8.85,23.09,8.85,45.28v47.58c0,11.68,9.83,21.15,21.95,21.15Z"/></clipPath></defs><path class="cls-2" d="M30.05,115.43h60.89c12.46,0,22.55-9.73,22.55-21.73V44.8c0-22.8-23.73-41.29-53-41.29S7.5,22,7.5,44.8v48.89c0,12,10.1,21.73,22.55,21.73Z"/><g class="cls-30"><g><path class="cls-15" d="M114.18,95.6c.46-1.68,.71-3.46,.71-5.29,0-11.03-8.95-19.98-19.98-19.98s-19.98,8.95-19.98,19.98c0,1.83,.25,3.6,.71,5.29h38.54Z"/><path class="cls-15" d="M45.91,95.6c.46-1.68,.71-3.46,.71-5.29,0-11.03-8.95-19.98-19.98-19.98s-19.98,8.95-19.98,19.98c0,1.83,.25,3.6,.71,5.29H45.91Z"/></g><g><rect class="cls-17" x="7.02" y="95.6" width="107.52" height="21.46"/><path class="cls-5" d="M109.56,32.48c.11-.46,.17-.94,.17-1.44,0-3.62-3.01-6.55-6.72-6.55-1.99,0-3.76,.86-4.99,2.2-.83-.43-1.77-.7-2.77-.7-2.98,0-5.42,2.14-5.86,4.92-1.87,.03-3.37,1.51-3.37,3.34s1.54,3.35,3.43,3.35h19.37c1.48,0,2.68-1.17,2.68-2.62,0-1.19-.82-2.19-1.94-2.5Z"/><path class="cls-5" d="M41.19,22.36c.13-.56,.21-1.15,.21-1.75,0-4.41-3.67-7.98-8.19-7.98-2.43,0-4.58,1.05-6.08,2.68-1.01-.53-2.15-.85-3.38-.85-3.62,0-6.6,2.6-7.14,5.99-2.27,.04-4.11,1.84-4.11,4.07s1.87,4.08,4.18,4.08h23.6c1.81,0,3.27-1.43,3.27-3.19,0-1.45-1-2.66-2.36-3.05Z"/></g></g><ellipse class="cls-31" cx="60.5" cy="101.6" rx="39" ry="3"/><path class="cls-7" d="M60,8.03c26.96,0,48.9,16.49,48.9,36.76v50.68c0,9.09-7.78,16.49-17.34,16.49H28.44c-9.56,0-17.34-7.4-17.34-16.49V44.8c0-20.27,21.94-36.76,48.9-36.76m0-6.03C29.66,2,5.06,21.16,5.06,44.8v50.68c0,12.44,10.47,22.52,23.38,22.52h63.12c12.91,0,23.38-10.08,23.38-22.52V44.8c0-23.64-24.6-42.8-54.94-42.8h0Z"/><g><g><path class="cls-23" d="M74.22,40.27h-4.3v-4.67c0-1.65-1.45-3-3.24-3h-13.47c-1.78,0-3.23,1.35-3.23,3v4.67h-4.32v-4.67c0-3.86,3.39-7,7.55-7h13.47c4.16,0,7.54,3.14,7.54,7v4.67Z"/><rect class="cls-28" x="52.39" y="27.54" width="15.45" height="5.73"/><path class="cls-11" d="M95.57,96.05c0,3.29-2.88,5.96-6.43,5.96H31.86c-3.55,0-6.43-2.67-6.43-5.96V42.89c0-3.29,2.88-5.96,6.43-5.96h57.28c3.55,0,6.43,2.67,6.43,5.96v53.15Z"/><path class="cls-22" d="M88.03,90.59c0,2.64-2.3,4.78-5.15,4.78H36.99c-2.84,0-5.15-2.14-5.15-4.78V48.01c0-2.64,2.31-4.78,5.15-4.78h45.89c2.84,0,5.15,2.14,5.15,4.78v42.58Z"/><path class="cls-26" d="M89.15,36.93h-28.64v6.3h22.38c2.84,0,5.15,2.14,5.15,4.78v42.58c0,2.64-2.3,4.78-5.15,4.78h-22.38v6.65h28.64c3.55,0,6.43-2.67,6.43-5.96V42.89c0-3.29-2.88-5.96-6.43-5.96Z"/><path class="cls-24" d="M88.03,90.59V48.01c0-2.64-2.3-4.78-5.15-4.78h-22.38v52.14h22.38c2.84,0,5.15-2.14,5.15-4.78Z"/><path class="cls-16" d="M29.21,36.39c-2.54,0-4.6,1.91-4.6,4.27v5.1h5.84c2.54,0,4.6-1.91,4.6-4.27v-5.1h-5.84Z"/><path class="cls-16" d="M91.9,36.24h-5.5v5.42c0,2.36,2.06,4.27,4.6,4.27h5.5v-5.42c0-2.36-2.06-4.27-4.6-4.27Z"/><path class="cls-16" d="M30.45,93.21h-5.84v5.1c0,2.36,2.06,4.27,4.6,4.27h5.84v-5.1c0-2.36-2.06-4.27-4.6-4.27Z"/><path class="cls-16" d="M94.61,93.05h-3.61c-2.54,0-4.6,1.91-4.6,4.27v5.42h5.5c2.54,0,4.6-1.91,4.6-4.27v-5.42h-1.89Z"/><rect class="cls-24" x="42.02" y="43.23" width="7.56" height="52.14"/><rect class="cls-29" x="76.16" y="43.23" width="7.56" height="52.14"/><g><path class="cls-3" d="M77.41,63.62c-1.1,4.63-6.04,7.55-11.03,6.53-4.99-1.02-8.14-5.61-7.04-10.24,1.1-4.63,6.04-7.56,11.03-6.53,4.99,1.02,8.14,5.61,7.04,10.24Z"/><path class="cls-9" d="M75.11,63.15c-.82,3.45-4.5,5.63-8.22,4.86-3.72-.76-6.07-4.18-5.24-7.62,.82-3.45,4.5-5.63,8.22-4.87,3.72,.76,6.06,4.18,5.24,7.63Z"/><path class="cls-20" d="M66.76,68.58c-4.05-.83-6.62-4.56-5.72-8.32,.9-3.76,4.92-6.14,8.97-5.31,4.05,.83,6.61,4.56,5.72,8.32-.89,3.76-4.92,6.14-8.97,5.31Zm2.87-12.05c-3.11-.64-6.21,1.19-6.89,4.08-.69,2.89,1.28,5.76,4.4,6.4,3.11,.64,6.21-1.19,6.89-4.08,.69-2.89-1.28-5.76-4.4-6.4Z"/><path class="cls-10" d="M76.64,64.72l-17.71-3.63c-.92-.19-1.48-1.14-1.25-2.11,.23-.98,1.17-1.62,2.1-1.43l17.71,3.63c.93,.19,1.48,1.14,1.25,2.12-.23,.98-1.17,1.62-2.09,1.43Z"/></g><g><path class="cls-6" d="M55.27,53.9c.38,.75,.03,1.65-.78,2l-16.25,7.02c-.81,.35-1.77,.02-2.15-.73l-1.27-2.53c-.38-.75-.03-1.65,.78-2l16.25-7.02c.81-.35,1.77-.02,2.15,.73l1.27,2.53Z"/><path class="cls-27" d="M37.56,63.81c-.91,0-1.75-.5-2.14-1.29l-1.27-2.53c-.27-.54-.31-1.15-.1-1.71,.21-.58,.67-1.06,1.26-1.32l16.25-7.02c.31-.13,.64-.2,.98-.2,.91,0,1.75,.5,2.14,1.29l1.27,2.54c.27,.54,.31,1.15,.1,1.71-.21,.58-.67,1.06-1.26,1.32l-16.25,7.02c-.31,.13-.64,.2-.98,.2Zm14.97-12.56c-.13,0-.26,.03-.38,.08l-16.25,7.02c-.21,.09-.37,.25-.44,.45-.04,.12-.07,.31,.03,.52l1.27,2.53c.19,.38,.74,.56,1.18,.37l16.24-7.02c.21-.09,.37-.25,.44-.45,.04-.12,.07-.31-.03-.52l-1.27-2.53c-.14-.27-.45-.45-.79-.45Z"/></g><g><path class="cls-26" d="M78.04,95.71c-2.09,0-3.78-1.57-3.78-3.51V46.73c0-1.94,1.69-3.51,3.78-3.51s3.78,1.57,3.78,3.51v45.47c0,1.94-1.69,3.51-3.78,3.51Z"/><path class="cls-25" d="M78.04,86.79c-2.09,0-3.78-1.57-3.78-3.51v1.64c0,1.94,1.69,3.51,3.78,3.51s3.78-1.57,3.78-3.51v-1.64c0,1.94-1.69,3.51-3.78,3.51Z"/><path class="cls-19" d="M81.66,74.12h-7.25c-.69,0-1.25,.52-1.25,1.16v6.83c0,.64,.56,1.16,1.25,1.16h7.25c.69,0,1.25-.52,1.25-1.16v-6.83c0-.64-.56-1.16-1.25-1.16Zm-.6,6.7c0,.4-.35,.72-.78,.72h-4.49c-.43,0-.78-.32-.78-.72v-4.23c0-.4,.35-.72,.78-.72h4.49c.43,0,.78,.32,.78,.72v4.23Z"/><path class="cls-14" d="M78.04,79.4c-.42,0-.76-.31-.76-.7v-2.84c0-.39,.34-.7,.76-.7s.76,.31,.76,.7v2.84c0,.39-.34,.7-.76,.7Z"/><g><path class="cls-25" d="M79.18,92.68c0,.59-.51,1.06-1.14,1.06h0c-.63,0-1.14-.48-1.14-1.06h0c0-.59,.51-1.06,1.14-1.06h0c.63,0,1.14,.48,1.14,1.06h0Z"/><path class="cls-13" d="M79.18,91.98c0,.59-.51,1.06-1.14,1.06h0c-.63,0-1.14-.48-1.14-1.06h0c0-.59,.51-1.06,1.14-1.06h0c.63,0,1.14,.48,1.14,1.06h0Z"/></g><g><path class="cls-25" d="M79.18,47.69c0,.59-.51,1.06-1.14,1.06h0c-.63,0-1.14-.48-1.14-1.06h0c0-.59,.51-1.06,1.14-1.06h0c.63,0,1.14,.47,1.14,1.06h0Z"/><path class="cls-13" d="M79.18,46.99c0,.59-.51,1.06-1.14,1.06h0c-.63,0-1.14-.48-1.14-1.06h0c0-.59,.51-1.06,1.14-1.06h0c.63,0,1.14,.48,1.14,1.06h0Z"/></g></g><g><path class="cls-26" d="M44.29,95.71c-2.09,0-3.78-1.57-3.78-3.51V46.73c0-1.94,1.69-3.51,3.78-3.51s3.78,1.57,3.78,3.51v45.47c0,1.94-1.69,3.51-3.78,3.51Z"/><path class="cls-25" d="M44.29,86.79c-2.09,0-3.78-1.57-3.78-3.51v1.64c0,1.94,1.69,3.51,3.78,3.51s3.78-1.57,3.78-3.51v-1.64c0,1.94-1.69,3.51-3.78,3.51Z"/><path class="cls-19" d="M47.91,74.12h-7.25c-.69,0-1.25,.52-1.25,1.16v6.83c0,.64,.56,1.16,1.25,1.16h7.25c.69,0,1.25-.52,1.25-1.16v-6.83c0-.64-.56-1.16-1.25-1.16Zm-.6,6.7c0,.4-.35,.72-.78,.72h-4.49c-.43,0-.78-.32-.78-.72v-4.23c0-.4,.35-.72,.78-.72h4.49c.43,0,.78,.32,.78,.72v4.23Z"/><path class="cls-14" d="M44.29,79.4c-.42,0-.76-.31-.76-.7v-2.84c0-.39,.34-.7,.76-.7s.76,.31,.76,.7v2.84c0,.39-.34,.7-.76,.7Z"/><g><path class="cls-25" d="M45.43,92.68c0,.59-.51,1.06-1.14,1.06h0c-.63,0-1.14-.48-1.14-1.06h0c0-.59,.51-1.06,1.14-1.06h0c.63,0,1.14,.48,1.14,1.06h0Z"/><path class="cls-18" d="M45.43,91.98c0,.59-.51,1.06-1.14,1.06h0c-.63,0-1.14-.48-1.14-1.06h0c0-.59,.51-1.06,1.14-1.06h0c.63,0,1.14,.48,1.14,1.06h0Z"/></g><g><path class="cls-25" d="M45.43,47.69c0,.59-.51,1.06-1.14,1.06h0c-.63,0-1.14-.48-1.14-1.06h0c0-.59,.51-1.06,1.14-1.06h0c.63,0,1.14,.47,1.14,1.06h0Z"/><path class="cls-18" d="M45.43,46.99c0,.59-.51,1.06-1.14,1.06h0c-.63,0-1.14-.48-1.14-1.06h0c0-.59,.51-1.06,1.14-1.06h0c.63,0,1.14,.48,1.14,1.06h0Z"/></g></g><g><path class="cls-12" d="M57.53,70.12c0,1.28-1.12,2.33-2.51,2.33s-2.51-1.04-2.51-2.33,1.12-2.33,2.51-2.33,2.51,1.04,2.51,2.33Z"/><path class="cls-4" d="M55.03,73.15c-1.8,0-3.26-1.36-3.26-3.03s1.46-3.03,3.26-3.03,3.26,1.36,3.26,3.03-1.46,3.03-3.26,3.03Zm0-4.65c-.97,0-1.75,.73-1.75,1.62s.79,1.63,1.75,1.63,1.75-.73,1.75-1.63-.79-1.62-1.75-1.62Z"/></g><ellipse class="cls-7" cx="27.92" cy="39.13" rx="1.13" ry="1.05"/><ellipse class="cls-7" cx="90.54" cy="39.13" rx="1.13" ry="1.05"/><path class="cls-7" d="M29.06,99.66c0,.58-.51,1.05-1.13,1.05s-1.13-.47-1.13-1.05,.51-1.05,1.13-1.05,1.13,.47,1.13,1.05Z"/><path class="cls-7" d="M91.68,99.66c0,.58-.51,1.05-1.13,1.05s-1.13-.47-1.13-1.05,.51-1.05,1.13-1.05,1.13,.47,1.13,1.05Z"/><path class="cls-7" d="M41.27,75.16c0,.39-.34,.7-.76,.7s-.76-.31-.76-.7,.34-.7,.76-.7,.76,.31,.76,.7Z"/><path class="cls-7" d="M75.02,75.16c0,.39-.34,.7-.76,.7s-.76-.31-.76-.7,.34-.7,.76-.7,.76,.31,.76,.7Z"/></g><g><rect class="cls-8" x="55.97" y="80.17" width="11.57" height="6.67"/><rect class="cls-7" x="55.92" y="80.17" width="11.62" height=".97"/><rect class="cls-7" x="55.92" y="82.11" width="11.62" height=".97"/><rect class="cls-7" x="55.92" y="84.06" width="11.62" height=".97"/><rect class="cls-7" x="55.92" y="86" width="11.62" height=".97"/><rect class="cls-21" x="55.92" y="80.17" width="4.29" height="2.92"/></g></g></svg>