<?xml version="1.0" encoding="UTF-8"?><svg id="_레이어_1" xmlns="http://www.w3.org/2000/svg" xmlns:xlink="http://www.w3.org/1999/xlink" viewBox="0 0 120 120"><defs><style>.cls-1{fill:none;}.cls-2{clip-path:url(#clippath);}.cls-3{fill:#f2f2f2;}.cls-4{fill:#f9540b;}.cls-5,.cls-6{fill:#fff;}.cls-7{fill:#ffed83;}.cls-8{fill:#fff5ca;}.cls-9{fill:#ffca76;}.cls-10{fill:#ffbd47;}.cls-11{fill:#ffc76e;}.cls-12{fill:#a9e2ff;}.cls-13{fill:#ddd;}.cls-14{fill:#e0e0e0;}.cls-15{fill:#93ddf9;}.cls-16{clip-path:url(#clippath-1);}.cls-17{clip-path:url(#clippath-3);}.cls-18{clip-path:url(#clippath-2);}.cls-6{opacity:.2;}</style><clipPath id="clippath"><circle class="cls-1" cx="200" cy="60" r="58.5"/></clipPath><clipPath id="clippath-1"><path class="cls-1" d="M106.35,163.51c0-2.62-2.12-4.74-4.74-4.74h-8.49c-4.85-8.84-17.91-15.17-33.27-15.17s-28.43,6.33-33.27,15.17h-8.49c-2.62,0-4.74,2.12-4.74,4.74v61.55c0,17.3,20.82,31.33,46.5,31.33s46.5-14.03,46.5-31.33v-61.55Z"/></clipPath><clipPath id="clippath-2"><circle class="cls-1" cx="60.5" cy="60.12" r="56.5"/></clipPath><clipPath id="clippath-3"><circle class="cls-1" cx="59.86" cy="60.86" r="55.14"/></clipPath><clipPath id="clippath-4"><path class="cls-1" d="M230.39-132.17h-59.4c-12.15,0-22,10.1-22,22.56v42.75c0,23.67,23.15,42.86,51.7,42.86s51.7-19.19,51.7-42.86v-42.75c0-12.46-9.85-22.56-22-22.56Z"/></clipPath></defs><g class="cls-2"><g><polygon class="cls-6" points="200 60 98 68.5 98 50.5 200 60"/><polygon class="cls-6" points="200 60 115.92 118.36 106.92 102.77 200 60"/><polygon class="cls-6" points="200 60 107.42 16.36 116.42 .77 200 60"/></g></g><g class="cls-16"><polygon class="cls-6" points="60.89 214.38 52.39 112.38 70.39 112.38 60.89 214.38"/></g><g><g class="cls-18"><g><rect class="cls-4" x="-2.22" y="-.65" width="125" height="122"/><g><polygon class="cls-6" points="60.28 49.35 -41.72 57.85 -41.72 39.85 60.28 49.35"/><polygon class="cls-6" points="60.28 49.35 -23.81 107.71 -32.81 92.12 60.28 49.35"/><polygon class="cls-6" points="60.28 49.35 16.64 141.93 1.05 132.93 60.28 49.35"/><polygon class="cls-6" points="60.28 49.35 68.78 151.35 50.78 151.35 60.28 49.35"/><polygon class="cls-6" points="60.28 49.35 118.64 133.43 103.05 142.43 60.28 49.35"/><polygon class="cls-6" points="60.28 49.35 152.86 92.98 143.86 108.57 60.28 49.35"/><polygon class="cls-6" points="60.28 49.35 162.28 40.85 162.28 58.85 60.28 49.35"/><polygon class="cls-6" points="60.28 49.35 144.36 -9.02 153.36 6.57 60.28 49.35"/><polygon class="cls-6" points="60.28 49.35 103.91 -43.24 119.5 -34.24 60.28 49.35"/><polygon class="cls-6" points="60.28 49.35 51.78 -52.65 69.78 -52.65 60.28 49.35"/><polygon class="cls-6" points="60.28 49.35 1.91 -34.74 17.5 -43.74 60.28 49.35"/><polygon class="cls-6" points="60.28 49.35 -32.31 5.71 -23.31 -9.88 60.28 49.35"/></g></g></g><g><polygon class="cls-9" points="37.95 26.5 44.42 44.62 58.53 26.5 37.95 26.5"/><polygon class="cls-7" points="23.57 44.62 44.42 44.62 37.95 26.5 23.57 44.62"/><polygon class="cls-10" points="58.53 85.51 23.57 44.62 44.42 44.62 58.53 85.51"/><polygon class="cls-8" points="58.53 26.5 44.42 44.62 58.53 44.62 72.65 44.62 58.53 26.5"/><polygon class="cls-7" points="58.53 44.62 44.42 44.62 58.53 85.51 72.65 44.62 58.53 44.62"/><polygon class="cls-11" points="79.11 26.5 72.65 44.62 58.53 26.5 79.11 26.5"/><polygon class="cls-7" points="93.5 44.62 72.65 44.62 79.11 26.5 93.5 44.62"/><polygon class="cls-10" points="58.53 85.51 93.5 44.62 72.65 44.62 58.53 85.51"/></g><g class="cls-17"><rect class="cls-12" x="40.31" y="87.62" width="18" height="43.42"/><rect class="cls-3" x="39.61" y="77.6" width="18.7" height="6.4"/><rect class="cls-3" x="36.01" y="82.67" width="22.3" height="4.95"/><rect class="cls-15" x="58.25" y="87.62" width="18" height="43.42" transform="translate(134.5 218.66) rotate(-180)"/><rect class="cls-14" x="58.25" y="77.6" width="18.7" height="6.4" transform="translate(135.2 161.6) rotate(-180)"/><rect class="cls-13" x="58.25" y="82.67" width="22.3" height="4.95" transform="translate(138.8 170.29) rotate(-180)"/></g><path class="cls-5" d="M60,7.69c28.84,0,52.31,23.47,52.31,52.31s-23.47,52.31-52.31,52.31S7.69,88.84,7.69,60,31.16,7.69,60,7.69m0-6.19C27.69,1.5,1.5,27.69,1.5,60s26.19,58.5,58.5,58.5,58.5-26.19,58.5-58.5S92.31,1.5,60,1.5h0Z"/><path class="cls-5" d="M47.95,29.97c-1.6,0-2.9-1.3-2.9-2.9,0,1.6-1.3,2.9-2.9,2.9,1.6,0,2.9,1.3,2.9,2.9,0-1.6,1.3-2.9,2.9-2.9Z"/><circle class="cls-5" cx="24.89" cy="16.42" r="3.68"/><circle class="cls-5" cx="96.79" cy="25.32" r="1.79"/><circle class="cls-5" cx="78.37" cy="39.74" r="1.05"/><circle class="cls-5" cx="77.84" cy="44.47" r=".53"/><circle class="cls-5" cx="78.89" cy="52.89" r=".53"/><circle class="cls-5" cx="89.42" cy="63.42" r="1.58"/><circle class="cls-5" cx="36.42" cy="18.42" r="1.58"/><circle class="cls-5" cx="86.26" cy="49.74" r=".53"/><circle class="cls-5" cx="71.53" cy="51.84" r=".53"/><circle class="cls-5" cx="41" cy="52.89" r=".53"/><path class="cls-5" d="M34.11,57.53s0,2.11-2.11,2.11c0,0,2.11-.24,2.11,3.04,0,0,0-3.25,2.11-3.25,0,0-2.11,.21-2.11-1.89Z"/><path class="cls-5" d="M23.11,32.53s0,2.11-2.11,2.11c0,0,2.11-.24,2.11,3.04,0,0,0-3.25,2.11-3.25,0,0-2.11,.21-2.11-1.89Z"/><path class="cls-5" d="M90.11,13.53s0,2.11-2.11,2.11c0,0,2.11-.24,2.11,3.04,0,0,0-3.25,2.11-3.25,0,0-2.11,.21-2.11-1.89Z"/></g></svg>