<?xml version="1.0" encoding="UTF-8"?><svg xmlns="http://www.w3.org/2000/svg" xmlns:xlink="http://www.w3.org/1999/xlink" viewBox="0 0 120 120"><defs><style>.cls-1{fill:none;}.cls-2{fill:url(#linear-gradient);}.cls-3{filter:url(#luminosity-noclip-4);}.cls-4{clip-path:url(#clippath);}.cls-5{opacity:.1;}.cls-6{mask:url(#mask);}.cls-7{filter:url(#luminosity-noclip-2);}.cls-8{fill:#00b4e6;}.cls-9,.cls-10{fill:#fff;}.cls-11{fill:#fefbd6;}.cls-12,.cls-13{fill:#58595b;}.cls-14{clip-path:url(#clippath-3);}.cls-15{clip-path:url(#clippath-2);}.cls-13,.cls-16,.cls-17,.cls-18,.cls-19{mix-blend-mode:soft-light;}.cls-16{fill:#231f20;}.cls-17{fill:#f1f2f2;}.cls-18{fill:#e6e7e8;}.cls-19{fill:#00b4ff;}.cls-20{fill:url(#_무제_그라디언트_17);}.cls-10{opacity:.2;}.cls-21{fill:url(#linear-gradient-8);}.cls-22{fill:url(#linear-gradient-9);}.cls-23{fill:url(#linear-gradient-3);}.cls-24{fill:url(#linear-gradient-4);}.cls-25{fill:url(#linear-gradient-2);}.cls-26{fill:url(#linear-gradient-6);}.cls-27{fill:url(#linear-gradient-7);}.cls-28{fill:url(#linear-gradient-5);}.cls-29{opacity:.14;}.cls-30{fill:url(#linear-gradient-13);}.cls-31{fill:url(#linear-gradient-11);}.cls-32{isolation:isolate;}.cls-33{fill:url(#linear-gradient-12);}.cls-33,.cls-34{mix-blend-mode:multiply;}.cls-34{fill:url(#linear-gradient-10);}.cls-35{mask:url(#mask-3);}.cls-36{mask:url(#mask-2);}.cls-37{mask:url(#mask-1);}</style><clipPath id="clippath"><circle class="cls-1" cx="60" cy="200" r="58.5"/></clipPath><clipPath id="clippath-1"><circle class="cls-1" cx="-79.5" cy="200.12" r="56.5"/></clipPath><clipPath id="clippath-2"><path class="cls-1" d="M90.39,7.83H31c-12.15,0-22,10.1-22,22.56v42.75c0,23.67,23.15,42.86,51.7,42.86s51.7-19.19,51.7-42.86V30.39c0-12.46-9.85-22.56-22-22.56Z"/></clipPath><linearGradient id="_무제_그라디언트_17" x1="59.83" y1="112.47" x2="59.16" y2="-12.53" gradientUnits="userSpaceOnUse"><stop offset="0" stop-color="#00a6fb"/><stop offset="1" stop-color="#a1ebff"/></linearGradient><linearGradient id="linear-gradient" x1="34.77" y1="59.54" x2="87.38" y2="59.54" gradientUnits="userSpaceOnUse"><stop offset="0" stop-color="#ffde0b"/><stop offset="1" stop-color="#ffce00"/></linearGradient><linearGradient id="linear-gradient-2" x1="61.05" y1="89.56" x2="61.05" y2="59.13" gradientUnits="userSpaceOnUse"><stop offset=".15" stop-color="#ba6c1a"/><stop offset=".37" stop-color="#c77515"/><stop offset=".78" stop-color="#e98c0b"/><stop offset="1" stop-color="#ff9b05"/></linearGradient><linearGradient id="linear-gradient-3" x1="59.91" y1="23.74" x2="59.91" y2="7" gradientUnits="userSpaceOnUse"><stop offset="0" stop-color="#ffae00"/><stop offset="1" stop-color="#fff224"/></linearGradient><linearGradient id="linear-gradient-4" x1="22.3" y1="21.63" x2="35.23" y2="34.56" gradientUnits="userSpaceOnUse"><stop offset="0" stop-color="#fff224"/><stop offset="1" stop-color="#ffae00"/></linearGradient><linearGradient id="linear-gradient-5" x1="83.5" y1="82.83" x2="91.83" y2="91.17" xlink:href="#linear-gradient-3"/><linearGradient id="linear-gradient-6" x1="27.72" y1="91.37" x2="36.05" y2="83.03" xlink:href="#linear-gradient-4"/><linearGradient id="linear-gradient-7" x1="95.81" y1="23.28" x2="85.87" y2="33.22" xlink:href="#linear-gradient-4"/><linearGradient id="linear-gradient-8" x1="9.4" y1="59.21" x2="26.82" y2="59.21" xlink:href="#linear-gradient-4"/><linearGradient id="linear-gradient-9" x1="92.78" y1="59.21" x2="110.21" y2="59.21" xlink:href="#linear-gradient-3"/><clipPath id="clippath-3"><circle class="cls-1" cx="199.61" cy="-81" r="55.5"/></clipPath><filter id="luminosity-noclip-2" x="5.11" y="-143.08" width="251.58" height="159.14" color-interpolation-filters="sRGB" filterUnits="userSpaceOnUse"><feFlood flood-color="#fff" result="bg"/><feBlend in="SourceGraphic" in2="bg"/></filter><filter id="luminosity-noclip-3" x="8462" y="-8392" width="-32766" height="32766" color-interpolation-filters="sRGB" filterUnits="userSpaceOnUse"><feFlood flood-color="#fff" result="bg"/><feBlend in="SourceGraphic" in2="bg"/></filter><mask id="mask-1" x="8462" y="-8392" width="-32766" height="32766" maskUnits="userSpaceOnUse"/><linearGradient id="linear-gradient-10" x1="5.11" y1="-63.51" x2="256.69" y2="-63.51" gradientUnits="userSpaceOnUse"><stop offset="0" stop-color="#fff"/><stop offset=".21" stop-color="#c6c6c6"/><stop offset=".76" stop-color="#393939"/><stop offset="1" stop-color="#000"/></linearGradient><mask id="mask" x="5.11" y="-143.08" width="251.58" height="159.14" maskUnits="userSpaceOnUse"><g class="cls-7"><g class="cls-37"><path class="cls-34" d="M256.69-143.08v60.07c-21.07-1.15-42.79-.46-62.05,8.04-10.06,4.44-19.11,10.86-28.07,17.24-22.14,15.76-44.29,31.52-66.43,47.27-5.77,4.11-11.78,8.32-18.74,9.63-9.23,1.74-18.57-1.88-27.95-2.33C35.78-4,20.15,6.12,5.11,16.06V-51.13c3.68-1.08,7.45-1.83,11.27-2.23,1.28-.13,2.57-.23,3.86-.32,8.51-.53,17.23-.26,24.96-3.72,1.92-.86,3.69-1.91,5.36-3.11,1.01-.73,1.98-1.51,2.92-2.34,2.13-1.88,4.08-3.99,5.94-6.24,9.02-10.88,15.82-24.8,28.94-29.54,1.07-.39,2.16-.7,3.26-.95,11.73-2.7,24.75,1.65,36.4-1.96,15.39-4.76,24.14-21.91,39.23-27.57,10.21-3.83,21.79-1.79,32.21-5,5.88-1.81,10.96-5.12,15.76-8.96h41.46Z"/></g></g></mask><linearGradient id="linear-gradient-11" x1="5.11" y1="-63.51" x2="256.69" y2="-63.51" gradientUnits="userSpaceOnUse"><stop offset="0" stop-color="#f733b5"/><stop offset=".29" stop-color="#df309c"/><stop offset="1" stop-color="#a82c64"/></linearGradient><filter id="luminosity-noclip-4" x="9.12" y="-109.73" width="247.57" height="142.38" color-interpolation-filters="sRGB" filterUnits="userSpaceOnUse"><feFlood flood-color="#fff" result="bg"/><feBlend in="SourceGraphic" in2="bg"/></filter><filter id="luminosity-noclip-5" x="8462" y="-8392" width="-32766" height="32766" color-interpolation-filters="sRGB" filterUnits="userSpaceOnUse"><feFlood flood-color="#fff" result="bg"/><feBlend in="SourceGraphic" in2="bg"/></filter><mask id="mask-3" x="8462" y="-8392" width="-32766" height="32766" maskUnits="userSpaceOnUse"/><linearGradient id="linear-gradient-12" x1="9.12" y1="-38.54" x2="256.69" y2="-38.54" gradientUnits="userSpaceOnUse"><stop offset="0" stop-color="#000"/><stop offset=".24" stop-color="#393939"/><stop offset=".79" stop-color="#c6c6c6"/><stop offset="1" stop-color="#fff"/></linearGradient><mask id="mask-2" x="9.12" y="-109.73" width="247.57" height="142.38" maskUnits="userSpaceOnUse"><g class="cls-3"><g class="cls-35"><path class="cls-33" d="M256.69-105.88v41c-2.76,1.99-5.82,3.57-8.98,4.68-8.91,3.11-18.55,3-27.92,2.28-9.37-.72-18.78-1.99-28.14-1.08-16.84,1.65-32.9,10.71-43.37,24.49-8.48,11.15-14.48,26.05-27.4,30.74-8.06,2.92-16.97,1.02-25.39,2.43-11.76,1.98-21.52,10.16-30.88,17.82-9.35,7.65-19.66,15.37-31.55,16.12-11.89,.75-25.04-8.81-23.86-21.08,.7-7.25,6.14-13.28,12.44-16.55,6.3-3.27,13.43-4.26,20.4-5.28,15.79-2.3,31.66-4.96,46.58-10.82,14.91-5.87,28.95-15.2,38.19-28.68,3.43-5.01,6.41-10.76,11.59-13.74,4.69-2.7,10.32-2.61,15.66-3.11,10.55-.98,20.88-4.56,29.9-10.35,12.39-7.95,22.1-19.84,34.62-27.57,9.99-6.17,26.78-7.05,38.12-1.3Z"/></g></g></mask><linearGradient id="linear-gradient-13" x1="9.12" y1="-38.54" x2="256.69" y2="-38.54" gradientUnits="userSpaceOnUse"><stop offset="0" stop-color="#a82c64"/><stop offset=".38" stop-color="#6f2962"/><stop offset="1" stop-color="#0c2561"/></linearGradient></defs><g class="cls-32"><g id="_레이어_1"><g class="cls-4"><g><polygon class="cls-10" points="60 200 103.64 107.42 119.23 116.42 60 200"/><polygon class="cls-10" points="60 200 51.5 98 69.5 98 60 200"/><polygon class="cls-10" points="60 200 1.64 115.92 17.23 106.92 60 200"/></g></g><g><g class="cls-15"><g><rect class="cls-20" x="-2.96" y="-2.67" width="125" height="122"/><g><polygon class="cls-10" points="59.54 58.33 -42.46 66.83 -42.46 48.83 59.54 58.33"/><polygon class="cls-10" points="59.54 58.33 -24.54 116.69 -33.54 101.11 59.54 58.33"/><polygon class="cls-10" points="59.54 58.33 15.9 150.92 .31 141.92 59.54 58.33"/><polygon class="cls-10" points="59.54 58.33 68.04 160.33 50.04 160.33 59.54 58.33"/><polygon class="cls-10" points="59.54 58.33 117.9 142.42 102.31 151.42 59.54 58.33"/><polygon class="cls-10" points="59.54 58.33 152.12 101.97 143.12 117.56 59.54 58.33"/><polygon class="cls-10" points="59.54 58.33 161.54 49.83 161.54 67.83 59.54 58.33"/><polygon class="cls-10" points="59.54 58.33 143.62 -.03 152.62 15.56 59.54 58.33"/><polygon class="cls-10" points="59.54 58.33 103.18 -34.25 118.77 -25.25 59.54 58.33"/><polygon class="cls-10" points="59.54 58.33 51.04 -43.67 69.04 -43.67 59.54 58.33"/><polygon class="cls-10" points="59.54 58.33 1.18 -25.75 16.77 -34.75 59.54 58.33"/><polygon class="cls-10" points="59.54 58.33 -33.04 14.69 -24.04 -.89 59.54 58.33"/></g></g></g><g><path class="cls-12" d="M61.07,112.23h0c-3.05,0-5.23-1.73-6.59-3.58l-.1-.1h13.34l-.1,.1c-1.35,1.98-4.06,3.58-6.55,3.58Z"/><path class="cls-13" d="M67.72,108.54l-.1,.1c-1.35,1.98-4.06,3.58-6.55,3.58-2.28,0-4.07-.97-5.4-2.23,.84,.34,1.98,.76,3.22,.61,1.18-.14,2.1-1.09,2.39-2.07h6.45Z"/><path class="cls-2" d="M87.38,56.18c0,6.91-2.66,13.19-7.02,17.88-3.16,3.4-5.2,7.69-5.84,12.29l-.1,.69c-.17,1.23-1.22,2.14-2.46,2.14h-21.78c-1.24,0-2.29-.91-2.46-2.14l-.11-.8c-.27-1.92-.79-3.78-1.53-5.54-1.03-2.44-2.49-4.69-4.31-6.66-4.18-4.52-6.8-10.5-6.99-17.1-.43-15.12,12.07-27.56,27.19-27.05,2.32,.08,4.57,.46,6.7,1.1,10.82,3.26,18.7,13.3,18.7,25.19Z"/><path class="cls-25" d="M76.31,63.82c-.13-3.04-2.14-4.68-5.18-4.68-.08,0-.16,0-.24,0-2.89,.12-5.16,1.18-5.63,5l-.26,3.16h-8.16s-.26-3.17-.26-3.17c-.3-3.25-2.06-4.87-4.95-4.99-3.15-.14-5.7,1.55-5.83,4.67-.06,1.51,.47,2.95,1.49,4.07,1.02,1.11,1.89,1.39,3.39,1.46h4.27s1.64,20.22,1.64,20.22l2.06-.2-1.62-20.02h7.76s-1.87,20.02-1.87,20.02l2.4,.2,1.64-20.22h3.89s.04,0,.04,0c1.51-.06,2.9-.33,3.93-1.45,1.02-1.11,1.55-2.56,1.49-4.07Zm-5.5,3.49h-3.66l.24-2.95c.16-1.71,1.18-3.47,3.12-3.55,1.81-.08,3.31,1.32,3.39,3.11,.07,1.78-1.31,3.3-3.09,3.38Zm-16.06,0h-4.27c-1.78-.09-2.81-1.6-2.81-3.38,0-2.19,1.5-3.11,3.25-3.11,.04,0,.09,0,.13,0,1.93,.08,3.3,1.84,3.45,3.53l.24,2.96Z"/><path class="cls-16" d="M87.38,56.18c0,6.91-2.66,13.19-7.02,17.88-3.16,3.4-5.2,7.69-5.84,12.29l-.1,.69c-.17,1.23-1.22,2.14-2.46,2.14h-21.78c-1.24,0-2.29-.91-2.46-2.14l-.11-.8c-.27-1.92-.79-3.78-1.53-5.54,.54-.32,1.3,1.06,1.56,1.32,.66,.66,1.47,1.17,2.32,1.52,1.54,.63,3.23,.8,4.89,.83,2.11,.04,4.25-.13,6.26-.75,4.06-1.26,6.16-4.04,7.8-7.78,1.05-2.41,2.23-4.75,3.54-7.03,1.18-2.06,2.84-3.48,4.23-5.39,2.67-3.67,4.2-8.11,4.2-12.66,0-8.27-4.86-15.55-12.21-19.76,10.82,3.26,18.7,13.3,18.7,25.19Z"/><path class="cls-8" d="M72.61,93.98c0-.15,.06-.31,.22-.48,.5-.57,.9-1.07,.9-1.88,0-1.33-1.09-2.43-2.43-2.43h-20.45c-1.33,0-2.43,1.09-2.43,2.43,0,.75,.35,1.44,.93,1.91,.31,.25,.7,.34,.44,.75-.17,.26-.59,.4-.8,.65-.37,.44-.57,1.01-.57,1.56,0,.82,.43,1.59,1.11,2.04,.35,.23,.6,.23,.26,.64-.21,.26-.58,.35-.8,.61-.37,.44-.58,1-.58,1.57,0,.9,.47,1.49,1.12,2.04,.67,.57,.58,1.51,.93,2.28,.31,.68,.76,1.3,1.32,1.8l.06,.06c.78,.71,1.8,1.1,2.86,1.1h12.74c1.05,0,2.07-.39,2.86-1.1l.06-.06c.58-.52,1.04-1.16,1.35-1.88,.32-.73,.37-1.7,.94-2.25,.6-.58,1.07-1.1,1.07-2,0-.53-.18-1.06-.51-1.48-.37-.48-.9-.85-.45-1.44,.49-.64,.96-1.04,.96-1.93,0-.53-.18-1.06-.51-1.48-.29-.37-.61-.66-.61-1.01Z"/><path class="cls-19" d="M49.04,99.71s.04-.04,.07-.05c-.02,.02-.05,.03-.07,.05Z"/><path class="cls-17" d="M57.42,108.6h-2.72c-1.05,0-2.07-.39-2.86-1.09l-.06-.05c-.56-.5-1.01-1.12-1.32-1.8-.34-.75-.27-1.65-.87-2.23-.02-.02-.04-.04-.06-.05-.08-.07-.16-.14-.23-.21-.52-.49-.88-1.04-.88-1.83,0-.57,.21-1.13,.58-1.57,.01-.01,.02-.03,.04-.04,0,0,0,0,0,0,.26-.24,.9-.43,.81-.84-.04-.22-.27-.33-.44-.45-.05-.05-.11-.09-.16-.13,0,0-.01-.01-.02-.02,0,0-.01,0-.02-.01-.02-.01-.03-.03-.05-.05-.02-.02-.04-.04-.07-.07-.04-.04-.08-.09-.12-.14-.01-.02-.03-.03-.04-.05-.02-.02-.03-.04-.05-.06-.05-.06-.09-.13-.13-.2-.01-.02-.02-.04-.03-.06-.01-.03-.03-.06-.04-.08-.02-.03-.03-.07-.05-.1,0,0,0,0,0-.01-.02-.04-.03-.07-.05-.11-.03-.08-.06-.17-.08-.25,0-.04-.02-.08-.03-.11,0-.04-.02-.08-.02-.11,0,0,0-.01,0-.02,0-.04-.01-.08-.02-.12,0-.04,0-.08-.01-.12,0-.04,0-.09,0-.13,0-.07,0-.14,0-.21s.02-.14,.03-.21c.01-.07,.03-.14,.05-.21,.02-.07,.04-.14,.06-.2,.01-.03,.02-.07,.04-.1,.08-.2,.19-.39,.32-.55,.02-.03,.04-.06,.07-.08,.05-.06,.12-.12,.19-.17,.04-.03,.07-.05,.11-.08,.11-.08,.23-.15,.33-.22,.07-.05,.12-.11,.17-.18,.14-.21,.1-.34-.01-.44-.02-.02-.04-.04-.07-.06-.1-.08-.23-.15-.35-.24-.57-.47-.93-1.16-.93-1.91,0-.67,.27-1.27,.71-1.71,.25-.25,.55-.44,.88-.56,.04-.01,.07-.03,.11-.04,.23-.07,.47-.11,.72-.11h4.55s-.04,0-.06,0c-1.31,.03-2.37,1.11-2.37,2.43,0,.75,.35,1.43,.93,1.91,.31,.25,.7,.34,.44,.74-.17,.26-.59,.4-.8,.65-.36,.44-.57,1.01-.57,1.56,0,.49,.16,.98,.44,1.39,.14,.2,.31,.38,.51,.53,.1,.08,.19,.12,.25,.24,.06,.13,.09,.27,.06,.41-.02,.16-.11,.35-.26,.43-.16,.08-.3,.14-.42,.29-.37,.43-.58,.99-.58,1.57,0,.47,.14,.92,.41,1.3,.13,.19,.26,.33,.45,.45,.21,.14,.39,.28,.44,.54,.05,.24-.02,.49-.07,.74-.18,.96,.08,2,.7,2.76,.41,.51,2.12,1.48,2.51,1.48Z"/><path class="cls-16" d="M72.77,98.4c-.45,.59,.08,.97,.45,1.44,.33,.42,.51,.95,.51,1.48,0,.9-.46,1.42-1.07,2-.57,.55-.63,1.52-.94,2.25-.31,.71-.77,1.36-1.35,1.88l-.06,.06c-.78,.71-1.8,1.09-2.85,1.09-.78,0-1.56,0-2.33,0-.94,0-2.89,0-3.83,0,0,0,1.9-.74,2.42-1.44s.91-1.51,.65-2.67c-.13-.57-.57-.83-.12-1.37,.22-.27,.52-.43,.71-.74,.49-.79,.39-1.81-.17-2.53-.37-.48-.9-.85-.45-1.44,.49-.64,.96-1.04,.96-1.93,0-.53-.18-1.06-.51-1.48-.29-.37-.61-.66-.61-1.01,0-.15,.06-.31,.22-.48,.5-.57,.9-1.07,.9-1.88,0-1.34-1.09-2.43-2.43-2.43h8.44c1.33,0,2.43,1.09,2.43,2.43,0,.81-.39,1.31-.9,1.88-.16,.18-.22,.34-.22,.48,0,.34,.32,.64,.61,1.01,.33,.42,.51,.95,.51,1.48,0,.89-.47,1.29-.96,1.93Z"/><ellipse class="cls-18" cx="52.67" cy="46.89" rx="15.65" ry="11.23" transform="translate(-17.73 50.97) rotate(-45)"/><path class="cls-11" d="M51.72,37.53c.53,.73-.25,2.18-1.72,3.25s-3.1,1.35-3.62,.62c-.53-.73,.25-2.18,1.72-3.25,1.48-1.07,3.1-1.35,3.62-.62Z"/><path class="cls-11" d="M45.29,42.5c.34,.15,.36,.84,.05,1.53s-.84,1.13-1.18,.98-.36-.84-.05-1.53,.84-1.13,1.18-.98Z"/><path class="cls-16" d="M72.61,93.99c0,.11,.03,.22,.09,.32-2.52,.16-6.7,.26-11.44,.26s-8.98-.11-11.5-.27c0-.01,.02-.02,.02-.03,.14-.21,.1-.34-.01-.44-.02-.02-.04-.04-.07-.06-.07-.05-.14-.09-.22-.15,2.48-.17,6.83-.28,11.78-.28s8.97,.1,11.48,.27c-.1,.14-.14,.26-.14,.38Z"/><path class="cls-16" d="M72.78,99.32c-2.51,.16-6.74,.27-11.52,.27s-9.12-.11-11.62-.28c.15-.12,.25-.26,.22-.44-.02-.1-.08-.18-.16-.25,2.51-.16,6.75-.27,11.57-.27s8.85,.1,11.38,.26c-.11,.26-.02,.49,.14,.7Z"/><path class="cls-16" d="M72.77,103.21s-.08,.07-.12,.11c-.18,.17-.31,.38-.41,.62-2.55,.14-6.53,.24-10.99,.24s-8.78-.1-11.32-.26c-.08-.18-.2-.35-.35-.5-.02-.02-.04-.04-.06-.06-.05-.04-.1-.08-.14-.13,2.46-.17,6.86-.29,11.87-.29s9,.11,11.51,.27Z"/><path class="cls-16" d="M70.1,107.68c-.75,.6-1.68,.92-2.65,.92h-12.74c-.96,0-1.88-.32-2.63-.91,2.46-.1,5.67-.15,9.19-.15s6.43,.05,8.83,.14Z"/></g><path class="cls-23" d="M59.91,7c-1.34,0-2.42,.96-2.42,2.13v12.47c0,1.18,1.09,2.13,2.42,2.13s2.42-.96,2.42-2.13V9.13c0-1.18-1.09-2.13-2.42-2.13Z"/><path class="cls-24" d="M32.29,34.56c.39,.39,.92,.61,1.47,.61s1.08-.22,1.47-.61c.81-.81,.81-2.13,0-2.94l-9.99-9.99c-.39-.39-.92-.61-1.47-.61s-1.08,.22-1.47,.61c-.39,.39-.61,.92-.61,1.47s.22,1.08,.61,1.47l9.99,9.99Z"/><path class="cls-28" d="M84.62,81.5c-.33-.33-.76-.51-1.23-.51s-.9,.18-1.23,.51c-.68,.68-.68,1.77,0,2.45l8.32,8.32c.33,.33,.76,.51,1.23,.51s.9-.18,1.23-.51c.33-.33,.51-.76,.51-1.23s-.18-.9-.51-1.23l-8.32-8.32Z"/><path class="cls-26" d="M36.28,81.07c-.46,0-.9,.18-1.23,.51l-8.32,8.32c-.33,.33-.51,.76-.51,1.23s.18,.9,.51,1.23c.33,.33,.76,.51,1.23,.51s.9-.18,1.23-.51l8.32-8.32c.68-.68,.68-1.77,0-2.45-.33-.33-.76-.51-1.23-.51Z"/><path class="cls-27" d="M86.91,34.68c.97-.49,1.67-1.23,2.44-1.99,1.13-1.13,2.26-2.26,3.39-3.39,1.13-1.13,2.25-2.25,3.38-3.38,.36-.36,.72-.72,1.08-1.08,.39-.39,.61-.92,.61-1.47s-.22-1.08-.61-1.47c-.39-.39-.92-.61-1.47-.61s-1.08,.22-1.47,.61c0,0-9.99,9.99-9.99,9.99-1.01,1.01-.71,2.82,.78,3.14,.53,.11,1.09,0,1.59-.21,.09-.04,.18-.08,.26-.12Z"/><path class="cls-21" d="M26.82,59.21c0-1.09-.89-1.98-1.98-1.98H11.38c-1.09,0-1.98,.89-1.98,1.98s.89,1.98,1.98,1.98h13.46c1.09,0,1.98-.89,1.98-1.98Z"/><path class="cls-22" d="M108.23,57.23h-13.46c-1.09,0-1.98,.89-1.98,1.98s.89,1.98,1.98,1.98h13.46c1.09,0,1.98-.89,1.98-1.98s-.89-1.98-1.98-1.98Z"/><path class="cls-9" d="M91.2,8c9.43,0,17.11,7.41,17.11,16.52v50.68c0,20.29-21.67,36.8-48.3,36.8S11.7,95.49,11.7,75.2V24.52c0-9.11,7.67-16.52,17.11-16.52h62.39m0-6H28.8C16.04,2,5.7,12.08,5.7,24.52v50.68c0,23.64,24.31,42.8,54.3,42.8s54.3-19.16,54.3-42.8V24.52c0-12.44-10.35-22.52-23.11-22.52h0Z"/></g><g class="cls-14"><g><g class="cls-5"><g class="cls-6"><path class="cls-31" d="M256.69-143.08v60.07c-21.07-1.15-42.79-.46-62.05,8.04-10.06,4.44-19.11,10.86-28.07,17.24-22.14,15.76-44.29,31.52-66.43,47.27-5.77,4.11-11.78,8.32-18.74,9.63-9.23,1.74-18.57-1.88-27.95-2.33C35.78-4,20.15,6.12,5.11,16.06V-51.13c3.68-1.08,7.45-1.83,11.27-2.23,1.28-.13,2.57-.23,3.86-.32,8.51-.53,17.23-.26,24.96-3.72,1.92-.86,3.69-1.91,5.36-3.11,1.01-.73,1.98-1.51,2.92-2.34,2.13-1.88,4.08-3.99,5.94-6.24,9.02-10.88,15.82-24.8,28.94-29.54,1.07-.39,2.16-.7,3.26-.95,11.73-2.7,24.75,1.65,36.4-1.96,15.39-4.76,24.14-21.91,39.23-27.57,10.21-3.83,21.79-1.79,32.21-5,5.88-1.81,10.96-5.12,15.76-8.96h41.46Z"/></g></g><g class="cls-29"><g class="cls-36"><path class="cls-30" d="M256.69-105.88v41c-2.76,1.99-5.82,3.57-8.98,4.68-8.91,3.11-18.55,3-27.92,2.28-9.37-.72-18.78-1.99-28.14-1.08-16.84,1.65-32.9,10.71-43.37,24.49-8.48,11.15-14.48,26.05-27.4,30.74-8.06,2.92-16.97,1.02-25.39,2.43-11.76,1.98-21.52,10.16-30.88,17.82-9.35,7.65-19.66,15.37-31.55,16.12-11.89,.75-25.04-8.81-23.86-21.08,.7-7.25,6.14-13.28,12.44-16.55,6.3-3.27,13.43-4.26,20.4-5.28,15.79-2.3,31.66-4.96,46.58-10.82,14.91-5.87,28.95-15.2,38.19-28.68,3.43-5.01,6.41-10.76,11.59-13.74,4.69-2.7,10.32-2.61,15.66-3.11,10.55-.98,20.88-4.56,29.9-10.35,12.39-7.95,22.1-19.84,34.62-27.57,9.99-6.17,26.78-7.05,38.12-1.3Z"/></g></g></g></g></g></g></svg>