<?xml version="1.0" encoding="UTF-8"?><svg xmlns="http://www.w3.org/2000/svg" xmlns:xlink="http://www.w3.org/1999/xlink" viewBox="0 0 120 120"><defs><style>.cls-1{fill:none;}.cls-2{clip-path:url(#clippath);}.cls-3{opacity:.1;}.cls-4{fill:#e9e5dc;}.cls-5,.cls-6{fill:#fff;}.cls-7{fill:#f60;}.cls-8{fill:#b7d694;}.cls-9{fill:#a9d0ff;}.cls-10{fill:#bfa05c;}.cls-11{fill:#d1b56f;}.cls-12{fill:#d3d0c9;}.cls-13{fill:#d4e8f4;}.cls-14{fill:#423345;}.cls-15{fill:#0f0f0f;}.cls-16{fill:#96763c;}.cls-17{fill:#39f;}.cls-18{fill:#4e4251;}.cls-19{fill:#a7a9ac;}.cls-19,.cls-20{mix-blend-mode:multiply;}.cls-20{fill:#d1d3d4;}.cls-21{fill:#939393;font-family:GmarketSansBold-KSCpc-EUC-H, 'Gmarket Sans';font-size:7.62px;}.cls-22{clip-path:url(#clippath-1);}.cls-23{clip-path:url(#clippath-3);}.cls-6{opacity:.2;}.cls-24{isolation:isolate;}</style><clipPath id="clippath"><path class="cls-1" d="M109.3-57.58v-45.03c0-3.98-2.13-7.67-5.58-9.66l-39-22.51c-3.45-1.99-7.7-1.99-11.15,0L14.58-112.27c-3.45,1.99-5.58,5.67-5.58,9.66V-57.58c0,3.98,2.13,7.67,5.58,9.66L53.57-25.41c3.45,1.99,7.7,1.99,11.15,0l39-22.51c3.45-1.99,5.58-5.67,5.58-9.66Z"/></clipPath><clipPath id="clippath-1"><path class="cls-1" d="M246.35,23.51c0-2.62-2.12-4.74-4.74-4.74h-8.49c-4.85-8.84-17.91-15.17-33.27-15.17s-28.43,6.33-33.27,15.17h-8.49c-2.62,0-4.74,2.12-4.74,4.74v61.55c0,17.3,20.82,31.33,46.5,31.33s46.5-14.03,46.5-31.33V23.51Z"/></clipPath><clipPath id="clippath-2"><circle class="cls-1" cx="200.5" cy="-79.88" r="56.5"/></clipPath><clipPath id="clippath-3"><circle class="cls-1" cx="60.5" cy="59.5" r="55.5"/></clipPath></defs><g class="cls-24"><g id="_레이어_1"><g class="cls-2"><g><path class="cls-10" d="M5.04,18.51c0,.18,.15,.33,.33,.33s.34-.15,.34-.33-.15-.34-.34-.34-.33,.15-.33,.34Z"/><path class="cls-10" d="M.13,20.3c0,.31,.25,.56,.56,.56s.56-.25,.56-.56-.25-.56-.56-.56-.56,.25-.56,.56Z"/><path class="cls-10" d="M.13,14.49c0,.19,.15,.33,.33,.33s.34-.15,.34-.33-.15-.34-.34-.34-.33,.15-.33,.34Z"/><path class="cls-10" d="M6.83,7.12c0,.19,.15,.33,.33,.33s.33-.15,.33-.33-.15-.34-.33-.34-.33,.15-.33,.34Z"/><path class="cls-10" d="M11.74,11.7c0,.37,.3,.67,.67,.67s.67-.3,.67-.67-.3-.67-.67-.67-.67,.3-.67,.67Z"/><path class="cls-10" d="M14.2,20.3c0,.19,.15,.33,.34,.33s.33-.15,.33-.33-.15-.34-.33-.34-.34,.15-.34,.34Z"/><path class="cls-10" d="M24.25,19.85c0,.19,.15,.34,.34,.34s.33-.15,.33-.34-.15-.33-.33-.33-.34,.15-.34,.33Z"/><path class="cls-10" d="M19.34,14.6c0,.37,.3,.67,.67,.67s.67-.3,.67-.67-.3-.67-.67-.67-.67,.3-.67,.67Z"/><path class="cls-10" d="M18,7.23c0,.25,.2,.45,.45,.45s.45-.2,.45-.45-.2-.45-.45-.45-.45,.2-.45,.45Z"/><path class="cls-10" d="M26.71,3.77c0,.31,.25,.56,.56,.56s.56-.25,.56-.56-.25-.56-.56-.56-.56,.25-.56,.56Z"/><path class="cls-10" d="M28.5,10.36c0,.37,.3,.67,.67,.67s.67-.3,.67-.67-.3-.67-.67-.67-.67,.3-.67,.67Z"/><path class="cls-10" d="M30.96,17.51c0,.37,.3,.67,.67,.67s.67-.3,.67-.67-.3-.67-.67-.67-.67,.3-.67,.67Z"/><path class="cls-10" d="M35.2,19.52c0,.49,.4,.89,.89,.89s.89-.4,.89-.89-.4-.89-.89-.89-.89,.4-.89,.89Z"/><path class="cls-10" d="M45.7,22.65c0,.25,.2,.45,.45,.45s.45-.2,.45-.45-.2-.45-.45-.45-.45,.2-.45,.45Z"/><path class="cls-10" d="M45.48,28.45c0,.25,.2,.45,.45,.45s.45-.2,.45-.45-.2-.45-.45-.45-.45,.2-.45,.45Z"/><path class="cls-10" d="M55.75,26.11c0,.18,.15,.34,.34,.34s.33-.15,.33-.34-.15-.33-.33-.33-.34,.15-.34,.33Z"/><path class="cls-10" d="M63.57,26c0,.37,.3,.67,.67,.67s.67-.3,.67-.67-.3-.67-.67-.67-.67,.3-.67,.67Z"/><circle class="cls-10" cx="62.9" cy="21.75" r=".67"/><path class="cls-10" d="M86.36,13.49c0,.37,.3,.67,.67,.67s.67-.3,.67-.67-.3-.67-.67-.67-.67,.3-.67,.67Z"/><path class="cls-10" d="M79.88,13.6c0,.31,.25,.56,.56,.56s.56-.25,.56-.56-.25-.56-.56-.56-.56,.25-.56,.56Z"/><path class="cls-10" d="M72.28,14.16c0,.62,.5,1.12,1.12,1.12s1.12-.5,1.12-1.12-.5-1.12-1.12-1.12-1.12,.5-1.12,1.12Z"/><path class="cls-10" d="M64.24,13.49c0,.25,.2,.45,.45,.45s.45-.2,.45-.45-.2-.45-.45-.45-.45,.2-.45,.45Z"/><path class="cls-10" d="M57.76,16.84c0,.25,.2,.45,.45,.45s.45-.2,.45-.45-.2-.45-.45-.45-.45,.2-.45,.45Z"/><path class="cls-10" d="M54.41,12.15c0,.37,.3,.67,.67,.67s.67-.3,.67-.67-.3-.67-.67-.67-.67,.3-.67,.67Z"/><path class="cls-10" d="M49.5,16.39c0,.37,.3,.67,.67,.67s.67-.3,.67-.67-.3-.67-.67-.67-.67,.3-.67,.67Z"/><path class="cls-10" d="M43.24,11.81c0,.19,.15,.34,.33,.34s.34-.15,.34-.34-.15-.33-.34-.33-.33,.15-.33,.33Z"/><path class="cls-11" d="M5.63,35.81s9.5-2.49,15.31,0c5.81,2.49-6.34,4.15-1.06,5.4,5.28,1.25,6.34,4.98-11.09,4.98s-14.78-3.32-7.92-4.15c6.86-.83-3.7-4.57,4.75-6.23Z"/><path class="cls-11" d="M118.53,25.42c0,.12,.1,.22,.22,.22s.22-.1,.22-.22-.1-.22-.22-.22-.22,.1-.22,.22Z"/><path class="cls-11" d="M115.85,20.95c0,.62,.5,1.12,1.12,1.12s1.12-.5,1.12-1.12-.5-1.12-1.12-1.12-1.12,.5-1.12,1.12Z"/><path class="cls-11" d="M107.8,26.2c0,.31,.25,.56,.56,.56s.56-.25,.56-.56-.25-.56-.56-.56-.56,.25-.56,.56Z"/><path class="cls-11" d="M101.99,24.1c0,.18,.15,.33,.34,.33s.33-.15,.33-.33-.15-.34-.33-.34-.34,.15-.34,.34Z"/><path class="cls-11" d="M99.54,29.46c0,.68,.55,1.23,1.23,1.23s1.23-.55,1.23-1.23-.55-1.23-1.23-1.23-1.23,.55-1.23,1.23Z"/><path class="cls-11" d="M89.26,34.49c0,.25,.2,.45,.45,.45s.45-.2,.45-.45-.2-.45-.45-.45-.45,.2-.45,.45Z"/><path class="cls-11" d="M85.91,40.18c0,.43,.35,.78,.78,.78s.78-.35,.78-.78-.35-.78-.78-.78-.78,.35-.78,.78Z"/><path class="cls-11" d="M77.42,44.87c0,.55,.45,1,1.01,1s1.01-.45,1.01-1-.45-1.01-1.01-1.01-1.01,.45-1.01,1.01Z"/><path class="cls-11" d="M66.25,46.55c0,.62,.5,1.12,1.12,1.12s1.12-.5,1.12-1.12-.5-1.12-1.12-1.12-1.12,.5-1.12,1.12Z"/><path class="cls-11" d="M75.86,38.39c0,.31,.25,.56,.56,.56s.56-.25,.56-.56-.25-.56-.56-.56-.56,.25-.56,.56Z"/><path class="cls-11" d="M91.5,27.67c0,.19,.15,.34,.34,.34s.33-.15,.33-.34-.15-.33-.33-.33-.34,.15-.34,.33Z"/><path class="cls-11" d="M86.8,23.99c0,.12,.1,.22,.22,.22s.22-.1,.22-.22-.1-.22-.22-.22-.22,.1-.22,.22Z"/><path class="cls-11" d="M84.35,32.36c0,.43,.35,.78,.78,.78s.78-.35,.78-.78-.35-.78-.78-.78-.78,.35-.78,.78Z"/><path class="cls-11" d="M80.1,39.85c0,.25,.2,.45,.45,.45s.45-.2,.45-.45-.2-.45-.45-.45-.45,.2-.45,.45Z"/><path class="cls-11" d="M65.8,38.51c0,.12,.1,.22,.22,.22s.22-.1,.22-.22-.1-.22-.22-.22-.22,.1-.22,.22Z"/><path class="cls-11" d="M73.18,46.55c0,.12,.1,.22,.22,.22s.22-.1,.22-.22-.1-.22-.22-.22-.22,.1-.22,.22Z"/><path class="cls-11" d="M58.66,47.11c0,.56,.45,1.01,1.01,1.01s1.01-.45,1.01-1.01-.45-1.01-1.01-1.01-1.01,.45-1.01,1.01Z"/><path class="cls-11" d="M3.48,47.33c0,.56,.45,1,1.01,1s1.01-.45,1.01-1-.45-1.01-1.01-1.01-1.01,.45-1.01,1.01Z"/><path class="cls-11" d="M3.48,41.52c0,.19,.15,.34,.34,.34s.33-.15,.33-.34-.15-.34-.33-.34-.34,.15-.34,.34Z"/><path class="cls-11" d="M5.04,37.17c0,.12,.1,.22,.22,.22s.22-.1,.22-.22-.1-.22-.22-.22-.22,.1-.22,.22Z"/><path class="cls-11" d="M.57,34.71c0,.12,.1,.22,.22,.22s.22-.1,.22-.22-.1-.22-.22-.22-.22,.1-.22,.22Z"/><path class="cls-11" d="M8.62,31.69c0,.31,.25,.56,.56,.56s.56-.25,.56-.56-.25-.56-.56-.56-.56,.25-.56,.56Z"/><path class="cls-11" d="M10.4,38.06c0,.25,.2,.45,.45,.45s.45-.2,.45-.45-.2-.45-.45-.45-.45,.2-.45,.45Z"/><path class="cls-11" d="M10.18,42.75c0,.12,.1,.22,.22,.22s.22-.1,.22-.22-.1-.22-.22-.22-.22,.1-.22,.22Z"/><path class="cls-11" d="M14.87,45.77c0,.19,.15,.33,.34,.33s.33-.15,.33-.33-.15-.34-.33-.34-.34,.15-.34,.34Z"/><path class="cls-11" d="M22.91,42.08c0,.25,.2,.45,.45,.45s.45-.2,.45-.45-.2-.45-.45-.45-.45,.2-.45,.45Z"/><path class="cls-11" d="M26.49,46.66c0,.31,.25,.56,.56,.56s.56-.25,.56-.56-.25-.56-.56-.56-.56,.25-.56,.56Z"/><path class="cls-11" d="M33.41,44.43c0,.18,.15,.34,.33,.34s.34-.15,.34-.34-.15-.34-.34-.34-.33,.15-.33,.34Z"/><path class="cls-11" d="M41.23,46.66c0,.19,.15,.34,.34,.34s.33-.15,.33-.34-.15-.34-.33-.34-.34,.15-.34,.34Z"/><path class="cls-11" d="M51.28,41.63c0,.25,.2,.45,.45,.45s.45-.2,.45-.45-.2-.45-.45-.45-.45,.2-.45,.45Z"/><path class="cls-11" d="M47.93,38.51c0,.25,.2,.45,.45,.45s.45-.2,.45-.45-.2-.45-.45-.45-.45,.2-.45,.45Z"/><path class="cls-11" d="M49.94,45.65c0,.37,.3,.67,.67,.67s.67-.3,.67-.67-.3-.67-.67-.67-.67,.3-.67,.67Z"/><path class="cls-11" d="M38.55,36.38c0,.31,.25,.56,.56,.56s.56-.25,.56-.56-.25-.56-.56-.56-.56,.25-.56,.56Z"/><path class="cls-11" d="M27.83,35.04c0,.31,.25,.56,.56,.56s.56-.25,.56-.56-.25-.56-.56-.56-.56,.25-.56,.56Z"/><path class="cls-11" d="M27.16,30.46c0,.25,.2,.45,.45,.45s.45-.2,.45-.45-.2-.45-.45-.45-.45,.2-.45,.45Z"/><path class="cls-11" d="M21.35,34.26c0,.37,.3,.67,.67,.67s.67-.3,.67-.67-.3-.67-.67-.67-.67,.3-.67,.67Z"/><path class="cls-11" d="M132.82,39.85v8.27c-12.06,1.12-16.08-.22-15.41-1.79,.67-1.56-1.56-1.12-1.56-1.12-26.36,2.23-28.59-.22-29.71-1.79-1.12-1.56,2.23-3.13,2.23-3.13l44.45-.45"/><path class="cls-16" d="M132.97,39.83l.03,7.34c-10.53,.5-14.72-.18-14.04-1.75,.67-1.56-6.77-1.24-6.77-1.24-13.79,1.74-23.07,1.24-25.08-.75-1.37-1.36,1.27-3.14,1.27-3.14l44.6-.46"/></g></g><g class="cls-22"><g><polygon class="cls-6" points="200.89 74.38 98.89 82.88 98.89 64.88 200.89 74.38"/><polygon class="cls-6" points="200.89 74.38 116.81 132.74 107.81 117.15 200.89 74.38"/><polygon class="cls-6" points="200.89 74.38 108.31 30.74 117.31 15.15 200.89 74.38"/></g></g><g><g class="cls-23"><g id="map"><rect class="cls-13" x="1.1" y="1.5" width="118.4" height="118.4"/><rect class="cls-5" x="1.1" y="1.5" width="118.4" height="118.4"/><rect class="cls-4" x="1.1" y="1.5" width="118.4" height="118.4"/><path class="cls-9" d="M38.38,119.9h13.61l23.47-15.35c3.18-2.08,5.93-4.86,7.99-8.06,.05-.07,.09-.14,.14-.22,.13-.2,.25-.41,.38-.61,.2-.34,.39-.68,.58-1.02,.27-.51,.53-1.04,.77-1.57,.18-.39,.34-.78,.5-1.17,1.01-2.54,1.65-5.24,1.86-7.97,.61-7.83,5.8-14.54,13.23-17.1l18.61-6.41v-7.88l-21.03,7.24c-10.23,3.53-17.39,12.78-18.23,23.57-.19,2.47-.86,4.86-1.92,7.06-.19,.39-.4,.78-.61,1.16-.3,.53-.63,1.05-.98,1.55-.38,.54-.78,1.06-1.21,1.57-.06,.07-.12,.13-.17,.2-1.15,1.31-2.48,2.47-3.96,3.43l-33,21.58Z"/><polygon class="cls-5" points="17.29 119.9 23.66 119.9 65.19 92.87 65.45 92.7 67.55 91.33 69.63 89.98 71.15 88.99 72.19 88.31 81.28 59.7 119.5 45.43 119.5 41.72 80.46 56.3 78.48 57.03 77.91 58.81 69.26 86.08 66.27 88.02 64.96 88.87 63.51 89.82 62.05 90.77 61.12 91.37 56.45 94.41 53.53 96.31 48.51 99.58 45.6 101.47 17.29 119.9"/><polygon class="cls-5" points="60.93 1.5 61.81 2.96 63.61 5.93 73.5 22.26 75.02 24.76 119.5 24.76 119.5 21.29 76.97 21.29 64.99 1.5 60.93 1.5"/><rect class="cls-5" x="32.44" y="53.98" width="3.48" height="50.54" transform="translate(-36.11 29.16) rotate(-31.2)"/><rect class="cls-5" x="69.61" y="27.99" width="3.48" height="33.24" transform="translate(-12.79 43.41) rotate(-31.2)"/><polygon class="cls-5" points="1.1 13.93 1.1 18.02 27.86 1.5 21.24 1.5 1.1 13.93"/><polygon class="cls-8" points="1.1 1.5 1.1 8.59 12.58 1.5 1.1 1.5"/><polygon class="cls-5" points="1.1 40.44 1.1 44.53 12.86 37.27 14.01 36.56 15.38 35.71 17.4 34.46 17.81 34.21 63.61 5.93 65.13 5 63.3 2.04 61.81 2.96 14.18 32.37 13.91 32.53 11.72 33.89 10.52 34.63 9.23 35.43 1.1 40.44"/><polygon class="cls-5" points="1.1 66.95 1.1 71.04 20.07 59.32 23.03 57.5 28.13 54.35 31.09 52.52 35.82 49.6 36.19 49.37 37.7 48.44 39.15 47.55 40.05 46.99 62.4 33.19 65.36 31.36 76.05 24.76 76.91 24.24 75.08 21.28 73.5 22.26 37.76 44.32 37.76 44.32 36.56 45.06 35.45 45.74 33.16 47.16 32.81 47.38 1.1 66.95"/><path class="cls-8" d="M1.1,78.94v40.96h7.47l18.97-12.38c1-.65,1.67-1.71,1.84-2.9l.55-3.95c.16-1.17,.24-2.35,.24-3.53,0-3.06-.55-6.11-1.62-9-1.29-3.46-3.29-6.56-5.83-9.12-2.54-2.56-5.62-4.6-9.06-5.92-1.2-.46-2.56-.34-3.66,.34l-8.9,5.49Z"/><path class="cls-9" d="M70.85,1.5c3.85,5.08,11.66,13.82,20.73,15.38,10.14,1.75,22.87,.58,27.91-.02V1.5h-48.65Z"/><path class="cls-8" d="M77.76,29.53h35.12c.5,0,.9,.4,.9,.9v7.73c0,.38-.24,.72-.6,.85l-30.2,10.79c-.4,.14-.85-.01-1.07-.38l-9.67-15.71c-.26-.43-.13-.99,.31-1.25l4.75-2.81c.14-.08,.3-.13,.46-.13Z"/><path class="cls-12" d="M71.74,62.72l-4.04,12.73c-.61,1.92-3.19,2.22-4.23,.5l-14.86-24.6c-1.04-1.72-.51-3.94,1.18-5.02l7.3-4.63c1.75-1.11,4.06-.56,5.13,1.21l8.93,14.84c.9,1.49,1.11,3.3,.58,4.96Z"/><rect class="cls-12" x="48.28" y="15.18" width="18.5" height="11.58" rx=".79" ry=".79" transform="translate(-2.53 32.92) rotate(-31.28)"/><path class="cls-12" d="M35.06,28.26h0s7.88-4.77,7.88-4.77h0s0,0,0,0c.36-.22,.83-.1,1.05,.26l5.22,8.59c.22,.36,.1,.83-.26,1.05l-3.32,2.02c-.36,.22-.83,.1-1.05-.26l-1.27-2.09c-.22-.36-.69-.47-1.05-.26l-2.61,1.58c-.36,.22-.47,.69-.26,1.05l1.26,2.07c.22,.36,.1,.83-.26,1.05l-3.32,2.02c-.36,.22-.83,.1-1.05-.26l-5.22-8.59c-.22-.36-.1-.83,.26-1.05l3.97-2.41Z"/><rect class="cls-12" x="32.49" y="5.72" width="16.93" height="5.54" rx=".79" ry=".79" transform="translate(1.54 22.5) rotate(-31.28)"/><path class="cls-12" d="M28.75,4.51l2.05,3.38c.23,.38,.72,.49,1.09,.27L42.84,1.5h-10.67l-3.15,1.92c-.37,.23-.49,.72-.27,1.09Z"/><rect class="cls-12" x="9.28" y="12.14" width="20.64" height="11.58" rx=".79" ry=".79" transform="translate(-6.46 12.78) rotate(-31.28)"/><path class="cls-12" d="M1.1,48.54v13.26c.2,.06,.43,.03,.62-.09l17.23-10.47c.37-.23,.49-.72,.27-1.09l-5.19-8.54c-.23-.37-.72-.49-1.09-.27L1.1,48.54Z"/><polygon class="cls-5" points="1.1 25.44 1.1 29.42 10.52 34.63 14.01 36.56 33.16 47.16 35.67 48.54 36.19 49.37 62.05 90.77 62.95 92.21 65.45 92.7 75.51 94.68 83.58 96.28 119.5 103.36 119.5 99.81 85.31 93.07 77.7 91.57 69.63 89.98 65.1 89.09 64.96 88.87 39.15 47.55 38.14 45.94 36.56 45.06 17.4 34.46 13.91 32.53 1.1 25.44"/><path class="cls-8" d="M100.58,119.9h18.92v-12.51l-3.17-.61c-7.05-1.35-13.86,3.26-15.21,10.31l-.54,2.81Z"/><path class="cls-12" d="M83.22,119.9h13.92l1.37-7.14c.1-.54-.25-1.06-.79-1.16l-11.47-2.2c-.54-.1-1.06,.25-1.16,.79l-1.87,9.72Z"/><rect class="cls-12" x="90.53" y="98.4" width="5.44" height="13.53" rx=".99" ry=".99" transform="translate(-27.62 176.89) rotate(-79.12)"/><path class="cls-12" d="M110.45,92.91l9.05,1.74v-10.33l-7.14-1.37c-.54-.1-1.06,.25-1.16,.79l-1.54,8.02c-.1,.54,.25,1.06,.79,1.16Z"/><path class="cls-12" d="M105.56,78.77l13.94,2.68v-10.33l-12.03-2.31c-.54-.1-1.06,.25-1.16,.79l-1.54,8.02c-.1,.54,.25,1.06,.79,1.16Z"/><rect class="cls-12" x="92.4" y="83.97" width="13.29" height="6.33" rx="3.17" ry="3.17" transform="translate(179.86 191.4) rotate(-169.12)"/><rect class="cls-12" x="37.3" y="62.01" width="7.63" height="19.01" rx=".99" ry=".99" transform="translate(-31.08 31.61) rotate(-31.17)"/><path class="cls-12" d="M44.6,84.65l3.71,6.13c1.09,1.8,3.44,2.38,5.24,1.29h0c1.8-1.09,2.38-3.44,1.29-5.24l-3.71-6.13c-.3-.49-.93-.64-1.42-.35l-4.76,2.88c-.49,.3-.64,.93-.35,1.42Z"/><rect class="cls-12" x="29.85" y="54.3" width="6.31" height="7.63" rx="3.15" ry="3.15" transform="translate(.37 116.44) rotate(-121.17)"/><path class="cls-12" d="M74.96,119.9h4.6l1.98-10.3c.1-.54-.25-1.06-.79-1.16l-2.48-.48c-.54-.1-1.06,.25-1.16,.79l-2.14,11.15Z"/></g></g><g><circle class="cls-14" cx="57.65" cy="62.35" r="41.85"/><circle class="cls-18" cx="57.65" cy="62.35" r="38.88"/><circle class="cls-17" cx="57.65" cy="62.35" r="36.1" transform="translate(-16.23 104.2) rotate(-76.77)"/><circle class="cls-5" cx="57.75" cy="62.07" r="32.35"/><circle class="cls-15" cx="57.65" cy="62.35" r="8.01"/><path class="cls-3" d="M57.65,20.5h0V104.19h0c23.11,0,41.85-18.74,41.85-41.85S80.76,20.5,57.65,20.5Z"/><path class="cls-19" d="M63.69,63.24l17.24-22.37-22.37,17.24c-1.29,.01-2.58,.51-3.56,1.49-.98,.98-1.47,2.25-1.49,3.52l-17.25,22.39,22.35-17.22c1.3,0,2.61-.5,3.6-1.49,.98-.98,1.48-2.27,1.49-3.56Z"/><g><polygon class="cls-7" points="54.77 59.46 79.99 40.02 60.56 65.25 54.77 59.46"/><polygon class="cls-20" points="57.66 62.35 60.56 65.25 79.99 40.02 79.99 40.03 57.66 62.35"/><polygon class="cls-17" points="54.75 59.44 35.31 84.67 60.54 65.23 54.75 59.44"/><polygon class="cls-20" points="57.65 62.34 60.54 65.23 35.31 84.67 35.32 84.67 57.65 62.34"/><path class="cls-5" d="M61.26,65.96c-1.99,1.99-5.22,1.99-7.21,0-1.99-1.99-1.99-5.22,0-7.2,1.99-1.99,5.22-1.99,7.21,0,1.99,1.99,1.99,5.22,0,7.2Z"/><path class="cls-5" d="M61.1,58.91c1.96,1.96,1.99,5.13,.08,7.12,.03-.03,.06-.05,.08-.08,1.99-1.99,1.99-5.22,0-7.2-1.99-1.99-5.22-1.99-7.21,0-.03,.03-.05,.05-.08,.08,1.99-1.91,5.16-1.88,7.12,.08Z"/><path class="cls-14" d="M59.93,64.62c-1.25,1.25-3.28,1.25-4.53,0-1.25-1.25-1.25-3.28,0-4.53,1.25-1.25,3.28-1.25,4.53,0,1.25,1.25,1.25,3.28,0,4.53Z"/><path class="cls-15" d="M59.75,60.27c1.22,1.22,1.25,3.18,.09,4.44,.03-.03,.06-.06,.09-.09,1.25-1.25,1.25-3.28,0-4.53-1.25-1.25-3.28-1.25-4.53,0-.03,.03-.06,.06-.09,.09,1.26-1.16,3.22-1.14,4.44,.09Z"/></g><g><text class="cls-21" transform="translate(53.99 39.52)"><tspan x="0" y="0">N</tspan></text><text class="cls-21" transform="translate(53.99 89.97)"><tspan x="0" y="0">S</tspan></text><text class="cls-21" transform="translate(29.24 64.27)"><tspan x="0" y="0">W</tspan></text><text class="cls-21" transform="translate(80.65 64.27)"><tspan x="0" y="0">E</tspan></text></g></g><path class="cls-5" d="M60,7.69c28.84,0,52.31,23.47,52.31,52.31s-23.47,52.31-52.31,52.31S7.69,88.84,7.69,60,31.16,7.69,60,7.69m0-6.19C27.69,1.5,1.5,27.69,1.5,60s26.19,58.5,58.5,58.5,58.5-26.19,58.5-58.5S92.31,1.5,60,1.5h0Z"/></g></g></g></svg>