<?xml version="1.0" encoding="UTF-8"?><svg id="_레이어_1" xmlns="http://www.w3.org/2000/svg" xmlns:xlink="http://www.w3.org/1999/xlink" viewBox="0 0 120 120"><defs><style>.cls-1,.cls-2{fill:none;}.cls-3{fill:url(#linear-gradient);}.cls-4{clip-path:url(#clippath);}.cls-5{fill:#f7f7f7;}.cls-6{fill:#f2f2f2;}.cls-7{fill:#ebf3ff;}.cls-8{fill:#fafcff;}.cls-9{fill:#e8f2ff;}.cls-10{fill:#fff;}.cls-11{fill:#f1f7ff;}.cls-12{fill:#ffd4f3;}.cls-13{fill:#f90;}.cls-14{fill:#b5d9ff;}.cls-15{fill:#bababa;}.cls-16{fill:#bcbcbc;}.cls-17{fill:#bdf;}.cls-18{fill:#bfdeff;}.cls-19{fill:#c0dfff;}.cls-20{fill:#cfe7ff;}.cls-21{fill:#c4c4c4;}.cls-22{fill:#c4e1ff;}.cls-23{fill:#dbdbdb;}.cls-24{fill:#d9e9ff;}.cls-25{fill:#afafaf;}.cls-26{fill:#dfeeff;}.cls-27{fill:#c7e2ff;}.cls-28{clip-path:url(#clippath-1);}.cls-29{clip-path:url(#clippath-3);}.cls-30{clip-path:url(#clippath-2);}.cls-31{fill:url(#linear-gradient-8);}.cls-32{fill:url(#linear-gradient-9);}.cls-33{fill:url(#linear-gradient-3);}.cls-34{fill:url(#linear-gradient-4);}.cls-35{fill:url(#linear-gradient-2);}.cls-36{fill:url(#linear-gradient-6);}.cls-37{fill:url(#linear-gradient-7);}.cls-38{fill:url(#linear-gradient-5);}.cls-39{opacity:.4;}.cls-40{fill:url(#linear-gradient-14);}.cls-41{fill:url(#linear-gradient-18);}.cls-42{fill:url(#linear-gradient-20);}.cls-43{fill:url(#linear-gradient-21);}.cls-44{fill:url(#linear-gradient-15);}.cls-45{fill:url(#linear-gradient-19);}.cls-46{fill:url(#linear-gradient-16);}.cls-47{fill:url(#linear-gradient-17);}.cls-48{fill:url(#linear-gradient-13);}.cls-49{fill:url(#linear-gradient-12);}.cls-50{fill:url(#linear-gradient-10);}.cls-51{fill:url(#linear-gradient-11);}.cls-2{stroke:#000;stroke-linecap:round;stroke-miterlimit:10;stroke-width:1.17px;}</style><clipPath id="clippath"><path class="cls-1" d="M-30.64,81.88V37.39c0-3.98-2.13-7.67-5.58-9.66L-74.74,5.48c-3.45-1.99-7.7-1.99-11.15,0l-38.53,22.25c-3.45,1.99-5.58,5.67-5.58,9.66v44.49c0,3.98,2.13,7.67,5.58,9.66l38.53,22.25c3.45,1.99,7.7,1.99,11.15,0l38.53-22.25c3.45-1.99,5.58-5.67,5.58-9.66Z"/></clipPath><linearGradient id="linear-gradient" x1="14.78" y1="-232.51" x2="-272.39" y2="-302.95" gradientTransform="translate(0 -158) scale(1 -1)" gradientUnits="userSpaceOnUse"><stop offset=".08" stop-color="#fcd269"/><stop offset="1" stop-color="#f9aa56"/></linearGradient><linearGradient id="linear-gradient-2" x1="60.05" y1="-3.65" x2="60.05" y2="101.86" gradientUnits="userSpaceOnUse"><stop offset="0" stop-color="#5a97df"/><stop offset=".31" stop-color="#5d99e0"/><stop offset=".57" stop-color="#67a0e4"/><stop offset=".82" stop-color="#79adea"/><stop offset="1" stop-color="#8cbbf2"/><stop offset="1" stop-color="#81b3ed"/><stop offset="1" stop-color="#649ee3"/><stop offset="1" stop-color="#5795de"/></linearGradient><clipPath id="clippath-1"><path class="cls-1" d="M29.78,116.3l60.03-.22c12.28-.04,22.2-9.78,22.16-21.75l-.18-48.76c-.08-22.74-23.54-41.09-52.4-40.99C30.53,4.68,7.21,23.2,7.29,45.94l.18,48.76c.04,11.97,10.03,21.64,22.31,21.59Z"/></clipPath><linearGradient id="linear-gradient-3" x1="-901.5" y1="12255.23" x2="-901.5" y2="12188.29" gradientTransform="translate(963 -12128.58)" gradientUnits="userSpaceOnUse"><stop offset="0" stop-color="#fff"/><stop offset=".34" stop-color="#eaf5ff"/><stop offset=".7" stop-color="#dbeeff"/><stop offset=".99" stop-color="#d6ecff"/></linearGradient><linearGradient id="linear-gradient-4" x1="42.67" y1="67.31" x2="42.67" y2="20.51" gradientUnits="userSpaceOnUse"><stop offset="0" stop-color="#cbe5ff"/><stop offset=".1" stop-color="#c1e0fc"/><stop offset=".33" stop-color="#b2d8f8"/><stop offset=".59" stop-color="#a9d4f5"/><stop offset=".99" stop-color="#a7d3f5"/></linearGradient><linearGradient id="linear-gradient-5" x1="32.3" y1="75.86" x2="32.3" y2="59.31" gradientUnits="userSpaceOnUse"><stop offset="0" stop-color="#c6e3ff"/><stop offset=".05" stop-color="#c1e0fd"/><stop offset=".34" stop-color="#b0d8f8"/><stop offset=".64" stop-color="#a5d2f5"/><stop offset=".99" stop-color="#a2d1f5"/></linearGradient><linearGradient id="linear-gradient-6" x1="21.77" y1="81.95" x2="29.26" y2="81.95" gradientUnits="userSpaceOnUse"><stop offset="0" stop-color="#c0dfff"/><stop offset=".61" stop-color="#a5d1f7"/><stop offset=".99" stop-color="#9accf5"/></linearGradient><linearGradient id="linear-gradient-7" x1="50.9" y1="57.81" x2="54.64" y2="57.81" xlink:href="#linear-gradient-6"/><linearGradient id="linear-gradient-8" x1="47.95" y1="69.88" x2="56.79" y2="69.88" gradientUnits="userSpaceOnUse"><stop offset="0" stop-color="#c0dfff"/><stop offset=".05" stop-color="#bcddfe"/><stop offset=".35" stop-color="#a9d3f9"/><stop offset=".67" stop-color="#9dcdf5"/><stop offset=".99" stop-color="#9accf5"/></linearGradient><linearGradient id="linear-gradient-9" x1="97.16" y1="70.44" x2="97.16" y2="84.75" gradientUnits="userSpaceOnUse"><stop offset="0" stop-color="#c0dfff"/><stop offset=".34" stop-color="#abd4f9"/><stop offset=".68" stop-color="#9ecef6"/><stop offset=".99" stop-color="#9accf5"/></linearGradient><linearGradient id="linear-gradient-10" x1="63.78" y1="65.82" x2="68.19" y2="65.82" gradientUnits="userSpaceOnUse"><stop offset="0" stop-color="#c0dfff"/><stop offset=".58" stop-color="#a6d2f8"/><stop offset=".99" stop-color="#9accf5"/></linearGradient><linearGradient id="linear-gradient-11" x1="69.06" y1="65.73" x2="77.95" y2="81.13" gradientUnits="userSpaceOnUse"><stop offset="0" stop-color="#c0dfff"/><stop offset=".31" stop-color="#b9dbfd"/><stop offset=".75" stop-color="#a7d2f8"/><stop offset=".99" stop-color="#9accf5"/></linearGradient><linearGradient id="linear-gradient-12" x1="66.4" y1="74.15" x2="71.58" y2="83.13" xlink:href="#linear-gradient-6"/><linearGradient id="linear-gradient-13" x1="44.78" y1="95.25" x2="47.49" y2="90.56" gradientUnits="userSpaceOnUse"><stop offset="0" stop-color="#cfe7ff"/><stop offset=".01" stop-color="#cde6fe"/><stop offset=".35" stop-color="#b9dbf9"/><stop offset=".67" stop-color="#add5f6"/><stop offset=".99" stop-color="#a9d3f5"/></linearGradient><linearGradient id="linear-gradient-14" x1="59.86" y1="99" x2="59.86" y2="82.65" gradientUnits="userSpaceOnUse"><stop offset="0" stop-color="#c4e1ff"/><stop offset=".02" stop-color="#bfdefd"/><stop offset=".13" stop-color="#aed6f9"/><stop offset=".27" stop-color="#a2d0f7"/><stop offset=".46" stop-color="#9bccf5"/><stop offset=".99" stop-color="#9accf5"/></linearGradient><linearGradient id="linear-gradient-15" x1="79.2" y1="98.27" x2="119.38" y2="98.27" xlink:href="#linear-gradient-14"/><linearGradient id="linear-gradient-16" x1="86.31" y1="89.79" x2="95.33" y2="89.79" gradientUnits="userSpaceOnUse"><stop offset="0" stop-color="#cfe7ff"/><stop offset=".5" stop-color="#b9dbf9"/><stop offset=".99" stop-color="#a9d3f5"/></linearGradient><linearGradient id="linear-gradient-17" x1="73.39" y1="94.63" x2="84.27" y2="88.35" gradientUnits="userSpaceOnUse"><stop offset="0" stop-color="#cfe7ff"/><stop offset=".2" stop-color="#c4e1fc"/><stop offset=".67" stop-color="#b0d6f6"/><stop offset=".99" stop-color="#a9d3f5"/></linearGradient><linearGradient id="linear-gradient-18" x1="98.79" y1="88.52" x2="103.56" y2="88.52" xlink:href="#linear-gradient-14"/><linearGradient id="linear-gradient-19" x1="6.61" y1="117.72" x2="10.3" y2="117.72" gradientUnits="userSpaceOnUse"><stop offset="0" stop-color="#cfe7ff"/><stop offset=".61" stop-color="#b4d8f7"/><stop offset=".99" stop-color="#a9d3f5"/></linearGradient><linearGradient id="linear-gradient-20" x1="38.14" y1="115.2" x2="52.87" y2="106.7" gradientUnits="userSpaceOnUse"><stop offset="0" stop-color="#cfe7ff"/><stop offset=".32" stop-color="#bcddfa"/><stop offset=".69" stop-color="#aed5f6"/><stop offset=".99" stop-color="#a9d3f5"/></linearGradient><linearGradient id="linear-gradient-21" x1="20.57" y1="104.48" x2="34.54" y2="104.48" gradientUnits="userSpaceOnUse"><stop offset="0" stop-color="#cfe7ff"/><stop offset=".1" stop-color="#c6e2fc"/><stop offset=".35" stop-color="#b5d9f8"/><stop offset=".63" stop-color="#acd4f5"/><stop offset=".99" stop-color="#a9d3f5"/></linearGradient><clipPath id="clippath-2"><path class="cls-1" d="M101.15,79.02c0,11.74-12.44,21.26-27.78,21.26s-27.78-9.52-27.78-21.26,12.44-22.42,27.78-22.45c20.02-.03,27.78,10.71,27.78,22.45Z"/></clipPath><clipPath id="clippath-3"><path class="cls-1" d="M81.19,64.14c0,13.68-14.49,24.77-32.36,24.77s-32.36-11.09-32.36-24.77S30.96,31.96,48.83,31.96s32.36,18.5,32.36,32.18Z"/></clipPath></defs><g class="cls-4"><g id="Layer2_1_MEMBER_0_FILL"><path class="cls-13" d="M24.78,7.11c.13-.07,.11-.1-.05-.1-.08,.01-.14,.04-.19,.07,.13-.11,.19-.19,.16-.22-.03-.02-.09,0-.16,.04-.04,.02-.08,.04-.13,.06-.17,.04-.31,.06-.41,.06,0,0,0,0-.01,0l-.57-.27h0s0-.01,0-.01c0,0,0,0,0-.01,0,0,0,0,0,0,0,0,0,0-.01-.01,0,0,0,0-.01,0,0,0-.02,0-.02,0,0,0,0,0-.01,0h-.01c.07,0,.15,0,.22,0h.28s.04-.03,.04-.03h0s.02-.05,.02-.05h0s0,0,0,0c-.03-.05-.1-.1-.22-.13l-.21-.04c.18,0,.34,0,.45-.04l.19-.05h0c.07-.06,.09-.1,.06-.13l-.03-.03h-.02s0-.02,0-.02c-.06,0-.18,0-.34,0h-.28c.09,0,.18-.03,.28-.07l.17-.07c.05-.03,.11-.06,.18-.1l.1-.07,.13-.14h0v-.02h0s-.04-.04-.1-.02l-.09,.03c-.06,.01-.13,.03-.22,.06l-.15,.04c.06-.02,.13-.06,.2-.1l.1-.06,.27-.22v-.02c.03-.06,.03-.09,0-.09l-.34,.16,.22-.17,.12-.14,.06-.09h0s0-.03,0-.03h0s-.42,.26-.42,.26c-.07,.04-.19,.11-.36,.2l-.27,.15c-.06,.04-.13,.08-.2,.11-.03,0-.07,0-.1,.01l-.16,.04c.07-.02,.14-.05,.21-.09l.1-.06,.04-.04v-.02s.01-.01,.01-.01h-.03s-.01,0-.01,0c-.28,.02-.52,.08-.72,.17l-.3,.15c-.15,.05-.26,.12-.33,.21l-.1,.13h0c-.03,.11-.01,.18,.05,.23l.1,.08h.01l.07,.04s-.06,0-.1,.01c-.07,0-.15,0-.23,.02-.29,.13-.41,.35-.37,.66l.15-.16s.09-.01,.13,0c.22,.08,.41,.19,.57,.32,.12,.11,.28,.19,.48,.24,.09,0,.17,0,.25,.01,.03,0,.06,.02,.1,.04,.08,.03,.18,.06,.28,.08,0,.19,.09,.33,.28,.4-.15-.15-.2-.3-.16-.43l-.25-.1h0c.11-.02,.22-.05,.32-.09,.12-.04,.22-.11,.31-.19,.04-.04,.09-.05,.13-.04,.04,0,.09,0,.13,.01,.06,.02,.14,.05,.23,.09,.11,.04,.23,.07,.36,.09,.04,0,.08,0,.1-.03,.02-.02,0-.04-.06-.06-.07-.03-.12-.06-.16-.09l.28-.03c.11-.02,.13-.05,.04-.09-.1,0-.19-.01-.25-.02-.05,0-.05-.02,.01-.04,.07-.01,.14-.04,.2-.07m-9.18-.12h0s0,.02,0,.02h0s0,.01,0,.01h0l.07-.04s.11-.09,.19-.2l-.04,.06s0,.06,.04,.05l.08-.07c.05-.04,.1-.09,.13-.15-.05,.08-.05,.14,0,.17h.01l.02-.02,.1-.13v.03c-.03,.09-.05,.16-.07,.2l-.04,.08s-.02,.06,0,.06c.05-.01,.09-.05,.13-.1h0s.01-.03,.01-.03l.06-.17,.04-.04h0c-.01,.1-.03,.18-.04,.27v.07s0,.06,.02,.05h0s0,0,0,0l.1-.2,.05-.15c.03-.1,.05-.2,.06-.3v.04s.04,.34,.04,.34v.14c-.02,.08-.02,.14-.01,.19h0s.04,0,.04,0h0s.01-.01,.01-.01l.02-.03,.06-.12,.02-.08,.02-.23v-.05s.03,.07,.09,.1h0s.01,0,.01,0l.04-.02h0s0-.01,0-.01l.02-.04v-.1s.01-.13,.01-.13l.05,.1c.03,.06,.08,.08,.13,.07h.04s.05-.2,.05-.2v-.04l-.02-.13c.03,.1,.09,.13,.16,.1,.02,.15,.12,.26,.28,.33-.15-.16-.2-.31-.16-.44l-.13-.05-.02-.07s.07-.02,.1-.03c.03,0,.06,0,.09,0h.01v-.02h0c.12-.05,.23-.11,.32-.19,.04-.03,.08-.05,.13-.04,.03,0,.06,0,.08,0,.05,.03,.14,.08,.25,.14,.1,.06,.22,.12,.34,.16,.04,0,.08,0,.1-.01,.02-.02,0-.04-.04-.07-.07-.04-.12-.08-.16-.12l.28,.02c.12,0,.14-.03,.05-.08-.1-.03-.18-.05-.23-.07-.05-.02-.05-.03,.02-.04,.07,0,.14-.01,.21-.04,.14-.04,.13-.08-.04-.1-.08,0-.15,.01-.21,.04,.16-.08,.23-.14,.21-.18-.03-.02-.09-.02-.17,.01-.04,.02-.08,.03-.13,.03-.2,0-.35,0-.46-.03,0,0,0,0-.01,0l-.29-.13c-.06-.06-.15-.11-.25-.14l.07,.02-.1-.04c-.06-.03-.13-.05-.21-.07-.36-.13-.8-.16-1.3-.07-.08,0-.16,0-.24,.01-.29,.13-.41,.35-.37,.66l.15-.16s.09,0,.14,0c.18,.06,.34,.15,.47,.25-.02,.02-.04,.05-.06,.09-.03,.05-.07,.12-.11,.2l-.08,.23c-.05,.14-.1,.24-.16,.31l-.19,.29v.04m15.76-2.02l-.21-.05c-.08,0-.12,.03-.11,.09v.02s-.03-.02-.04-.02h-.01s-.08-.03-.08-.03c-.06,0-.11,0-.16,.05h0s.01,.09,.01,.09l.09,.22s.04,.08,.07,.13v.02s0,.08,0,.08c0,0-.02,0-.04,0-.08,0-.16,0-.24,.02-.29,.13-.41,.35-.37,.66l.15-.16s.09-.01,.14,0c.09,.03,.18,.07,.26,.12l-.03,.1c-.03,.1-.05,.19-.07,.25l-.06,.16c-.03,.1-.07,.19-.1,.26l-.13,.23-.03,.08v.04s0,.02,0,.02h.01l.07-.03,.05-.04,.11-.13h0s.01,0,.01,0l.02-.02,.16-.25,.03-.11c.02-.07,.04-.13,.06-.17h0s-.04,.31-.04,.31l-.14,.38v.07s-.01,.02-.01,.02h0s.02,.01,.02,.01h.04s.03-.03,.03-.03l.05-.07h0s.02-.04,.02-.04l.15-.35c.02-.07,.04-.13,.06-.18h0s-.02,.21-.02,.21c0,.13-.04,.25-.09,.36h0s0,.08,0,.08c0,.04,.01,.07,.04,.07h0l.02-.03,.13-.2,.13-.44s.02-.06,.02-.09v.16c-.02,.12-.03,.21-.04,.28h0v.19s0,.01,0,.01h0s.01,.03,.01,.03h.01c.05-.06,.1-.17,.14-.35l.05-.37s0,0,0,0l.02,.14c0,.1,.01,.18,.01,.24v.13c.02,.07,.05,.08,.09,.04v-.03s.05-.49,.05-.49l.04,.1v.03s.01,0,.01,0c0,.01,0,.03,0,.04h0c.01,.15,.02,.29,0,.42l-.07,.6v.02s.02,.04,.02,.02c.05,0,.09-.06,.13-.15l.05-.15h0c.03-.16,.06-.32,.07-.48,.02-.16,.02-.15,0,.03,0,0,0,0,0,.01v.45s0,.11,0,.11h0s.07-.03,.09-.1l.02-.12h0c.04-.09,.07-.18,.1-.29l.04-.18s0-.05,0-.08c.05,.09,.13,.16,.25,.21-.15-.15-.2-.3-.16-.43l-.07-.03v-.11s.03,0,.04-.01c.06,.21,.12,.36,.16,.45l.07,.13h0s0,.01,0,.01c.04-.01,.06-.07,.05-.17v-.14s-.01-.04-.01-.04c0-.07-.02-.16-.04-.27,0-.02,0-.04-.01-.06,.01,0,.02,0,.03-.01l.19,.42,.02,.04h0s.03-.03,.03-.07v-.07s-.01,0-.01,0c0-.11-.02-.22-.05-.33,0-.03-.02-.06-.02-.09,0,0,0,0,0-.01l.07,.16,.03,.03h.02v.02h0c0-.09-.02-.17-.05-.25,.02,0,.04-.01,.06,0,.04,0,.08,0,.12,.01,.06,.02,.14,.05,.25,.08,.11,.04,.23,.08,.36,.1,.04,0,.07-.01,.09-.04,.02-.02,0-.04-.05-.06-.07-.02-.13-.05-.17-.08l.28-.04c.12-.02,.13-.05,.04-.09-.1,0-.18-.01-.24-.02-.06,0-.05-.02,.01-.04s.13-.04,.19-.07c.13-.07,.11-.11-.05-.1-.08,.01-.15,.04-.2,.07,.14-.11,.2-.19,.17-.22-.03-.01-.09,0-.16,.05-.03,.02-.08,.04-.13,.06-.16,.03-.29,.05-.4,.06,0,0,0,0-.01,0l-.25-.12c-.04-.06-.08-.11-.13-.15-.09-.09-.17-.17-.23-.25,0,0,0,0,0,0-.08-.09-.21-.18-.37-.27l-.26-.15h-.01c-.1-.04-.21-.08-.34-.12m7.63-.97s0,0,0-.01c0,0,0-.02,0-.02h-.01s-.04-.02-.04-.02h-.14s-.14,.01-.14,.01l-.4-.19c-.38-.17-.85-.21-1.4-.11-.07,0-.15,0-.23,.01-.29,.13-.41,.35-.37,.66l.15-.16s.09,0,.13,.01c.12,.04,.24,.09,.34,.16l-.03,.07-.05,.07c-.05,.06-.11,.09-.18,.1h-.01s-.33,.03-.33,.03c-.03,0-.06,0-.1,0-.03,0-.07-.02-.11-.04h0s.03,.06,.03,.06h0s.1,.07,.22,.1h0s0,.02,0,.02l.12,.04h.13c.08-.02,.15-.03,.21-.05-.02,.02,0,.03,.07,.02h0l.1-.04c.03,.06,.09,.12,.16,.19h.01s.1,.09,.1,.09c.07,.06,.18,.1,.31,.13h0s.14,.02,.14,.02c.09,0,.14,0,.16-.04h0s-.03-.04-.03-.04l-.2-.13s0,0,.01,0c0,0,0,0,.01,0,0,0,.02,0,.02,0h.01s0,0,.01,0h.01s0,0,.01,0c0,0,.01,0,.02,0,0,0,0,0,.01,0h.01s0,0,.01,0,.01,0,.02,0h.01s0,0,.01,0h.02s0,0,.01,0h.01s0,0,.01,0h.11s0,0,.01,0c0,0,.02,0,.02,0,0,0,.01,0,.02-.01h0s-.02-.06-.02-.06l-.07-.04-.22-.06s-.02,0-.02,0,0,0-.01,0h-.01s-.01,0-.02,0c0,0,0,0-.01,0h-.01s0,0-.01,0h-.01s-.02,0-.02-.01c0,0-.02,0-.03,0,0,0-.02,0-.02,0,0,0-.01,0-.02-.01l.24,.05s.02,0,.03,0,.02,0,.03,0c0,0,.02,0,.03,0h.02s.02,0,.03,0c0,0,.01,0,.02,0h.05s.02,0,.02,0h.02s.02,0,.03,0h.02s.01,0,.02,0h.04s.02,0,.02,0h.02c0,.19,.09,.32,.28,.4-.14-.14-.2-.28-.17-.41h.04s.02,0,.03,0h.02s.02,0,.03,0c0,0,0,0,.01,0,0,0,.02,0,.02-.01,0,0,0,0,.01-.01,0,0,0,0,.01,0h0s-.01-.04-.01-.04h0s-.07-.04-.07-.04l-.16-.04s.03,0,.04-.01h.05s.01,0,.02,0c0,0,0,0,.01,0h.19s0,0,.01,0h.22s.02-.01,.03-.01c0,0,.02,0,.02,0,0,0,.02,0,.02,0,0,0,0,0,0-.01,0,0,0,0,0-.01,0,0,0,0,0-.01,0,0,0,0-.01-.01h0s0-.02-.01-.02h0s0,0,0,0h0s-.18-.06-.18-.06c.02-.01,.04-.03,.05-.04,0,0,.01,0,.02-.01h.03s0,0,.01,0h.07s.01,0,.02,0h.04s0,0,.01,0h.01c.05,.03,.14,.08,.25,.15,.1,.06,.22,.11,.34,.16,.04,0,.07,0,.1-.01,.02-.02,0-.04-.04-.07-.07-.04-.12-.08-.16-.12l.28,.02c.12,0,.14-.03,.05-.08-.1-.02-.18-.05-.24-.07-.05-.02-.04-.03,.03-.04,.07,0,.14,0,.2-.03,.14-.05,.13-.08-.03-.1-.08,0-.15,0-.21,.03,.15-.08,.22-.14,.2-.18-.03-.02-.08-.02-.16,.01-.04,.02-.09,.03-.14,.03-.19,0-.35,0-.45-.02,0,0-.01,0-.02,0l-.04-.02h0s.06-.04,.06-.04c0,0,0,0,.01,0,0,0,0,0,0-.01,0,0,0,0,0-.01Z"/></g><g id="Layer1_0_FILL"><path class="cls-3" d="M16.72,73.86c.72-.02,1.4-.08,2.04-.17-.74,.06-1.42,.12-2.04,.17Z"/></g></g><g><path class="cls-35" d="M29.96,116.29l60.51-.22c12.38-.05,22.37-9.86,22.33-21.93l-.18-49.15c-.08-22.92-23.73-41.42-52.81-41.31S7.21,22.46,7.29,45.38l.18,49.15c.04,12.06,10.11,21.81,22.49,21.76Z"/><g class="cls-28"><g><rect class="cls-33" x="1" y="59.72" width="121" height="66.94" transform="translate(123 186.37) rotate(180)"/><g><polygon class="cls-26" points="-10.91 75.86 75.51 75.86 72.61 70.79 67.18 70.79 63.91 57.02 59.75 57.02 55.58 25.13 41.45 20.51 9.75 62.45 -4.2 63.72 -10.91 75.86"/><polygon class="cls-11" points="41.45 20.51 50.15 29.78 55.58 25.13 41.45 20.51"/><polygon class="cls-11" points="59.75 57.02 56.19 59.31 62.41 59.31 63.91 57.02 59.75 57.02"/><polygon class="cls-11" points="72.61 70.79 68.75 73.26 63.13 72.42 67.18 70.79 72.61 70.79"/><polygon class="cls-11" points="9.75 62.45 5.4 66.86 -4.2 63.72 9.75 62.45"/><polygon class="cls-17" points="5.4 66.86 3.13 75.86 .87 75.86 -10.91 75.86 -4.2 63.72 5.4 66.86"/><path class="cls-17" d="M14.09,70.79L.87,75.86H75.51l-6.76-2.6-5.62-.85s-27.66-5.4-27.93-5.1c-.27,.3-16.85,2.48-16.85,2.48l-4.26,1Z"/><polygon class="cls-20" points="41.45 20.51 9.75 62.45 3.38 74.9 34.57 68.52 50.15 29.78 41.45 20.51"/><polygon class="cls-17" points="62.41 59.31 63.13 72.42 52.23 70.79 56.19 59.31 62.41 59.31"/><polygon class="cls-34" points="41.45 20.51 35.2 67.31 50.15 29.78 41.45 20.51"/><polygon class="cls-38" points="67.3 74.47 63.33 74.4 63.13 72.03 62.41 59.31 58.12 72.03 58.78 74.31 19.71 73.57 10.59 65.23 3.38 74.9 -4.81 73.26 -10.91 75.86 75.51 75.86 67.3 74.47"/></g><g><polygon class="cls-24" points="19.56 84.75 127.06 84.75 127.76 70.67 116.71 66.37 100.89 38.44 86.58 36 83.2 44.96 70.41 49.15 68.19 58.34 62.96 60.9 56.44 51.94 49.46 55.58 42.13 77.07 21.77 79.16 19.56 84.75"/><polygon class="cls-27" points="56.79 55.02 51.44 84.75 40.2 84.75 42.13 77.07 49.46 55.58 56.25 53.92 56.79 55.02"/><path class="cls-19" d="M122.64,71.79l-.13,.47-3.48,12.48h-47.35s27.28-27.65,27.4-28c.12-.35,23.56,15.05,23.56,15.05h0Z"/><polygon class="cls-7" points="49.46 55.58 54.64 55.89 56.79 55.02 56.44 51.94 49.46 55.58"/><polygon class="cls-7" points="70.41 49.15 84.37 48.43 86.58 36 99.08 56.36 114.91 68.11 127.76 70.67 116.51 66.02 100.89 38.44 86.58 36 83.2 44.96 70.41 49.15"/><polygon class="cls-7" points="114.91 68.11 122.64 71.79 127.38 70.59 114.91 68.11"/><polygon class="cls-7" points="42.13 77.07 26.08 81.64 21.77 79.16 42.13 77.07"/><polygon class="cls-18" points="84.37 48.43 77.5 60.86 74.24 73.89 71.68 84.75 60.05 84.75 62.96 60.9 68.19 58.34 70.41 49.15 84.37 48.43"/><polygon class="cls-14" points="26.08 81.64 29.26 84.75 38.1 82.19 42.44 84.75 19.56 84.75 21.77 79.16 26.08 81.64"/><polygon class="cls-14" points="60.05 84.75 51.89 80.81 48.49 84.75 60.05 84.75"/><polygon class="cls-36" points="21.77 79.16 25.51 81.32 29.26 84.75 22.82 81.95 21.77 79.16"/><polygon class="cls-37" points="54.64 55.89 50.9 59.73 53.14 55.89 54.64 55.89"/><polygon class="cls-31" points="47.95 84.75 56.79 55.02 51.44 84.75 47.95 84.75"/><path class="cls-32" d="M119.04,84.75l3.61-12.95-7.37,9.15-16.91,2.09,12.25-12.38c.1-.11-.03-.27-.15-.2l-19.31,11.49-19.47,2.79h47.35Z"/><path class="cls-50" d="M68.19,58.34l-.12,.43-4.1,14.47c-.03,.11-.2,.08-.19-.03l1.15-13.27,3.26-1.59Z"/><polygon class="cls-51" points="68.78 84.75 77.5 60.86 71.68 84.75 68.78 84.75"/><path class="cls-49" d="M66.03,84.75l5.04-13.26c.06-.17,.31-.1,.28,.08l-2.58,13.18h-2.74Z"/><polygon class="cls-14" points="83.2 44.96 84.37 48.43 86.58 36 83.2 44.96"/></g><g><polygon class="cls-9" points="40.51 99 119.38 99 123.38 78.04 106.05 74.89 98.3 83.01 95.51 81.19 86.31 81.8 84.25 86.95 79.76 88.46 72.98 79.01 57.07 79.37 51.3 90.52 37.85 91.25 40.51 99"/><polygon class="cls-8" points="57.07 79.37 69.39 82.65 72.98 79.01 57.07 79.37"/><polygon class="cls-8" points="86.31 81.8 95.33 83.98 98.3 83.01 95.51 81.19 86.31 81.8"/><polygon class="cls-8" points="106.05 74.89 104.72 79.5 121.26 80.4 123.38 78.04 106.05 74.89"/><polygon class="cls-8" points="37.85 91.25 50.99 92.58 51.3 90.52 37.85 91.25"/><polygon class="cls-22" points="119.38 99 100.02 93.44 94.1 96.7 95.33 83.98 86.31 81.8 84.25 86.95 84.01 87.9 79.76 88.46 78.61 89.55 74.47 96.5 70.74 96.03 50.7 97.05 65.84 96.28 69.39 82.65 57.07 79.37 50.99 92.58 37.85 91.25 40.51 99 45.25 98.09 40.67 99 119.38 99"/><polygon class="cls-22" points="98.3 83.01 98.91 96.76 104.72 79.5 106.05 74.89 98.3 83.01"/><polygon class="cls-22" points="121.26 80.4 117.08 98.34 104.72 79.5 121.26 80.4"/><path class="cls-48" d="M52.78,97.43l-1.78-4.85s-13.3-1.35-13.14-1.33,12.36,3.3,12.36,3.3l2.57,2.88Z"/><g><polygon class="cls-40" points="65.84 96.28 69.39 82.65 59.08 96.62 40.51 99 79.2 99 65.35 97.55 65.84 96.28"/><polygon class="cls-44" points="93.7 97.55 79.2 99 119.38 99 93.7 97.55"/></g><polygon class="cls-46" points="86.31 81.8 92.3 86.36 93.66 97.79 94.1 96.7 95.33 83.98 86.31 81.8"/><polygon class="cls-47" points="79.76 88.46 79.88 89.37 78.61 89.55 74.47 96.5 80.13 91.4 84.01 87.9 79.76 88.46"/><polygon class="cls-41" points="98.79 94.12 99.72 92.49 103.56 82.93 100.02 93.44 98.79 94.12"/></g><g><polygon class="cls-9" points="6.61 120.81 57.67 120.81 54.08 102.66 46.9 100.94 36.93 84.51 21.57 89.7 17.98 108.05 8.41 114.63 6.61 120.81"/><polygon class="cls-8" points="21.57 89.7 34.54 89.7 36.93 84.51 21.57 89.7"/><polygon class="cls-8" points="46.9 100.94 40.65 102.92 51.69 104.66 54.08 102.66 46.9 100.94"/><polygon class="cls-8" points="17.98 108.05 19.7 111.14 8.41 114.63 17.98 108.05"/><polygon class="cls-22" points="40.65 102.92 38.22 118.82 51.69 104.66 40.65 102.92"/><polygon class="cls-22" points="38.64 116.08 25.56 119.25 34.54 89.7 21.57 89.7 17.98 108.05 19.7 111.14 8.41 114.63 6.61 120.81 50.19 120.81 38.64 116.08"/><polygon class="cls-45" points="8.41 114.63 10.3 120.81 6.61 120.81 8.41 114.63"/><polygon class="cls-42" points="51.69 104.66 38.64 116.08 40.22 116.72 51.69 104.66"/><polygon class="cls-43" points="26.74 104.72 27.55 94.69 20.57 111.34 25.56 119.25 34.54 89.7 26.74 104.72"/></g></g></g><path class="cls-10" d="M60,2C30.01,2,5.7,21.16,5.7,44.8v2.58h6v-2.58c0-20.29,21.67-36.8,48.3-36.8s48.3,16.51,48.3,36.8v2.58h6v-2.58c0-23.64-24.31-42.8-54.3-42.8Z"/><path class="cls-1" d="M28.8,112h62.39c9.43,0,17.11-7.41,17.11-16.52V47.38H11.7v48.1c0,9.11,7.67,16.52,17.11,16.52Z"/><path class="cls-10" d="M108.3,95.48c0,9.11-7.67,16.52-17.11,16.52H28.8c-9.43,0-17.11-7.41-17.11-16.52V47.38H5.7v48.1c0,12.44,10.35,22.52,23.11,22.52h62.39c12.76,0,23.11-10.08,23.11-22.52V47.38h-6v48.1Z"/><ellipse class="cls-39" cx="74.47" cy="101.38" rx="31" ry="7"/><g><path class="cls-6" d="M103.47,80.42c0,2.05-1.07,3.71-2.38,3.71s-2.38-1.66-2.38-3.71,1.07-3.71,2.38-3.71,2.38,1.66,2.38,3.71Z"/><path class="cls-25" d="M93.49,99.9v-11.28h-9.8v7.98c-3.13,.47-5.41,1.93-5.41,3.65,0,2.11,15.25,2.11,15.25,0,0-.12-.01-.23-.04-.35Z"/><path class="cls-25" d="M66.67,99.9v-11.28h-9.8v7.98c-3.13,.47-5.41,1.93-5.41,3.65,0,2.11,15.25,2.11,15.25,0,0-.12-.01-.23-.04-.35Z"/><path class="cls-5" d="M101.15,79.02c0,11.74-12.44,21.26-27.78,21.26s-27.78-9.52-27.78-21.26,12.44-22.45,27.78-22.45c20.16,0,27.78,10.71,27.78,22.45Z"/><path class="cls-21" d="M73.37,97.1c-14.64,0-26.63-8.67-27.69-19.67-.05,.53-.08,1.06-.08,1.59,0,11.74,12.44,21.26,27.78,21.26s27.78-9.52,27.78-21.26c0-.53-.03-1.07-.09-1.59-1.06,11-13.05,19.67-27.69,19.67Z"/><path class="cls-5" d="M70,103.24l3.01-11.28h-12.82v7.97c-3.13,.48-5.41,1.93-5.41,3.65,0,2.11,15.25,2.11,15.25,0,0-.12-.01-.23-.03-.35Z"/><g class="cls-30"><path class="cls-21" d="M74.23,79.3c-3.25,5.92-8.31,10.16-14.03,12.33,0,1.55-.02,4.96-.02,4.96,0,0-15.52-3.49-20.53-6.24-12.09-6.65-16.21-22.37-9.21-35.12,7-12.75,23.2-18.99,35.29-12.34,12.09,6.64,15.51,23.66,8.5,36.41Z"/><path class="cls-21" d="M79.65,68.71s3.23-8.35,7.98-9.78c-3.57-1.62-7.9-2.18-7.9-2.18l-.08,11.96Z"/></g><path class="cls-5" d="M96.26,103.24v-15.78h-14.95l5.15,12.48c-3.13,.48-5.41,1.93-5.41,3.65,0,2.11,15.25,2.11,15.25,0,0-.12-.01-.23-.03-.35Z"/><g><path class="cls-23" d="M33.66,40.02c0,4.15-3.36,7.51-7.51,7.51s-7.51-3.36-7.51-7.51,3.36-7.51,7.51-7.51,7.51,3.36,7.51,7.51Z"/><path class="cls-15" d="M30.98,40.02c0,2.66-2.16,4.82-4.82,4.82s-4.82-2.16-4.82-4.82,2.16-4.82,4.82-4.82,4.82,2.16,4.82,4.82Z"/><path class="cls-5" d="M76.65,39.02c0,4.15-3.36,7.51-7.51,7.51s-7.51-3.36-7.51-7.51,3.36-7.51,7.51-7.51,7.51,3.36,7.51,7.51Z"/><path class="cls-15" d="M73.97,39.02c0,2.66-2.16,4.82-4.82,4.82s-4.82-2.16-4.82-4.82,2.16-4.82,4.82-4.82,4.82,2.16,4.82,4.82Z"/><path class="cls-5" d="M81.3,64.14c0,13.68-14.49,24.77-32.36,24.77s-32.36-11.09-32.36-24.77S31.06,31.96,48.94,31.96s32.36,18.5,32.36,32.18Z"/><g class="cls-29"><rect class="cls-23" x="9.02" y="24.29" width="39.39" height="75.16"/><path class="cls-12" d="M33.18,68.75c0,.9-1.28,1.63-2.86,1.63s-2.86-.73-2.86-1.63,1.28-1.63,2.86-1.63,2.86,.73,2.86,1.63Z"/><path class="cls-12" d="M70.18,68.75c0,.9-1.28,1.63-2.86,1.63s-2.86-.73-2.86-1.63,1.28-1.63,2.86-1.63,2.86,.73,2.86,1.63Z"/></g><path d="M38.84,63.67c0,1.98-1.61,3.59-3.59,3.59s-3.59-1.61-3.59-3.59,1.61-3.59,3.59-3.59,3.59,1.61,3.59,3.59Z"/><path class="cls-10" d="M34.65,62.39c0,.56-.45,1.01-1.01,1.01s-1.01-.45-1.01-1.01,.45-1.01,1.01-1.01,1.01,.45,1.01,1.01Z"/><path class="cls-10" d="M36.73,63.56c0,.33-.27,.6-.6,.6s-.6-.27-.6-.6,.27-.6,.6-.6,.6,.27,.6,.6Z"/><g><path d="M66.21,63.67c0,1.98-1.61,3.59-3.59,3.59s-3.59-1.61-3.59-3.59,1.61-3.59,3.59-3.59,3.59,1.61,3.59,3.59Z"/><path class="cls-10" d="M62.02,62.39c0,.56-.45,1.01-1.01,1.01s-1.01-.45-1.01-1.01,.45-1.01,1.01-1.01,1.01,.45,1.01,1.01Z"/><path class="cls-10" d="M64.1,63.56c0,.33-.27,.6-.6,.6s-.6-.27-.6-.6,.27-.6,.6-.6,.6,.27,.6,.6Z"/></g><path class="cls-16" d="M61.81,74.23c0,6.23-5.77,11.27-12.88,11.27s-12.88-5.05-12.88-11.27,5.77-11.27,12.88-11.27,12.88,5.05,12.88,11.27Z"/><path class="cls-2" d="M43.63,77.76c2.47,2.86,8.21,3.35,10.66-.24"/><line class="cls-2" x1="48.96" y1="70.13" x2="48.96" y2="80.06"/><path d="M53.72,67.63c0,2.64-4.78,4.78-4.78,4.78,0,0-4.78-2.14-4.78-4.78s2.14-2.51,4.78-2.51,4.78-.13,4.78,2.51Z"/><path class="cls-10" d="M46.8,66.21c-.89,0-1.64,.52-1.64,1.13v.03c0,.62,.74,1.13,1.64,1.13s1.64-.52,1.64-1.13v-.03c0-.62-.75-1.13-1.64-1.13Z"/><path class="cls-10" d="M51.4,66.91c-.39,0-.72,.23-.72,.5h0c0,.28,.33,.51,.72,.51s.72-.23,.72-.5h0c0-.28-.33-.51-.72-.51Z"/></g></g></g></svg>