<?xml version="1.0" encoding="UTF-8"?><svg id="_레이어_1" xmlns="http://www.w3.org/2000/svg" xmlns:xlink="http://www.w3.org/1999/xlink" viewBox="0 0 120 120"><defs><style>.cls-1{fill:none;}.cls-2{clip-path:url(#clippath);}.cls-3{fill:#f9e710;}.cls-4,.cls-5{fill:#fff;}.cls-6{fill:#f5b810;}.cls-7{fill:#f2c700;}.cls-8{fill:#b897f0;}.cls-9{fill:#a6f0f4;}.cls-10{fill:#6530bd;}.cls-11{fill:#3bbcbc;}.cls-12{fill:#5fd7dd;}.cls-13{fill:#78e7f1;}.cls-14{fill:#50d1d8;}.cls-15{fill:#4eccc9;}.cls-16{clip-path:url(#clippath-3);}.cls-5{opacity:.2;}</style><clipPath id="clippath"><path class="cls-1" d="M109.3,82.42V37.39c0-3.98-2.13-7.67-5.58-9.66L64.72,5.22c-3.45-1.99-7.7-1.99-11.15,0L14.58,27.73c-3.45,1.99-5.58,5.67-5.58,9.66v45.03c0,3.98,2.13,7.67,5.58,9.66l39,22.51c3.45,1.99,7.7,1.99,11.15,0l39-22.51c3.45-1.99,5.58-5.67,5.58-9.66Z"/></clipPath><clipPath id="clippath-1"><circle class="cls-1" cx="-80" cy="-80" r="58.5"/></clipPath><clipPath id="clippath-2"><path class="cls-1" d="M246.35,163.51c0-2.62-2.12-4.74-4.74-4.74h-8.49c-4.85-8.84-17.91-15.17-33.27-15.17s-28.43,6.33-33.27,15.17h-8.49c-2.62,0-4.74,2.12-4.74,4.74v61.55c0,17.3,20.82,31.33,46.5,31.33s46.5-14.03,46.5-31.33v-61.55Z"/></clipPath><clipPath id="clippath-3"><circle class="cls-1" cx="200.5" cy="60.12" r="56.5"/></clipPath></defs><g class="cls-2"><g><rect class="cls-13" x="3" y="-1" width="109" height="114"/><path class="cls-9" d="M93.76,75.69c-4.72,6.08,18.66-3.58,18.66,1.79-1.93,3.58-10.08,2.5-7.94,5.72,1.5,1.43,2.98,.38,4.08,.3,5.03-.36,5.21-1.81,8.44-1.6v-15.46c-5.66,6.39-19.6,7.46-23.24,9.25Z"/><path class="cls-14" d="M109.7,97.68c.59-1.1,1.48-2.74,.89-3.29-6.24-3.56-21.67,2.74-21.08-1.64-.3-3.29,7.72-3.56,9.2-7.12,.89-1.92-1.78-3.56-3.27-3.56-25.25-4.83-7.9,11.61-61.96,9.42-4.15-.17,16.02-6.03-11.97-7.23-12.91-.55-18.49,.73-19.38,5.93,3.27,5.48-4.08,3.11,3.05,6.94,1.78,.82-.59,3.01-5.64,3.56-7.65,1.5,5.88,2.16-1.55,1.81v18.51l118-2v-20.15c-6.88,.69-8.67,3.21-6.3-1.17Z"/><path class="cls-11" d="M27.43,103.43s-4.93-4.52,.82-9.05c0,0,3.7-.41-.41-5.76-4.11-5.35-.82-8.23,2.47-10.28,3.29-2.06,2.88-6.99,.41-10.69-2.47-3.7,.82-4.94,4.11-11.11,3.29-6.17-.41,4.94,1.65,10.69,2.06,5.76,3.29,9.87,0,12.75-3.29,2.88-1.23,7.81,2.06,11.1,3.29,3.29,2.88,9.46-1.23,11.93l-9.87,.41Z"/><path class="cls-15" d="M38.65,102.62s-3.76-3.45,.63-6.9c0,0,2.82-.31-.31-4.39-3.14-4.08-.63-6.27,1.88-7.84,2.51-1.57,2.19-5.33,.31-8.15-1.88-2.82,.63-3.76,3.14-8.47,2.51-4.7-.31,3.76,1.25,8.15,1.57,4.39,2.51,7.53,0,9.72-2.51,2.19-.94,5.96,1.57,8.47,2.51,2.51,2.19,7.21-.94,9.09l-7.53,.31Z"/><path class="cls-11" d="M11.06,103.78s-4.24-3.89,.71-7.78c0,0,3.18-.35-.35-4.95-3.54-4.59-.71-7.07,2.12-8.83,2.83-1.77,2.47-6.01,.35-9.19-2.12-3.18,.71-4.24,3.53-9.54,2.83-5.3-.35,4.24,1.41,9.19,1.77,4.95,2.83,8.48,0,10.96-2.83,2.47-1.06,6.72,1.77,9.54,2.83,2.83,2.47,8.13-1.06,10.25l-8.48,.35Z"/><path class="cls-15" d="M19.59,100.95s-3.79-3.47,.63-6.95c0,0,2.84-.32-.32-4.42-3.16-4.1-.63-6.31,1.89-7.89,2.53-1.58,2.21-5.37,.32-8.21-1.89-2.84,.63-3.79,3.16-8.53,2.53-4.74-.32,3.79,1.26,8.21,1.58,4.42,2.53,7.58,0,9.79-2.53,2.21-.95,6,1.58,8.53,2.53,2.53,2.21,7.26-.95,9.16l-7.58,.32Z"/><path class="cls-9" d="M2-2V8.95c7.19,2.87,14.3,5.48,21.69,6.65,15.7,2.5,19.86,0,29.79,1.43,13.39,1.79,40.64-4.65,39.72,.72,2.54,7.15-21.94,3.58-22.94,9.37-3.62,3.86,40.26-6.51,40.02-2.22,3.23,6.08-12.24,4.65-12.24,8.94-1.15,5.72,15.28,.51,22.95,.87V-2H2Z"/><path class="cls-12" d="M81.28,51.76s6.44-5.37,8.23-3.58c1.79,1.79,.36,3.58,.36,3.58l3.58-1.07v3.93l-3.53-.9s.12,7.21-8.63-1.96Z"/><path class="cls-12" d="M89.12,42.15s5.4-4.5,6.9-3c1.5,1.5,.3,3,.3,3l3-.9v3.3l-2.96-.75s.1,6.05-7.25-1.65Z"/><path class="cls-12" d="M96.82,57.21s4.11-3.42,5.25-2.28c1.14,1.14,.23,2.28,.23,2.28l2.28-.68v2.51l-2.25-.57s.08,4.6-5.51-1.25Z"/><path class="cls-12" d="M70.04,52.49s3.78-3.15,4.83-2.1c1.05,1.05,.21,2.1,.21,2.1l2.1-.63v2.31l-2.07-.53s.07,4.24-5.07-1.15Z"/><path class="cls-12" d="M73.97,38.3s4.11-3.42,5.25-2.28c1.14,1.14,.23,2.28,.23,2.28l2.28-.68v2.51l-2.25-.57s.08,4.6-5.51-1.25Z"/><path class="cls-12" d="M26.13,43.32s6.44-5.37,8.23-3.58,.36,3.58,.36,3.58l3.58-1.07v3.93s-3.53-.9-3.53-.9c0,0,.12,7.21-8.63-1.96Z"/><path class="cls-12" d="M33.97,33.35s5.4-4.5,6.9-3c1.5,1.5,.3,3,.3,3l3-.9v3.3s-2.96-.75-2.96-.75c0,0,.1,6.05-7.25-1.65Z"/><path class="cls-12" d="M41.67,48.42s4.11-3.42,5.25-2.28c1.14,1.14,.23,2.28,.23,2.28l2.28-.68v2.51s-2.25-.57-2.25-.57c0,0,.08,4.6-5.51-1.25Z"/><path class="cls-12" d="M14.89,44.05s3.78-3.15,4.83-2.1c1.05,1.05,.21,2.1,.21,2.1l2.1-.63v2.31s-2.07-.53-2.07-.53c0,0,.07,4.24-5.07-1.15Z"/><path class="cls-12" d="M18.82,29.86s4.11-3.42,5.25-2.28c1.14,1.14,.23,2.28,.23,2.28l2.28-.68v2.51s-2.25-.57-2.25-.57c0,0,.08,4.6-5.51-1.25Z"/></g></g><g><path class="cls-10" d="M84.57,58.31s7.65-7.54,2.58-17.03c-3.06-5.72-28.05-27.9-48.85,4.79l14.09,10.54,32.18,1.7Z"/><path class="cls-10" d="M84.09,66.67s8.45,16.6,.93,19.58c-7.52,2.99-25.21,2.06-34.41-1.52l33.48-18.07Z"/><path class="cls-10" d="M48.53,84.49s.93,3.14,5.07,6.13c0,0-8.97-3.42-11.61-8.03l6.54,1.9Z"/><path class="cls-10" d="M41.24,83.04s.66,3.75,2.95,5.86c0,0-5.32-3.78-6.61-7.85l2.29-.68,1.37,2.67Z"/><path class="cls-3" d="M78.47,74.97s17.66-15.54-5.04-29.05c-22.71-13.5-41.06-3.56-41.13,9.73-.03,5.3-8.37,6.27-10.82,7.5,0,0-2.62,1.03,1.64,3.07,8.37,4,7.17,7.48,11.91,12.63,7.8,8.46,29.05,9.82,43.44-3.88Z"/><path class="cls-3" d="M84.97,60.59l14-11.74s4.15,18.9,0,28.6l-14.88-10.79,.88-6.07Z"/><path class="cls-6" d="M95.18,74.71c2.2-10.97-.35-22.38-.35-22.38h0l4.14-3.47s4.15,18.9,0,28.6l-3.79-2.75h0Z"/><g><path class="cls-4" d="M35.86,56.35c0,2.97,2.41,5.38,5.38,5.38s5.38-2.41,5.38-5.38-2.41-5.38-5.38-5.38-5.38,2.41-5.38,5.38Z"/><path d="M38.3,56.35c0,1.63,1.32,2.95,2.95,2.95s2.95-1.32,2.95-2.95-1.32-2.94-2.95-2.94-2.95,1.32-2.95,2.94Z"/></g><path class="cls-7" d="M20.69,64l64.22-.64c-.85,6.7-6.43,11.61-6.43,11.61-14.39,13.7-35.64,12.35-43.44,3.88-4.74-5.15-3.54-8.63-11.91-12.63-2.03-.97-2.5-1.71-2.43-2.22Z"/><g><path class="cls-10" d="M50.61,45.09s9.43,19.58-.51,34.29c0,0,3.18-22.23,.51-34.29Z"/><path class="cls-10" d="M61.95,45.09s9.43,19.58-.51,34.29c0,0,3.18-22.23,.51-34.29Z"/><path class="cls-8" d="M74.47,52.06s5.59,11.62-.31,20.35c0,0,1.89-13.19,.31-20.35Z"/></g></g><path class="cls-4" d="M60,7.72c.9,0,1.79,.24,2.58,.69l40.81,23.56c1.59,.92,2.58,2.63,2.58,4.46v47.12c0,1.83-.99,3.54-2.58,4.46l-40.81,23.56c-.78,.45-1.67,.69-2.58,.69s-1.79-.24-2.58-.69l-40.81-23.56c-1.59-.92-2.58-2.63-2.58-4.46V36.44c0-1.83,.99-3.54,2.58-4.46L57.42,8.42c.78-.45,1.67-.69,2.58-.69m0-6c-1.93,0-3.85,.5-5.58,1.49L13.61,26.78c-3.45,1.99-5.58,5.67-5.58,9.66v47.12c0,3.98,2.13,7.67,5.58,9.66l40.81,23.56c1.73,1,3.65,1.49,5.58,1.49s3.85-.5,5.58-1.49l40.81-23.56c3.45-1.99,5.58-5.67,5.58-9.66V36.44c0-3.98-2.13-7.67-5.58-9.66L65.58,3.22c-1.73-1-3.65-1.49-5.58-1.49h0Z"/><g class="cls-16"><g><polygon class="cls-5" points="200.28 49.35 98.28 57.85 98.28 39.85 200.28 49.35"/><polygon class="cls-5" points="200.28 49.35 116.19 107.71 107.19 92.12 200.28 49.35"/><polygon class="cls-5" points="200.28 49.35 107.69 5.71 116.69 -9.88 200.28 49.35"/></g></g></svg>