<?xml version="1.0" encoding="UTF-8"?><svg id="_레이어_1" xmlns="http://www.w3.org/2000/svg" viewBox="0 0 120 120"><defs><style>.cls-1{fill:#06c;}.cls-2{fill:#e7fffc;}.cls-3{fill:#fff;}.cls-4{fill:#fcaf17;}.cls-5{fill:#64b5f6;}.cls-6{fill:#9dd700;}.cls-7{fill:#333;}.cls-8{fill:#1e88e5;}.cls-9{fill:#42a5f5;}.cls-10{fill:#426b03;}.cls-11{fill:#538700;}.cls-12{fill:#5baa00;}.cls-13{fill:#3a6612;}.cls-14{fill:#527f04;}.cls-15{fill:#518e21;}.cls-16{opacity:.3;}</style></defs><path class="cls-5" d="M109.65,82.65V37.67c0-3.98-2.13-7.67-5.58-9.66L65.12,5.52c-3.45-1.99-7.7-1.99-11.15,0L15.01,28.01c-3.45,1.99-5.58,5.67-5.58,9.66v44.98c0,3.98,2.13,7.67,5.58,9.66l38.96,22.49c3.45,1.99,7.7,1.99,11.15,0l38.96-22.49c3.45-1.99,5.58-5.67,5.58-9.66Z"/><path class="cls-3" d="M59.5,7.72c.9,0,1.79,.24,2.58,.69l40.81,23.56c1.59,.92,2.58,2.63,2.58,4.46v47.12c0,1.83-.99,3.54-2.58,4.46l-40.81,23.56c-.78,.45-1.67,.69-2.58,.69s-1.79-.24-2.58-.69l-40.81-23.56c-1.59-.92-2.58-2.63-2.58-4.46V36.44c0-1.83,.99-3.54,2.58-4.46L56.92,8.42c.78-.45,1.67-.69,2.58-.69m0-6c-1.93,0-3.85,.5-5.58,1.49L13.11,26.78c-3.45,1.99-5.58,5.67-5.58,9.66v47.12c0,3.98,2.13,7.67,5.58,9.66l40.81,23.56c1.73,1,3.65,1.49,5.58,1.49s3.85-.5,5.58-1.49l40.81-23.56c3.45-1.99,5.58-5.67,5.58-9.66V36.44c0-3.98-2.13-7.67-5.58-9.66L65.08,3.22c-1.73-1-3.65-1.49-5.58-1.49h0Z"/><path class="cls-9" d="M95.87,74.77v-29.12c0-3.98-2.13-7.67-5.58-9.66l-25.22-14.56c-3.45-1.99-7.7-1.99-11.15,0l-25.22,14.56c-3.45,1.99-5.58,5.67-5.58,9.66v29.12c0,3.98,2.13,7.67,5.58,9.66l25.22,14.56c3.45,1.99,7.7,1.99,11.15,0l25.22-14.56c3.45-1.99,5.58-5.67,5.58-9.66Z"/><path class="cls-8" d="M84.96,68.47v-16.52c0-3.98-2.13-7.67-5.58-9.66l-14.31-8.26c-3.45-1.99-7.7-1.99-11.15,0l-14.31,8.26c-3.45,1.99-5.58,5.67-5.58,9.66v16.52c0,3.98,2.13,7.67,5.58,9.66l14.31,8.26c3.45,1.99,7.7,1.99,11.15,0l14.31-8.26c3.45-1.99,5.58-5.67,5.58-9.66Z"/><g><g><path class="cls-14" d="M89.93,85.28l15.86,3.12c4.23-3.08,6.67-6.64,6.67-10.44,0-11.6-22.54-21-50.34-21s-50.34,9.4-50.34,21,22.54,21,50.34,21c13.27,0,25.34-2.15,34.34-5.65,.1-.73,.1-1.61,.1-1.61,0,0-4.7-4.05-6.62-6.42Z"/><path class="cls-12" d="M89.93,83.69l15.86,3.12c4.23-3.08,6.67-6.64,6.67-10.44,0-11.6-22.54-21-50.34-21s-50.34,9.4-50.34,21,22.54,21,50.34,21c13.27,0,25.44-2.15,34.43-5.65l-6.62-8.03Z"/></g><path class="cls-16" d="M90.96,76.01v-.02c5.78,.05,11.07-3.82,12.56-9.68,.11-.45,.2-.9,.27-1.35-7.75-6.13-23.16-10.31-40.93-10.31-10.83,0-20.78,1.56-28.66,4.16l22.48,9.04H27.78c-.58-1.42-1.98-2.43-3.61-2.43-2.16,0-3.9,1.75-3.9,3.9s1.75,3.9,3.9,3.9c1.63,0,3.03-1,3.61-2.43h6.32v.09l-4.73,4.73c-.23-.04-.46-.07-.7-.07-2.15,0-3.9,1.75-3.9,3.9s1.75,3.9,3.9,3.9,3.9-1.75,3.9-3.9c0-.63-.16-1.21-.43-1.74l5.35-5.35v7.5c-1.29,.64-2.18,1.95-2.18,3.48,0,2.15,1.75,3.9,3.9,3.9s3.9-1.75,3.9-3.9c0-1.53-.89-2.85-2.18-3.48v-7.52h6.69c-.04,.21-.07,.43-.07,.65,0,2.15,1.75,3.9,3.9,3.9,1.63,0,3.03-1,3.61-2.43h6.32v.09l-4.73,4.73c-.23-.04-.46-.07-.7-.07-2.16,0-3.9,1.75-3.9,3.9s1.75,3.9,3.9,3.9,3.9-1.75,3.9-3.9c0-.63-.16-1.21-.42-1.74l5.35-5.35v7.5c-1.29,.64-2.18,1.95-2.18,3.48,0,2.15,1.75,3.9,3.9,3.9s3.9-1.75,3.9-3.9c0-1.53-.89-2.85-2.18-3.48v-7.52h22.74Z"/><g><polygon class="cls-10" points="23.65 55.2 59.77 69.74 63.87 62.88 55.27 52.02 23.65 55.2"/><path class="cls-10" d="M54.92,50.26l19.39,25.34h13.3l-4.31-30.87,2.78-9.09c-6.51-3.58-13.99-5.63-21.95-5.63-14.19,0-26.87,6.49-35.23,16.66l26.04,3.58Z"/><g><rect class="cls-11" x="32.48" y="67.84" width="29.57" height="4.5"/><rect class="cls-11" x="25.04" y="67.84" width="9.15" height="2.95"/><rect class="cls-11" x="26.5" y="72.38" width="10.4" height="3.44" transform="translate(-43.11 44.12) rotate(-45)"/><rect class="cls-11" x="35.87" y="70.61" width="3.44" height="10.4"/><path class="cls-4" d="M41.49,83.35c0,2.15-1.75,3.9-3.9,3.9s-3.9-1.75-3.9-3.9,1.75-3.9,3.9-3.9,3.9,1.75,3.9,3.9Z"/><path class="cls-4" d="M30.95,79.45c0,2.15-1.75,3.9-3.9,3.9s-3.9-1.75-3.9-3.9,1.75-3.9,3.9-3.9,3.9,1.75,3.9,3.9Z"/><path class="cls-4" d="M26.45,69.32c0,2.15-1.75,3.9-3.9,3.9s-3.9-1.75-3.9-3.9,1.75-3.9,3.9-3.9,3.9,1.75,3.9,3.9Z"/></g><rect class="cls-11" x="68.77" y="62.26" width="13.04" height="10.23"/><path class="cls-11" d="M35.11,37.88c0,3.41-2.77,6.18-6.18,6.18s-6.18-2.77-6.18-6.18,2.77-6.18,6.18-6.18,6.18,2.77,6.18,6.18Z"/><path class="cls-6" d="M59.73,55.2c.04-.54,.07-1.09,.07-1.64,0-11.56-9.37-20.93-20.93-20.93s-20.93,9.37-20.93,20.93c0,.55,.03,1.1,.07,1.64H59.73Z"/><path class="cls-3" d="M42.37,43.92c0,3.21-2.6,5.81-5.81,5.81s-5.81-2.6-5.81-5.81,2.6-5.81,5.81-5.81,5.81,2.6,5.81,5.81Z"/><path class="cls-1" d="M40.74,43.92c0,2.31-1.87,4.19-4.19,4.19s-4.19-1.87-4.19-4.19,1.87-4.19,4.19-4.19,4.19,1.87,4.19,4.19Z"/><path class="cls-7" d="M40.74,43.92c0,2.31-1.87,4.19-4.19,4.19s-4.19-1.87-4.19-4.19,1.87-4.19,4.19-4.19,4.19,1.87,4.19,4.19Z"/><path class="cls-3" d="M37.18,42.31c0,.83-.67,1.5-1.5,1.5s-1.5-.67-1.5-1.5,.67-1.5,1.5-1.5,1.5,.67,1.5,1.5Z"/><g><polygon class="cls-6" points="82.13 75.9 68.21 52.32 90.2 39.26 100.19 56.02 89.34 75.9 82.13 75.9"/><path class="cls-6" d="M92.25,50.09c-1.75,6.89-8.76,11.05-15.64,9.3-6.89-1.75-11.05-8.76-9.29-15.64,1.75-6.89,8.76-11.05,15.64-9.3,6.89,1.75,11.05,8.76,9.3,15.64Z"/><path class="cls-6" d="M101.9,66.31c-1.75,6.89-8.76,11.05-15.64,9.29-6.89-1.75-11.05-8.76-9.3-15.64,1.75-6.89,8.76-11.05,15.64-9.3,6.89,1.75,11.05,8.76,9.3,15.64Z"/></g><g><polygon class="cls-11" points="62.77 75.93 53.68 60.55 68.03 52.02 74.56 62.96 67.47 75.93 62.77 75.93"/><path class="cls-11" d="M69.37,59.09c-1.14,4.49-5.72,7.21-10.21,6.07-4.5-1.14-7.21-5.72-6.07-10.21,1.14-4.49,5.72-7.21,10.21-6.07,4.49,1.14,7.21,5.72,6.07,10.21Z"/><path class="cls-11" d="M75.67,69.67c-1.14,4.5-5.72,7.21-10.21,6.07-4.5-1.14-7.21-5.72-6.07-10.21,1.14-4.49,5.72-7.21,10.21-6.07,4.49,1.15,7.21,5.72,6.07,10.21Z"/></g><g><rect class="cls-6" x="59.77" y="71.51" width="29.57" height="4.5"/><rect class="cls-6" x="52.33" y="71.51" width="9.15" height="2.95"/><rect class="cls-6" x="53.78" y="76.05" width="10.4" height="3.44" transform="translate(-37.72 64.48) rotate(-45)"/><rect class="cls-6" x="63.15" y="74.28" width="3.44" height="10.4"/><path class="cls-4" d="M68.77,87.02c0,2.15-1.75,3.9-3.9,3.9s-3.9-1.75-3.9-3.9,1.75-3.9,3.9-3.9,3.9,1.75,3.9,3.9Z"/><path class="cls-4" d="M58.23,83.12c0,2.15-1.75,3.9-3.9,3.9s-3.9-1.75-3.9-3.9,1.75-3.9,3.9-3.9,3.9,1.75,3.9,3.9Z"/><path class="cls-4" d="M53.74,72.99c0,2.15-1.75,3.9-3.9,3.9s-3.9-1.75-3.9-3.9,1.75-3.9,3.9-3.9,3.9,1.75,3.9,3.9Z"/></g><path class="cls-2" d="M80.47,43.34c0,1.91-1.55,3.46-3.45,3.46s-3.46-1.55-3.46-3.46,1.55-3.46,3.46-3.46,3.45,1.55,3.45,3.46Z"/><path class="cls-15" d="M84.96,43.34c0,.69-.56,1.24-1.24,1.24s-1.24-.55-1.24-1.24,.55-1.24,1.24-1.24,1.24,.56,1.24,1.24Z"/><path class="cls-13" d="M83.49,49.73c0,1.1-.89,1.98-1.98,1.98s-1.98-.89-1.98-1.98,.89-1.98,1.98-1.98,1.98,.89,1.98,1.98Z"/><path class="cls-15" d="M77.79,52.49c0,1.03-.83,1.86-1.86,1.86s-1.86-.83-1.86-1.86,.83-1.86,1.86-1.86,1.86,.83,1.86,1.86Z"/><path class="cls-15" d="M84.45,57.3c0,1.2-.97,2.17-2.17,2.17s-2.17-.97-2.17-2.17,.97-2.17,2.17-2.17,2.17,.97,2.17,2.17Z"/><path class="cls-15" d="M88.48,52.49c0,.68-.55,1.24-1.24,1.24s-1.24-.55-1.24-1.24,.55-1.24,1.24-1.24,1.24,.56,1.24,1.24Z"/><path class="cls-13" d="M91.12,60.24c0,1.2-.97,2.17-2.17,2.17s-2.17-.97-2.17-2.17,.97-2.17,2.17-2.17,2.17,.97,2.17,2.17Z"/><path class="cls-15" d="M95.04,54.35c0,.88-.72,1.6-1.6,1.6s-1.6-.72-1.6-1.6,.72-1.6,1.6-1.6,1.6,.72,1.6,1.6Z"/><path class="cls-15" d="M61.66,34.97c0,1.2-.97,2.17-2.17,2.17s-2.17-.97-2.17-2.17,.97-2.17,2.17-2.17,2.17,.97,2.17,2.17Z"/><path class="cls-15" d="M67.99,34.2c0,.77-.62,1.4-1.39,1.4s-1.4-.62-1.4-1.4,.62-1.4,1.4-1.4,1.39,.62,1.39,1.4Z"/><circle class="cls-2" cx="62.75" cy="40.81" r="2.12"/></g></g></svg>