<?xml version="1.0" encoding="UTF-8"?><svg id="_레이어_1" xmlns="http://www.w3.org/2000/svg" viewBox="0 0 120 120"><defs><style>.cls-1{fill:#f9a825;}.cls-2{fill:#00bc9c;}.cls-3{fill:#00917b;}.cls-4{fill:#fbc02d;}.cls-5{fill:#fdd835;}.cls-6{fill:#e64a19;}.cls-7{fill:#fff;}.cls-8{fill:#fff176;}.cls-9{fill:#ffee58;}.cls-10{fill:#f4511e;}.cls-11{fill:#fafafa;}.cls-12{fill:#64b5f6;}.cls-13{fill:#d84119;}.cls-14{fill:#1e88e5;}.cls-15{fill:#42a5f5;}.cls-16{fill:#9b5d2a;}.cls-17{fill:#2b2b2b;}.cls-18{opacity:.16;}</style></defs><path class="cls-12" d="M108,80.95V38.62c0-3.98-2.13-7.67-5.58-9.66L65.76,7.79c-3.45-1.99-7.7-1.99-11.15,0L17.94,28.96c-3.45,1.99-5.58,5.67-5.58,9.66v42.34c0,3.98,2.13,7.67,5.58,9.66l36.66,21.17c3.45,1.99,7.7,1.99,11.15,0l36.66-21.17c3.45-1.99,5.58-5.67,5.58-9.66Z"/><path class="cls-15" d="M96.37,74.56v-29.12c0-3.98-2.13-7.67-5.58-9.66l-25.22-14.56c-3.45-1.99-7.7-1.99-11.15,0l-25.22,14.56c-3.45,1.99-5.58,5.67-5.58,9.66v29.12c0,3.98,2.13,7.67,5.58,9.66l25.22,14.56c3.45,1.99,7.7,1.99,11.15,0l25.22-14.56c3.45-1.99,5.58-5.67,5.58-9.66Z"/><path class="cls-14" d="M85.46,68.26v-16.52c0-3.98-2.13-7.67-5.58-9.66l-14.31-8.26c-3.45-1.99-7.7-1.99-11.15,0l-14.31,8.26c-3.45,1.99-5.58,5.67-5.58,9.66v16.52c0,3.98,2.13,7.67,5.58,9.66l14.31,8.26c3.45,1.99,7.7,1.99,11.15,0l14.31-8.26c3.45-1.99,5.58-5.67,5.58-9.66Z"/><g class="cls-18"><circle class="cls-7" cx="55.26" cy="43.81" r="1.09"/></g><path class="cls-7" d="M60,7.72c.9,0,1.79,.24,2.58,.69l40.81,23.56c1.59,.92,2.58,2.63,2.58,4.46v47.12c0,1.83-.99,3.54-2.58,4.46l-40.81,23.56c-.78,.45-1.67,.69-2.58,.69s-1.79-.24-2.58-.69l-40.81-23.56c-1.59-.92-2.58-2.63-2.58-4.46V36.44c0-1.83,.99-3.54,2.58-4.46L57.42,8.42c.78-.45,1.67-.69,2.58-.69m0-6c-1.93,0-3.85,.5-5.58,1.49L13.61,26.78c-3.45,1.99-5.58,5.67-5.58,9.66v47.12c0,3.98,2.13,7.67,5.58,9.66l40.81,23.56c1.73,1,3.65,1.49,5.58,1.49s3.85-.5,5.58-1.49l40.81-23.56c3.45-1.99,5.58-5.67,5.58-9.66V36.44c0-3.98-2.13-7.67-5.58-9.66L65.58,3.22c-1.73-1-3.65-1.49-5.58-1.49h0Z"/><path class="cls-5" d="M69.3,40.55h5.48V2.84h0c-3.03,0-5.48,2.45-5.48,5.48V40.55Z"/><path class="cls-9" d="M64.82,44.37h5.48V6.67h0c-3.03,0-5.48,2.45-5.48,5.48V44.37Z"/><path class="cls-16" d="M106.71,85.08H31.71c-2.24,0-4.06-1.82-4.06-4.06h0c0-2.24,1.82-4.06,4.06-4.06H106.71c2.24,0,4.06,1.82,4.06,4.06h0c0,2.24-1.82,4.06-4.06,4.06Z"/><path class="cls-5" d="M59.84,26.72h-14.45c0-4.66,3.77-8.43,8.43-8.43h6.02v8.43Z"/><path class="cls-1" d="M59.84,26.72h-11.71c0,3.77,3.06,6.83,6.83,6.83h4.88v-6.83Z"/><path class="cls-13" d="M62.96,10.07h2.22c5.71,0,10.35,4.64,10.35,10.35v20.54h-22.92V20.43c0-5.71,4.64-10.35,10.35-10.35Z"/><path class="cls-10" d="M75.53,28.77V97.54c-16.37,0-29.64-13.27-29.64-29.64v-21.76c0-.26,0-.52,.02-.78,.41-9.22,8.02-16.58,17.34-16.58h12.28Z"/><path class="cls-1" d="M72.05,114.84h0c1.92,0,3.49-1.57,3.49-3.49v-32.19c0-1.92-1.57-3.49-3.49-3.49h0c-1.92,0-3.49,1.57-3.49,3.49v32.19c0,1.92,1.57,3.49,3.49,3.49Z"/><path class="cls-4" d="M65.38,107.01h0c1.92,0,3.49-1.57,3.49-3.49v-32.19c0-1.92-1.57-3.49-3.49-3.49h0c-1.92,0-3.49,1.57-3.49,3.49v32.19c0,1.92,1.57,3.49,3.49,3.49Z"/><path class="cls-5" d="M58.72,98.23h0c1.92,0,3.49-1.57,3.49-3.49V62.56c0-1.92-1.57-3.49-3.49-3.49h0c-1.92,0-3.49,1.57-3.49,3.49v32.19c0,1.92,1.57,3.49,3.49,3.49Z"/><path class="cls-5" d="M72.05,103.32h0c1.92,0,3.49-1.57,3.49-3.49v-32.19c0-1.92-1.57-3.49-3.49-3.49h0c-1.92,0-3.49,1.57-3.49,3.49v32.19c0,1.92,1.57,3.49,3.49,3.49Z"/><path class="cls-9" d="M65.38,95.49h0c1.92,0,3.49-1.57,3.49-3.49V59.82c0-1.92-1.57-3.49-3.49-3.49h0c-1.92,0-3.49,1.57-3.49,3.49v32.19c0,1.92,1.57,3.49,3.49,3.49Z"/><path class="cls-8" d="M58.72,86.71h0c1.92,0,3.49-1.57,3.49-3.49V51.04c0-1.92-1.57-3.49-3.49-3.49h0c-1.92,0-3.49,1.57-3.49,3.49v32.19c0,1.92,1.57,3.49,3.49,3.49Z"/><path class="cls-6" d="M75.53,28.77v45.21c-16.04,0-29.09-12.73-29.62-28.63,.2-4.66,2.25-8.85,5.43-11.85,3.11-2.93,7.3-4.73,11.91-4.73h12.28Z"/><path class="cls-13" d="M75.53,28.77v37.39c-13.83-2.18-24.49-13.93-24.97-28.26,.07-1.52,.33-3,.77-4.4,3.11-2.93,7.3-4.73,11.91-4.73h12.28Z"/><circle class="cls-11" cx="59.97" cy="21.67" r="3.23" transform="translate(25.15 75.09) rotate(-76.77)"/><path class="cls-17" d="M59.97,23.6c-1.07,0-1.93-.87-1.93-1.93s.87-1.93,1.93-1.93,1.93,.87,1.93,1.93-.87,1.93-1.93,1.93Z"/><g><path class="cls-3" d="M84.27,79.66l13.69,14.96c.03-4.08,.27-8.98-3.51-13.11-3.78-4.13-7.59-4.21-10.17-1.85Z"/><path class="cls-2" d="M85.08,90.08c3.78,4.13,7.5,4.55,12.88,4.55l-13.69-14.96c-2.59,2.37-2.97,6.28,.81,10.41Z"/></g><g><path class="cls-3" d="M32.1,77.37l-16.19-12.21c.71,4.02,1.38,8.88,5.85,12.25s8.23,2.75,10.34-.05Z"/><path class="cls-2" d="M29.4,67.28c-4.47-3.37-8.21-3.1-13.49-2.12l16.19,12.21c2.11-2.8,1.77-6.72-2.7-10.09Z"/></g><g><path class="cls-3" d="M84.02,79.8l17.99-9.36c-3.94-1.09-8.61-2.58-13.58,0s-6.03,6.24-4.41,9.35Z"/><path class="cls-2" d="M94.29,81.71c4.97-2.58,6.33-6.07,7.72-11.26l-17.99,9.36c1.62,3.11,5.3,4.49,10.27,1.91Z"/></g></svg>