<?xml version="1.0" encoding="UTF-8"?><svg xmlns="http://www.w3.org/2000/svg" xmlns:xlink="http://www.w3.org/1999/xlink" viewBox="0 0 120 120"><defs><style>.cls-1{fill:none;}.cls-2{fill:url(#radial-gradient-5);}.cls-2,.cls-3,.cls-4,.cls-5,.cls-6,.cls-7,.cls-8,.cls-9{mix-blend-mode:multiply;}.cls-3{fill:url(#radial-gradient-3);}.cls-10{mask:url(#mask-15);}.cls-11{mask:url(#mask-14);}.cls-12{mask:url(#mask-13);}.cls-13{mask:url(#mask-12);}.cls-14{mask:url(#mask-11);}.cls-15{mask:url(#mask-10);}.cls-16{filter:url(#luminosity-noclip-6);}.cls-17{filter:url(#luminosity-noclip-8);}.cls-18{filter:url(#luminosity-noclip-4);}.cls-19{opacity:.08;}.cls-20{opacity:.1;}.cls-21{mask:url(#mask);}.cls-22{filter:url(#luminosity-noclip-2);}.cls-23{fill:#f2f2f2;}.cls-24,.cls-25{fill:#fff;}.cls-26{fill:#ffee58;}.cls-27{fill:#ccc;}.cls-28{fill:#ddd;}.cls-29{fill:#1e88e5;}.cls-30{fill:#0d47a1;}.cls-31{fill:#757575;}.cls-32{filter:url(#luminosity-noclip-16);}.cls-33{filter:url(#luminosity-noclip-14);}.cls-34{filter:url(#luminosity-noclip-10);}.cls-35{filter:url(#luminosity-noclip-12);}.cls-4{fill:url(#linear-gradient-7);}.cls-5{fill:url(#linear-gradient-5);}.cls-6{fill:url(#linear-gradient-9);}.cls-7{fill:url(#linear-gradient-3);}.cls-36{clip-path:url(#clippath-1);}.cls-37{fill:url(#radial-gradient-2);}.cls-37,.cls-38,.cls-39{mix-blend-mode:screen;opacity:.52;}.cls-38{fill:url(#radial-gradient-6);}.cls-39{fill:url(#radial-gradient-4);}.cls-40{fill:url(#_무제_그라디언트_11);}.cls-41{fill:url(#_무제_그라디언트_14);}.cls-25{opacity:.2;}.cls-42{fill:url(#linear-gradient-8);}.cls-43{fill:url(#linear-gradient-4);}.cls-44{fill:url(#linear-gradient-2);}.cls-45{fill:url(#linear-gradient-6);}.cls-46{opacity:.16;}.cls-47{opacity:.14;}.cls-8{fill:url(#radial-gradient);}.cls-9{fill:url(#linear-gradient);}.cls-48{isolation:isolate;}.cls-49{mask:url(#mask-3);}.cls-50{mask:url(#mask-2);}.cls-51{mask:url(#mask-5);}.cls-52{mask:url(#mask-4);}.cls-53{mask:url(#mask-1);}.cls-54{mask:url(#mask-7);}.cls-55{mask:url(#mask-6);}.cls-56{mask:url(#mask-8);}.cls-57{mask:url(#mask-9);}.cls-58{fill:#00ff0c;opacity:.5;}.cls-59{opacity:.21;}.cls-59,.cls-60{mix-blend-mode:soft-light;}.cls-60{opacity:.43;}</style><clipPath id="clippath"><path class="cls-1" d="M-49.61,147.83h-59.4c-12.15,0-22,10.1-22,22.56v42.75c0,23.67,23.15,42.86,51.7,42.86s51.7-19.19,51.7-42.86v-42.75c0-12.46-9.85-22.56-22-22.56Z"/></clipPath><clipPath id="clippath-1"><circle class="cls-1" cx="59.61" cy="59" r="55.5"/></clipPath><linearGradient id="_무제_그라디언트_14" x1="58.4" y1="120.5" x2="58.4" y2="-3.08" gradientUnits="userSpaceOnUse"><stop offset="0" stop-color="#78ecff"/><stop offset=".11" stop-color="#6fd9ee"/><stop offset=".34" stop-color="#5ba9c5"/><stop offset=".65" stop-color="#395b81"/><stop offset="1" stop-color="#120032"/></linearGradient><filter id="luminosity-noclip-2" x="-134.89" y="-3.08" width="251.58" height="159.14" color-interpolation-filters="sRGB" filterUnits="userSpaceOnUse"><feFlood flood-color="#fff" result="bg"/><feBlend in="SourceGraphic" in2="bg"/></filter><filter id="luminosity-noclip-3" x="8322" y="-8532" width="-32766" height="32766" color-interpolation-filters="sRGB" filterUnits="userSpaceOnUse"><feFlood flood-color="#fff" result="bg"/><feBlend in="SourceGraphic" in2="bg"/></filter><mask id="mask-1" x="8322" y="-8532" width="-32766" height="32766" maskUnits="userSpaceOnUse"/><linearGradient id="linear-gradient" x1="-134.89" y1="76.49" x2="116.69" y2="76.49" gradientUnits="userSpaceOnUse"><stop offset="0" stop-color="#fff"/><stop offset=".21" stop-color="#c6c6c6"/><stop offset=".76" stop-color="#393939"/><stop offset="1" stop-color="#000"/></linearGradient><mask id="mask" x="-134.89" y="-3.08" width="251.58" height="159.14" maskUnits="userSpaceOnUse"><g class="cls-22"><g class="cls-53"><path class="cls-9" d="M116.69-3.08V56.99c-21.07-1.15-42.79-.46-62.05,8.04-10.06,4.44-19.11,10.86-28.07,17.24-22.14,15.76-44.29,31.52-66.43,47.27-5.77,4.11-11.78,8.32-18.74,9.63-9.23,1.74-18.57-1.88-27.95-2.33-17.67-.85-33.29,9.28-48.34,19.21V88.87c3.68-1.08,7.45-1.83,11.27-2.23,1.28-.13,2.57-.23,3.86-.32,8.51-.53,17.23-.26,24.96-3.72,1.92-.86,3.69-1.91,5.36-3.11,1.01-.73,1.98-1.51,2.92-2.34,2.13-1.88,4.08-3.99,5.94-6.24,9.02-10.88,15.82-24.8,28.94-29.54,1.07-.39,2.16-.7,3.26-.95,11.73-2.7,24.75,1.65,36.4-1.96C3.41,33.69,12.16,16.54,27.25,10.88c10.21-3.83,21.79-1.79,32.21-5,5.88-1.81,10.96-5.12,15.76-8.96h41.46Z"/></g></g></mask><linearGradient id="linear-gradient-2" x1="-134.89" y1="76.49" x2="116.69" y2="76.49" gradientUnits="userSpaceOnUse"><stop offset="0" stop-color="#f733b5"/><stop offset=".29" stop-color="#df309c"/><stop offset="1" stop-color="#a82c64"/></linearGradient><filter id="luminosity-noclip-4" x="-134.89" y="-3.08" width="215.58" height="108.87" color-interpolation-filters="sRGB" filterUnits="userSpaceOnUse"><feFlood flood-color="#fff" result="bg"/><feBlend in="SourceGraphic" in2="bg"/></filter><filter id="luminosity-noclip-5" x="8322" y="-8532" width="-32766" height="32766" color-interpolation-filters="sRGB" filterUnits="userSpaceOnUse"><feFlood flood-color="#fff" result="bg"/><feBlend in="SourceGraphic" in2="bg"/></filter><mask id="mask-3" x="8322" y="-8532" width="-32766" height="32766" maskUnits="userSpaceOnUse"/><linearGradient id="linear-gradient-3" y1="51.35" x2="80.69" y2="51.35" xlink:href="#linear-gradient"/><mask id="mask-2" x="-134.89" y="-3.08" width="215.58" height="108.87" maskUnits="userSpaceOnUse"><g class="cls-18"><g class="cls-49"><path class="cls-7" d="M80.69-3.08c.03,8.54-3.36,17.11-9.57,22.97-10.9,10.3-27.42,10.96-41.53,16.04C14,41.55,.86,52.91-15,57.74c-18.17,5.53-38.51,2.07-55.93,9.64-5.5,2.39-10.62,5.87-15.59,9.76-.08,.06-.15,.12-.23,.18-.9,.71-1.8,1.43-2.69,2.16-13.97,11.42-27.22,25.18-45.45,26.3V52.46c1.44-.54,2.83-1.17,4.15-1.93,11.72-6.75,16-22.37,27.67-29.21,11.43-6.71,26.21-2.94,38.84-6.99,9.64-3.09,16.94-10.27,24.33-17.41H80.69Z"/></g></g></mask><linearGradient id="linear-gradient-4" x1="-134.89" y1="51.35" x2="80.69" y2="51.35" gradientUnits="userSpaceOnUse"><stop offset="0" stop-color="#0c2561"/><stop offset=".62" stop-color="#6f2962"/><stop offset="1" stop-color="#a82c64"/></linearGradient><filter id="luminosity-noclip-6" x="-134.89" y="-3.08" width="163.92" height="93.98" color-interpolation-filters="sRGB" filterUnits="userSpaceOnUse"><feFlood flood-color="#fff" result="bg"/><feBlend in="SourceGraphic" in2="bg"/></filter><filter id="luminosity-noclip-7" x="8322" y="-8532" width="-32766" height="32766" color-interpolation-filters="sRGB" filterUnits="userSpaceOnUse"><feFlood flood-color="#fff" result="bg"/><feBlend in="SourceGraphic" in2="bg"/></filter><mask id="mask-5" x="8322" y="-8532" width="-32766" height="32766" maskUnits="userSpaceOnUse"/><linearGradient id="linear-gradient-5" x1="-134.89" y1="43.91" x2="29.03" y2="43.91" gradientUnits="userSpaceOnUse"><stop offset="0" stop-color="#000"/><stop offset=".24" stop-color="#393939"/><stop offset=".79" stop-color="#c6c6c6"/><stop offset="1" stop-color="#fff"/></linearGradient><mask id="mask-4" x="-134.89" y="-3.08" width="163.92" height="93.98" maskUnits="userSpaceOnUse"><g class="cls-16"><g class="cls-51"><path class="cls-5" d="M29.03-3.08c-1.06,5.09-5.01,9.4-9.61,11.97-5.19,2.89-11.16,3.96-17,5.03-13.22,2.44-26.51,5.17-38.86,10.49-1.32,.57-2.62,1.16-3.91,1.8-10.84,5.29-20.71,12.85-27.22,22.96-2.68,4.15-4.95,8.88-9.1,11.52-.05,.04-.11,.07-.16,.1-3.85,2.37-8.61,2.5-13.09,3.09-8.86,1.18-17.43,4.46-24.82,9.5-2.14,1.46-4.17,3.05-6.14,4.73-4.81,4.09-9.25,8.64-14,12.79v-31.4c4.35,.11,8.69,.06,12.99-.53,14.13-1.94,27.34-9.91,35.66-21.52,6.74-9.4,11.24-21.76,21.97-26.05,6.68-2.67,14.27-1.43,21.31-2.89,7.82-1.62,14.44-6.39,20.64-11.58H29.03Z"/></g></g></mask><linearGradient id="linear-gradient-6" x1="-134.89" y1="43.91" x2="29.03" y2="43.91" gradientUnits="userSpaceOnUse"><stop offset="0" stop-color="#a82c64"/><stop offset=".71" stop-color="#df309c"/><stop offset="1" stop-color="#f733b5"/></linearGradient><filter id="luminosity-noclip-8" x="-130.88" y="30.27" width="247.57" height="142.38" color-interpolation-filters="sRGB" filterUnits="userSpaceOnUse"><feFlood flood-color="#fff" result="bg"/><feBlend in="SourceGraphic" in2="bg"/></filter><filter id="luminosity-noclip-9" x="8322" y="-8532" width="-32766" height="32766" color-interpolation-filters="sRGB" filterUnits="userSpaceOnUse"><feFlood flood-color="#fff" result="bg"/><feBlend in="SourceGraphic" in2="bg"/></filter><mask id="mask-7" x="8322" y="-8532" width="-32766" height="32766" maskUnits="userSpaceOnUse"/><linearGradient id="linear-gradient-7" x1="-130.88" y1="101.46" x2="116.69" y2="101.46" xlink:href="#linear-gradient-5"/><mask id="mask-6" x="-130.88" y="30.27" width="247.57" height="142.38" maskUnits="userSpaceOnUse"><g class="cls-17"><g class="cls-54"><path class="cls-4" d="M116.69,34.12v41c-2.76,1.99-5.82,3.57-8.98,4.68-8.91,3.11-18.55,3-27.92,2.28-9.37-.72-18.78-1.99-28.14-1.08-16.84,1.65-32.9,10.71-43.37,24.49-8.48,11.15-14.48,26.05-27.4,30.74-8.06,2.92-16.97,1.02-25.39,2.43-11.76,1.98-21.52,10.16-30.88,17.82-9.35,7.65-19.66,15.37-31.55,16.12-11.89,.75-25.04-8.81-23.86-21.08,.7-7.25,6.14-13.28,12.44-16.55,6.3-3.27,13.43-4.26,20.4-5.28,15.79-2.3,31.66-4.96,46.58-10.82,14.91-5.87,28.95-15.2,38.19-28.68,3.43-5.01,6.41-10.76,11.59-13.74,4.69-2.7,10.32-2.61,15.66-3.11,10.55-.98,20.88-4.56,29.9-10.35,12.39-7.95,22.1-19.84,34.62-27.57,9.99-6.17,26.78-7.05,38.12-1.3Z"/></g></g></mask><linearGradient id="linear-gradient-8" x1="-130.88" y1="101.46" x2="116.69" y2="101.46" gradientUnits="userSpaceOnUse"><stop offset="0" stop-color="#a82c64"/><stop offset=".38" stop-color="#6f2962"/><stop offset="1" stop-color="#0c2561"/></linearGradient><filter id="luminosity-noclip-10" x="97.27" y="62.5" width="4.52" height="4.6" color-interpolation-filters="sRGB" filterUnits="userSpaceOnUse"><feFlood flood-color="#fff" result="bg"/><feBlend in="SourceGraphic" in2="bg"/></filter><filter id="luminosity-noclip-11" x="8322" y="-8532" width="-32766" height="32766" color-interpolation-filters="sRGB" filterUnits="userSpaceOnUse"><feFlood flood-color="#fff" result="bg"/><feBlend in="SourceGraphic" in2="bg"/></filter><mask id="mask-9" x="8322" y="-8532" width="-32766" height="32766" maskUnits="userSpaceOnUse"/><radialGradient id="radial-gradient" cx="107909.78" cy="107160.29" fx="107909.78" fy="107160.29" r="97.93" gradientTransform="translate(-2393.18 -2453.46) scale(.02)" gradientUnits="userSpaceOnUse"><stop offset="0" stop-color="#fff"/><stop offset=".18" stop-color="#fbfbfb"/><stop offset=".31" stop-color="#f2f2f2"/><stop offset=".43" stop-color="#e2e2e2"/><stop offset=".54" stop-color="#cbcbcb"/><stop offset=".64" stop-color="#adadad"/><stop offset=".74" stop-color="#898989"/><stop offset=".83" stop-color="#5e5e5e"/><stop offset=".92" stop-color="#2e2e2e"/><stop offset="1" stop-color="#000"/></radialGradient><mask id="mask-8" x="97.27" y="62.5" width="4.52" height="4.6" maskUnits="userSpaceOnUse"><g class="cls-34"><g class="cls-57"><path class="cls-8" d="M99.53,67.11c-.31,0-.6-.06-.88-.18-.27-.12-.51-.28-.72-.49-.21-.21-.37-.46-.48-.73-.12-.28-.18-.59-.18-.9s.06-.61,.18-.9c.11-.27,.28-.52,.48-.73,.21-.21,.45-.38,.72-.49,.28-.12,.58-.18,.88-.18s.6,.06,.88,.18c.27,.12,.51,.28,.72,.49s.37,.46,.48,.73c.12,.28,.18,.59,.18,.9s-.06,.61-.18,.9c-.11,.27-.28,.52-.48,.73-.21,.21-.45,.38-.72,.49-.28,.12-.58,.18-.88,.18Z"/></g></g></mask><radialGradient id="radial-gradient-2" cx="107909.78" cy="107160.29" fx="107909.78" fy="107160.29" r="97.93" gradientTransform="translate(-2393.18 -2453.46) scale(.02)" gradientUnits="userSpaceOnUse"><stop offset="0" stop-color="#fff4e3"/><stop offset=".18" stop-color="#fbf1e0"/><stop offset=".31" stop-color="#f2e7d7"/><stop offset=".43" stop-color="#e2d8c9"/><stop offset=".54" stop-color="#cbc2b5"/><stop offset=".64" stop-color="#ada69a"/><stop offset=".74" stop-color="#89837a"/><stop offset=".83" stop-color="#5e5a54"/><stop offset=".92" stop-color="#2e2c29"/><stop offset="1" stop-color="#000"/></radialGradient><filter id="luminosity-noclip-12" x="76.27" y="16.1" width="4.52" height="4.6" color-interpolation-filters="sRGB" filterUnits="userSpaceOnUse"><feFlood flood-color="#fff" result="bg"/><feBlend in="SourceGraphic" in2="bg"/></filter><filter id="luminosity-noclip-13" x="8322" y="-8532" width="-32766" height="32766" color-interpolation-filters="sRGB" filterUnits="userSpaceOnUse"><feFlood flood-color="#fff" result="bg"/><feBlend in="SourceGraphic" in2="bg"/></filter><mask id="mask-11" x="8322" y="-8532" width="-32766" height="32766" maskUnits="userSpaceOnUse"/><radialGradient id="radial-gradient-3" cx="107000.85" cy="105185.64" fx="107000.85" fy="105185.64" r="97.93" xlink:href="#radial-gradient"/><mask id="mask-10" x="76.27" y="16.1" width="4.52" height="4.6" maskUnits="userSpaceOnUse"><g class="cls-35"><g class="cls-14"><path class="cls-3" d="M78.54,20.7c-.31,0-.6-.06-.88-.18-.27-.12-.51-.28-.72-.49s-.37-.46-.48-.73c-.12-.28-.18-.59-.18-.9s.06-.61,.18-.9c.11-.27,.28-.52,.48-.73,.21-.21,.45-.38,.72-.49,.28-.12,.58-.18,.88-.18s.6,.06,.88,.18c.27,.12,.51,.28,.72,.49,.21,.21,.37,.46,.48,.73,.12,.28,.18,.59,.18,.9s-.06,.61-.18,.9c-.11,.27-.28,.52-.48,.73-.21,.21-.45,.38-.72,.49-.28,.12-.58,.18-.88,.18Z"/></g></g></mask><radialGradient id="radial-gradient-4" cx="107000.85" cy="105185.64" fx="107000.85" fy="105185.64" r="97.93" xlink:href="#radial-gradient-2"/><filter id="luminosity-noclip-14" x="34.64" y="43.72" width="4.52" height="4.6" color-interpolation-filters="sRGB" filterUnits="userSpaceOnUse"><feFlood flood-color="#fff" result="bg"/><feBlend in="SourceGraphic" in2="bg"/></filter><filter id="luminosity-noclip-15" x="8322" y="-8532" width="-32766" height="32766" color-interpolation-filters="sRGB" filterUnits="userSpaceOnUse"><feFlood flood-color="#fff" result="bg"/><feBlend in="SourceGraphic" in2="bg"/></filter><mask id="mask-13" x="8322" y="-8532" width="-32766" height="32766" maskUnits="userSpaceOnUse"/><radialGradient id="radial-gradient-5" cx="105198.34" cy="106360.98" fx="105198.34" fy="106360.98" r="97.93" xlink:href="#radial-gradient"/><mask id="mask-12" x="34.64" y="43.72" width="4.52" height="4.6" maskUnits="userSpaceOnUse"><g class="cls-33"><g class="cls-12"><path class="cls-2" d="M36.9,48.32c-.31,0-.6-.06-.88-.18-.27-.12-.51-.28-.72-.49s-.37-.46-.48-.73c-.12-.28-.18-.59-.18-.9s.06-.61,.18-.9c.11-.27,.28-.52,.48-.73,.21-.21,.45-.38,.72-.49,.28-.12,.58-.18,.88-.18s.6,.06,.88,.18c.27,.12,.51,.28,.72,.49,.21,.21,.37,.46,.48,.73,.12,.28,.18,.59,.18,.9s-.06,.61-.18,.9c-.11,.27-.28,.52-.48,.73s-.45,.38-.72,.49c-.28,.12-.58,.18-.88,.18Z"/></g></g></mask><radialGradient id="radial-gradient-6" cx="105198.34" cy="106360.98" fx="105198.34" fy="106360.98" r="97.93" xlink:href="#radial-gradient-2"/><filter id="luminosity-noclip-16" x="27.42" y="47.25" width="65.15" height="13.25" color-interpolation-filters="sRGB" filterUnits="userSpaceOnUse"><feFlood flood-color="#fff" result="bg"/><feBlend in="SourceGraphic" in2="bg"/></filter><filter id="luminosity-noclip-17" x="8322" y="-8532" width="-32766" height="32766" color-interpolation-filters="sRGB" filterUnits="userSpaceOnUse"><feFlood flood-color="#fff" result="bg"/><feBlend in="SourceGraphic" in2="bg"/></filter><mask id="mask-15" x="8322" y="-8532" width="-32766" height="32766" maskUnits="userSpaceOnUse"/><linearGradient id="linear-gradient-9" x1="27.42" y1="53.88" x2="92.58" y2="53.88" gradientUnits="userSpaceOnUse"><stop offset="0" stop-color="#000"/><stop offset=".06" stop-color="#0b0b0b"/><stop offset=".22" stop-color="#212121"/><stop offset=".37" stop-color="#2e2e2e"/><stop offset=".5" stop-color="#333"/><stop offset=".63" stop-color="#2c2c2c"/><stop offset=".82" stop-color="#181818"/><stop offset="1" stop-color="#000"/></linearGradient><mask id="mask-14" x="27.42" y="47.25" width="65.15" height="13.25" maskUnits="userSpaceOnUse"><g class="cls-32"><g class="cls-10"><path class="cls-6" d="M92.58,53.42c0-3.41-14.59-6.17-32.58-6.17s-32.58,2.76-32.58,6.17c0,.31,.12,.61,.36,.91h0l4.29,6.16h55.86l4.26-6.12h0c.26-.31,.39-.63,.39-.96Z"/></g></g></mask><linearGradient id="_무제_그라디언트_11" x1="27.42" y1="53.88" x2="92.58" y2="53.88" gradientUnits="userSpaceOnUse"><stop offset="0" stop-color="#ccc"/><stop offset=".17" stop-color="#e0e0e0"/><stop offset=".34" stop-color="#ededed"/><stop offset=".5" stop-color="#f2f2f2"/><stop offset=".66" stop-color="#ebebeb"/><stop offset=".89" stop-color="#d7d7d7"/><stop offset="1" stop-color="#ccc"/></linearGradient></defs><g class="cls-48"><g id="_레이어_1"><g><g class="cls-36"><g><rect class="cls-41" x=".11" y="-3.08" width="116.58" height="123.58"/><g class="cls-20"><g class="cls-21"><path class="cls-44" d="M116.69-3.08V56.99c-21.07-1.15-42.79-.46-62.05,8.04-10.06,4.44-19.11,10.86-28.07,17.24-22.14,15.76-44.29,31.52-66.43,47.27-5.77,4.11-11.78,8.32-18.74,9.63-9.23,1.74-18.57-1.88-27.95-2.33-17.67-.85-33.29,9.28-48.34,19.21V88.87c3.68-1.08,7.45-1.83,11.27-2.23,1.28-.13,2.57-.23,3.86-.32,8.51-.53,17.23-.26,24.96-3.72,1.92-.86,3.69-1.91,5.36-3.11,1.01-.73,1.98-1.51,2.92-2.34,2.13-1.88,4.08-3.99,5.94-6.24,9.02-10.88,15.82-24.8,28.94-29.54,1.07-.39,2.16-.7,3.26-.95,11.73-2.7,24.75,1.65,36.4-1.96C3.41,33.69,12.16,16.54,27.25,10.88c10.21-3.83,21.79-1.79,32.21-5,5.88-1.81,10.96-5.12,15.76-8.96h41.46Z"/></g></g><g class="cls-47"><g class="cls-50"><path class="cls-43" d="M80.69-3.08c.03,8.54-3.36,17.11-9.57,22.97-10.9,10.3-27.42,10.96-41.53,16.04C14,41.55,.86,52.91-15,57.74c-18.17,5.53-38.51,2.07-55.93,9.64-5.5,2.39-10.62,5.87-15.59,9.76-.08,.06-.15,.12-.23,.18-.9,.71-1.8,1.43-2.69,2.16-13.97,11.42-27.22,25.18-45.45,26.3V52.46c1.44-.54,2.83-1.17,4.15-1.93,11.72-6.75,16-22.37,27.67-29.21,11.43-6.71,26.21-2.94,38.84-6.99,9.64-3.09,16.94-10.27,24.33-17.41H80.69Z"/></g></g><g class="cls-19"><g class="cls-52"><path class="cls-45" d="M29.03-3.08c-1.06,5.09-5.01,9.4-9.61,11.97-5.19,2.89-11.16,3.96-17,5.03-13.22,2.44-26.51,5.17-38.86,10.49-1.32,.57-2.62,1.16-3.91,1.8-10.84,5.29-20.71,12.85-27.22,22.96-2.68,4.15-4.95,8.88-9.1,11.52-.05,.04-.11,.07-.16,.1-3.85,2.37-8.61,2.5-13.09,3.09-8.86,1.18-17.43,4.46-24.82,9.5-2.14,1.46-4.17,3.05-6.14,4.73-4.81,4.09-9.25,8.64-14,12.79v-31.4c4.35,.11,8.69,.06,12.99-.53,14.13-1.94,27.34-9.91,35.66-21.52,6.74-9.4,11.24-21.76,21.97-26.05,6.68-2.67,14.27-1.43,21.31-2.89,7.82-1.62,14.44-6.39,20.64-11.58H29.03Z"/></g></g><g class="cls-47"><g class="cls-55"><path class="cls-42" d="M116.69,34.12v41c-2.76,1.99-5.82,3.57-8.98,4.68-8.91,3.11-18.55,3-27.92,2.28-9.37-.72-18.78-1.99-28.14-1.08-16.84,1.65-32.9,10.71-43.37,24.49-8.48,11.15-14.48,26.05-27.4,30.74-8.06,2.92-16.97,1.02-25.39,2.43-11.76,1.98-21.52,10.16-30.88,17.82-9.35,7.65-19.66,15.37-31.55,16.12-11.89,.75-25.04-8.81-23.86-21.08,.7-7.25,6.14-13.28,12.44-16.55,6.3-3.27,13.43-4.26,20.4-5.28,15.79-2.3,31.66-4.96,46.58-10.82,14.91-5.87,28.95-15.2,38.19-28.68,3.43-5.01,6.41-10.76,11.59-13.74,4.69-2.7,10.32-2.61,15.66-3.11,10.55-.98,20.88-4.56,29.9-10.35,12.39-7.95,22.1-19.84,34.62-27.57,9.99-6.17,26.78-7.05,38.12-1.3Z"/></g></g><g class="cls-59"><circle class="cls-24" cx="-.13" cy="24.08" r="1.22"/><circle class="cls-24" cx="27.03" cy="10.35" r="1.22"/><circle class="cls-24" cx="61.2" cy="28.03" r="1.22"/><circle class="cls-24" cx="113.59" cy="20.54" r="1.22"/><circle class="cls-24" cx="112.3" cy="69.24" r="1.22"/><circle class="cls-24" cx="113.53" cy="88.65" r="1.22"/></g><g class="cls-60"><circle class="cls-24" cx="9.38" cy="12.75" r="1.09"/><circle class="cls-24" cx="79.6" cy="1.57" r="1.09"/><circle class="cls-24" cx="91.09" cy="32.14" r="1.09"/><circle class="cls-24" cx="48.94" cy="21.87" r="1.09"/><circle class="cls-24" cx="28.22" cy="40.14" r="1.09"/><circle class="cls-24" cx="76.45" cy="57.72" r="1.09"/><circle class="cls-24" cx="95.65" cy="80.38" r="1.09"/><circle class="cls-24" cx="106.75" cy="40.89" r="1.09"/><circle class="cls-24" cx="107.77" cy="10.3" r="1.09"/><circle class="cls-24" cx="75.63" cy="30.46" r="1.09"/><circle class="cls-24" cx="14.18" cy="23.5" r="1.09"/><circle class="cls-24" cx="56.09" cy="40.74" r="1.09"/><circle class="cls-24" cx="46.77" cy="5.15" r="1.09"/></g><g><g class="cls-56"><path class="cls-37" d="M99.53,67.11c-.31,0-.6-.06-.88-.18-.27-.12-.51-.28-.72-.49-.21-.21-.37-.46-.48-.73-.12-.28-.18-.59-.18-.9s.06-.61,.18-.9c.11-.27,.28-.52,.48-.73,.21-.21,.45-.38,.72-.49,.28-.12,.58-.18,.88-.18s.6,.06,.88,.18c.27,.12,.51,.28,.72,.49s.37,.46,.48,.73c.12,.28,.18,.59,.18,.9s-.06,.61-.18,.9c-.11,.27-.28,.52-.48,.73-.21,.21-.45,.38-.72,.49-.28,.12-.58,.18-.88,.18Z"/></g><path class="cls-24" d="M102.29,64.81c-2.5,.14-2.61,.26-2.76,2.76-.14-2.5-.26-2.61-2.76-2.76,2.5-.14,2.61-.26,2.76-2.76,.14,2.5,.26,2.61,2.76,2.76Z"/></g><g><g class="cls-15"><path class="cls-39" d="M78.54,20.7c-.31,0-.6-.06-.88-.18-.27-.12-.51-.28-.72-.49s-.37-.46-.48-.73c-.12-.28-.18-.59-.18-.9s.06-.61,.18-.9c.11-.27,.28-.52,.48-.73,.21-.21,.45-.38,.72-.49,.28-.12,.58-.18,.88-.18s.6,.06,.88,.18c.27,.12,.51,.28,.72,.49,.21,.21,.37,.46,.48,.73,.12,.28,.18,.59,.18,.9s-.06,.61-.18,.9c-.11,.27-.28,.52-.48,.73-.21,.21-.45,.38-.72,.49-.28,.12-.58,.18-.88,.18Z"/></g><path class="cls-24" d="M81.24,18.4c-2.45,.14-2.57,.25-2.71,2.71-.14-2.45-.25-2.57-2.71-2.71,2.45-.14,2.57-.25,2.71-2.71,.14,2.45,.25,2.57,2.71,2.71Z"/></g><g><g class="cls-13"><path class="cls-38" d="M36.9,48.32c-.31,0-.6-.06-.88-.18-.27-.12-.51-.28-.72-.49s-.37-.46-.48-.73c-.12-.28-.18-.59-.18-.9s.06-.61,.18-.9c.11-.27,.28-.52,.48-.73,.21-.21,.45-.38,.72-.49,.28-.12,.58-.18,.88-.18s.6,.06,.88,.18c.27,.12,.51,.28,.72,.49,.21,.21,.37,.46,.48,.73,.12,.28,.18,.59,.18,.9s-.06,.61-.18,.9c-.11,.27-.28,.52-.48,.73s-.45,.38-.72,.49c-.28,.12-.58,.18-.88,.18Z"/></g><path class="cls-24" d="M39.6,46.02c-2.45,.14-2.57,.25-2.71,2.71-.14-2.45-.25-2.57-2.71-2.71,2.45-.14,2.57-.25,2.71-2.71,.14,2.45,.25,2.57,2.71,2.71Z"/></g><g class="cls-46"><circle class="cls-24" cx="58.31" cy="62.81" r="1.09"/></g><g class="cls-46"><circle class="cls-24" cx="68.16" cy="97.16" r="1.09"/></g><g class="cls-46"><circle class="cls-24" cx="79.6" cy="120.36" r="1.09"/></g><g class="cls-46"><circle class="cls-24" cx="6.11" cy="40.74" r=".78"/></g><g class="cls-46"><circle class="cls-24" cx="99.53" cy="102.85" r=".78"/></g><g class="cls-46"><circle class="cls-24" cx="32.37" cy="67.06" r=".78"/></g></g></g><circle class="cls-1" cx="60.11" cy="60.5" r="52"/><path class="cls-1" d="M119.5,33.5h-15.01c-9.12-15.03-25.63-25.07-44.49-25.07S24.62,18.47,15.51,33.5H.5v29h7.55c1.09,27.76,23.92,49.93,51.95,49.93s50.86-22.17,51.95-49.93h7.55v-29Z"/><path class="cls-24" d="M60.61,1.5C28.3,1.5,2.11,27.69,2.11,60c0,4.29,.48,8.47,1.35,12.5h6.36c-.99-4.01-1.52-8.19-1.52-12.5C8.3,31.16,31.77,7.69,60.61,7.69s52.31,23.47,52.31,52.31c0,4.31-.53,8.49-1.52,12.5h6.36c.88-4.03,1.35-8.21,1.35-12.5C119.11,27.69,92.92,1.5,60.61,1.5Z"/><path class="cls-1" d="M60.61,112.31c24.54,0,45.17-16.98,50.79-39.81H9.82c5.62,22.83,26.25,39.81,50.79,39.81Z"/><g><polygon class="cls-31" points="115.5 49.75 115.5 48.29 115.4 49.02 115.5 49.75"/><polygon class="cls-31" points="4.5 49.75 4.5 48.29 4.6 49.02 4.5 49.75"/><path class="cls-23" d="M82.8,36.98c-6.95-.7-14.67-1.09-22.8-1.09s-15.84,.39-22.8,1.09c-19.28,1.94-32.7,6.28-32.7,11.31,0,4.7,11.68,8.78,28.91,10.89,7.9,.96,16.95,1.51,26.59,1.51s18.69-.55,26.59-1.51c17.23-2.1,28.91-6.19,28.91-10.89,0-5.03-13.42-9.37-32.7-11.31Z"/><path class="cls-29" d="M82.8,36.98c-5-6.85-13.34-11.34-22.8-11.34s-17.8,4.49-22.8,11.34c6.95-.7,14.67-1.09,22.8-1.09s15.84,.39,22.8,1.09Z"/><path class="cls-25" d="M60.73,26.37c7.71,0,14.68,2.99,19.7,7.8-5.06-5.24-12.34-8.53-20.43-8.53-9.46,0-17.8,4.49-22.8,11.34,.46-.05,.93-.09,1.39-.13,5.05-6.36,13.08-10.48,22.14-10.48Z"/><path class="cls-27" d="M82.8,38.44c-6.95-.7-14.67-1.09-22.8-1.09s-15.84,.39-22.8,1.09c-19.28,1.94-32.7,6.28-32.7,11.31,0,4.7,11.68,8.78,28.91,10.89,7.9,.96,16.95,1.51,26.59,1.51s18.69-.55,26.59-1.51c17.23-2.1,28.91-6.19,28.91-10.89,0-5.03-13.42-9.37-32.7-11.31Z"/><path class="cls-28" d="M92.58,53.61c0-3.41-14.59-6.17-32.58-6.17s-32.58,2.76-32.58,6.17c0,.31,.12,.61,.36,.91h0l4.29,6.16h55.86l4.26-6.12h0c.26-.31,.39-.63,.39-.96Z"/><g class="cls-11"><path class="cls-40" d="M92.58,53.42c0-3.41-14.59-6.17-32.58-6.17s-32.58,2.76-32.58,6.17c0,.31,.12,.61,.36,.91h0l4.29,6.16h55.86l4.26-6.12h0c.26-.31,.39-.63,.39-.96Z"/></g><ellipse class="cls-23" cx="60" cy="60.1" rx="28.09" ry="5.32"/><ellipse class="cls-30" cx="60" cy="61.43" rx="17.23" ry="3.26"/><path class="cls-31" d="M60,63.96c-8.86,0-16.16-1.27-17.12-2.9-.07,.12-.11,.24-.11,.37,0,1.8,7.71,3.26,17.23,3.26s17.23-1.46,17.23-3.26c0-.12-.04-.25-.11-.37-.96,1.63-8.26,2.9-17.12,2.9Z"/><path class="cls-26" d="M23.67,54.78c0,.51-1.07,.92-2.38,.92s-2.38-.41-2.38-.92,1.07-.92,2.38-.92,2.38,.41,2.38,.92Z"/><ellipse class="cls-26" cx="16.21" cy="50.67" rx="2.38" ry=".92"/><ellipse class="cls-26" cx="24.31" cy="46.06" rx="2.38" ry=".92"/><path class="cls-26" d="M39.58,43.83c0,.51-1.07,.92-2.38,.92s-2.38-.41-2.38-.92,1.07-.92,2.38-.92,2.38,.41,2.38,.92Z"/><path class="cls-26" d="M55.52,42.91c0,.51-1.07,.92-2.38,.92s-2.38-.41-2.38-.92,1.07-.92,2.38-.92,2.38,.41,2.38,.92Z"/><path class="cls-26" d="M71.62,42.91c0,.51-1.07,.92-2.38,.92s-2.38-.41-2.38-.92,1.07-.92,2.38-.92,2.38,.41,2.38,.92Z"/><path class="cls-26" d="M85.18,43.83c0,.51-1.07,.92-2.38,.92s-2.38-.41-2.38-.92,1.07-.92,2.38-.92,2.38,.41,2.38,.92Z"/><ellipse class="cls-26" cx="96.51" cy="46.06" rx="2.38" ry=".92"/><ellipse class="cls-26" cx="104.66" cy="50.67" rx="2.38" ry=".92"/><path class="cls-26" d="M102.28,54.52c0,.51-1.07,.92-2.38,.92s-2.38-.41-2.38-.92,1.07-.92,2.38-.92,2.38,.41,2.38,.92Z"/><path class="cls-25" d="M47.08,31.92c.25,.75,2.75,.58,5.58-.38,2.83-.96,4.91-2.34,4.66-3.09-.25-.75-2.75-.58-5.58,.38s-4.91,2.34-4.66,3.09Z"/><g><path class="cls-58" d="M85.18,106.17s-7.18-41.17-7.95-44.74c-.37-1.69-4.26-2.51-8.26-2.91,.89,8.75,4.66,48.51,4.99,52.02,6.97-1.8,11.22-4.37,11.22-4.37Z"/><path class="cls-58" d="M42.77,61.43l-8.42,43.79c3.29,1.83,6.53,3.23,9.68,4.28l4.97-50.66c-6.62,.96-6.22,2.58-6.22,2.58Z"/><path class="cls-58" d="M73.96,110.54c-.33-3.51-4.1-43.27-4.99-52.02-4.42-.44-8.97-.35-8.97-.35-4.96,.05-8.49,.32-11.01,.68l-4.97,50.66c11.88,3.98,22.47,2.96,29.93,1.03Z"/><path class="cls-58" d="M73.96,110.54c-.33-3.51-4.1-43.27-4.99-52.02-4.42-.44-8.97-.35-8.97-.35-4.96,.05-8.49,.32-11.01,.68l-4.97,50.66c11.88,3.98,22.47,2.96,29.93,1.03Z"/></g></g><path class="cls-24" d="M60.61,112.31c-24.54,0-45.17-16.98-50.79-39.81H3.46c5.73,26.3,29.13,46,57.15,46s51.42-19.7,57.15-46h-6.36c-5.62,22.83-26.25,39.81-50.79,39.81Z"/></g></g></g></svg>