<?xml version="1.0" encoding="UTF-8"?><svg xmlns="http://www.w3.org/2000/svg" xmlns:xlink="http://www.w3.org/1999/xlink" viewBox="0 0 120 120"><defs><style>.cls-1{fill:none;}.cls-2,.cls-3{mix-blend-mode:screen;}.cls-2,.cls-3,.cls-4,.cls-5{fill:#fff;}.cls-2,.cls-6,.cls-7,.cls-8,.cls-9,.cls-10,.cls-11{opacity:.25;}.cls-3{opacity:.7;}.cls-12{fill:url(#linear-gradient);}.cls-13{fill:#f7cc6d;}.cls-14{fill:#fc4a32;}.cls-15{fill:#e83356;}.cls-16{fill:#ff6252;}.cls-17{fill:#bc003d;}.cls-18{fill:#e23e2d;}.cls-19{fill:#0d0d15;}.cls-20{fill:url(#linear-gradient-8);}.cls-20,.cls-6,.cls-7,.cls-8,.cls-9,.cls-10,.cls-11{mix-blend-mode:multiply;}.cls-21{clip-path:url(#clippath-1);}.cls-22{clip-path:url(#clippath-3);}.cls-23{clip-path:url(#clippath-2);}.cls-6{fill:url(#linear-gradient-6);}.cls-7{fill:url(#linear-gradient-7);}.cls-8{fill:url(#linear-gradient-5);}.cls-9{fill:url(#linear-gradient-2);}.cls-10{fill:url(#linear-gradient-4);}.cls-11{fill:url(#linear-gradient-3);}.cls-5{opacity:.2;}.cls-24{fill:url(#linear-gradient-9);}.cls-25{opacity:.3;}.cls-26{isolation:isolate;}</style><clipPath id="clippath"><path class="cls-1" d="M249.3,82.42V37.39c0-3.98-2.13-7.67-5.58-9.66L204.72,5.22c-3.45-1.99-7.7-1.99-11.15,0l-39,22.51c-3.45,1.99-5.58,5.67-5.58,9.66v45.03c0,3.98,2.13,7.67,5.58,9.66l39,22.51c3.45,1.99,7.7,1.99,11.15,0l39-22.51c3.45-1.99,5.58-5.67,5.58-9.66Z"/></clipPath><clipPath id="clippath-1"><circle class="cls-1" cx="60" cy="-80" r="58.5"/></clipPath><clipPath id="clippath-2"><path class="cls-1" d="M88.89,3.8H29.72C17.61,3.8,7.8,13.53,7.8,25.54v48.93c0,22.82,23.06,41.32,51.5,41.32s51.5-18.5,51.5-41.32V25.54c0-12.01-9.81-21.75-21.91-21.75Z"/></clipPath><linearGradient id="linear-gradient" x1="65" y1="119.85" x2="65" y2="-.15" gradientUnits="userSpaceOnUse"><stop offset="0" stop-color="#fbd6ac"/><stop offset=".22" stop-color="#fbd69d"/><stop offset=".49" stop-color="#fbd694"/><stop offset=".9" stop-color="#fbd692"/></linearGradient><linearGradient id="linear-gradient-2" x1="13198.31" y1="24.23" x2="13198.31" y2=".15" gradientTransform="translate(-13133.31 120) scale(1 -1)" gradientUnits="userSpaceOnUse"><stop offset="0" stop-color="#c69c6d"/><stop offset=".13" stop-color="#cba47a"/><stop offset=".36" stop-color="#d8bc9d"/><stop offset=".68" stop-color="#eee2d5"/><stop offset=".9" stop-color="#fff"/></linearGradient><linearGradient id="linear-gradient-3" y1="23.07" y2=".15" xlink:href="#linear-gradient-2"/><linearGradient id="linear-gradient-4" x1="10683.59" y1="634.24" x2="10683.59" y2="595.47" gradientTransform="translate(-12561.15 1276.36) rotate(-2.6) scale(1.17 -1.01) skewX(11.67)" gradientUnits="userSpaceOnUse"><stop offset="0" stop-color="#c69c6d"/><stop offset=".09" stop-color="#d4b593"/><stop offset=".19" stop-color="#e1ccb4"/><stop offset=".29" stop-color="#ecdecf"/><stop offset=".4" stop-color="#f4ede4"/><stop offset=".53" stop-color="#faf7f3"/><stop offset=".67" stop-color="#fdfdfc"/><stop offset=".9" stop-color="#fff"/></linearGradient><linearGradient id="linear-gradient-5" x1="10683.5" y1="632.06" x2="10683.5" y2="600.6" xlink:href="#linear-gradient-4"/><linearGradient id="linear-gradient-6" x1="10782.76" y1="41.95" x2="10782.76" y2="3.2" gradientTransform="translate(-12561.15 -1011.23) rotate(4.98) scale(1.18 -1) skewX(5.31)" xlink:href="#linear-gradient-4"/><linearGradient id="linear-gradient-7" x1="10782.67" y1="39.76" x2="10782.67" y2="8.27" gradientTransform="translate(-12561.15 -1011.23) rotate(4.98) scale(1.18 -1) skewX(5.31)" xlink:href="#linear-gradient-4"/><linearGradient id="linear-gradient-8" x1="7586.18" y1="1103.34" x2="7586.18" y2="1023.16" gradientTransform="translate(7645.88 1074) rotate(-180)" gradientUnits="userSpaceOnUse"><stop offset="0" stop-color="#c69c6d"/><stop offset=".2" stop-color="#c79e70"/><stop offset=".37" stop-color="#cba57a"/><stop offset=".52" stop-color="#d2b08b"/><stop offset=".66" stop-color="#dbc1a4"/><stop offset=".8" stop-color="#e7d6c3"/><stop offset=".94" stop-color="#f6f0e9"/><stop offset="1" stop-color="#fff"/></linearGradient><linearGradient id="linear-gradient-9" x1="7462.09" y1="1064.27" x2="7723.52" y2="1064.27" gradientTransform="translate(7645.88 1074) rotate(-180)" gradientUnits="userSpaceOnUse"><stop offset="0" stop-color="#1bc0d9"/><stop offset="1" stop-color="#1bdbd9"/></linearGradient><clipPath id="clippath-3"><path class="cls-1" d="M91.2,2H28.8C16.04,2,5.7,12.08,5.7,24.52v50.68c0,23.64,24.31,42.8,54.3,42.8s54.3-19.16,54.3-42.8V24.52c0-12.44-10.35-22.52-23.11-22.52Z"/></clipPath></defs><g class="cls-26"><g id="_레이어_1"><g class="cls-21"><g><polygon class="cls-5" points="61.21 -78.59 17.57 13.99 1.98 4.99 61.21 -78.59"/><polygon class="cls-5" points="61.21 -78.59 69.71 23.41 51.71 23.41 61.21 -78.59"/><polygon class="cls-5" points="61.21 -78.59 119.57 5.49 103.98 14.49 61.21 -78.59"/></g></g><g><g class="cls-23"><rect class="cls-12" x="5" y="-.15" width="120" height="120"/><path class="cls-9" d="M125,106.68c-9.1,2.82-18.24,5.73-34.57,1.48-18.71-4.86-24.38-13.27-42.11-11.74-16.64,1.44-14.97,9.13-30.55,10.29-4.81,.36-8.97-.08-12.78-.95v14.09H125v-13.17Z"/><path class="cls-11" d="M125,107.31c-9.1,2.68-18.24,5.45-34.57,1.41-18.71-4.63-24.38-12.63-42.11-11.17-16.64,1.37-14.97,8.69-30.55,9.79-4.81,.34-8.97-.08-12.78-.91v13.41H125v-12.53Z"/><path class="cls-10" d="M125,71.66c-8.12,2.05-17.27,3.11-29.49,1.1-20.97-3.45-25.79-11.8-47.03-8.6-19.94,3-19.7,10.95-38.33,13.56-1.8,.25-3.51,.42-5.15,.5v23.78l120-9.07v-21.26Z"/><path class="cls-8" d="M125,73.27c-8.12,2.39-17.27,3.71-29.49,1.7-20.97-3.45-25.79-11.8-47.03-8.6-19.94,3-19.7,10.95-38.33,13.56-1.81,.25-3.52,.41-5.15,.48v6.12l120,3.12v-16.37Z"/><path class="cls-6" d="M125,64.35c-8.12,.97-17.27,.81-29.49-2.83-20.97-6.24-25.79-15.23-47.03-14.86-19.94,.34-19.7,8.33-38.33,8.45-1.8,.01-3.51-.05-5.15-.18v23.78l120,6.9v-21.26Z"/><path class="cls-7" d="M125,65.95c-8.12,1.31-17.27,1.41-29.49-2.23-20.97-6.24-25.79-15.23-47.03-14.86-19.94,.34-19.7,8.33-38.33,8.45-1.81,.01-3.52-.06-5.15-.21v6.12l120,19.09v-16.37Z"/><g><path class="cls-20" d="M125-25H-5.6V44.33c11.62,6.34,25.57,8.97,36.48,3.7,12.3-5.95,10.81-17.19,21.83-20.08,12.64-3.32,17.52,10.7,36.73,13.01,15.84,1.91,29.93-5.49,35.57-9.05V-25Z"/><path class="cls-24" d="M125-25H-5.6V38.46c11.62,5.84,25.57,8.26,36.48,3.4,12.3-5.48,10.81-15.82,21.83-18.48,12.64-3.05,17.52,9.85,36.73,11.98,15.84,1.76,29.93-5.05,35.57-8.33V-25Z"/><path class="cls-2" d="M125,22.3c-5.65,3.27-19.74,10.08-35.57,8.33-19.2-2.13-24.09-15.03-36.73-11.98-11.01,2.66-9.53,13-21.83,18.48-10.9,4.86-24.86,2.43-36.48-3.4v4.73c11.62,5.84,25.57,8.26,36.48,3.4,12.3-5.48,10.81-15.82,21.83-18.48,12.64-3.05,17.52,9.85,36.73,11.98,15.84,1.76,29.93-5.05,35.57-8.33v-4.73Z"/><path class="cls-2" d="M125,14.54c-5.65,3.27-19.74,10.08-35.57,8.33-19.2-2.13-24.09-15.03-36.73-11.98-11.01,2.66-9.53,13-21.83,18.48-10.9,4.86-24.86,2.43-36.48-3.4v4.73c11.62,5.84,25.57,8.26,36.48,3.4,12.3-5.48,10.81-15.82,21.83-18.48,12.64-3.05,17.52,9.85,36.73,11.98,15.84,1.76,29.93-5.05,35.57-8.33v-4.73Z"/><path class="cls-2" d="M123.65,8.12c-5.65,3.27-19.74,10.08-35.57,8.33-19.2-2.13-24.09-15.03-36.73-11.98-11.01,2.66-9.53,13-21.83,18.48-10.9,4.86-24.86,2.43-36.48-3.4v4.73c11.62,5.84,25.57,8.26,36.48,3.4,12.3-5.48,10.81-15.82,21.83-18.48,12.64-3.05,17.52,9.85,36.73,11.98,15.84,1.76,29.93-5.05,35.57-8.33v-4.73Z"/><path class="cls-2" d="M125,13.09c-5.65,3.27-19.74,10.08-35.57,8.33-19.2-2.13-24.09-15.03-36.73-11.98-11.01,2.66-9.53,13-21.83,18.48-10.9,4.86-24.86,2.43-36.48-3.4v4.73c11.62,5.84,25.57,8.26,36.48,3.4,12.3-5.48,10.81-15.82,21.83-18.48,12.64-3.05,17.52,9.85,36.73,11.98,15.84,1.76,29.93-5.05,35.57-8.33v-4.73Z"/><path class="cls-2" d="M125,18.15c-5.65,3.27-19.74,10.08-35.57,8.33-19.2-2.13-24.09-15.03-36.73-11.98-11.01,2.66-9.53,13-21.83,18.48-10.9,4.86-24.86,2.43-36.48-3.4v4.73c11.62,5.84,25.57,8.26,36.48,3.4,12.3-5.48,10.81-15.82,21.83-18.48,12.64-3.05,17.52,9.85,36.73,11.98,15.84,1.76,29.93-5.05,35.57-8.33v-4.73Z"/><path class="cls-3" d="M125,24.77c-5.65,3.14-19.74,9.68-35.57,7.99-19.2-2.04-24.09-14.43-36.73-11.5-11.01,2.55-9.53,12.48-21.83,17.74-10.9,4.66-24.86,2.34-36.48-3.26v2.72c11.62,5.84,25.57,8.26,36.48,3.4,12.3-5.48,10.81-15.82,21.83-18.48,12.64-3.05,17.52,9.85,36.73,11.98,15.84,1.76,29.93-5.05,35.57-8.33v-2.26Z"/><path class="cls-3" d="M125,12.39c-1.09,.79-2.26,1.55-3.53,2.29-1.24,.72-16.87,8.74-34.98,7.16-17.62-1.54-22.11-10.84-33.71-8.64-10.11,1.92-8.74,9.38-20.03,13.33-11.59,4.06-26.94,1.07-38.36-4.63v1.95c11.42,5.94,26.77,9.05,38.36,4.82,11.29-4.12,9.92-11.89,20.03-13.89,11.6-2.29,16.08,7.4,33.71,9,18.11,1.64,33.74-6.71,34.98-7.46,1.27-.77,2.44-1.57,3.53-2.39v-1.56Z"/><path class="cls-3" d="M125-2.99c-2.98,1.86-5.87,3.92-10.05,5.71-1.07,.46-14.6,5.56-30.28,4.56-4.51-.29-8.03-1.01-11-1.85,2.97,.87,6.49,2.79,11,3.09,15.68,1.05,29.21-4.27,30.28-4.75,4.18-1.86,7.07-4.01,10.05-5.95v-.81Z"/><path class="cls-3" d="M25.3,14.89c-9.41,3.07-22.07,.47-30.9-4.1v1.36c8.84,4.76,21.49,7.47,30.9,4.27,7.28-2.48,12.27-10.13,12.27-10.13-4.61,2.06-4.99,6.22-12.27,8.6Z"/><path class="cls-2" d="M-5.6,10.6v2.2c11.84,8.55,27.08,4.33,27.08,4.33C2.48,17.45-1.38,13.78-5.6,10.6Z"/><path class="cls-2" d="M-4.04,6.42c-.64-.45-1.15-.79-1.56-1.04v1.38c9.58,9.34,23.81,5.41,23.81,5.41C2,12.44-.31,9.05-4.04,6.42Z"/><path class="cls-2" d="M15.69,10.2S2.97,13.72-4.61,4.49c0,0-.45-.98,2.53,1.12C.89,7.71,2.74,10.41,15.69,10.2Z"/></g></g><g class="cls-22"><g class="cls-25"><path class="cls-19" d="M97.8,73.06l-.02-3.83c3.14-6.26,5.8-12.8,7.31-19.87,1.63-8.4-4.6-16.41-10.74-17.36-.08-.01-.16-.03-.23-.04-6.16-.95-14.02,3.49-15.86,10.05-1.42,5.57-2.45,11.43-3.7,17.26l-2.28,2.41c-1.18,1.25-1.59,2.87-.9,3.6l.03,.03c.38,.4,1.01,.45,1.7,.2-1.53,5.9-3.52,11.66-6.64,16.94-3.67,5.92-4.12,12.74,1.49,17.18,.06,.05,.13,.1,.19,.15,5.58,4.44,12.22,1.23,15.95-6.07,3.33-6.19,7.1-12.3,10.59-18.62,.33,.71,.81,1.18,1.35,1.18h.03c.98,.01,1.76-1.43,1.74-3.22Z"/><path class="cls-19" d="M49.67,51.61c-.08-.02-.16-.05-.24-.07-6.06-1.94-14.77,2.42-16.28,10.68-1.15,7.02-1.03,14.08-.36,21.12l-1.41,3.42c-.66,1.6-.45,3.25,.45,3.69h.04c.51,.25,1.12,.06,1.69-.44,.97,7.25,2.29,14.45,3.15,21.51,.85,8.23,5.87,14.13,12.69,12.68,.08,0,.16-.03,.23-.04,6.83-1.44,8.88-7.76,7.6-14.73-1.01-6.15-.78-12.21-.07-18.19,.55,.53,1.16,.77,1.66,.58h.03c.91-.36,1.11-1.98,.46-3.65l-1.26-3.19c.94-5.8,2.1-11.52,2.78-17.16,.64-6.72-5.07-14.28-11.16-16.22Z"/></g><g><g><path class="cls-15" d="M65.2,97.07c-.06-.05-.13-.1-.19-.16-5.41-4.68-4.68-11.47-.77-17.23,7.78-11.96,9.55-26.79,13.5-39.9,2.12-6.47,10.16-10.59,16.27-9.38,.08,.02,.16,.04,.23,.05,6.09,1.2,11.98,9.47,10,17.79-4.23,16.44-14.7,29.7-22.85,43.43-4.04,7.13-10.8,10.07-16.19,5.39Z"/><polygon class="cls-4" points="94.6 42.63 92.5 41.58 95.54 34.62 97.64 35.66 94.6 42.63"/><path class="cls-19" d="M94.1,74.77h-.03c-.97-.05-1.71-1.54-1.64-3.33l1-27.89c.07-1.79,.9-3.2,1.87-3.15h.04c.97,.05,1.71,1.55,1.64,3.34l-1.01,27.88c-.06,1.79-.9,3.2-1.88,3.15Z"/><path class="cls-19" d="M69.91,62.76l-.03-.03c-.66-.76-.19-2.36,1.05-3.56l19.37-18.75c1.25-1.2,2.78-1.56,3.45-.8l.02,.03c.66,.76,.19,2.35-1.06,3.55l-19.37,18.75c-1.24,1.2-2.79,1.56-3.44,.8Z"/><path class="cls-17" d="M74.66,91.06c-.99,2.28-3.55,3.25-5.7,2.18-2.17-1.08-3.12-3.79-2.13-6.07,1-2.26,3.55-3.24,5.71-2.17,2.16,1.07,3.11,3.78,2.12,6.05Z"/></g><g><path class="cls-15" d="M47.4,123.22c.08,0,.16-.03,.23-.04,6.83-1.44,8.88-7.75,7.59-14.73-2.34-14.31,1.97-28.18,3.6-41.61,.64-6.72-5.07-14.28-11.16-16.22-.08-.02-.16-.05-.24-.07-6.06-1.94-14.77,2.42-16.28,10.68-2.71,16.49,1.59,33.26,3.56,49.31,.85,8.23,5.87,14.13,12.69,12.68Z"/><polygon class="cls-4" points="42.24 61.04 44.59 61.16 44.59 53.57 42.24 53.45 42.24 61.04"/><path class="cls-19" d="M29.84,89.47h.04c.91,.45,2.18-.5,2.83-2.1l10.24-24.93c.66-1.6,.45-3.25-.46-3.69h-.03c-.91-.45-2.18,.5-2.84,2.1l-10.23,24.93c-.66,1.6-.45,3.25,.45,3.69Z"/><path class="cls-19" d="M56.81,90.83h.03c.91-.36,1.11-1.98,.46-3.65l-10.24-25.96c-.66-1.67-1.93-2.74-2.84-2.4h-.03c-.91,.36-1.11,1.98-.46,3.65l10.24,25.96c.66,1.67,1.93,2.74,2.84,2.4Z"/><path class="cls-17" d="M41.13,113.3c0,2.48,1.94,4.58,4.36,4.7,2.41,.12,4.36-1.79,4.36-4.27s-1.95-4.58-4.36-4.71c-2.41-.12-4.36,1.79-4.36,4.27Z"/></g></g></g><path class="cls-4" d="M91.2,8c9.43,0,17.11,7.41,17.11,16.52v50.68c0,20.29-21.67,36.8-48.3,36.8S11.7,95.49,11.7,75.2V24.52c0-9.11,7.67-16.52,17.11-16.52h62.39m0-6H28.8C16.04,2,5.7,12.08,5.7,24.52v50.68c0,23.64,24.31,42.8,54.3,42.8s54.3-19.16,54.3-42.8V24.52c0-12.44-10.35-22.52-23.11-22.52h0Z"/><g id="_75"><path class="cls-14" d="M49.42,18.42c.96,1.74,1.57,3.3,2.08,4.76,.11,.32,.36,.54,.66,.58,1.4,.2,2.88,.28,4.61,.1,.95-.12,1.42,.93,.64,1.8-1.39,1.53-2.76,2.74-4.01,3.76-.27,.22-.41,.55-.35,.88,.24,1.52,.65,3.1,1.24,4.8,.31,.93-.38,1.6-1.28,1.06-1.65-.98-3.25-1.99-4.64-2.97-.31-.21-.65-.26-.92-.13-1.24,.62-2.49,1.39-3.81,2.18-.74,.42-1.71-.48-1.56-1.41,.24-1.72,.59-3.29,1-4.73,.09-.32,.02-.63-.2-.84-.99-.97-2.14-1.8-3.57-2.55-.81-.41-.34-1.47,.74-1.69,1.94-.4,3.61-.56,5.15-.67,.34-.02,.63-.19,.78-.46,.69-1.23,1.25-2.59,1.59-4.33,.17-.98,1.32-1.12,1.86-.14Z"/><path class="cls-14" d="M49.42,18.42c.96,1.74,1.57,3.3,2.08,4.76,.11,.32,.36,.54,.66,.58,1.4,.2,2.88,.28,4.61,.1,.95-.12,1.42,.93,.64,1.8-1.39,1.53-2.76,2.74-4.01,3.76-.27,.22-.41,.55-.35,.88,.24,1.52,.65,3.1,1.24,4.8,.31,.93-.38,1.6-1.28,1.06-1.65-.98-3.25-1.99-4.64-2.97-.31-.21-.65-.26-.92-.13-1.24,.62-2.49,1.39-3.81,2.18-.74,.42-1.71-.48-1.56-1.41,.24-1.72,.59-3.29,1-4.73,.09-.32,.02-.63-.2-.84-.99-.97-2.14-1.8-3.57-2.55-.81-.41-.34-1.47,.74-1.69,1.94-.4,3.61-.56,5.15-.67,.34-.02,.63-.19,.78-.46,.69-1.23,1.25-2.59,1.59-4.33,.17-.98,1.32-1.12,1.86-.14Z"/><path class="cls-18" d="M57.41,25.65c.78-.86,.31-1.91-.64-1.8-1.73,.18-3.21,.1-4.61-.1-.31-.04-.55-.26-.66-.58-.51-1.46-1.11-3.02-2.08-4.76-.25-.46-.65-.67-1.01-.66,1.41,6.68-.94,9.66-.46,15.25,.14,.03,.28,.08,.42,.18,1.4,.98,2.99,1.99,4.64,2.97,.9,.54,1.59-.13,1.28-1.06-.59-1.7-.99-3.29-1.24-4.8-.05-.33,.08-.66,.35-.88,1.25-1.01,2.61-2.23,4.01-3.76Z"/><path class="cls-16" d="M49.32,31.14c-.46-.33-.97-.55-1.48-.63-.51-.08-1.02-.03-1.48,.17-.51,.22-1.02,.45-1.54,.71,.12-.62,.26-1.22,.42-1.78,.28-1.05,.12-2.09-.55-2.84-.37-.4-.76-.79-1.17-1.17,.63-.07,1.24-.11,1.83-.14,1.08-.05,2.04-.53,2.6-1.42,.3-.48,.58-.99,.85-1.53,.24,.57,.44,1.12,.63,1.67,.34,1,1.08,1.75,2.11,1.97,.56,.11,1.13,.21,1.74,.29-.49,.44-.98,.85-1.45,1.22-.87,.69-1.36,1.67-1.21,2.76,.08,.59,.19,1.2,.33,1.83-.57-.37-1.11-.74-1.62-1.1Z"/><path class="cls-14" d="M51.54,26.14c-1.21-.26-2.01-1.24-2.25-2.51-.13,.01,.08,0-.05,0v1.24c0,1.87-1.51,3.38-3.38,3.38h-.5c.05,.43,.02,.89-.1,1.35-.15,.57-.3,1.16-.42,1.78,.52-.26,1.03-.49,1.54-.71,.46-.2,.97-.25,1.48-.17,.51,.08,1.01,.3,1.48,.63,.51,.36,1.05,.73,1.62,1.1-.15-.63-.25-1.24-.33-1.83-.14-1.1,.34-2.07,1.21-2.76,.48-.38,.96-.78,1.45-1.22-.61-.07-1.18-.17-1.74-.29Z"/><g><g><path class="cls-13" d="M49.13,20.06c.02,.28-.15,.51-.38,.51-.23,0-.44-.21-.47-.49-.03-.27,.13-.51,.37-.52,.24-.01,.46,.22,.48,.5Z"/><path class="cls-13" d="M49.12,21.42c0,.2-.14,.36-.32,.36-.18,0-.32-.17-.33-.37,0-.2,.13-.36,.31-.36,.18,0,.33,.17,.34,.37Z"/><path class="cls-13" d="M49.07,22.55c0,.17-.14,.29-.29,.28-.15,0-.27-.15-.27-.31,0-.16,.13-.29,.28-.29,.15,0,.28,.15,.27,.32Z"/><path class="cls-13" d="M48.98,23.53c-.01,.14-.12,.24-.25,.22-.13-.01-.22-.13-.21-.26,0-.13,.12-.24,.25-.23,.13,0,.22,.13,.21,.26Z"/></g><g><path class="cls-13" d="M41.7,24.47c.26,.05,.4,.26,.3,.47-.09,.2-.38,.33-.64,.28-.26-.05-.41-.25-.31-.46,.09-.21,.39-.34,.65-.29Z"/><path class="cls-13" d="M42.94,24.84c.19,.05,.28,.22,.21,.37-.07,.16-.28,.24-.47,.2-.19-.05-.29-.21-.21-.37,.07-.16,.29-.25,.48-.2Z"/><path class="cls-13" d="M43.98,25.18c.16,.05,.23,.2,.16,.33-.07,.13-.24,.2-.4,.15-.15-.05-.23-.19-.17-.33,.06-.14,.25-.21,.4-.16Z"/><path class="cls-13" d="M44.87,25.53c.12,.05,.18,.18,.12,.29-.06,.11-.2,.17-.33,.12-.12-.05-.18-.17-.13-.29,.06-.11,.2-.17,.33-.12Z"/></g><g><path class="cls-13" d="M43.36,32.4c.14-.21,.4-.24,.58-.08,.18,.17,.23,.47,.09,.69-.13,.21-.4,.25-.59,.08-.19-.17-.23-.48-.09-.68Z"/><path class="cls-13" d="M44.14,31.43c.11-.15,.31-.18,.45-.05,.14,.13,.16,.35,.06,.51-.11,.16-.31,.18-.45,.05-.14-.13-.17-.36-.05-.51Z"/><path class="cls-13" d="M44.82,30.61c.1-.13,.27-.14,.39-.03,.12,.11,.13,.3,.04,.43-.1,.13-.27,.14-.39,.03-.12-.11-.13-.3-.04-.43Z"/><path class="cls-13" d="M45.44,29.9c.09-.1,.23-.11,.33-.02,.09,.09,.1,.25,.02,.35-.08,.1-.23,.11-.33,.02-.1-.09-.11-.25-.02-.35Z"/></g><g><path class="cls-13" d="M51.93,33.97c-.18-.23-.18-.51,0-.64,.18-.12,.48-.04,.66,.18,.18,.22,.18,.51,0,.64-.18,.13-.47,.05-.66-.18Z"/><path class="cls-13" d="M51.13,32.78c-.13-.17-.11-.39,.04-.48,.15-.09,.37-.03,.49,.14,.13,.17,.11,.39-.03,.48-.15,.09-.37,.03-.5-.15Z"/><path class="cls-13" d="M50.46,31.78c-.1-.15-.08-.33,.05-.4,.13-.08,.31-.02,.41,.13,.1,.15,.08,.33-.05,.4-.13,.08-.32,.02-.42-.13Z"/><path class="cls-13" d="M49.92,30.88c-.08-.12-.05-.27,.06-.33,.11-.06,.26-.01,.34,.11,.08,.12,.05,.27-.06,.33-.11,.06-.26,.01-.34-.11Z"/></g><g><path class="cls-13" d="M55.43,25.75c-.26,.12-.52,.02-.58-.22-.06-.23,.09-.51,.34-.63,.25-.12,.51-.03,.58,.2,.07,.23-.09,.53-.35,.64Z"/><path class="cls-13" d="M54.12,26.19c-.19,.07-.38-.02-.42-.2-.04-.18,.08-.38,.27-.46,.19-.07,.38,0,.42,.19,.05,.18-.08,.39-.27,.46Z"/><path class="cls-13" d="M53.02,26.53c-.16,.05-.32-.03-.35-.19-.03-.15,.07-.32,.23-.37,.16-.05,.32,.03,.35,.18,.03,.16-.07,.33-.23,.38Z"/><path class="cls-13" d="M52.06,26.77c-.13,.04-.26-.04-.28-.17-.02-.13,.06-.26,.2-.3,.13-.04,.26,.04,.29,.17,.03,.13-.06,.27-.2,.3Z"/></g></g></g><g id="_75-2"><path class="cls-14" d="M33.9,31.46c.52,.94,.85,1.79,1.13,2.58,.06,.17,.19,.29,.36,.32,.76,.11,1.56,.15,2.5,.05,.52-.06,.77,.51,.35,.97-.76,.83-1.5,1.49-2.17,2.04-.15,.12-.22,.3-.19,.48,.13,.82,.35,1.68,.67,2.61,.17,.51-.21,.87-.7,.58-.9-.53-1.76-1.08-2.52-1.61-.17-.12-.35-.14-.5-.07-.67,.34-1.35,.76-2.07,1.19-.4,.23-.93-.26-.85-.76,.13-.94,.32-1.79,.54-2.56,.05-.17,0-.34-.11-.46-.54-.53-1.16-.97-1.94-1.39-.44-.22-.19-.8,.4-.92,1.05-.22,1.96-.3,2.79-.37,.18-.01,.34-.1,.42-.25,.37-.67,.68-1.4,.86-2.35,.09-.53,.71-.61,1.01-.07Z"/><path class="cls-14" d="M33.9,31.46c.52,.94,.85,1.79,1.13,2.58,.06,.17,.19,.29,.36,.32,.76,.11,1.56,.15,2.5,.05,.52-.06,.77,.51,.35,.97-.76,.83-1.5,1.49-2.17,2.04-.15,.12-.22,.3-.19,.48,.13,.82,.35,1.68,.67,2.61,.17,.51-.21,.87-.7,.58-.9-.53-1.76-1.08-2.52-1.61-.17-.12-.35-.14-.5-.07-.67,.34-1.35,.76-2.07,1.19-.4,.23-.93-.26-.85-.76,.13-.94,.32-1.79,.54-2.56,.05-.17,0-.34-.11-.46-.54-.53-1.16-.97-1.94-1.39-.44-.22-.19-.8,.4-.92,1.05-.22,1.96-.3,2.79-.37,.18-.01,.34-.1,.42-.25,.37-.67,.68-1.4,.86-2.35,.09-.53,.71-.61,1.01-.07Z"/><path class="cls-18" d="M38.24,35.38c.42-.47,.17-1.04-.35-.97-.94,.1-1.74,.06-2.5-.05-.17-.02-.3-.14-.36-.32-.27-.79-.6-1.64-1.13-2.58-.14-.25-.35-.37-.55-.36,.76,3.62-.51,5.24-.25,8.28,.08,.02,.15,.05,.23,.1,.76,.53,1.62,1.08,2.52,1.61,.49,.29,.86-.07,.7-.58-.32-.92-.54-1.78-.67-2.61-.03-.18,.04-.36,.19-.48,.68-.55,1.42-1.21,2.17-2.04Z"/><path class="cls-16" d="M33.85,38.36c-.25-.18-.53-.3-.8-.34-.28-.04-.55-.02-.8,.09-.28,.12-.55,.25-.83,.39,.07-.34,.14-.66,.23-.97,.15-.57,.07-1.14-.3-1.54-.2-.22-.41-.43-.64-.64,.34-.04,.67-.06,.99-.07,.59-.03,1.11-.29,1.41-.77,.16-.26,.32-.54,.46-.83,.13,.31,.24,.61,.34,.91,.19,.54,.59,.95,1.15,1.07,.3,.06,.61,.12,.94,.16-.27,.24-.53,.46-.79,.66-.47,.38-.74,.9-.66,1.5,.04,.32,.1,.65,.18,.99-.31-.2-.6-.4-.88-.6Z"/><path class="cls-14" d="M35.05,35.65c-.65-.14-1.09-.67-1.22-1.36-.07,0,.04,0-.03,0v.67c0,1.01-.82,1.84-1.84,1.84h-.27c.03,.24,.01,.48-.06,.73-.08,.31-.16,.63-.23,.97,.28-.14,.56-.27,.83-.39,.25-.11,.53-.14,.8-.09,.28,.04,.55,.16,.8,.34,.28,.2,.57,.4,.88,.6-.08-.34-.14-.67-.18-.99-.08-.6,.18-1.12,.66-1.5,.26-.21,.52-.42,.79-.66-.33-.04-.64-.09-.94-.16Z"/><g><g><path class="cls-13" d="M33.74,32.35c.01,.15-.08,.27-.21,.28-.13,0-.24-.12-.25-.26-.02-.15,.07-.28,.2-.28,.13,0,.25,.12,.26,.27Z"/><path class="cls-13" d="M33.74,33.09c0,.11-.08,.2-.17,.19-.1,0-.18-.09-.18-.2,0-.11,.07-.2,.17-.2,.1,0,.18,.09,.18,.2Z"/><path class="cls-13" d="M33.71,33.7c0,.09-.07,.16-.16,.15-.08,0-.15-.08-.14-.17,0-.09,.07-.16,.15-.16,.08,0,.15,.08,.15,.17Z"/><path class="cls-13" d="M33.66,34.23c0,.07-.07,.13-.14,.12-.07,0-.12-.07-.11-.14,0-.07,.07-.13,.14-.12,.07,0,.12,.07,.12,.14Z"/></g><g><path class="cls-13" d="M29.71,34.74c.14,.03,.21,.14,.16,.25-.05,.11-.21,.18-.35,.15-.14-.02-.22-.14-.17-.25,.05-.11,.21-.19,.36-.16Z"/><path class="cls-13" d="M30.38,34.94c.1,.03,.15,.12,.11,.2-.04,.08-.15,.13-.26,.11-.1-.03-.16-.11-.12-.2,.04-.09,.16-.13,.26-.11Z"/><path class="cls-13" d="M30.95,35.13c.08,.03,.12,.11,.09,.18-.04,.07-.13,.11-.22,.08-.08-.03-.13-.11-.09-.18,.04-.07,.13-.11,.22-.08Z"/><path class="cls-13" d="M31.43,35.32c.07,.03,.1,.09,.07,.16-.03,.06-.11,.09-.18,.06-.07-.02-.1-.09-.07-.15,.03-.06,.11-.09,.18-.07Z"/></g><g><path class="cls-13" d="M30.61,39.04c.08-.11,.22-.13,.32-.04,.1,.09,.12,.26,.05,.37-.07,.12-.22,.13-.32,.04-.1-.09-.12-.26-.05-.37Z"/><path class="cls-13" d="M31.04,38.52c.06-.08,.17-.1,.24-.03,.07,.07,.09,.19,.03,.28-.06,.08-.17,.1-.24,.03-.08-.07-.09-.19-.03-.28Z"/><path class="cls-13" d="M31.4,38.07c.05-.07,.15-.08,.21-.02,.06,.06,.07,.16,.02,.23-.05,.07-.15,.08-.21,.02-.06-.06-.07-.16-.02-.23Z"/><path class="cls-13" d="M31.74,37.69c.05-.05,.13-.06,.18,0,.05,.05,.06,.13,.01,.19-.05,.06-.12,.06-.18,.01-.05-.05-.06-.13-.01-.19Z"/></g><g><path class="cls-13" d="M35.26,39.9c-.1-.12-.1-.28,0-.35,.1-.07,.26-.02,.36,.1,.1,.12,.1,.28,0,.35-.1,.07-.26,.03-.36-.1Z"/><path class="cls-13" d="M34.83,39.25c-.07-.09-.06-.21,.02-.26,.08-.05,.2-.01,.27,.08,.07,.09,.06,.21-.02,.26-.08,.05-.2,.02-.27-.08Z"/><path class="cls-13" d="M34.46,38.71c-.05-.08-.04-.18,.03-.22,.07-.04,.17-.01,.23,.07,.05,.08,.04,.18-.03,.22-.07,.04-.17,.01-.23-.07Z"/><path class="cls-13" d="M34.17,38.22c-.04-.07-.03-.15,.03-.18,.06-.03,.14,0,.18,.06,.04,.07,.03,.15-.03,.18-.06,.03-.14,0-.18-.06Z"/></g><g><path class="cls-13" d="M37.16,35.44c-.14,.06-.28,0-.31-.12-.03-.13,.05-.28,.19-.34,.14-.06,.28-.02,.32,.11,.04,.13-.05,.29-.19,.35Z"/><path class="cls-13" d="M36.45,35.68c-.1,.04-.21,0-.23-.11-.02-.1,.04-.21,.15-.25,.1-.04,.21,0,.23,.1,.02,.1-.04,.21-.15,.25Z"/><path class="cls-13" d="M35.86,35.86c-.09,.03-.17-.02-.19-.1-.02-.08,.04-.17,.13-.2,.09-.03,.17,.01,.19,.1,.02,.08-.04,.18-.13,.21Z"/><path class="cls-13" d="M35.33,35.99c-.07,.02-.14-.02-.15-.09-.01-.07,.03-.14,.11-.16,.07-.02,.14,.02,.15,.09,.01,.07-.03,.15-.11,.16Z"/></g></g></g></g></g></g></svg>