<?xml version="1.0" encoding="UTF-8"?><svg id="_레이어_1" xmlns="http://www.w3.org/2000/svg" xmlns:xlink="http://www.w3.org/1999/xlink" viewBox="0 0 120 120"><defs><style>.cls-1{fill:#00bc9c;}.cls-2{fill:#00917b;}.cls-3{fill:#000003;}.cls-4,.cls-5{fill:#fff;}.cls-6,.cls-7{fill:#89d0f0;}.cls-8{fill:#cfeaf7;}.cls-9{fill:#9b5d2a;}.cls-10{fill:url(#_무제_그라디언트_28);}.cls-11{fill:#3f3f3f;opacity:.2;}.cls-11,.cls-12,.cls-7,.cls-13,.cls-5,.cls-14{fill-rule:evenodd;}.cls-12{fill:#f8ad34;}.cls-13{fill:#f3930c;}.cls-14{fill:#006bb3;}</style><linearGradient id="_무제_그라디언트_28" x1="60.19" y1="9.87" x2="60.19" y2="109.75" gradientUnits="userSpaceOnUse"><stop offset="0" stop-color="#0c2561"/><stop offset=".31" stop-color="#14477e"/><stop offset=".84" stop-color="#2280af"/></linearGradient></defs><path class="cls-10" d="M110.19,82.21V37.35c0-3.98-2.13-7.67-5.58-9.66L65.76,5.27c-3.45-1.99-7.7-1.99-11.15,0L15.76,27.7c-3.45,1.99-5.58,5.67-5.58,9.66v44.86c0,3.98,2.13,7.67,5.58,9.66l38.85,22.43c3.45,1.99,7.7,1.99,11.15,0l38.85-22.43c3.45-1.99,5.58-5.67,5.58-9.66Z"/><path class="cls-4" d="M60,7.72c.9,0,1.79,.24,2.58,.69l40.81,23.56c1.59,.92,2.58,2.63,2.58,4.46v47.12c0,1.83-.99,3.54-2.58,4.46l-40.81,23.56c-.78,.45-1.67,.69-2.58,.69s-1.79-.24-2.58-.69l-40.81-23.56c-1.59-.92-2.58-2.63-2.58-4.46V36.44c0-1.83,.99-3.54,2.58-4.46L57.42,8.42c.78-.45,1.67-.69,2.58-.69m0-6c-1.93,0-3.85,.5-5.58,1.49L13.61,26.78c-3.45,1.99-5.58,5.67-5.58,9.66v47.12c0,3.98,2.13,7.67,5.58,9.66l40.81,23.56c1.73,1,3.65,1.49,5.58,1.49s3.85-.5,5.58-1.49l40.81-23.56c3.45-1.99,5.58-5.67,5.58-9.66V36.44c0-3.98-2.13-7.67-5.58-9.66L65.58,3.22c-1.73-1-3.65-1.49-5.58-1.49h0Z"/><path class="cls-9" d="M98.71,102.08H23.71c-2.24,0-4.06-1.82-4.06-4.06h0c0-2.24,1.82-4.06,4.06-4.06H98.71c2.24,0,4.06,1.82,4.06,4.06h0c0,2.24-1.82,4.06-4.06,4.06Z"/><path class="cls-2" d="M82.27,96.66l13.69,14.96c.03-4.08,.27-8.98-3.51-13.11-3.78-4.13-7.59-4.21-10.17-1.85Z"/><g><path class="cls-2" d="M82.02,96.8l17.99-9.36c-3.94-1.09-8.61-2.58-13.58,0s-6.03,6.24-4.41,9.35Z"/><path class="cls-1" d="M92.29,98.71c4.97-2.58,6.33-6.07,7.72-11.26l-17.99,9.36c1.62,3.11,5.3,4.49,10.27,1.91Z"/></g><g id="_8"><ellipse class="cls-6" cx="59.89" cy="73.58" rx="25.46" ry="27.01"/><ellipse class="cls-8" cx="59.89" cy="78.25" rx="21.05" ry="22.34"/><path class="cls-7" d="M58.77,43.03l-17.2-13.53c-1.78-1.1-2.36-5.03,1.19-5.14,4.58-.08,12.95,3.68,17.48,7.18,5.93-4.23,13.17-7.53,17.17-7.18,2.87-.39,3.74,3.29,1.7,4.96l-20.34,13.7Z"/><path class="cls-7" d="M47.42,30.07c4.94,0,9.39,2.13,12.47,5.52,3.08-3.39,7.53-5.52,12.47-5.52,9.3,0,16.84,7.54,16.84,16.84s-7.54,16.84-16.84,16.84c-4.94,0-9.39-2.13-12.47-5.52-3.08,3.39-7.53,5.52-12.47,5.52-9.3,0-16.84-7.54-16.84-16.84s7.54-16.84,16.84-16.84Z"/><circle class="cls-8" cx="47.42" cy="46.91" r="14.34"/><circle class="cls-4" cx="47.42" cy="46.91" r="8.99"/><circle class="cls-3" cx="47.42" cy="46.91" r="5.41" transform="translate(-2.34 91.34) rotate(-86.44)"/><path class="cls-5" d="M48.72,48.87c.52,0,.94-.42,.94-.94s-.42-.94-.94-.94-.94,.42-.94,.94,.42,.94,.94,.94Z"/><path class="cls-5" d="M49.55,46.56c.97,0,1.77-.79,1.77-1.77s-.79-1.77-1.77-1.77-1.77,.79-1.77,1.77,.79,1.77,1.77,1.77Z"/><circle class="cls-8" cx="72.36" cy="46.91" r="14.34" transform="translate(22.9 117.56) rotate(-87.96)"/><circle class="cls-4" cx="72.36" cy="46.91" r="8.99"/><circle class="cls-3" cx="72.36" cy="46.91" r="5.41" transform="translate(-5.11 9.02) rotate(-6.89)"/><path class="cls-5" d="M71.43,48.87c.52,0,.94-.42,.94-.94s-.42-.94-.94-.94-.94,.42-.94,.94,.42,.94,.94,.94Z"/><path class="cls-5" d="M70.02,46.56c.97,0,1.77-.79,1.77-1.77s-.79-1.77-1.77-1.77-1.77,.79-1.77,1.77,.79,1.77,1.77,1.77Z"/><g><g><path class="cls-13" d="M47.61,94.32h0c-1.07-.33-2.22,.28-2.55,1.35l-.99,3.22c-.33,1.07,.28,2.22,1.35,2.55h0c1.07,.33,2.22-.28,2.55-1.35l.99-3.22c.33-1.08-.28-2.22-1.35-2.55Z"/><path class="cls-13" d="M51.68,95.45h0c-1.23-.31-2.51,.43-2.85,1.65l-.77,2.76c-.34,1.22,.39,2.47,1.61,2.78h0c1.23,.31,2.51-.43,2.85-1.65l.77-2.76c.34-1.22-.39-2.47-1.61-2.79Z"/><path class="cls-13" d="M55.75,96.4h0c-1.09-.28-2.21,.39-2.49,1.48l-.83,3.26c-.28,1.09,.39,2.21,1.48,2.49h0c1.09,.28,2.21-.39,2.49-1.48l.83-3.26c.28-1.09-.39-2.21-1.48-2.49Z"/><path class="cls-12" d="M47.94,94.58h0c-.91-.28-1.88,.24-2.16,1.15l-.84,2.73c-.28,.91,.24,1.88,1.15,2.16h0c.91,.28,1.88-.24,2.16-1.15l.84-2.73c.28-.91-.24-1.88-1.15-2.16Z"/><path class="cls-12" d="M51.63,95.53h0c-1.04-.26-2.12,.36-2.41,1.4l-.65,2.34c-.29,1.03,.33,2.09,1.37,2.36h0c1.04,.26,2.12-.36,2.41-1.4l.65-2.34c.29-1.03-.33-2.09-1.37-2.36Z"/><path class="cls-12" d="M55.33,96.34h0c-.92-.24-1.87,.33-2.11,1.25l-.71,2.76c-.24,.92,.33,1.87,1.25,2.11h0c.92,.24,1.87-.33,2.11-1.25l.71-2.76c.24-.92-.33-1.87-1.25-2.11Z"/></g><g><path class="cls-13" d="M72.17,94.32h0c1.08-.33,2.22,.28,2.55,1.35l.99,3.22c.33,1.07-.28,2.22-1.35,2.55h0c-1.08,.33-2.22-.28-2.55-1.35l-.99-3.22c-.33-1.08,.28-2.22,1.35-2.55Z"/><path class="cls-13" d="M68.11,95.45h0c1.23-.31,2.51,.43,2.85,1.65l.77,2.76c.34,1.22-.39,2.47-1.61,2.78h0c-1.23,.31-2.51-.43-2.85-1.65l-.77-2.76c-.34-1.22,.39-2.47,1.61-2.79Z"/><path class="cls-13" d="M64.03,96.4h0c1.09-.28,2.21,.39,2.49,1.48l.83,3.26c.28,1.09-.39,2.21-1.48,2.49h0c-1.09,.28-2.21-.39-2.49-1.48l-.83-3.26c-.28-1.09,.39-2.21,1.48-2.49Z"/><path class="cls-12" d="M71.84,94.58h0c.91-.28,1.88,.24,2.16,1.15l.84,2.73c.28,.91-.24,1.88-1.15,2.16h0c-.91,.28-1.88-.24-2.16-1.15l-.84-2.73c-.28-.91,.24-1.88,1.15-2.16Z"/><path class="cls-12" d="M68.15,95.53h0c1.04-.26,2.12,.36,2.41,1.4l.65,2.34c.29,1.03-.33,2.09-1.37,2.36h0c-1.04,.26-2.12-.36-2.41-1.4l-.65-2.34c-.29-1.03,.33-2.09,1.37-2.36Z"/><path class="cls-12" d="M64.45,96.34h0c.92-.24,1.87,.33,2.11,1.25l.71,2.76c.24,.92-.33,1.87-1.25,2.11h0c-.92,.24-1.87-.33-2.11-1.25l-.71-2.76c-.24-.92,.33-1.87,1.25-2.11Z"/></g></g><path class="cls-13" d="M60.07,60.48c-2.86-1.41-4.61-3.36-4.89-6.01,1.28-2.9,8.53-2.9,9.41,0-.19,2.5-1.66,4.52-4.53,6.01Z"/><path class="cls-14" d="M84.08,52.11c-4.65,3.36-14.82,9.69-10.55,14.85,9.19,8.44,15-7.88,24.66-7.46-2.78-1.23-5.3-1.8-7.45-1.47,1.19-2.31,3.33-3.82,6.17-4.76-5.59-.11-10.63,.89-15.25,2.71-.2-1.31,1.62-2.58,2.43-3.88Z"/><g><path class="cls-7" d="M59.28,76.61c0-.34,.27-.61,.61-.61s.61,.27,.61,.61v3.35c0,.34-.27,.61-.61,.61s-.61-.27-.61-.61v-3.35Z"/><path class="cls-7" d="M51.65,76.61c0-.34,.27-.61,.61-.61s.61,.27,.61,.61v3.35c0,.34-.27,.61-.61,.61s-.61-.27-.61-.61v-3.35Z"/><path class="cls-7" d="M66.9,76.61c0-.34,.27-.61,.61-.61s.61,.27,.61,.61v3.35c0,.34-.27,.61-.61,.61s-.61-.27-.61-.61v-3.35Z"/><path class="cls-7" d="M44.03,76.61c0-.34,.27-.61,.61-.61s.61,.27,.61,.61v3.35c0,.34-.27,.61-.61,.61s-.61-.27-.61-.61v-3.35Z"/><path class="cls-7" d="M74.53,76.61c0-.34,.27-.61,.61-.61s.61,.27,.61,.61v3.35c0,.34-.27,.61-.61,.61s-.61-.27-.61-.61v-3.35Z"/><path class="cls-7" d="M55.46,83.53c0-.34,.27-.61,.61-.61s.61,.27,.61,.61v3.35c0,.34-.27,.61-.61,.61s-.61-.27-.61-.61v-3.35Z"/><path class="cls-7" d="M47.84,83.53c0-.34,.27-.61,.61-.61s.61,.27,.61,.61v3.35c0,.34-.27,.61-.61,.61s-.61-.27-.61-.61v-3.35Z"/><path class="cls-7" d="M63.09,83.53c0-.34,.27-.61,.61-.61s.61,.27,.61,.61v3.35c0,.34-.27,.61-.61,.61s-.61-.27-.61-.61v-3.35Z"/><path class="cls-7" d="M70.72,83.53c0-.34,.27-.61,.61-.61s.61,.27,.61,.61v3.35c0,.34-.27,.61-.61,.61s-.61-.27-.61-.61v-3.35Z"/><path class="cls-7" d="M59.28,89.82c0-.34,.27-.61,.61-.61s.61,.27,.61,.61v3.35c0,.34-.27,.61-.61,.61s-.61-.27-.61-.61v-3.35Z"/><path class="cls-7" d="M51.65,89.82c0-.34,.27-.61,.61-.61s.61,.27,.61,.61v3.35c0,.34-.27,.61-.61,.61s-.61-.27-.61-.61v-3.35Z"/><path class="cls-7" d="M66.9,89.82c0-.34,.27-.61,.61-.61s.61,.27,.61,.61v3.35c0,.34-.27,.61-.61,.61s-.61-.27-.61-.61v-3.35Z"/><path class="cls-7" d="M55.46,68.69c0-.34,.27-.61,.61-.61s.61,.27,.61,.61v3.35c0,.34-.27,.61-.61,.61s-.61-.27-.61-.61v-3.35Z"/><path class="cls-7" d="M47.84,68.69c0-.34,.27-.61,.61-.61s.61,.27,.61,.61v3.35c0,.34-.27,.61-.61,.61s-.61-.27-.61-.61v-3.35Z"/><path class="cls-7" d="M63.09,68.69c0-.34,.27-.61,.61-.61s.61,.27,.61,.61v3.35c0,.34-.27,.61-.61,.61s-.61-.27-.61-.61v-3.35Z"/><path class="cls-7" d="M70.72,68.69c0-.34,.27-.61,.61-.61s.61,.27,.61,.61v3.35c0,.34-.27,.61-.61,.61s-.61-.27-.61-.61v-3.35Z"/></g></g><circle class="cls-4" cx="24.53" cy="30.23" r="3.68"/><circle class="cls-4" cx="98.43" cy="42.12" r="1.79"/><circle class="cls-4" cx="34.06" cy="30.23" r="1.58"/><path class="cls-4" d="M22.74,47.33s0,2.11-2.11,2.11c0,0,2.11-.24,2.11,3.04,0,0,0-3.25,2.11-3.25,0,0-2.11,.21-2.11-1.89Z"/><path class="cls-4" d="M92.74,30.33s0,2.11-2.11,2.11c0,0,2.11-.24,2.11,3.04,0,0,0-3.25,2.11-3.25,0,0-2.11,.21-2.11-1.89Z"/><path class="cls-11" d="M60.19,31.5c-4.55-3.49-12.87-7.22-17.43-7.14-3.55,.11-2.96,4.04-1.19,5.14l1.49,1.17c-7.18,1.93-12.47,8.46-12.47,16.25,0,5.63,2.77,10.6,7.01,13.66-2.01,3.86-3.16,8.3-3.16,13.01,0,14.49,10.85,26.38,24.37,26.99,.36,.02,.72,.03,1.08,.03,.1,0,.2,0,.3,0V31.5Z"/><path class="cls-14" d="M33.71,50.9c4.65,3.36,14.82,9.69,10.55,14.85-9.19,8.44-15-7.88-24.66-7.46,2.78-1.23,5.3-1.8,7.45-1.47-1.19-2.31-3.33-3.82-6.17-4.76,5.59-.11,10.63,.89,15.25,2.71,.2-1.31-1.62-2.58-2.43-3.88Z"/></svg>