<?xml version="1.0" encoding="UTF-8"?><svg xmlns="http://www.w3.org/2000/svg" xmlns:xlink="http://www.w3.org/1999/xlink" viewBox="0 0 120 120"><defs><style>.cls-1{fill:none;}.cls-2{fill:url(#radial-gradient-2);}.cls-2,.cls-3,.cls-4,.cls-5,.cls-6,.cls-7,.cls-8{mix-blend-mode:multiply;}.cls-3{fill:url(#radial-gradient-6);}.cls-4{fill:url(#radial-gradient-4);}.cls-9{mask:url(#mask-13);}.cls-10{mask:url(#mask-12);}.cls-11{mask:url(#mask-11);}.cls-12{mask:url(#mask-10);}.cls-13{fill:url(#linear-gradient);}.cls-14{filter:url(#luminosity-noclip-6);}.cls-15{filter:url(#luminosity-noclip-8);}.cls-16{filter:url(#luminosity-noclip-4);}.cls-17{clip-path:url(#clippath);}.cls-18{opacity:.08;}.cls-19{opacity:.1;}.cls-20{mask:url(#mask);}.cls-21{filter:url(#luminosity-noclip-2);}.cls-22{fill:#f8a642;}.cls-23{fill:#f2f2f2;}.cls-24{fill:#e6e6e6;}.cls-25{fill:#eedbd4;}.cls-26,.cls-27{fill:#fff;}.cls-28{fill:#9e110e;}.cls-29{fill:#ccc;}.cls-30{fill:#cfcfcf;}.cls-31{fill:#d0a9aa;}.cls-32{fill:#c75f5e;}.cls-33{fill:#adadad;}.cls-34{fill:#c71512;}.cls-35{fill:#de1714;}.cls-36{fill:#e1c4c0;}.cls-37{filter:url(#luminosity-noclip-14);}.cls-38{filter:url(#luminosity-noclip-10);}.cls-39{filter:url(#luminosity-noclip-12);}.cls-5{fill:url(#linear-gradient-6);}.cls-6{fill:url(#linear-gradient-8);}.cls-7{fill:url(#linear-gradient-4);}.cls-40{clip-path:url(#clippath-1);}.cls-41{clip-path:url(#clippath-2);}.cls-42{fill:url(#radial-gradient-5);}.cls-42,.cls-43,.cls-44{opacity:.52;}.cls-42,.cls-43,.cls-44,.cls-45,.cls-46{mix-blend-mode:screen;}.cls-43{fill:url(#radial-gradient-3);}.cls-44{fill:url(#radial-gradient-7);}.cls-27{opacity:.2;}.cls-45{fill:#ab350e;}.cls-47{fill:url(#linear-gradient-9);}.cls-48{fill:url(#linear-gradient-3);}.cls-49{fill:url(#linear-gradient-2);}.cls-50{fill:url(#linear-gradient-7);}.cls-51{fill:url(#linear-gradient-5);}.cls-52{opacity:.16;}.cls-53{opacity:.14;}.cls-54{fill:url(#radial-gradient);}.cls-55{fill:url(#linear-gradient-11);}.cls-56{isolation:isolate;}.cls-8{fill:url(#linear-gradient-10);}.cls-57{mask:url(#mask-3);}.cls-58{mask:url(#mask-2);}.cls-59{mask:url(#mask-5);}.cls-60{mask:url(#mask-4);}.cls-61{mask:url(#mask-1);}.cls-62{mask:url(#mask-7);}.cls-63{mask:url(#mask-6);}.cls-64{mask:url(#mask-8);}.cls-65{mask:url(#mask-9);}.cls-66{opacity:.21;}.cls-66,.cls-67{mix-blend-mode:soft-light;}.cls-67{opacity:.43;}</style><clipPath id="clippath"><path class="cls-1" d="M110.24,84.22V38.9c0-3.98-2.13-7.67-5.58-9.66L65.41,6.58c-3.45-1.99-7.7-1.99-11.15,0L15.01,29.24c-3.45,1.99-5.58,5.67-5.58,9.66v45.32c0,3.98,2.13,7.67,5.58,9.66l39.25,22.66c3.45,1.99,7.7,1.99,11.15,0l39.25-22.66c3.45-1.99,5.58-5.67,5.58-9.66Z"/></clipPath><radialGradient id="radial-gradient" cx="32.97" cy="3440.58" fx="32.97" fy="3440.58" r="143.67" gradientTransform="translate(21.13 -2431.26) scale(.93 .74)" gradientUnits="userSpaceOnUse"><stop offset="0" stop-color="#f8ffff"/><stop offset=".07" stop-color="#efe7e9"/><stop offset=".23" stop-color="#deb9c0"/><stop offset=".36" stop-color="#d39ca6"/><stop offset=".43" stop-color="#d0929d"/><stop offset=".5" stop-color="#c98e9d"/><stop offset=".59" stop-color="#b5859d"/><stop offset=".71" stop-color="#96769e"/><stop offset=".84" stop-color="#6a619f"/><stop offset=".98" stop-color="#3346a0"/><stop offset="1" stop-color="#2b43a1"/></radialGradient><linearGradient id="linear-gradient" x1="266.15" y1="83.21" x2="266.15" y2="42.65" gradientTransform="translate(-206.16)" gradientUnits="userSpaceOnUse"><stop offset="0" stop-color="#f7d7af"/><stop offset=".25" stop-color="#f7941d"/><stop offset="1" stop-color="#f1362f"/></linearGradient><linearGradient id="linear-gradient-2" x1="266.15" y1="83.21" x2="266.15" y2="42.65" gradientTransform="translate(-206.16)" gradientUnits="userSpaceOnUse"><stop offset="0" stop-color="#fff"/><stop offset=".45" stop-color="#f7941d"/><stop offset="1" stop-color="#f06b23"/></linearGradient><linearGradient id="linear-gradient-3" x1="266.15" y1="83.21" x2="266.15" y2="42.65" gradientTransform="translate(-206.16)" gradientUnits="userSpaceOnUse"><stop offset=".33" stop-color="#fff"/><stop offset="1" stop-color="#f09b23"/></linearGradient><clipPath id="clippath-1"><path class="cls-1" d="M90.39,147.83H31c-12.15,0-22,10.1-22,22.56v42.75c0,23.67,23.15,42.86,51.7,42.86s51.7-19.19,51.7-42.86v-42.75c0-12.46-9.85-22.56-22-22.56Z"/></clipPath><clipPath id="clippath-2"><circle class="cls-1" cx="199.61" cy="59" r="55.5"/></clipPath><filter id="luminosity-noclip-2" x="5.11" y="-3.08" width="251.58" height="159.14" color-interpolation-filters="sRGB" filterUnits="userSpaceOnUse"><feFlood flood-color="#fff" result="bg"/><feBlend in="SourceGraphic" in2="bg"/></filter><filter id="luminosity-noclip-3" x="8462" y="-8532" width="-32766" height="32766" color-interpolation-filters="sRGB" filterUnits="userSpaceOnUse"><feFlood flood-color="#fff" result="bg"/><feBlend in="SourceGraphic" in2="bg"/></filter><mask id="mask-1" x="8462" y="-8532" width="-32766" height="32766" maskUnits="userSpaceOnUse"/><linearGradient id="linear-gradient-4" x1="5.11" y1="76.49" x2="256.69" y2="76.49" gradientUnits="userSpaceOnUse"><stop offset="0" stop-color="#fff"/><stop offset=".21" stop-color="#c6c6c6"/><stop offset=".76" stop-color="#393939"/><stop offset="1" stop-color="#000"/></linearGradient><mask id="mask" x="5.11" y="-3.08" width="251.58" height="159.14" maskUnits="userSpaceOnUse"><g class="cls-21"><g class="cls-61"><path class="cls-7" d="M256.69-3.08V56.99c-21.07-1.15-42.79-.46-62.05,8.04-10.06,4.44-19.11,10.86-28.07,17.24-22.14,15.76-44.29,31.52-66.43,47.27-5.77,4.11-11.78,8.32-18.74,9.63-9.23,1.74-18.57-1.88-27.95-2.33-17.67-.85-33.29,9.28-48.34,19.21V88.87c3.68-1.08,7.45-1.83,11.27-2.23,1.28-.13,2.57-.23,3.86-.32,8.51-.53,17.23-.26,24.96-3.72,1.92-.86,3.69-1.91,5.36-3.11,1.01-.73,1.98-1.51,2.92-2.34,2.13-1.88,4.08-3.99,5.94-6.24,9.02-10.88,15.82-24.8,28.94-29.54,1.07-.39,2.16-.7,3.26-.95,11.73-2.7,24.75,1.65,36.4-1.96,15.39-4.76,24.14-21.91,39.23-27.57,10.21-3.83,21.79-1.79,32.21-5,5.88-1.81,10.96-5.12,15.76-8.96h41.46Z"/></g></g></mask><linearGradient id="linear-gradient-5" x1="5.11" y1="76.49" x2="256.69" y2="76.49" gradientUnits="userSpaceOnUse"><stop offset="0" stop-color="#f733b5"/><stop offset=".29" stop-color="#df309c"/><stop offset="1" stop-color="#a82c64"/></linearGradient><filter id="luminosity-noclip-4" x="5.11" y="-3.08" width="215.58" height="108.87" color-interpolation-filters="sRGB" filterUnits="userSpaceOnUse"><feFlood flood-color="#fff" result="bg"/><feBlend in="SourceGraphic" in2="bg"/></filter><filter id="luminosity-noclip-5" x="8462" y="-8532" width="-32766" height="32766" color-interpolation-filters="sRGB" filterUnits="userSpaceOnUse"><feFlood flood-color="#fff" result="bg"/><feBlend in="SourceGraphic" in2="bg"/></filter><mask id="mask-3" x="8462" y="-8532" width="-32766" height="32766" maskUnits="userSpaceOnUse"/><linearGradient id="linear-gradient-6" y1="51.35" x2="220.69" y2="51.35" xlink:href="#linear-gradient-4"/><mask id="mask-2" x="5.11" y="-3.08" width="215.58" height="108.87" maskUnits="userSpaceOnUse"><g class="cls-16"><g class="cls-57"><path class="cls-5" d="M220.69-3.08c.03,8.54-3.36,17.11-9.57,22.97-10.9,10.3-27.42,10.96-41.53,16.04-15.6,5.62-28.74,16.98-44.6,21.81-18.17,5.53-38.51,2.07-55.93,9.64-5.5,2.39-10.62,5.87-15.59,9.76-.08,.06-.15,.12-.23,.18-.9,.71-1.8,1.43-2.69,2.16-13.97,11.42-27.22,25.18-45.45,26.3V52.46c1.44-.54,2.83-1.17,4.15-1.93,11.72-6.75,16-22.37,27.67-29.21,11.43-6.71,26.21-2.94,38.84-6.99,9.64-3.09,16.94-10.27,24.33-17.41h120.59Z"/></g></g></mask><linearGradient id="linear-gradient-7" x1="5.11" y1="51.35" x2="220.69" y2="51.35" gradientUnits="userSpaceOnUse"><stop offset="0" stop-color="#0c2561"/><stop offset=".62" stop-color="#6f2962"/><stop offset="1" stop-color="#a82c64"/></linearGradient><filter id="luminosity-noclip-6" x="5.11" y="-3.08" width="163.92" height="93.98" color-interpolation-filters="sRGB" filterUnits="userSpaceOnUse"><feFlood flood-color="#fff" result="bg"/><feBlend in="SourceGraphic" in2="bg"/></filter><filter id="luminosity-noclip-7" x="8462" y="-8532" width="-32766" height="32766" color-interpolation-filters="sRGB" filterUnits="userSpaceOnUse"><feFlood flood-color="#fff" result="bg"/><feBlend in="SourceGraphic" in2="bg"/></filter><mask id="mask-5" x="8462" y="-8532" width="-32766" height="32766" maskUnits="userSpaceOnUse"/><linearGradient id="linear-gradient-8" x1="5.11" y1="43.91" x2="169.03" y2="43.91" gradientUnits="userSpaceOnUse"><stop offset="0" stop-color="#000"/><stop offset=".24" stop-color="#393939"/><stop offset=".79" stop-color="#c6c6c6"/><stop offset="1" stop-color="#fff"/></linearGradient><mask id="mask-4" x="5.11" y="-3.08" width="163.92" height="93.98" maskUnits="userSpaceOnUse"><g class="cls-14"><g class="cls-59"><path class="cls-6" d="M169.03-3.08c-1.06,5.09-5.01,9.4-9.61,11.97-5.19,2.89-11.16,3.96-17,5.03-13.22,2.44-26.51,5.17-38.86,10.49-1.32,.57-2.62,1.16-3.91,1.8-10.84,5.29-20.71,12.85-27.22,22.96-2.68,4.15-4.95,8.88-9.1,11.52-.05,.04-.11,.07-.16,.1-3.85,2.37-8.61,2.5-13.09,3.09-8.86,1.18-17.43,4.46-24.82,9.5-2.14,1.46-4.17,3.05-6.14,4.73-4.81,4.09-9.25,8.64-14,12.79v-31.4c4.35,.11,8.69,.06,12.99-.53,14.13-1.94,27.34-9.91,35.66-21.52,6.74-9.4,11.24-21.76,21.97-26.05,6.68-2.67,14.27-1.43,21.31-2.89,7.82-1.62,14.44-6.39,20.64-11.58h51.35Z"/></g></g></mask><linearGradient id="linear-gradient-9" x1="5.11" y1="43.91" x2="169.03" y2="43.91" gradientUnits="userSpaceOnUse"><stop offset="0" stop-color="#a82c64"/><stop offset=".71" stop-color="#df309c"/><stop offset="1" stop-color="#f733b5"/></linearGradient><filter id="luminosity-noclip-8" x="9.12" y="30.27" width="247.57" height="142.38" color-interpolation-filters="sRGB" filterUnits="userSpaceOnUse"><feFlood flood-color="#fff" result="bg"/><feBlend in="SourceGraphic" in2="bg"/></filter><filter id="luminosity-noclip-9" x="8462" y="-8532" width="-32766" height="32766" color-interpolation-filters="sRGB" filterUnits="userSpaceOnUse"><feFlood flood-color="#fff" result="bg"/><feBlend in="SourceGraphic" in2="bg"/></filter><mask id="mask-7" x="8462" y="-8532" width="-32766" height="32766" maskUnits="userSpaceOnUse"/><linearGradient id="linear-gradient-10" x1="9.12" y1="101.46" x2="256.69" y2="101.46" xlink:href="#linear-gradient-8"/><mask id="mask-6" x="9.12" y="30.27" width="247.57" height="142.38" maskUnits="userSpaceOnUse"><g class="cls-15"><g class="cls-62"><path class="cls-8" d="M256.69,34.12v41c-2.76,1.99-5.82,3.57-8.98,4.68-8.91,3.11-18.55,3-27.92,2.28-9.37-.72-18.78-1.99-28.14-1.08-16.84,1.65-32.9,10.71-43.37,24.49-8.48,11.15-14.48,26.05-27.4,30.74-8.06,2.92-16.97,1.02-25.39,2.43-11.76,1.98-21.52,10.16-30.88,17.82-9.35,7.65-19.66,15.37-31.55,16.12-11.89,.75-25.04-8.81-23.86-21.08,.7-7.25,6.14-13.28,12.44-16.55,6.3-3.27,13.43-4.26,20.4-5.28,15.79-2.3,31.66-4.96,46.58-10.82,14.91-5.87,28.95-15.2,38.19-28.68,3.43-5.01,6.41-10.76,11.59-13.74,4.69-2.7,10.32-2.61,15.66-3.11,10.55-.98,20.88-4.56,29.9-10.35,12.39-7.95,22.1-19.84,34.62-27.57,9.99-6.17,26.78-7.05,38.12-1.3Z"/></g></g></mask><linearGradient id="linear-gradient-11" x1="9.12" y1="101.46" x2="256.69" y2="101.46" gradientUnits="userSpaceOnUse"><stop offset="0" stop-color="#a82c64"/><stop offset=".38" stop-color="#6f2962"/><stop offset="1" stop-color="#0c2561"/></linearGradient><filter id="luminosity-noclip-10" x="109.93" y="8.84" width="5.95" height="6.06" color-interpolation-filters="sRGB" filterUnits="userSpaceOnUse"><feFlood flood-color="#fff" result="bg"/><feBlend in="SourceGraphic" in2="bg"/></filter><filter id="luminosity-noclip-11" x="8462" y="-8532" width="-32766" height="32766" color-interpolation-filters="sRGB" filterUnits="userSpaceOnUse"><feFlood flood-color="#fff" result="bg"/><feBlend in="SourceGraphic" in2="bg"/></filter><mask id="mask-9" x="8462" y="-8532" width="-32766" height="32766" maskUnits="userSpaceOnUse"/><radialGradient id="radial-gradient-2" cx="102567.92" cy="104907.52" fx="102567.92" fy="104907.52" r="128.81" gradientTransform="translate(-2256.42 -2453.46) scale(.02)" gradientUnits="userSpaceOnUse"><stop offset="0" stop-color="#fff"/><stop offset=".18" stop-color="#fbfbfb"/><stop offset=".31" stop-color="#f2f2f2"/><stop offset=".43" stop-color="#e2e2e2"/><stop offset=".54" stop-color="#cbcbcb"/><stop offset=".64" stop-color="#adadad"/><stop offset=".74" stop-color="#898989"/><stop offset=".83" stop-color="#5e5e5e"/><stop offset=".92" stop-color="#2e2e2e"/><stop offset="1" stop-color="#000"/></radialGradient><mask id="mask-8" x="109.93" y="8.84" width="5.95" height="6.06" maskUnits="userSpaceOnUse"><g class="cls-38"><g class="cls-65"><path class="cls-2" d="M112.9,14.89c-.4,0-.79-.08-1.16-.24-.35-.15-.67-.37-.95-.65-.27-.28-.49-.6-.64-.96-.16-.37-.23-.77-.23-1.18s.08-.81,.23-1.18c.15-.36,.36-.68,.64-.96,.27-.28,.59-.5,.95-.65,.37-.16,.76-.24,1.16-.24s.79,.08,1.16,.24c.35,.15,.67,.37,.95,.65,.27,.28,.49,.6,.64,.96,.16,.37,.23,.77,.23,1.18s-.08,.81-.23,1.18c-.15,.36-.36,.68-.64,.96-.27,.28-.59,.5-.95,.65-.37,.16-.76,.24-1.16,.24Z"/></g></g></mask><radialGradient id="radial-gradient-3" cx="102567.92" cy="104907.52" fx="102567.92" fy="104907.52" r="128.81" gradientTransform="translate(-2256.42 -2453.46) scale(.02)" gradientUnits="userSpaceOnUse"><stop offset="0" stop-color="#fff4e3"/><stop offset=".18" stop-color="#fbf1e0"/><stop offset=".31" stop-color="#f2e7d7"/><stop offset=".43" stop-color="#e2d8c9"/><stop offset=".54" stop-color="#cbc2b5"/><stop offset=".64" stop-color="#ada69a"/><stop offset=".74" stop-color="#89837a"/><stop offset=".83" stop-color="#5e5a54"/><stop offset=".92" stop-color="#2e2c29"/><stop offset="1" stop-color="#000"/></radialGradient><filter id="luminosity-noclip-12" x="32.56" y="113.99" width="4.52" height="4.6" color-interpolation-filters="sRGB" filterUnits="userSpaceOnUse"><feFlood flood-color="#fff" result="bg"/><feBlend in="SourceGraphic" in2="bg"/></filter><filter id="luminosity-noclip-13" x="8462" y="-8532" width="-32766" height="32766" color-interpolation-filters="sRGB" filterUnits="userSpaceOnUse"><feFlood flood-color="#fff" result="bg"/><feBlend in="SourceGraphic" in2="bg"/></filter><mask id="mask-11" x="8462" y="-8532" width="-32766" height="32766" maskUnits="userSpaceOnUse"/><radialGradient id="radial-gradient-4" cx="99187.73" cy="109351.4" fx="99187.73" fy="109351.4" r="97.93" xlink:href="#radial-gradient-2"/><mask id="mask-10" x="32.56" y="113.99" width="4.52" height="4.6" maskUnits="userSpaceOnUse"><g class="cls-39"><g class="cls-11"><path class="cls-4" d="M34.82,118.6c-.31,0-.6-.06-.88-.18-.27-.12-.51-.28-.72-.49-.21-.21-.37-.46-.48-.73-.12-.28-.18-.59-.18-.9s.06-.61,.18-.9c.11-.27,.28-.52,.48-.73s.45-.38,.72-.49c.28-.12,.58-.18,.88-.18s.6,.06,.88,.18c.27,.12,.51,.28,.72,.49,.21,.21,.37,.46,.48,.73,.12,.28,.18,.59,.18,.9s-.06,.61-.18,.9c-.11,.27-.28,.52-.48,.73-.21,.21-.45,.38-.72,.49-.28,.12-.58,.18-.88,.18Z"/></g></g></mask><radialGradient id="radial-gradient-5" cx="99187.73" cy="109351.4" fx="99187.73" fy="109351.4" r="97.93" xlink:href="#radial-gradient-3"/><filter id="luminosity-noclip-14" x="12.91" y="14.74" width="4.37" height="4.37" color-interpolation-filters="sRGB" filterUnits="userSpaceOnUse"><feFlood flood-color="#fff" result="bg"/><feBlend in="SourceGraphic" in2="bg"/></filter><filter id="luminosity-noclip-15" x="8462" y="-8532" width="-32766" height="32766" color-interpolation-filters="sRGB" filterUnits="userSpaceOnUse"><feFlood flood-color="#fff" result="bg"/><feBlend in="SourceGraphic" in2="bg"/></filter><mask id="mask-13" x="8462" y="-8532" width="-32766" height="32766" maskUnits="userSpaceOnUse"/><radialGradient id="radial-gradient-6" cx="107574.84" cy="104236.18" fx="107574.84" fy="104236.18" r="109.34" gradientTransform="translate(-2136.4 -2067.8) scale(.02)" xlink:href="#radial-gradient-2"/><mask id="mask-12" x="12.91" y="14.74" width="4.37" height="4.37" maskUnits="userSpaceOnUse"><g class="cls-37"><g class="cls-9"><path class="cls-3" d="M15.1,19.11c-.3,0-.58-.06-.85-.17-.26-.11-.49-.27-.7-.47s-.36-.43-.47-.7c-.11-.27-.17-.56-.17-.85s.06-.58,.17-.85c.11-.26,.27-.49,.47-.7s.43-.36,.7-.47c.27-.11,.56-.17,.85-.17s.58,.06,.85,.17c.26,.11,.49,.27,.7,.47,.2,.2,.36,.43,.47,.7,.11,.27,.17,.56,.17,.85s-.06,.58-.17,.85c-.11,.26-.27,.49-.47,.7-.2,.2-.43,.36-.7,.47-.27,.11-.56,.17-.85,.17Z"/></g></g></mask><radialGradient id="radial-gradient-7" cx="107574.84" cy="104236.18" fx="107574.84" fy="104236.18" r="109.34" gradientTransform="translate(-2136.4 -2067.8) scale(.02)" xlink:href="#radial-gradient-3"/></defs><g class="cls-56"><g id="_레이어_1"><g class="cls-17"><g><rect class="cls-54" x="-.17" y="1.53" width="120.17" height="118.47"/><path class="cls-36" d="M101.71,70.71c0,4.83-3.92,8.75-8.75,8.75s-8.76-3.92-8.76-8.75c0-.39,.03-.77,.08-1.15-.02,0-.05,0-.08,0-.3,0-.58-.06-.84-.16-.32,.59-.84,1.07-1.46,1.33,0,2.28-.89,4.36-2.33,5.92-1.5,2.64-4.35,4.43-7.61,4.43-4.34,0-7.93-3.16-8.63-7.29-.04,0-.08,0-.12,0-2.14,0-3.94-1.41-4.53-3.35-.47,.26-.98,.44-1.52,.53-.74,4.09-4.31,7.19-8.61,7.19-3.17,0-5.94-1.68-7.47-4.2-.41,.11-.84,.18-1.28,.18-1.57,0-2.96-.77-3.82-1.94-.65,.33-1.37,.51-2.14,.51-1.4,0-2.65-.6-3.51-1.57,.59,1.18,.93,2.51,.93,3.92,0,4.84-3.92,8.75-8.76,8.75s-8.75-3.92-8.75-8.75,3.92-8.75,8.75-8.75c1.22,0,2.38,.25,3.43,.7,.52-.44,1.19-.7,1.92-.7,.52,0,1.01,.13,1.44,.36,.57-1.98,2.39-3.43,4.55-3.43,1.57,0,2.96,.77,3.82,1.94,.65-.33,1.37-.51,2.14-.51,.45,0,.87,.07,1.28,.18,1.53-2.52,4.31-4.2,7.47-4.2,1.95,0,3.75,.64,5.21,1.72,.75-.5,1.66-.8,2.63-.8,2.14,0,3.94,1.41,4.53,3.35,.68-.38,1.46-.59,2.29-.59,1.13,0,2.17,.4,2.99,1.06,1.6-2.09,4.11-3.43,6.95-3.43,1.02,0,1.99,.17,2.9,.49,.48-.31,1.04-.49,1.66-.49,1.66,0,3.01,1.35,3.01,3.01h0c.71,0,1.36,.25,1.88,.66,.41-.4,.99-.66,1.61-.66s1.21,.26,1.62,.67c1.59-2.23,4.19-3.68,7.13-3.68,4.83,0,8.75,3.92,8.75,8.76Z"/><g class="cls-46"><polygon class="cls-30" points="85.69 31.21 85.79 31.56 86.14 31.65 85.79 31.75 85.69 32.1 85.6 31.75 85.24 31.65 85.6 31.56 85.69 31.21"/><polygon class="cls-30" points="119.98 74.36 120.18 75.12 120.94 75.32 120.18 75.52 119.98 76.28 119.77 75.52 119.01 75.32 119.77 75.12 119.98 74.36"/><polygon class="cls-30" points="103.08 69.74 103.2 70.19 103.65 70.31 103.2 70.43 103.08 70.87 102.96 70.43 102.52 70.31 102.96 70.19 103.08 69.74"/><polygon class="cls-30" points="33.78 45.83 34.05 46.83 35.05 47.1 34.05 47.37 33.78 48.36 33.51 47.37 32.51 47.1 33.51 46.83 33.78 45.83"/><polygon class="cls-30" points="84.95 56.05 85.05 56.44 85.45 56.54 85.05 56.65 84.95 57.04 84.85 56.65 84.45 56.54 84.85 56.44 84.95 56.05"/><polygon class="cls-30" points="46.39 74.35 46.49 74.68 46.82 74.78 46.49 74.87 46.39 75.21 46.3 74.87 45.96 74.78 46.3 74.68 46.39 74.35"/><polygon class="cls-30" points="37.58 37.63 37.72 38.14 38.23 38.28 37.72 38.42 37.58 38.93 37.44 38.42 36.92 38.28 37.44 38.14 37.58 37.63"/><polygon class="cls-30" points="32.52 20.58 32.76 21.46 33.64 21.7 32.76 21.94 32.52 22.82 32.28 21.94 31.4 21.7 32.28 21.46 32.52 20.58"/><polygon class="cls-30" points="35.05 78.51 35.15 78.89 35.52 78.99 35.15 79.09 35.05 79.47 34.95 79.09 34.57 78.99 34.95 78.89 35.05 78.51"/><polygon class="cls-30" points="57.42 27.48 57.62 28.21 58.36 28.41 57.62 28.61 57.42 29.35 57.23 28.61 56.49 28.41 57.23 28.21 57.42 27.48"/><polygon class="cls-30" points="116.72 25.66 116.8 25.97 117.12 26.05 116.8 26.14 116.72 26.45 116.63 26.14 116.32 26.05 116.63 25.97 116.72 25.66"/><polygon class="cls-30" points="28.47 60.81 28.61 61.3 29.1 61.43 28.61 61.56 28.47 62.06 28.34 61.56 27.85 61.43 28.34 61.3 28.47 60.81"/><polygon class="cls-30" points="57.2 46.04 57.42 46.87 58.26 47.1 57.42 47.32 57.2 48.16 56.97 47.32 56.14 47.1 56.97 46.87 57.2 46.04"/><polygon class="cls-30" points="103.64 26.55 103.79 27.1 104.33 27.25 103.79 27.39 103.64 27.94 103.49 27.39 102.95 27.25 103.49 27.1 103.64 26.55"/><polygon class="cls-30" points="88.92 75.45 89.2 76.49 90.25 76.78 89.2 77.06 88.92 78.11 88.63 77.06 87.58 76.78 88.63 76.49 88.92 75.45"/></g><g><path class="cls-25" d="M17.24,73.71c-4.39,0-7.94,3.55-7.94,7.94s3.55,7.94,7.94,7.94,7.94-3.56,7.94-7.94-3.56-7.94-7.94-7.94Z"/><path class="cls-25" d="M103.9,71.87c-2.83,0-5.14,2.3-5.14,5.13s2.3,5.14,5.14,5.14,5.14-2.3,5.14-5.14-2.3-5.13-5.14-5.13Z"/><path class="cls-25" d="M85.57,66.73c-2.84,0-5.14,2.3-5.14,5.14,0,.46,.06,.91,.18,1.34-.38-.12-.79-.19-1.22-.19-1.18,0-2.25,.52-2.99,1.33-.31-.17-.67-.27-1.06-.27-1.2,0-2.17,.96-2.2,2.14-.12,.06-.24,.12-.35,.19-.3-2.53-2.43-4.5-5.04-4.53h0c0-1.22-.99-2.21-2.21-2.21-.73,0-1.38,.36-1.78,.91-1.46-1.79-3.68-2.94-6.16-2.94-2.72,0-5.11,1.36-6.54,3.44-.86-1.21-2.27-2.01-3.87-2.01-.97,0-1.87,.3-2.63,.8-1.43-1.37-3.37-2.23-5.51-2.23-1.95,0-3.74,.71-5.12,1.88-.37-.28-.83-.45-1.33-.45-1.22,0-2.21,.99-2.21,2.21,0,.81,.44,1.52,1.09,1.9-.24,.76-.37,1.57-.37,2.41,0,4.39,3.56,7.94,7.94,7.94,3.36,0,6.24-2.09,7.39-5.04,.24,.04,.49,.06,.74,.06,1.03,0,1.97-.33,2.75-.88,.91,3.37,4,5.86,7.67,5.86,2.55,0,4.82-1.21,6.28-3.08,.94,1.05,2.29,1.71,3.81,1.71,1.64,0,3.1-.78,4.05-1.98,.48,.92,1.43,1.55,2.55,1.55s2.05-.62,2.53-1.52c.7,.57,1.6,.93,2.57,.93,2.24,0,4.05-1.81,4.05-4.05,0-.19-.02-.37-.04-.55,.66,.31,1.4,.48,2.17,.48,2.84,0,5.14-2.3,5.14-5.13s-2.3-5.14-5.14-5.14Z"/></g><polygon class="cls-13" points="70.1 83.21 49.88 83.21 55.48 42.65 64.51 42.65 70.1 83.21"/><polygon class="cls-49" points="66.73 83.21 53.26 83.21 56.98 42.65 63 42.65 66.73 83.21"/><polygon class="cls-48" points="62.89 83.21 57.1 83.21 58.7 42.65 61.29 42.65 62.89 83.21"/><path class="cls-26" d="M112.09,80.47c-.87-2.84-3.51-4.9-6.63-4.9,0-6.02-4.88-10.9-10.9-10.9-5.33,0-9.77,3.83-10.71,8.89-.18-.02-.35-.03-.53-.03-2.48,0-4.49,2.01-4.49,4.49,0,.04,0,.07,0,.11-.84-.37-1.77-.57-2.74-.57-2.31,0-4.34,1.12-5.6,2.85-1.48-2.87-4.47-4.83-7.93-4.83-4.35,0-7.98,3.12-8.76,7.25h-7.21c.27-.74,.41-1.53,.41-2.37,0-3.82-3.1-6.93-6.93-6.93-1.8,0-3.45,.69-4.68,1.82-1.83-3.45-5.46-5.79-9.63-5.79-5.23,0-9.6,3.69-10.66,8.6-.23-.01-.46-.02-.69-.02-2.85,0-5.45,1.1-7.39,2.89-.19,.17-.42,.34-.64,.5v36.13H113.62v-36.61c0-.1-.2-.54-1.53-.58Z"/></g></g><path class="cls-26" d="M59.85,8.03c.9,0,1.79,.24,2.58,.69l40.81,23.56c1.59,.92,2.58,2.63,2.58,4.46v47.12c0,1.83-.99,3.54-2.58,4.46l-40.81,23.56c-.78,.45-1.67,.69-2.58,.69s-1.79-.24-2.58-.69l-40.81-23.56c-1.59-.92-2.58-2.63-2.58-4.46V36.74c0-1.83,.99-3.54,2.58-4.46L57.28,8.72c.78-.45,1.67-.69,2.58-.69m0-6c-1.93,0-3.85,.5-5.58,1.49L13.47,27.08c-3.45,1.99-5.58,5.67-5.58,9.66v47.12c0,3.98,2.13,7.67,5.58,9.66l40.81,23.56c1.73,1,3.65,1.49,5.58,1.49s3.85-.5,5.58-1.49l40.81-23.56c3.45-1.99,5.58-5.67,5.58-9.66V36.74c0-3.98-2.13-7.67-5.58-9.66L65.43,3.52c-1.73-1-3.65-1.49-5.58-1.49h0Z"/><g><g><path class="cls-34" d="M49.45,35.04s-7.95,1.4-6.69,5.03c1.27,3.62,3.8,13.21,3.8,13.21l5.24-10.21-2.36-8.02Z"/><polygon class="cls-28" points="46.98 52.71 51.81 43.06 51.11 40.94 47.26 50.33 46.98 52.71"/><path class="cls-45" d="M49.45,35.04s-7.95,1.4-6.69,5.03c.03,.07,.06,.17,.09,.25h0c.08-2.57,5.14-3.69,7.01-4.02l-.41-1.26Z"/></g><g><path class="cls-34" d="M70.55,35.04s7.96,1.4,6.69,5.03c-1.27,3.62-3.81,13.21-3.81,13.21l-5.24-10.21,2.36-8.02Z"/><polygon class="cls-28" points="73.02 52.71 68.19 43.06 68.88 40.94 72.74 50.33 73.02 52.71"/><path class="cls-45" d="M70.55,35.04s7.96,1.4,6.69,5.03c-.03,.07-.06,.17-.09,.25h0c-.08-2.57-5.14-3.69-7.01-4.02l.41-1.26Z"/></g><path class="cls-26" d="M60.04,1.6c-1.31,0-11.74,9.8-11.74,21.88,0,6.86,1.7,17.33,4.35,21.34h2.84C50.86,13.31,60.04,1.6,60.04,1.6Z"/><path class="cls-29" d="M71.78,23.48c0-12.08-10.73-21.88-11.74-21.88,0,0,9.18,11.71,4.55,43.22h2.84c2.65-4.01,4.34-14.48,4.34-21.34Z"/><g><path class="cls-24" d="M60.09,1.67V44.82h4.5c4.42-30.09-3.75-42.12-4.5-43.15Z"/><path class="cls-23" d="M60.04,1.6s-9.18,11.71-4.55,43.22h4.61V1.67s-.06-.07-.06-.07Z"/></g><path class="cls-33" d="M60.26,25.97c-2.92,0-5.31-2.38-5.31-5.31s2.38-5.31,5.31-5.31,5.32,2.38,5.32,5.31-2.38,5.31-5.32,5.31Z"/><g><path class="cls-35" d="M55.01,20.47c0,2.78,2.25,5.04,5.03,5.06V15.41c-2.78,.02-5.03,2.27-5.03,5.06Z"/><path class="cls-34" d="M60.07,15.41h-.03v10.12s.02,0,.03,0c2.79,0,5.06-2.27,5.06-5.06s-2.27-5.06-5.06-5.06Z"/></g><path class="cls-24" d="M64.27,20.47c0,2.32-1.88,4.2-4.2,4.2s-4.2-1.88-4.2-4.2,1.88-4.2,4.2-4.2,4.2,1.88,4.2,4.2Z"/><path class="cls-36" d="M63.89,20.47c0,2.11-1.71,3.83-3.83,3.83s-3.83-1.71-3.83-3.83,1.71-3.83,3.83-3.83,3.83,1.71,3.83,3.83Z"/><path class="cls-31" d="M59.58,23.81c0,.16,0,.31,.03,.46,.15,.02,.3,.03,.46,.03,2.11,0,3.83-1.71,3.83-3.83,0-.16-.01-.31-.03-.46-.15-.02-.31-.03-.46-.03-2.11,0-3.83,1.71-3.83,3.83Z"/><g><path class="cls-34" d="M60.04,1.6s-.02,0-.04,0V11.75h8.6c-3.25-6.1-7.91-10.15-8.56-10.15Z"/><path class="cls-35" d="M51.41,11.75h8.59V1.6c-.92,.1-5.45,4.13-8.59,10.15Z"/></g><g class="cls-46"><path class="cls-32" d="M52.19,11.71s.07-.14,.22-.4c.14-.27,.37-.62,.63-1.04,.13-.21,.29-.43,.45-.66,.16-.23,.32-.48,.51-.73,.19-.25,.38-.5,.58-.75,.19-.26,.41-.51,.63-.75,.22-.25,.43-.49,.64-.73,.21-.25,.45-.46,.66-.68,.22-.21,.42-.42,.62-.62,.19-.2,.4-.37,.59-.53,.74-.62,1.23-1.04,1.23-1.04,0,0-.43,.48-1.08,1.2-.16,.18-.33,.37-.5,.59-.16,.22-.34,.45-.52,.69-.17,.24-.38,.48-.54,.74-.17,.26-.35,.53-.52,.8-.18,.26-.35,.53-.5,.8-.16,.27-.31,.54-.46,.8-.15,.26-.27,.52-.39,.76-.12,.24-.25,.47-.33,.69-.2,.43-.36,.79-.44,1.03-.1,.24-.15,.4-.15,.4l-1.33-.58Z"/></g><polygon class="cls-23" points="68.58 46.1 51.6 46.1 52.64 44.82 67.54 44.82 68.58 46.1"/><rect class="cls-22" x="54.17" y="46.1" width="11.74" height="1.26"/><path class="cls-35" d="M62.05,38.15c0,3.34-1.15,16.78-2.05,16.78s-2.05-13.44-2.05-16.78,1.15-6.04,2.05-6.04,2.05,2.71,2.05,6.04Z"/><path class="cls-45" d="M60,32.1c-.52,0-1.13,.79-1.54,2.01,.05,2.14,.74,3.83,1.58,3.83s1.49-1.58,1.57-3.62c-.41-1.33-1.06-2.21-1.61-2.21Z"/><path class="cls-26" d="M59.58,18.47c0,.45-.36,.81-.81,.81s-.82-.36-.82-.81,.37-.81,.82-.81,.81,.37,.81,.81Z"/><path class="cls-26" d="M58.13,19.78c0,.28-.23,.5-.5,.5s-.5-.22-.5-.5,.22-.5,.5-.5,.5,.23,.5,.5Z"/></g><g class="cls-40"><g><polygon class="cls-27" points="59.54 198.33 103.18 105.75 118.77 114.75 59.54 198.33"/><polygon class="cls-27" points="59.54 198.33 51.04 96.33 69.04 96.33 59.54 198.33"/><polygon class="cls-27" points="59.54 198.33 1.18 114.25 16.77 105.25 59.54 198.33"/></g></g><g class="cls-41"><g><g class="cls-19"><g class="cls-20"><path class="cls-51" d="M256.69-3.08V56.99c-21.07-1.15-42.79-.46-62.05,8.04-10.06,4.44-19.11,10.86-28.07,17.24-22.14,15.76-44.29,31.52-66.43,47.27-5.77,4.11-11.78,8.32-18.74,9.63-9.23,1.74-18.57-1.88-27.95-2.33-17.67-.85-33.29,9.28-48.34,19.21V88.87c3.68-1.08,7.45-1.83,11.27-2.23,1.28-.13,2.57-.23,3.86-.32,8.51-.53,17.23-.26,24.96-3.72,1.92-.86,3.69-1.91,5.36-3.11,1.01-.73,1.98-1.51,2.92-2.34,2.13-1.88,4.08-3.99,5.94-6.24,9.02-10.88,15.82-24.8,28.94-29.54,1.07-.39,2.16-.7,3.26-.95,11.73-2.7,24.75,1.65,36.4-1.96,15.39-4.76,24.14-21.91,39.23-27.57,10.21-3.83,21.79-1.79,32.21-5,5.88-1.81,10.96-5.12,15.76-8.96h41.46Z"/></g></g><g class="cls-53"><g class="cls-58"><path class="cls-50" d="M220.69-3.08c.03,8.54-3.36,17.11-9.57,22.97-10.9,10.3-27.42,10.96-41.53,16.04-15.6,5.62-28.74,16.98-44.6,21.81-18.17,5.53-38.51,2.07-55.93,9.64-5.5,2.39-10.62,5.87-15.59,9.76-.08,.06-.15,.12-.23,.18-.9,.71-1.8,1.43-2.69,2.16-13.97,11.42-27.22,25.18-45.45,26.3V52.46c1.44-.54,2.83-1.17,4.15-1.93,11.72-6.75,16-22.37,27.67-29.21,11.43-6.71,26.21-2.94,38.84-6.99,9.64-3.09,16.94-10.27,24.33-17.41h120.59Z"/></g></g><g class="cls-18"><g class="cls-60"><path class="cls-47" d="M169.03-3.08c-1.06,5.09-5.01,9.4-9.61,11.97-5.19,2.89-11.16,3.96-17,5.03-13.22,2.44-26.51,5.17-38.86,10.49-1.32,.57-2.62,1.16-3.91,1.8-10.84,5.29-20.71,12.85-27.22,22.96-2.68,4.15-4.95,8.88-9.1,11.52-.05,.04-.11,.07-.16,.1-3.85,2.37-8.61,2.5-13.09,3.09-8.86,1.18-17.43,4.46-24.82,9.5-2.14,1.46-4.17,3.05-6.14,4.73-4.81,4.09-9.25,8.64-14,12.79v-31.4c4.35,.11,8.69,.06,12.99-.53,14.13-1.94,27.34-9.91,35.66-21.52,6.74-9.4,11.24-21.76,21.97-26.05,6.68-2.67,14.27-1.43,21.31-2.89,7.82-1.62,14.44-6.39,20.64-11.58h51.35Z"/></g></g><g class="cls-53"><g class="cls-63"><path class="cls-55" d="M256.69,34.12v41c-2.76,1.99-5.82,3.57-8.98,4.68-8.91,3.11-18.55,3-27.92,2.28-9.37-.72-18.78-1.99-28.14-1.08-16.84,1.65-32.9,10.71-43.37,24.49-8.48,11.15-14.48,26.05-27.4,30.74-8.06,2.92-16.97,1.02-25.39,2.43-11.76,1.98-21.52,10.16-30.88,17.82-9.35,7.65-19.66,15.37-31.55,16.12-11.89,.75-25.04-8.81-23.86-21.08,.7-7.25,6.14-13.28,12.44-16.55,6.3-3.27,13.43-4.26,20.4-5.28,15.79-2.3,31.66-4.96,46.58-10.82,14.91-5.87,28.95-15.2,38.19-28.68,3.43-5.01,6.41-10.76,11.59-13.74,4.69-2.7,10.32-2.61,15.66-3.11,10.55-.98,20.88-4.56,29.9-10.35,12.39-7.95,22.1-19.84,34.62-27.57,9.99-6.17,26.78-7.05,38.12-1.3Z"/></g></g><g class="cls-66"><circle class="cls-26" cx="22.71" cy="27.74" r="1.22"/><circle class="cls-26" cx="24.91" cy="68" r="1.22"/><circle class="cls-26" cx="79.26" cy="36.13" r="1.22"/><circle class="cls-26" cx="102.93" cy="10.65" r="1.22"/><circle class="cls-26" cx="47.82" cy="32.98" r="1.22"/><circle class="cls-26" cx="8.15" cy="9.98" r="1.22"/></g><g class="cls-67"><circle class="cls-26" cx="21.84" cy="5.22" r="1.09"/><circle class="cls-26" cx="64.77" cy="5.86" r="1.09"/><circle class="cls-26" cx="31.8" cy="34.27" r="1.09"/><circle class="cls-26" cx="61.92" cy="41.24" r="1.09"/><circle class="cls-26" cx="88.94" cy="13.91" r="1.09"/><circle class="cls-26" cx="107" cy="52.87" r="1.09"/><circle class="cls-26" cx="102.34" cy="21.71" r="1.09"/><circle class="cls-26" cx="47.39" cy="18.01" r="1.09"/><circle class="cls-26" cx="33.09" cy="68.15" r="1.09"/><circle class="cls-26" cx="13.97" cy="49.64" r="1.09"/><circle class="cls-26" cx="45.96" cy="51.77" r="1.09"/><circle class="cls-26" cx="39.72" cy="94.5" r="1.09"/><circle class="cls-26" cx="20.85" cy="99.17" r="1.09"/><circle class="cls-26" cx="66" cy="22.4" r="1.09"/><circle class="cls-26" cx="120.77" cy="8.66" r="1.09"/></g><g><g class="cls-64"><path class="cls-43" d="M112.9,14.89c-.4,0-.79-.08-1.16-.24-.35-.15-.67-.37-.95-.65-.27-.28-.49-.6-.64-.96-.16-.37-.23-.77-.23-1.18s.08-.81,.23-1.18c.15-.36,.36-.68,.64-.96,.27-.28,.59-.5,.95-.65,.37-.16,.76-.24,1.16-.24s.79,.08,1.16,.24c.35,.15,.67,.37,.95,.65,.27,.28,.49,.6,.64,.96,.16,.37,.23,.77,.23,1.18s-.08,.81-.23,1.18c-.15,.36-.36,.68-.64,.96-.27,.28-.59,.5-.95,.65-.37,.16-.76,.24-1.16,.24Z"/></g><path class="cls-26" d="M116.51,11.87c-3.28,.19-3.43,.34-3.61,3.61-.19-3.28-.34-3.43-3.61-3.61,3.28-.19,3.43-.34,3.61-3.61,.19,3.28,.34,3.43,3.61,3.61Z"/></g><g><g class="cls-12"><path class="cls-42" d="M34.82,118.6c-.31,0-.6-.06-.88-.18-.27-.12-.51-.28-.72-.49-.21-.21-.37-.46-.48-.73-.12-.28-.18-.59-.18-.9s.06-.61,.18-.9c.11-.27,.28-.52,.48-.73s.45-.38,.72-.49c.28-.12,.58-.18,.88-.18s.6,.06,.88,.18c.27,.12,.51,.28,.72,.49,.21,.21,.37,.46,.48,.73,.12,.28,.18,.59,.18,.9s-.06,.61-.18,.9c-.11,.27-.28,.52-.48,.73-.21,.21-.45,.38-.72,.49-.28,.12-.58,.18-.88,.18Z"/></g><path class="cls-26" d="M37.57,116.3c-2.5,.14-2.61,.26-2.76,2.76-.14-2.5-.26-2.61-2.76-2.76,2.5-.14,2.61-.26,2.76-2.76,.14,2.5,.26,2.61,2.76,2.76Z"/></g><g><g class="cls-10"><path class="cls-44" d="M15.1,19.11c-.3,0-.58-.06-.85-.17-.26-.11-.49-.27-.7-.47s-.36-.43-.47-.7c-.11-.27-.17-.56-.17-.85s.06-.58,.17-.85c.11-.26,.27-.49,.47-.7s.43-.36,.7-.47c.27-.11,.56-.17,.85-.17s.58,.06,.85,.17c.26,.11,.49,.27,.7,.47,.2,.2,.36,.43,.47,.7,.11,.27,.17,.56,.17,.85s-.06,.58-.17,.85c-.11,.26-.27,.49-.47,.7-.2,.2-.43,.36-.7,.47-.27,.11-.56,.17-.85,.17Z"/></g><path class="cls-26" d="M17.85,16.92c-2.5,.14-2.61,.26-2.76,2.76-.14-2.5-.26-2.61-2.76-2.76,2.5-.14,2.61-.26,2.76-2.76,.14,2.5,.26,2.61,2.76,2.76Z"/></g><g class="cls-52"><circle class="cls-26" cx="56.04" cy="67.06" r="1.09"/></g><g class="cls-52"><circle class="cls-26" cx="27.46" cy="52.87" r="1.09"/></g><g class="cls-52"><circle class="cls-26" cx="96.18" cy="38.23" r=".78"/></g><g class="cls-52"><circle class="cls-26" cx="79.26" cy="53.66" r=".78"/></g></g></g></g></g></svg>