<?xml version="1.0" encoding="UTF-8"?><svg id="_레이어_1" xmlns="http://www.w3.org/2000/svg" xmlns:xlink="http://www.w3.org/1999/xlink" viewBox="0 0 120 120"><defs><style>.cls-1,.cls-2,.cls-3{fill:none;}.cls-4{fill:url(#linear-gradient);}.cls-5{clip-path:url(#clippath);}.cls-6{fill:#f9cdcd;}.cls-7{fill:#f27b64;}.cls-8{fill:#fff;}.cls-9{fill:#ead9c3;}.cls-10{fill:#e85d51;}.cls-11{fill:#efe7da;}.cls-12{fill:#93331c;}.cls-13{fill:#b74a2c;}.cls-14{fill:#a53e26;}.cls-15{fill:#cc8b75;}.cls-16{fill:#d36146;}.cls-17{fill:#dd5750;}.cls-18{fill:#d9574c;}.cls-19{fill:#c69554;}.cls-20{fill:#e2ad5d;}.cls-21{fill:#424242;}.cls-22{fill:#895c27;}.cls-23{fill:#493836;}.cls-24{fill:#5e230d;}.cls-25{clip-path:url(#clippath-2);}.cls-26{opacity:.4;}.cls-2{stroke:#424242;stroke-width:2.47px;}.cls-2,.cls-3{stroke-linecap:round;stroke-miterlimit:10;}.cls-3{stroke:#e2ad5d;stroke-width:5px;}</style><linearGradient id="linear-gradient" x1="59.53" y1="111.97" x2="59.53" y2="8.04" gradientUnits="userSpaceOnUse"><stop offset="0" stop-color="#fff"/><stop offset=".33" stop-color="#c9ebff"/><stop offset=".36" stop-color="#c3e9ff"/><stop offset=".53" stop-color="#a7dfff"/><stop offset=".87" stop-color="#6ecbff"/><stop offset="1" stop-color="#59c3ff"/></linearGradient><clipPath id="clippath"><path class="cls-1" d="M97.38,56.19c0,16.13-17.08,29.2-38.15,29.2s-38.15-13.07-38.15-29.2S38.16,18.26,59.23,18.26s38.15,21.81,38.15,37.93Z"/></clipPath><clipPath id="clippath-2"><path class="cls-1" d="M89.98,4.46H30.52c-12.16,0-22.02,9.61-22.02,21.46v48.29c0,22.52,23.17,40.78,51.75,40.78s51.75-18.26,51.75-40.78V25.93c0-11.85-9.86-21.46-22.02-21.46Z"/></clipPath></defs><path class="cls-4" d="M89.38,4H29.68C17.47,4,7.57,13.65,7.57,25.55v48.5c0,22.62,23.26,40.95,51.96,40.95s51.96-18.33,51.96-40.95V25.55c0-11.9-9.9-21.55-22.11-21.55Z"/><path class="cls-8" d="M91.2,2H28.8C16.04,2,5.7,12.08,5.7,24.52v29.44h6V24.52c0-9.11,7.67-16.52,17.11-16.52h62.39c9.43,0,17.11,7.41,17.11,16.52v29.44h6V24.52c0-12.44-10.35-22.52-23.11-22.52Z"/><path class="cls-3" d="M9.07,37.41s19.68,5.86,13.11,28.98,9.4,40.88,9.4,40.88"/><g><path class="cls-11" d="M30.06,12.91c-1.31,.28-1.75,1.86-1.91,3.16-.77,6.2-.77,12.5,0,18.72,.16,1.27,.63,2.85,1.92,3.03,.71,.1,1.38-.28,1.98-.66,2.56-1.58,5.11-3.16,7.67-4.74,2.66-1.64,5.53-3.57,6.28-6.57-4.04-4.44-8.53-8.48-13.39-12.03-.75-.55-1.64-1.12-2.55-.92Z"/><path class="cls-15" d="M32.14,20.51c.71-.37,1.51,.26,2.06,.85,2.1,2.21,4.19,4.43,6.29,6.64,.64,.67,1.32,1.45,1.27,2.38-.07,1.26-1.4,2.01-2.58,2.48-2.15,.86-4.34,1.59-6.57,2.2-.36-4.19-.73-8.38-1.09-12.57-.06-.73-.04-1.64,.61-1.97Z"/><path class="cls-20" d="M93.95,18.99c1.17,.52,1.27,2.11,1.17,3.39-.49,6.05-1.71,12.05-3.63,17.81-.39,1.18-1.14,2.58-2.38,2.51-.68-.04-1.24-.54-1.73-1.02-2.08-2.01-4.17-4.02-6.25-6.03-2.16-2.09-4.48-4.49-4.59-7.49,4.64-3.42,9.63-6.38,14.86-8.79,.81-.37,1.75-.74,2.56-.37Z"/><path class="cls-15" d="M89.49,25.51c.54,.15,.9,.69,1,1.24,.1,.55,0,1.12-.12,1.67-.54,2.58-1.24,5.13-2.09,7.63-.3,.9-.72,1.88-1.59,2.24-1.04,.43-2.24-.27-2.88-1.19-.64-.93-.91-2.06-1.41-3.06-.5-1.01-1.39-1.97-2.52-1.99,2.32-2.47,5.04-4.56,8.03-6.16,.49-.26,1.05-.52,1.58-.37Z"/><path class="cls-10" d="M39.65,82.68l-1.04,4.37c-.18,.77,.18,1.56,.88,1.92,4.2,2.17,19.24,8.55,38.49,.85,.74-.3,1.19-1.05,1.07-1.84-.29-2.01-.93-5.71-1.8-6.57-1.07-1.07-29.51-.24-36-.04-.77,.02-1.43,.56-1.61,1.32Z"/><path class="cls-17" d="M77.99,89.7c-19.26,7.7-34.3,1.31-38.5-.85-.21-.11-.39-.26-.53-.43,5.59,2.54,19.58,7.14,37.05,.15,.74-.3,1.19-1.05,1.07-1.84-.23-1.61-.69-4.3-1.31-5.75,.83,.08,1.36,.18,1.49,.3,.86,.87,1.51,4.56,1.8,6.57,.11,.79-.33,1.55-1.07,1.84Z"/><path class="cls-18" d="M40.57,84.36c-.73,.85-.8,2.16-.65,3.21,.06,.43,.75,.32,.75-.1,0-.46,.06-.98,.16-1.42,.1-.44,.32-.85,.41-1.29,.08-.37-.39-.72-.68-.39Z"/><path class="cls-11" d="M97.95,56.19c0,16.13-17.08,29.2-38.15,29.2s-38.15-13.07-38.15-29.2S38.73,18.26,59.8,18.26s38.15,21.81,38.15,37.93Z"/><g class="cls-5"><rect class="cls-9" x="20.37" y="16.76" width="38.36" height="69.86"/><circle class="cls-20" cx="32.34" cy="41.93" r="24.11"/></g><g><path class="cls-24" d="M79.72,55.64c0,2.34-1.9,4.24-4.23,4.24s-4.23-1.9-4.23-4.24,1.9-4.23,4.23-4.23,4.23,1.89,4.23,4.23Z"/><circle class="cls-8" cx="73.58" cy="54.13" r="1.19"/><path class="cls-8" d="M77.23,55.51c0,.39-.32,.71-.71,.71s-.71-.32-.71-.71,.32-.71,.71-.71,.71,.32,.71,.71Z"/></g><path class="cls-2" d="M53.1,72.25c2.91,3.37,9.67,3.95,12.56-.28"/><line class="cls-2" x1="59.38" y1="63.25" x2="59.38" y2="74.96"/><path class="cls-21" d="M64.99,60.31c0,3.12-5.64,5.64-5.64,5.64,0,0-5.64-2.52-5.64-5.64s2.52-2.96,5.64-2.96,5.64-.15,5.64,2.96Z"/><path class="cls-8" d="M56.84,58.63c-1.05,0-1.93,.61-1.93,1.34v.03c0,.73,.88,1.34,1.93,1.34s1.93-.61,1.93-1.34v-.03c0-.73-.88-1.34-1.93-1.34Z"/><path class="cls-8" d="M62.26,59.46c-.46,0-.85,.27-.85,.59h0c0,.33,.39,.6,.85,.6s.85-.27,.85-.59h0c0-.33-.39-.6-.85-.6Z"/><path class="cls-24" d="M47.46,55.64c0,2.34-1.9,4.24-4.23,4.24s-4.23-1.9-4.23-4.24,1.9-4.23,4.23-4.23,4.23,1.89,4.23,4.23Z"/><circle class="cls-8" cx="41.33" cy="54.13" r="1.19"/><path class="cls-8" d="M44.97,55.51c0,.39-.32,.71-.71,.71s-.71-.32-.71-.71,.32-.71,.71-.71,.71,.32,.71,.71Z"/><ellipse class="cls-6" cx="39.14" cy="63.56" rx="4.95" ry="2.47"/><ellipse class="cls-6" cx="83.65" cy="63.56" rx="4.95" ry="2.47"/><path class="cls-22" d="M108.1,66.38c-3.96-4.85-12.21-5.33-17.59-3-.93,.4-.44,1.88,.52,1.51,2.84-1.1,5.75-1.53,8.78-.97,2.91,.54,4.94,2.02,7.45,3.41,.55,.31,1.25-.44,.83-.95Z"/><path class="cls-22" d="M101.37,70.37c-1.66-2.9-5.88-4.4-9.06-4.01-.69,.08-.62,1.07,.07,1.07,1.64,0,3.18,.2,4.68,.92,1.42,.67,2.37,1.71,3.51,2.73,.48,.43,1.1-.19,.8-.71Z"/><path class="cls-22" d="M25.97,63.73c-4.11-2.51-9.64-2.07-13.22,1.18-.49,.45,.24,1.27,.77,.87,3.59-2.74,7.94-3.25,11.95-1.04,.65,.36,1.12-.64,.51-1.01Z"/><path class="cls-22" d="M26.79,67.19c-3.01-1.1-7.63,.96-8.79,3.97-.2,.52,.42,.99,.82,.55,1.07-1.15,1.92-2.23,3.39-2.92,1.47-.69,2.84-.64,4.4-.75,.41-.03,.61-.69,.17-.85Z"/></g><g class="cls-25"><path class="cls-19" d="M52.11,98.57c-7.56-10.61-24.61-12.73-36.1-8.62-1.99,.71-1.18,3.85,.88,3.2,6.05-1.89,12.15-2.39,18.36-.82,5.97,1.51,9.98,4.87,15,8.11,1.1,.71,2.66-.74,1.86-1.86Z"/><g><rect class="cls-23" x="6" y="88.76" width="105" height="23.24"/><g><g><path class="cls-13" d="M35.54,88.85l.13,7.32c0,.32-.2,.59-.49,.69-.07,.02-.14,.04-.22,.04l-19.29,.34s-.05,0-.07,0c-.36-.03-.65-.33-.66-.7l-.13-7.32c0-.13,.03-.26,.1-.37,.12-.21,.35-.36,.61-.36l19.29-.34c.22,0,.42,.09,.55,.24,0,0,0,0,0,0,.11,.12,.18,.29,.18,.46Z"/><path class="cls-7" d="M35.54,88.85v.39s-.88,.24-.88,.24c0,0-.52-.39-.77-.38s-1.5,.4-2.04,.41c-.54,0-1.79,.16-2.4-.18s-1.77-.12-1.89-.24c-.12-.12-1.15,.29-1.53,.3l-3.33,.06c-.29,0-1.54-.11-1.73-.1s-2.14,.17-2.68,.18c-.54,0-1.03-.26-1.25-.25-.22,0-1.09,0-1.6,.23-.25,.11-.44,.09-.61,0v-.28c-.01-.4,.3-.73,.7-.73l19.29-.34c.4,0,.73,.31,.73,.71Z"/><path class="cls-14" d="M15.6,97.24c-.36-.03-.65-.33-.66-.7l-.13-7.32c0-.13,.03-.26,.1-.37,.12,.19,.25,.33,.33,.41,.13,.13,.19,.06,.2,.4,0,.34,.17,5,.1,5.84-.04,.5,.02,1.22,.06,1.74Z"/><path class="cls-14" d="M35.54,88.85l.13,7.32c0,.32-.2,.59-.49,.69-.16-1.2-.36-2.75-.37-3.07l-.07-3.82c0-.41-.01-.87,.28-1.17,.1-.1,.21-.25,.33-.42,.11,.12,.18,.29,.18,.46Z"/><path class="cls-12" d="M35.65,95.43v.75c.02,.4-.3,.73-.69,.73l-19.29,.34c-.4,0-.73-.31-.73-.71v-.35s1.44,.41,1.44,.41c0,0,.18-.45,.86-.3,.67,.15,1.48,.26,1.83,.26s3.38,.05,3.49-.06c.11-.11,1.95,.16,2.31,.15l2.94-.05c.48,0,2.71-.43,3.22-.44l1.98-.03c.42,0,1.84-.67,2.64-.69Z"/></g><g><path class="cls-13" d="M46.03,98.32v7.33c0,.32-.21,.59-.5,.68-.07,.02-.15,.04-.22,.04H26.02s-.05-.01-.07-.01c-.36-.04-.65-.34-.65-.72v-7.33c0-.14,.04-.26,.11-.37,.13-.21,.36-.35,.62-.35h19.29c.22,.01,.41,.11,.55,.26,0,0,0,0,0,0,.11,.13,.17,.29,.17,.47Z"/><path class="cls-16" d="M46.03,98.32v.39s-.9,.22-.9,.22c0,0-.51-.4-.77-.4-.26,0-1.5,.37-2.05,.37-.54,0-1.79,.13-2.4-.22s-1.77-.16-1.89-.27c-.12-.12-1.15,.27-1.54,.27h-3.33c-.29,0-1.54-.14-1.73-.14-.19,0-2.14,.13-2.69,.13s-1.02-.27-1.25-.27-1.09-.02-1.6,.2c-.25,.11-.44,.08-.61-.02v-.28c0-.4,.32-.72,.72-.72h19.29c.4,.01,.72,.33,.72,.73Z"/><path class="cls-14" d="M25.95,106.35c-.36-.04-.65-.34-.65-.72v-7.33c0-.14,.04-.26,.11-.37,.12,.19,.24,.33,.32,.42,.13,.13,.19,.06,.19,.41,0,.34,.08,5,0,5.84-.05,.5,0,1.22,.03,1.74Z"/><path class="cls-14" d="M46.03,98.32v7.33c0,.32-.21,.59-.5,.68-.14-1.2-.31-2.75-.31-3.08v-3.82c0-.41,0-.87,.3-1.17,.1-.1,.22-.25,.34-.42,.11,.13,.17,.29,.17,.47Z"/><path class="cls-12" d="M46.03,104.89v.75c0,.4-.32,.72-.72,.72H26.02c-.4-.01-.72-.33-.72-.73v-.35s1.44,.43,1.44,.43c0,0,.19-.45,.86-.29,.67,.16,1.47,.29,1.82,.29,.35,0,3.37,.11,3.49,0,.11-.11,1.95,.19,2.3,.19h2.94c.48,0,2.72-.38,3.23-.38h1.98c.42,0,1.86-.64,2.66-.64Z"/></g><g><path class="cls-13" d="M67.83,98.32v7.33c0,.32-.21,.59-.5,.68-.07,.02-.15,.04-.22,.04h-19.29s-.05-.01-.07-.01c-.36-.04-.65-.34-.65-.72v-7.33c0-.14,.04-.26,.11-.37,.13-.21,.36-.35,.62-.35h19.29c.22,.01,.41,.11,.55,.26,0,0,0,0,0,0,.11,.13,.17,.29,.17,.47Z"/><path class="cls-16" d="M67.83,98.32v.39s-.9,.22-.9,.22c0,0-.51-.4-.77-.4-.26,0-1.5,.37-2.05,.37-.54,0-1.79,.13-2.4-.22s-1.77-.16-1.89-.27c-.12-.12-1.15,.27-1.54,.27h-3.33c-.29,0-1.54-.14-1.73-.14-.19,0-2.14,.13-2.69,.13-.54,0-1.02-.27-1.25-.27-.22,0-1.09-.02-1.6,.2-.25,.11-.44,.08-.61-.02v-.28c0-.4,.32-.72,.72-.72h19.29c.4,.01,.72,.33,.72,.73Z"/><path class="cls-14" d="M47.74,106.35c-.36-.04-.65-.34-.65-.72v-7.33c0-.14,.04-.26,.11-.37,.12,.19,.24,.33,.32,.42,.13,.13,.19,.06,.19,.41,0,.34,.08,5,0,5.84-.05,.5,0,1.22,.03,1.74Z"/><path class="cls-14" d="M67.83,98.32v7.33c0,.32-.21,.59-.5,.68-.14-1.2-.31-2.75-.31-3.08v-3.82c0-.41,0-.87,.3-1.17,.1-.1,.22-.25,.34-.42,.11,.13,.17,.29,.17,.47Z"/><path class="cls-12" d="M67.82,104.89v.75c0,.4-.32,.72-.72,.72h-19.29c-.4-.01-.72-.33-.72-.73v-.35s1.44,.43,1.44,.43c0,0,.19-.45,.86-.29s1.47,.29,1.82,.29c.35,0,3.37,.11,3.49,0,.11-.11,1.95,.19,2.3,.19h2.94c.48,0,2.72-.38,3.23-.38h1.98c.42,0,1.86-.64,2.66-.64Z"/></g><g><path class="cls-13" d="M90.03,98.72l-.28,7.32c-.01,.32-.23,.58-.52,.66-.07,.02-.15,.03-.22,.03l-19.28-.75s-.05,0-.07,0c-.36-.05-.63-.37-.62-.74l.28-7.32c0-.13,.05-.26,.12-.36,.13-.2,.37-.34,.63-.33l19.28,.75c.22,0,.41,.11,.54,.27,0,0,0,0,0,0,.1,.13,.16,.3,.16,.47Z"/><path class="cls-16" d="M90.03,98.72l-.02,.39-.9,.19s-.5-.42-.75-.42c-.26,0-1.52,.31-2.06,.29-.54-.02-1.8,.06-2.39-.31s-1.76-.22-1.88-.35c-.11-.12-1.16,.23-1.55,.21l-3.32-.13c-.29-.01-1.53-.19-1.72-.2-.19,0-2.15,.05-2.69,.03-.54-.02-1.01-.31-1.24-.32-.22,0-1.09-.06-1.61,.14-.25,.1-.44,.06-.61-.04v-.28c.03-.4,.36-.71,.76-.69l19.28,.75c.4,.02,.71,.35,.69,.75Z"/><path class="cls-14" d="M69.65,105.97c-.36-.05-.63-.37-.62-.74l.28-7.32c0-.13,.05-.26,.12-.36,.11,.2,.23,.34,.31,.43,.12,.13,.19,.07,.18,.41-.01,.34-.12,5-.23,5.84-.07,.5-.05,1.22-.04,1.74Z"/><path class="cls-14" d="M90.03,98.72l-.28,7.32c-.01,.32-.23,.58-.52,.66-.09-1.2-.21-2.76-.19-3.09l.15-3.81c.02-.41,.04-.87,.34-1.15,.1-.09,.23-.24,.35-.4,.1,.13,.16,.3,.16,.47Z"/><path class="cls-12" d="M89.78,105.29l-.03,.75c-.02,.4-.35,.71-.75,.69l-19.28-.75c-.4-.02-.71-.35-.69-.75v-.35s1.44,.49,1.44,.49c0,0,.21-.44,.87-.25,.67,.19,1.46,.34,1.81,.36,.35,.01,3.37,.24,3.48,.14s1.94,.27,2.29,.28l2.94,.11c.48,.02,2.73-.28,3.24-.26l1.98,.08c.42,.02,1.88-.57,2.68-.54Z"/></g><g><path class="cls-13" d="M111.61,98.72l-.28,7.32c-.01,.32-.23,.58-.52,.66-.07,.02-.15,.03-.22,.03l-19.28-.75s-.05,0-.07,0c-.36-.05-.63-.37-.62-.74l.28-7.32c0-.13,.05-.26,.12-.36,.13-.2,.37-.34,.63-.33l19.28,.75c.22,0,.41,.11,.54,.27,0,0,0,0,0,0,.1,.13,.16,.3,.16,.47Z"/><path class="cls-7" d="M111.61,98.72l-.02,.39-.9,.19s-.5-.42-.75-.42c-.26,0-1.52,.31-2.06,.29-.54-.02-1.8,.06-2.39-.31-.59-.37-1.76-.22-1.88-.35-.11-.12-1.16,.23-1.55,.21l-3.32-.13c-.29-.01-1.53-.19-1.72-.2-.19,0-2.15,.05-2.69,.03-.54-.02-1.01-.31-1.24-.32-.22,0-1.09-.06-1.61,.14-.25,.1-.44,.06-.61-.04v-.28c.03-.4,.36-.71,.76-.69l19.28,.75c.4,.02,.71,.35,.69,.75Z"/><path class="cls-14" d="M91.23,105.97c-.36-.05-.63-.37-.62-.74l.28-7.32c0-.13,.05-.26,.12-.36,.11,.2,.23,.34,.31,.43,.12,.13,.19,.07,.18,.41-.01,.34-.12,5-.23,5.84-.07,.5-.05,1.22-.04,1.74Z"/><path class="cls-14" d="M111.61,98.72l-.28,7.32c-.01,.32-.23,.58-.52,.66-.09-1.2-.21-2.76-.19-3.09l.15-3.81c.02-.41,.04-.87,.34-1.15,.1-.09,.23-.24,.35-.4,.1,.13,.16,.3,.16,.47Z"/><path class="cls-12" d="M111.35,105.29l-.03,.75c-.02,.4-.35,.71-.75,.69l-19.28-.75c-.4-.02-.71-.35-.69-.75v-.35s1.44,.49,1.44,.49c0,0,.21-.44,.87-.25,.67,.19,1.46,.34,1.81,.36,.35,.01,3.37,.24,3.48,.14,.12-.11,1.94,.27,2.29,.28l2.94,.11c.48,.02,2.73-.28,3.24-.26l1.98,.08c.42,.02,1.88-.57,2.68-.54Z"/></g><g><path class="cls-13" d="M57.15,89.13l-.07,7.33c0,.32-.21,.59-.5,.68-.07,.02-.15,.03-.22,.03l-19.29-.19s-.05,0-.07,0c-.36-.04-.64-.35-.64-.72l.07-7.33c0-.14,.04-.26,.11-.37,.13-.21,.36-.35,.62-.34l19.29,.19c.22,0,.41,.1,.54,.26,0,0,0,0,0,0,.11,.13,.17,.29,.17,.47Z"/><path class="cls-16" d="M57.15,89.13v.39s-.9,.21-.9,.21c0,0-.51-.4-.76-.4s-1.51,.36-2.05,.35c-.54,0-1.79,.11-2.4-.24-.6-.35-1.77-.17-1.88-.29-.12-.12-1.15,.26-1.54,.26l-3.33-.03c-.29,0-1.53-.15-1.73-.15s-2.14,.11-2.69,.11c-.54,0-1.02-.28-1.24-.29-.22,0-1.09-.03-1.6,.19-.25,.11-.44,.07-.61-.03v-.28c0-.4,.33-.72,.73-.71l19.29,.19c.4,0,.72,.33,.71,.73Z"/><path class="cls-14" d="M36.99,96.98c-.36-.04-.64-.35-.64-.72l.07-7.33c0-.14,.04-.26,.11-.37,.12,.19,.24,.34,.32,.42,.13,.13,.19,.07,.19,.41,0,.34,.03,5.01-.06,5.84-.05,.5-.01,1.22,.01,1.74Z"/><path class="cls-14" d="M57.15,89.13l-.07,7.33c0,.32-.21,.59-.5,.68-.13-1.2-.29-2.75-.28-3.08l.04-3.82c0-.41,.01-.87,.31-1.16,.1-.1,.22-.25,.34-.41,.11,.13,.17,.29,.17,.47Z"/><path class="cls-12" d="M57.08,95.71v.75c-.01,.4-.34,.72-.73,.71l-19.29-.19c-.4,0-.72-.33-.71-.73v-.35s1.44,.45,1.44,.45c0,0,.2-.45,.87-.28,.67,.17,1.47,.3,1.82,.31s3.37,.15,3.49,.03c.11-.11,1.95,.21,2.3,.21l2.94,.03c.48,0,2.72-.36,3.23-.35l1.98,.02c.42,0,1.86-.62,2.66-.61Z"/></g><g><path class="cls-13" d="M78.53,88.66l.26,7.32c.01,.32-.19,.6-.47,.7-.07,.03-.14,.04-.22,.04l-19.28,.7s-.05,0-.07,0c-.36-.02-.66-.32-.67-.69l-.26-7.32c0-.13,.03-.26,.09-.37,.12-.21,.34-.36,.61-.37l19.28-.7c.22,0,.42,.08,.55,.23,0,0,0,0,0,0,.11,.12,.18,.28,.19,.46Z"/><path class="cls-7" d="M78.53,88.66v.39s-.87,.25-.87,.25c0,0-.53-.38-.78-.37s-1.49,.43-2.03,.45c-.54,.02-1.79,.19-2.41-.13s-1.77-.09-1.9-.21c-.12-.11-1.14,.32-1.52,.33l-3.32,.12c-.29,.01-1.54-.08-1.73-.07-.19,0-2.14,.21-2.68,.23-.54,.02-1.03-.24-1.26-.23-.22,0-1.09,.02-1.59,.26-.24,.12-.44,.09-.61,0v-.28c-.02-.4,.29-.73,.68-.75l19.28-.7c.4-.01,.73,.3,.75,.69Z"/><path class="cls-14" d="M58.75,97.42c-.36-.02-.66-.32-.67-.69l-.26-7.32c0-.13,.03-.26,.09-.37,.13,.19,.25,.32,.34,.41,.13,.12,.19,.06,.21,.4,.01,.34,.26,5,.21,5.84-.03,.5,.04,1.22,.09,1.74Z"/><path class="cls-14" d="M78.53,88.66l.26,7.32c.01,.32-.19,.6-.47,.7-.18-1.19-.41-2.74-.42-3.07l-.14-3.81c-.01-.41-.03-.87,.26-1.18,.09-.1,.21-.26,.32-.43,.11,.12,.18,.28,.19,.46Z"/><path class="cls-12" d="M78.77,95.23l.03,.75c.01,.4-.3,.73-.69,.75l-19.28,.7c-.4,.01-.73-.3-.75-.69v-.35s1.44,.38,1.44,.38c0,0,.18-.45,.85-.32,.68,.14,1.48,.23,1.83,.22,.35-.01,3.38,0,3.48-.13,.11-.12,1.96,.12,2.31,.11l2.94-.11c.48-.02,2.7-.48,3.22-.5l1.98-.07c.42-.02,1.83-.71,2.63-.74Z"/></g><g><path class="cls-13" d="M100.2,88.94l.07,7.33c0,.32-.2,.59-.49,.69-.07,.02-.14,.04-.22,.04l-19.29,.17s-.05,0-.07,0c-.36-.03-.65-.34-.65-.71l-.07-7.33c0-.14,.03-.26,.1-.37,.12-.21,.35-.35,.61-.36l19.29-.17c.22,0,.41,.09,.55,.25,0,0,0,0,0,0,.11,.12,.18,.29,.18,.47Z"/><path class="cls-16" d="M100.2,88.94v.39s-.89,.23-.89,.23c0,0-.52-.39-.77-.39-.26,0-1.5,.39-2.04,.39s-1.79,.14-2.4-.2-1.77-.14-1.89-.26c-.12-.12-1.15,.28-1.53,.29l-3.33,.03c-.29,0-1.54-.12-1.73-.12s-2.14,.15-2.69,.16-1.03-.26-1.25-.26c-.22,0-1.09,0-1.6,.22-.25,.11-.44,.08-.61-.01v-.28c0-.4,.31-.72,.71-.73l19.29-.17c.4,0,.72,.32,.73,.71Z"/><path class="cls-14" d="M80.19,97.16c-.36-.03-.65-.34-.65-.71l-.07-7.33c0-.14,.03-.26,.1-.37,.12,.19,.24,.33,.33,.41,.13,.13,.19,.06,.2,.4,0,.34,.12,5,.05,5.84-.04,.5,.01,1.22,.05,1.74Z"/><path class="cls-14" d="M100.2,88.94l.07,7.33c0,.32-.2,.59-.49,.69-.15-1.2-.34-2.75-.34-3.08l-.03-3.82c0-.41,0-.87,.29-1.17,.1-.1,.21-.25,.33-.42,.11,.12,.18,.29,.18,.47Z"/><path class="cls-12" d="M100.26,95.51v.75c.01,.4-.31,.72-.71,.73l-19.29,.17c-.4,0-.72-.32-.73-.71v-.35s1.44,.42,1.44,.42c0,0,.19-.45,.86-.3,.67,.15,1.47,.27,1.83,.27,.35,0,3.38,.08,3.49-.03,.11-.11,1.95,.17,2.3,.17l2.94-.03c.48,0,2.72-.41,3.23-.41l1.98-.02c.42,0,1.85-.66,2.65-.66Z"/></g><g><g><path class="cls-16" d="M16.88,91.74c.34-.2,1.8-1.06,1.1-.14s-.88,.92-.99,.94c-.11,.01-.1-.79-.1-.79Z"/><path class="cls-16" d="M18.54,94.08c.34,.59,.9,1.32,.57,.6-.33-.73-.24-.82-.24-.82l-.33,.22Z"/><path class="cls-16" d="M22.05,91.27c.75,.43,1.6,.2,1.23,.45-.37,.24-1.08,.74-1.09,.6s-.28-.64-.09-.66c.19-.02-.05-.39-.05-.39Z"/><path class="cls-16" d="M25.36,91.25c-.5,.32-1.23,.45-1.03,.82,.2,.37,.32,1.02,.55,.71,.24-.31,.21-.47,.19-.64-.02-.17-.12-.35,.07-.37,.19-.02,.23-.51,.23-.51Z"/><path class="cls-16" d="M22.34,94.83c-.11,.34,.59,.91,.66,.82s.12-.22-.15-.43c-.27-.21-.51-.39-.51-.39Z"/><path class="cls-16" d="M26.58,93.78c.16,.4-.47,.85,.1,.78s1.04-.16,.74-.39c-.3-.23,.02-.25-.45-.36-.46-.11-.4-.02-.4-.02Z"/><path class="cls-16" d="M27.83,91.95c.3-.04,.53,.15,.45,.09-.07-.06-.1,0-.13-.29-.04-.28-.42,.21-.32,.2Z"/><path class="cls-16" d="M30.19,91.16c.03,.26-.3,.62-.22,.68,.08,.06,.3,.51,.42-.05s.45-.21,.39-.7c-.06-.49,.18-.72-.08-.6-.25,.11-.51,.68-.51,.68Z"/><path class="cls-16" d="M30.02,94c-.12,.15,.06,.45,.06,.45,0,0,.77,0,.36-.23l-.41-.23Z"/><path class="cls-16" d="M30.27,92.96c.01,.11,.37,.12,.38,.2,0,.08,.02,.15-.15,.17-.17,.02-.23-.37-.23-.37Z"/><path class="cls-16" d="M33.03,94.57c.74-.1,1.68-.22,1.43-.41-.25-.19-.48-.51-.74-.16-.27,.35-.68,.57-.68,.57Z"/><path class="cls-16" d="M33.05,91.77c-.28,.04-1.01,.34-.92,.04,.09-.31-.3-.64,.1-.69,.4-.05,.82,.65,.82,.65Z"/></g><g><path class="cls-12" d="M16.84,91.4c.34-.2,1.8-1.06,1.1-.14-.71,.92-.88,.92-.99,.94-.11,.01-.1-.79-.1-.79Z"/><path class="cls-12" d="M18.49,93.74c.34,.59,.9,1.32,.57,.6-.33-.73-.24-.82-.24-.82l-.33,.22Z"/><path class="cls-12" d="M22,90.93c.75,.43,1.6,.2,1.23,.45-.37,.24-1.08,.74-1.09,.6-.02-.13-.28-.64-.09-.66,.19-.02-.05-.39-.05-.39Z"/><path class="cls-12" d="M25.31,90.91c-.5,.32-1.23,.45-1.03,.82,.2,.37,.32,1.02,.55,.71,.24-.31,.21-.47,.19-.64-.02-.17-.12-.35,.07-.37,.19-.02,.23-.51,.23-.51Z"/><path class="cls-12" d="M22.3,94.5c-.11,.34,.59,.91,.66,.82s.12-.22-.15-.43c-.27-.21-.51-.39-.51-.39Z"/><path class="cls-12" d="M26.53,93.44c.16,.4-.47,.85,.1,.78,.57-.08,1.04-.16,.74-.39-.3-.23,.02-.25-.45-.36-.46-.11-.4-.02-.4-.02Z"/><path class="cls-12" d="M27.78,91.61c.3-.04,.53,.15,.45,.09-.07-.06-.1,0-.13-.29s-.42,.21-.32,.2Z"/><path class="cls-12" d="M30.14,90.82c.03,.26-.3,.62-.22,.68,.08,.06,.3,.51,.42-.05s.45-.21,.39-.7c-.06-.49,.18-.72-.08-.6s-.51,.68-.51,.68Z"/><path class="cls-12" d="M29.97,93.67c-.12,.15,.06,.45,.06,.45,0,0,.77,0,.36-.23l-.41-.23Z"/><path class="cls-12" d="M30.22,92.62c.01,.11,.37,.12,.38,.2,0,.08,.02,.15-.15,.17-.17,.02-.23-.37-.23-.37Z"/><path class="cls-12" d="M32.99,94.23c.74-.1,1.68-.22,1.43-.41-.25-.19-.48-.51-.74-.16-.27,.35-.68,.57-.68,.57Z"/><path class="cls-12" d="M33.01,91.43c-.28,.04-1.01,.34-.92,.04,.09-.31-.3-.64,.1-.69,.4-.05,.82,.65,.82,.65Z"/></g></g><g><g><path class="cls-16" d="M38.51,91.04c.36-.16,1.92-.84,1.11-.01-.81,.83-.98,.81-1.1,.81-.11,0,0-.8,0-.8Z"/><path class="cls-16" d="M39.88,93.56c.27,.63,.73,1.42,.5,.66s-.14-.84-.14-.84l-.35,.18Z"/><path class="cls-16" d="M43.7,91.18c.69,.52,1.57,.39,1.17,.59-.4,.19-1.16,.6-1.16,.47,0-.13-.2-.67,0-.67,.19,0,0-.39,0-.39Z"/><path class="cls-16" d="M46.99,91.56c-.54,.25-1.28,.3-1.12,.69s.19,1.05,.47,.77,.26-.44,.26-.61-.08-.36,.11-.36c.19,0,.29-.48,.29-.48Z"/><path class="cls-16" d="M43.57,94.76c-.15,.33,.48,.98,.56,.89,.08-.09,.15-.2-.1-.44-.25-.24-.46-.45-.46-.45Z"/><path class="cls-16" d="M47.9,94.22c.11,.42-.57,.79,0,.78,.58,0,1.05-.03,.78-.29-.27-.26,.05-.25-.4-.42-.45-.17-.39-.07-.39-.07Z"/><path class="cls-16" d="M49.36,92.54c.31,0,.51,.21,.44,.15-.07-.07-.1-.02-.1-.3,0-.29-.44,.16-.34,.16Z"/><path class="cls-16" d="M51.79,92.04c0,.27-.37,.58-.3,.64,.07,.07,.23,.54,.42,0s.48-.15,.47-.65,.26-.69,0-.61-.58,.62-.58,.62Z"/><path class="cls-16" d="M51.29,94.85c-.13,.13,0,.46,0,.46,0,0,.76,.09,.38-.18l-.38-.28Z"/><path class="cls-16" d="M51.66,93.84c0,.11,.35,.17,.35,.24,0,.08,0,.15-.17,.15-.18,0-.18-.4-.18-.4Z"/><path class="cls-16" d="M54.22,95.77c.74,0,1.69-.02,1.47-.24-.23-.22-.41-.56-.72-.25s-.75,.49-.75,.49Z"/><path class="cls-16" d="M54.57,92.99c-.29,0-1.05,.22-.92-.07,.13-.29-.22-.67,.18-.68s.73,.75,.73,.75Z"/></g><g><path class="cls-12" d="M38.51,90.7c.36-.16,1.92-.84,1.11-.01-.81,.83-.98,.81-1.1,.81s0-.8,0-.8Z"/><path class="cls-12" d="M39.88,93.22c.27,.63,.73,1.42,.5,.66s-.14-.84-.14-.84l-.35,.18Z"/><path class="cls-12" d="M43.7,90.84c.69,.52,1.57,.39,1.17,.59-.4,.19-1.16,.6-1.16,.47,0-.13-.2-.67,0-.67,.19,0,0-.39,0-.39Z"/><path class="cls-12" d="M46.99,91.22c-.54,.25-1.28,.3-1.12,.69,.16,.39,.19,1.05,.47,.77,.27-.28,.26-.44,.26-.61,0-.17-.08-.36,.11-.36,.19,0,.29-.48,.29-.48Z"/><path class="cls-12" d="M43.56,94.42c-.15,.33,.48,.98,.56,.89,.08-.09,.15-.2-.1-.44-.25-.24-.46-.45-.46-.45Z"/><path class="cls-12" d="M47.9,93.88c.11,.42-.57,.79,0,.78,.58,0,1.05-.03,.78-.29-.27-.26,.05-.25-.4-.42-.45-.17-.39-.07-.39-.07Z"/><path class="cls-12" d="M49.36,92.2c.31,0,.51,.21,.44,.15-.07-.07-.1-.02-.1-.3,0-.29-.44,.16-.34,.16Z"/><path class="cls-12" d="M51.79,91.7c0,.27-.37,.58-.3,.65,.07,.07,.23,.54,.42,0,.18-.55,.48-.15,.47-.65s.26-.69,0-.61-.58,.62-.58,.62Z"/><path class="cls-12" d="M51.29,94.51c-.13,.13,0,.46,0,.46,0,0,.76,.09,.38-.18l-.38-.28Z"/><path class="cls-12" d="M51.66,93.5c0,.11,.35,.17,.35,.24,0,.08,0,.15-.17,.15-.18,0-.18-.4-.18-.4Z"/><path class="cls-12" d="M54.21,95.43c.74,0,1.69-.02,1.47-.24-.23-.22-.41-.56-.72-.25-.31,.31-.75,.49-.75,.49Z"/><path class="cls-12" d="M54.57,92.65c-.29,0-1.05,.22-.92-.07,.13-.29-.22-.67,.18-.68,.4,0,.73,.75,.73,.75Z"/></g></g><g><g><path class="cls-16" d="M70.83,99.62c.36-.16,1.92-.84,1.11-.01-.81,.83-.98,.81-1.1,.81-.11,0,0-.8,0-.8Z"/><path class="cls-16" d="M72.2,102.14c.27,.63,.73,1.42,.5,.66s-.14-.84-.14-.84l-.35,.18Z"/><path class="cls-16" d="M76.02,99.77c.69,.52,1.57,.39,1.17,.59-.4,.19-1.16,.6-1.16,.47,0-.13-.2-.67,0-.67,.19,0,0-.39,0-.39Z"/><path class="cls-16" d="M79.3,100.14c-.54,.25-1.28,.3-1.12,.69s.19,1.05,.47,.77c.27-.28,.26-.44,.26-.61,0-.17-.08-.36,.11-.36,.19,0,.29-.48,.29-.48Z"/><path class="cls-16" d="M75.88,103.34c-.15,.33,.48,.98,.56,.89,.08-.09,.15-.2-.1-.44-.25-.24-.46-.45-.46-.45Z"/><path class="cls-16" d="M80.22,102.8c.11,.42-.57,.79,0,.78,.58,0,1.05-.03,.78-.29-.27-.26,.05-.25-.4-.42-.45-.17-.39-.07-.39-.07Z"/><path class="cls-16" d="M81.67,101.13c.31,0,.51,.21,.44,.15-.07-.07-.1-.02-.1-.3s-.44,.16-.34,.16Z"/><path class="cls-16" d="M84.11,100.62c0,.27-.37,.58-.3,.64s.23,.54,.42,0,.48-.15,.47-.65,.26-.69,0-.61-.58,.62-.58,.62Z"/><path class="cls-16" d="M83.6,103.43c-.13,.13,0,.46,0,.46,0,0,.76,.09,.38-.18l-.38-.28Z"/><path class="cls-16" d="M83.98,102.42c0,.11,.35,.17,.35,.24,0,.08,0,.15-.17,.15-.18,0-.18-.4-.18-.4Z"/><path class="cls-16" d="M86.53,104.35c.74,0,1.69-.02,1.47-.24-.23-.22-.41-.56-.72-.25-.31,.31-.75,.49-.75,.49Z"/><path class="cls-16" d="M86.88,101.58c-.29,0-1.05,.22-.92-.07,.13-.29-.22-.67,.18-.68,.4,0,.73,.75,.73,.75Z"/></g><g><path class="cls-12" d="M70.82,99.28c.36-.16,1.92-.84,1.11-.01-.81,.83-.98,.81-1.1,.81-.11,0,0-.8,0-.8Z"/><path class="cls-12" d="M72.19,101.8c.27,.63,.73,1.42,.5,.66s-.14-.84-.14-.84l-.35,.18Z"/><path class="cls-12" d="M76.01,99.43c.69,.52,1.57,.39,1.17,.59-.4,.19-1.16,.6-1.16,.47,0-.13-.2-.67,0-.67,.19,0,0-.39,0-.39Z"/><path class="cls-12" d="M79.3,99.8c-.54,.25-1.28,.3-1.12,.69s.19,1.05,.47,.77c.27-.28,.26-.44,.26-.61,0-.17-.08-.36,.11-.36,.19,0,.29-.48,.29-.48Z"/><path class="cls-12" d="M75.88,103c-.15,.33,.48,.98,.56,.89,.08-.09,.15-.2-.1-.44s-.46-.45-.46-.45Z"/><path class="cls-12" d="M80.21,102.46c.11,.42-.57,.79,0,.78s1.05-.03,.78-.29c-.27-.26,.05-.25-.4-.42-.45-.17-.39-.07-.39-.07Z"/><path class="cls-12" d="M81.67,100.79c.31,0,.51,.21,.44,.15-.07-.07-.1-.02-.1-.3s-.44,.16-.34,.16Z"/><path class="cls-12" d="M84.1,100.28c0,.27-.37,.58-.3,.64,.07,.07,.23,.54,.42,0,.18-.55,.48-.15,.47-.65,0-.5,.26-.69,0-.61-.27,.08-.58,.62-.58,.62Z"/><path class="cls-12" d="M83.6,103.09c-.13,.13,0,.46,0,.46,0,0,.76,.09,.38-.18l-.38-.28Z"/><path class="cls-12" d="M83.97,102.08c0,.11,.35,.17,.35,.24,0,.08,0,.15-.17,.15-.18,0-.18-.4-.18-.4Z"/><path class="cls-12" d="M86.53,104.01c.74,0,1.69-.02,1.47-.24-.23-.22-.41-.56-.72-.25-.31,.31-.75,.49-.75,.49Z"/><path class="cls-12" d="M86.88,101.23c-.29,0-1.05,.22-.92-.07,.13-.29-.22-.67,.18-.68,.4,0,.73,.75,.73,.75Z"/></g></g><g><g><path class="cls-16" d="M76.88,90.74c-.36-.16-1.92-.84-1.11-.01,.81,.83,.98,.81,1.1,.81,.11,0,0-.8,0-.8Z"/><path class="cls-16" d="M75.52,93.27c-.27,.63-.73,1.42-.5,.66s.14-.84,.14-.84l.35,.18Z"/><path class="cls-16" d="M71.7,90.89c-.69,.52-1.57,.39-1.17,.59,.4,.19,1.16,.6,1.16,.47,0-.13,.2-.67,0-.67-.19,0,0-.39,0-.39Z"/><path class="cls-16" d="M68.41,91.26c.54,.25,1.28,.3,1.12,.69s-.19,1.05-.47,.77c-.27-.28-.26-.44-.26-.61,0-.17,.08-.36-.11-.36-.19,0-.29-.48-.29-.48Z"/><path class="cls-16" d="M71.83,94.47c.15,.33-.48,.98-.56,.89-.08-.09-.15-.2,.1-.44s.46-.45,.46-.45Z"/><path class="cls-16" d="M67.5,93.92c-.11,.42,.57,.79,0,.78-.58,0-1.05-.03-.78-.29,.27-.26-.05-.25,.4-.42,.45-.17,.39-.07,.39-.07Z"/><path class="cls-16" d="M66.04,92.25c-.3,0-.51,.21-.44,.15,.07-.07,.1-.02,.1-.3s.44,.16,.34,.16Z"/><path class="cls-16" d="M63.6,91.75c0,.27,.37,.58,.3,.64s-.23,.54-.42,0c-.18-.55-.48-.15-.47-.65,0-.5-.26-.69,0-.61s.58,.62,.58,.62Z"/><path class="cls-16" d="M64.11,94.55c.13,.13,0,.46,0,.46,0,0-.76,.09-.38-.18l.38-.28Z"/><path class="cls-16" d="M63.74,93.54c0,.11-.35,.17-.35,.24,0,.08,0,.15,.17,.15,.18,0,.18-.4,.18-.4Z"/><path class="cls-16" d="M61.18,95.48c-.74,0-1.69-.02-1.47-.24,.23-.22,.41-.56,.72-.25,.31,.31,.75,.49,.75,.49Z"/><path class="cls-16" d="M60.83,92.7c.29,0,1.05,.22,.92-.07-.13-.29,.22-.67-.18-.68-.4,0-.73,.75-.73,.75Z"/></g><g><path class="cls-12" d="M76.89,90.4c-.36-.16-1.92-.84-1.11-.01,.81,.83,.98,.81,1.1,.81,.11,0,0-.8,0-.8Z"/><path class="cls-12" d="M75.52,92.92c-.27,.63-.73,1.42-.5,.66,.24-.76,.14-.84,.14-.84l.35,.18Z"/><path class="cls-12" d="M71.7,90.55c-.69,.52-1.57,.39-1.17,.59,.4,.19,1.16,.6,1.16,.47,0-.13,.2-.67,0-.67-.19,0,0-.39,0-.39Z"/><path class="cls-12" d="M68.41,90.92c.54,.25,1.28,.3,1.12,.69s-.19,1.05-.47,.77-.26-.44-.26-.61c0-.17,.08-.36-.11-.36-.19,0-.29-.48-.29-.48Z"/><path class="cls-12" d="M71.83,94.12c.15,.33-.48,.98-.56,.89-.08-.09-.15-.2,.1-.44,.25-.24,.46-.45,.46-.45Z"/><path class="cls-12" d="M67.5,93.58c-.11,.42,.57,.79,0,.78-.58,0-1.05-.03-.78-.29,.27-.26-.05-.25,.4-.42,.45-.17,.39-.07,.39-.07Z"/><path class="cls-12" d="M66.04,91.91c-.3,0-.51,.21-.44,.15,.07-.07,.1-.02,.1-.3,0-.29,.44,.16,.34,.16Z"/><path class="cls-12" d="M63.61,91.41c0,.27,.37,.58,.3,.64-.07,.07-.23,.54-.42,0-.18-.55-.48-.15-.47-.65,0-.5-.26-.69,0-.61s.58,.62,.58,.62Z"/><path class="cls-12" d="M64.11,94.21c.13,.13,0,.46,0,.46,0,0-.76,.09-.38-.18l.38-.28Z"/><path class="cls-12" d="M63.74,93.2c0,.11-.35,.17-.35,.24,0,.08,0,.15,.17,.15,.18,0,.18-.4,.18-.4Z"/><path class="cls-12" d="M61.18,95.14c-.74,0-1.69-.02-1.47-.24,.23-.22,.41-.56,.72-.25,.31,.31,.75,.49,.75,.49Z"/><path class="cls-12" d="M60.83,92.36c.29,0,1.05,.22,.92-.07s.22-.67-.18-.68c-.4,0-.73,.75-.73,.75Z"/></g></g><g><g><path class="cls-16" d="M109.7,101.01c-.35-.18-1.85-.98-1.1-.09,.75,.88,.92,.88,1.04,.89s.07-.8,.07-.8Z"/><path class="cls-16" d="M108.16,103.42c-.31,.61-.83,1.37-.54,.62,.29-.74,.2-.83,.2-.83l.34,.2Z"/><path class="cls-16" d="M104.52,100.78c-.73,.47-1.59,.28-1.21,.5s1.11,.69,1.12,.55c.01-.13,.25-.65,.06-.66s.03-.39,.03-.39Z"/><path class="cls-16" d="M101.21,100.91c.52,.29,1.25,.39,1.07,.77-.18,.38-.27,1.03-.52,.73-.25-.3-.23-.46-.21-.63,.01-.17,.11-.35-.08-.37s-.25-.5-.25-.5Z"/><path class="cls-16" d="M104.39,104.35c.13,.34-.55,.94-.63,.85-.08-.09-.13-.21,.13-.43,.26-.22,.49-.41,.49-.41Z"/><path class="cls-16" d="M100.11,103.5c-.14,.41,.51,.83-.06,.78s-1.05-.11-.76-.35c.29-.24-.03-.25,.43-.39,.46-.13,.4-.04,.4-.04Z"/><path class="cls-16" d="M98.78,101.72c-.3-.03-.52,.18-.45,.12,.07-.06,.1-.01,.12-.3,.02-.28,.42,.19,.33,.18Z"/><path class="cls-16" d="M96.38,101.05c-.02,.27,.33,.6,.25,.66-.08,.06-.27,.53-.42-.03-.14-.56-.46-.19-.42-.68,.04-.49-.21-.71,.05-.61,.26,.1,.54,.66,.54,.66Z"/><path class="cls-16" d="M96.68,103.88c.12,.14-.04,.46-.04,.46,0,0-.77,.04-.37-.21l.4-.25Z"/><path class="cls-16" d="M96.39,102.85c0,.11-.36,.14-.37,.22,0,.08-.01,.15,.16,.17,.17,.01,.21-.38,.21-.38Z"/><path class="cls-16" d="M93.7,104.59c-.74-.06-1.69-.14-1.44-.34,.24-.2,.45-.53,.74-.2,.28,.33,.71,.54,.71,.54Z"/><path class="cls-16" d="M93.55,101.8c.28,.02,1.03,.3,.92,0-.11-.3,.26-.65-.13-.69-.4-.03-.78,.69-.78,.69Z"/></g><g><path class="cls-12" d="M109.73,100.67c-.35-.18-1.85-.98-1.1-.09,.75,.88,.92,.88,1.04,.89,.11,0,.07-.8,.07-.8Z"/><path class="cls-12" d="M108.19,103.08c-.31,.61-.83,1.37-.54,.62,.29-.74,.2-.83,.2-.83l.34,.2Z"/><path class="cls-12" d="M104.55,100.44c-.73,.47-1.59,.28-1.21,.5s1.11,.69,1.12,.55c.01-.13,.25-.65,.06-.66s.03-.39,.03-.39Z"/><path class="cls-12" d="M101.24,100.57c.52,.29,1.25,.39,1.07,.77-.18,.38-.27,1.03-.52,.73-.25-.3-.23-.46-.21-.63,.01-.17,.11-.35-.08-.37-.19-.02-.25-.5-.25-.5Z"/><path class="cls-12" d="M104.42,104.01c.13,.34-.55,.94-.63,.85-.08-.09-.13-.21,.13-.43,.26-.22,.49-.41,.49-.41Z"/><path class="cls-12" d="M100.14,103.16c-.14,.41,.51,.83-.06,.78s-1.05-.11-.76-.35c.29-.24-.03-.25,.43-.39,.46-.13,.4-.04,.4-.04Z"/><path class="cls-12" d="M98.81,101.38c-.3-.03-.52,.18-.45,.12,.07-.06,.1-.01,.12-.3,.02-.28,.42,.19,.33,.18Z"/><path class="cls-12" d="M96.41,100.71c-.02,.27,.33,.6,.25,.66-.08,.06-.27,.53-.42-.03-.14-.56-.46-.19-.42-.68,.04-.49-.21-.71,.05-.61,.26,.1,.54,.66,.54,.66Z"/><path class="cls-12" d="M96.71,103.54c.12,.14-.04,.46-.04,.46,0,0-.77,.04-.37-.21l.4-.25Z"/><path class="cls-12" d="M96.42,102.51c0,.11-.36,.14-.37,.22,0,.08-.01,.15,.16,.17,.17,.01,.21-.38,.21-.38Z"/><path class="cls-12" d="M93.73,104.25c-.74-.06-1.69-.14-1.44-.34,.24-.2,.45-.53,.74-.2,.28,.33,.71,.54,.71,.54Z"/><path class="cls-12" d="M93.58,101.46c.28,.02,1.03,.3,.92,0-.11-.3,.26-.65-.13-.69-.4-.03-.78,.69-.78,.69Z"/></g></g><g><g><path class="cls-16" d="M81.35,94.59c.35,.17,1.88,.91,1.1,.05-.78-.86-.95-.85-1.07-.85-.11,0-.04,.8-.04,.8Z"/><path class="cls-16" d="M82.81,92.12c.29-.62,.79-1.39,.52-.64s-.17,.83-.17,.83l-.35-.19Z"/><path class="cls-16" d="M86.53,94.64c.71-.49,1.58-.33,1.19-.54-.39-.21-1.13-.65-1.14-.51,0,.13-.22,.66-.03,.67s-.02,.39-.02,.39Z"/><path class="cls-16" d="M89.83,94.39c-.53-.27-1.27-.34-1.1-.73,.17-.38,.23-1.04,.49-.75,.26,.29,.25,.45,.24,.62,0,.17-.09,.36,.1,.37,.19,0,.27,.49,.27,.49Z"/><path class="cls-16" d="M86.54,91.06c-.14-.33,.51-.96,.6-.87,.08,.09,.14,.21-.12,.44-.26,.23-.48,.43-.48,.43Z"/><path class="cls-16" d="M90.85,91.77c.12-.41-.54-.81,.04-.78,.58,.03,1.05,.07,.77,.32-.28,.25,.04,.25-.41,.4-.45,.15-.4,.06-.4,.06Z"/><path class="cls-16" d="M92.24,93.49c.3,.01,.52-.19,.45-.13-.07,.06-.1,.01-.11,.3-.01,.29-.43-.17-.34-.17Z"/><path class="cls-16" d="M94.65,94.09c.01-.27-.35-.59-.27-.66,.07-.07,.25-.53,.42,.02s.47,.17,.45,.66c-.02,.5,.23,.7-.03,.61s-.56-.64-.56-.64Z"/><path class="cls-16" d="M94.26,91.26c-.13-.14,.02-.46,.02-.46,0,0,.77-.07,.37,.2l-.39,.26Z"/><path class="cls-16" d="M94.59,92.29c0-.11,.36-.15,.36-.23,0-.08,0-.15-.17-.16-.18,0-.19,.39-.19,.39Z"/><path class="cls-16" d="M97.21,90.45c.74,.04,1.69,.08,1.46,.29s-.44,.54-.73,.22c-.29-.32-.73-.51-.73-.51Z"/><path class="cls-16" d="M97.46,93.24c-.29-.01-1.04-.26-.92,.04,.12,.3-.24,.66,.16,.68s.76-.72,.76-.72Z"/></g><g><path class="cls-12" d="M81.39,94.25c.35,.17,1.88,.91,1.1,.05s-.95-.85-1.07-.85c-.11,0-.04,.8-.04,.8Z"/><path class="cls-12" d="M82.85,91.78c.29-.62,.79-1.39,.52-.64s-.17,.83-.17,.83l-.35-.19Z"/><path class="cls-12" d="M86.57,94.3c.71-.49,1.58-.33,1.19-.54-.39-.21-1.13-.65-1.14-.51,0,.13-.22,.66-.03,.67s-.02,.39-.02,.39Z"/><path class="cls-12" d="M89.87,94.05c-.53-.27-1.27-.34-1.1-.73,.17-.38,.23-1.04,.49-.75,.26,.29,.25,.45,.24,.62s-.09,.36,.1,.37,.27,.49,.27,.49Z"/><path class="cls-12" d="M86.58,90.72c-.14-.33,.51-.96,.6-.87,.08,.09,.14,.21-.12,.44-.26,.23-.48,.43-.48,.43Z"/><path class="cls-12" d="M90.89,91.42c.12-.41-.54-.81,.04-.78,.58,.03,1.05,.07,.77,.32-.28,.25,.04,.25-.41,.4s-.4,.06-.4,.06Z"/><path class="cls-12" d="M92.28,93.15c.3,.01,.52-.19,.45-.13s-.1,.01-.11,.3c-.01,.29-.43-.17-.34-.17Z"/><path class="cls-12" d="M94.69,93.74c.01-.27-.35-.59-.27-.66,.07-.07,.25-.53,.42,.02,.16,.55,.47,.17,.45,.66-.02,.5,.23,.7-.03,.61-.26-.09-.56-.64-.56-.64Z"/><path class="cls-12" d="M94.3,90.92c-.13-.14,.02-.46,.02-.46,0,0,.77-.07,.37,.2l-.39,.26Z"/><path class="cls-12" d="M94.63,91.94c0-.11,.36-.15,.36-.23,0-.08,0-.15-.17-.16-.18,0-.19,.39-.19,.39Z"/><path class="cls-12" d="M97.25,90.11c.74,.04,1.69,.08,1.46,.29-.23,.21-.44,.54-.73,.22s-.73-.51-.73-.51Z"/><path class="cls-12" d="M97.5,92.9c-.29-.01-1.04-.26-.92,.04s-.24,.66,.16,.68c.4,.02,.76-.72,.76-.72Z"/></g></g><g><g><path class="cls-16" d="M43.9,103.96c-.35,.17-1.88,.91-1.1,.05,.78-.86,.95-.85,1.07-.85,.11,0,.04,.8,.04,.8Z"/><path class="cls-16" d="M42.43,101.49c-.29-.62-.79-1.39-.52-.64,.27,.75,.17,.83,.17,.83l.35-.19Z"/><path class="cls-16" d="M38.71,104.01c-.71-.49-1.58-.33-1.19-.54,.39-.21,1.13-.65,1.14-.51,0,.13,.22,.66,.03,.67s.02,.39,.02,.39Z"/><path class="cls-16" d="M35.41,103.76c.53-.27,1.27-.34,1.1-.73-.17-.38-.23-1.04-.49-.75-.26,.29-.25,.45-.24,.62,0,.17,.09,.36-.1,.37-.19,0-.27,.49-.27,.49Z"/><path class="cls-16" d="M38.71,100.43c.14-.33-.51-.96-.6-.87-.08,.09-.14,.21,.12,.44,.26,.23,.48,.43,.48,.43Z"/><path class="cls-16" d="M34.4,101.14c-.12-.41,.54-.81-.04-.78-.58,.03-1.05,.07-.77,.32,.28,.25-.04,.25,.41,.4,.45,.15,.4,.06,.4,.06Z"/><path class="cls-16" d="M33,102.86c-.3,.01-.52-.19-.45-.13,.07,.06,.1,.01,.11,.3,.01,.29,.43-.17,.34-.17Z"/><path class="cls-16" d="M30.59,103.46c-.01-.27,.35-.59,.27-.66-.07-.07-.25-.53-.42,.02-.16,.55-.47,.17-.45,.66,.02,.5-.23,.7,.03,.61,.26-.09,.56-.64,.56-.64Z"/><path class="cls-16" d="M30.99,100.63c.13-.14-.02-.46-.02-.46,0,0-.77-.07-.37,.2l.39,.26Z"/><path class="cls-16" d="M30.65,101.66c0-.11-.36-.15-.36-.23s0-.15,.17-.16c.18,0,.19,.39,.19,.39Z"/><path class="cls-16" d="M28.03,99.82c-.74,.04-1.69,.08-1.46,.29,.23,.21,.44,.54,.73,.22,.29-.32,.73-.51,.73-.51Z"/><path class="cls-16" d="M27.78,102.61c.29-.01,1.04-.26,.92,.04-.12,.3,.24,.66-.16,.68s-.76-.72-.76-.72Z"/></g><g><path class="cls-12" d="M43.86,103.62c-.35,.17-1.88,.91-1.1,.05s.95-.85,1.07-.85c.11,0,.04,.8,.04,.8Z"/><path class="cls-12" d="M42.39,101.15c-.29-.62-.79-1.39-.52-.64,.27,.75,.17,.83,.17,.83l.35-.19Z"/><path class="cls-12" d="M38.67,103.67c-.71-.49-1.58-.33-1.19-.54,.39-.21,1.13-.65,1.14-.51,0,.13,.22,.66,.03,.67s.02,.39,.02,.39Z"/><path class="cls-12" d="M35.37,103.42c.53-.27,1.27-.34,1.1-.73-.17-.38-.23-1.04-.49-.75-.26,.29-.25,.45-.24,.62,0,.17,.09,.36-.1,.37s-.27,.49-.27,.49Z"/><path class="cls-12" d="M38.67,100.09c.14-.33-.51-.96-.6-.87s-.14,.21,.12,.44c.26,.23,.48,.43,.48,.43Z"/><path class="cls-12" d="M34.36,100.79c-.12-.41,.54-.81-.04-.78-.58,.03-1.05,.07-.77,.32,.28,.25-.04,.25,.41,.4,.45,.15,.4,.06,.4,.06Z"/><path class="cls-12" d="M32.96,102.52c-.3,.01-.52-.19-.45-.13s.1,.01,.11,.3c.01,.29,.43-.17,.34-.17Z"/><path class="cls-12" d="M30.55,103.12c-.01-.27,.35-.59,.27-.66-.07-.07-.25-.53-.42,.02-.16,.55-.47,.17-.45,.66,.02,.5-.23,.7,.03,.61s.56-.64,.56-.64Z"/><path class="cls-12" d="M30.95,100.29c.13-.14-.02-.46-.02-.46,0,0-.77-.07-.37,.2l.39,.26Z"/><path class="cls-12" d="M30.61,101.32c0-.11-.36-.15-.36-.23,0-.08,0-.15,.17-.16,.18,0,.19,.39,.19,.39Z"/><path class="cls-12" d="M27.99,99.48c-.74,.04-1.69,.08-1.46,.29s.44,.54,.73,.22,.73-.51,.73-.51Z"/><path class="cls-12" d="M27.74,102.27c.29-.01,1.04-.26,.92,.04s.24,.66-.16,.68c-.4,.02-.76-.72-.76-.72Z"/></g></g><g><g><path class="cls-16" d="M66.03,100.15c-.36-.16-1.92-.84-1.11-.01,.81,.83,.98,.81,1.1,.81s0-.8,0-.8Z"/><path class="cls-16" d="M64.67,102.67c-.27,.63-.73,1.42-.5,.66s.14-.84,.14-.84l.35,.18Z"/><path class="cls-16" d="M60.85,100.3c-.69,.52-1.57,.39-1.17,.59,.4,.19,1.16,.6,1.16,.47,0-.13,.2-.67,0-.67-.19,0,0-.39,0-.39Z"/><path class="cls-16" d="M57.56,100.67c.54,.25,1.28,.3,1.12,.69-.16,.39-.19,1.05-.47,.77-.27-.28-.26-.44-.26-.61s.08-.36-.11-.36c-.19,0-.29-.48-.29-.48Z"/><path class="cls-16" d="M60.98,103.87c.15,.33-.48,.98-.56,.89-.08-.09-.15-.2,.1-.44,.25-.24,.46-.45,.46-.45Z"/><path class="cls-16" d="M56.65,103.33c-.11,.42,.57,.79,0,.78-.58,0-1.05-.03-.78-.29,.27-.26-.05-.25,.4-.42,.45-.17,.39-.07,.39-.07Z"/><path class="cls-16" d="M55.19,101.66c-.31,0-.51,.21-.44,.15,.07-.07,.1-.02,.1-.3,0-.29,.44,.16,.34,.16Z"/><path class="cls-16" d="M52.75,101.15c0,.27,.37,.58,.3,.65-.07,.07-.23,.54-.42,0s-.48-.15-.47-.65-.26-.69,0-.61c.27,.08,.58,.62,.58,.62Z"/><path class="cls-16" d="M53.26,103.96c.13,.13,0,.46,0,.46,0,0-.76,.09-.38-.18l.38-.28Z"/><path class="cls-16" d="M52.89,102.95c0,.11-.35,.17-.35,.24,0,.08,0,.15,.17,.15,.18,0,.18-.4,.18-.4Z"/><path class="cls-16" d="M50.33,104.88c-.74,0-1.69-.02-1.47-.24,.23-.22,.41-.56,.72-.25,.31,.31,.75,.49,.75,.49Z"/><path class="cls-16" d="M49.98,102.11c.29,0,1.05,.22,.92-.07-.13-.29,.22-.67-.18-.68-.4,0-.73,.75-.73,.75Z"/></g><g><path class="cls-12" d="M66.04,99.81c-.36-.16-1.92-.84-1.11-.01,.81,.83,.98,.81,1.1,.81,.11,0,0-.8,0-.8Z"/><path class="cls-12" d="M64.67,102.33c-.27,.63-.73,1.42-.5,.66,.24-.76,.14-.84,.14-.84l.35,.18Z"/><path class="cls-12" d="M60.85,99.96c-.69,.52-1.57,.39-1.17,.59,.4,.19,1.16,.6,1.16,.47,0-.13,.2-.67,0-.67-.19,0,0-.39,0-.39Z"/><path class="cls-12" d="M57.56,100.33c.54,.25,1.28,.3,1.12,.69s-.19,1.05-.47,.77c-.27-.28-.26-.44-.26-.61,0-.17,.08-.36-.11-.36-.19,0-.29-.48-.29-.48Z"/><path class="cls-12" d="M60.98,103.53c.15,.33-.48,.98-.56,.89-.08-.09-.15-.2,.1-.44s.46-.45,.46-.45Z"/><path class="cls-12" d="M56.65,102.99c-.11,.42,.57,.79,0,.78-.58,0-1.05-.03-.78-.29,.27-.26-.05-.25,.4-.42,.45-.17,.39-.07,.39-.07Z"/><path class="cls-12" d="M55.19,101.32c-.31,0-.51,.21-.44,.15,.07-.07,.1-.02,.1-.3s.44,.16,.34,.16Z"/><path class="cls-12" d="M52.76,100.81c0,.27,.37,.58,.3,.64s-.23,.54-.42,0c-.18-.55-.48-.15-.47-.65s-.26-.69,0-.61,.58,.62,.58,.62Z"/><path class="cls-12" d="M53.26,103.62c.13,.13,0,.46,0,.46,0,0-.76,.09-.38-.18l.38-.28Z"/><path class="cls-12" d="M52.89,102.61c0,.11-.35,.17-.35,.24,0,.08,0,.15,.17,.15,.18,0,.18-.4,.18-.4Z"/><path class="cls-12" d="M50.33,104.54c-.74,0-1.69-.02-1.47-.24,.23-.22,.41-.56,.72-.25,.31,.31,.75,.49,.75,.49Z"/><path class="cls-12" d="M49.98,101.76c.29,0,1.05,.22,.92-.07-.13-.29,.22-.67-.18-.68-.4,0-.73,.75-.73,.75Z"/></g></g></g><g><g><path class="cls-13" d="M57.15,108.13l-.07,7.33c0,.32-.21,.59-.5,.68-.07,.02-.15,.03-.22,.03l-19.29-.19s-.05,0-.07,0c-.36-.04-.64-.35-.64-.72l.07-7.33c0-.14,.04-.26,.11-.37,.13-.21,.36-.35,.62-.34l19.29,.19c.22,0,.41,.1,.54,.26,0,0,0,0,0,0,.11,.13,.17,.29,.17,.47Z"/><path class="cls-16" d="M57.15,108.13v.39s-.9,.21-.9,.21c0,0-.51-.4-.76-.4s-1.51,.36-2.05,.35c-.54,0-1.79,.11-2.4-.24-.6-.35-1.77-.17-1.88-.29-.12-.12-1.15,.26-1.54,.26l-3.33-.03c-.29,0-1.53-.15-1.73-.15s-2.14,.11-2.69,.11c-.54,0-1.02-.28-1.24-.29-.22,0-1.09-.03-1.6,.19-.25,.11-.44,.07-.61-.03v-.28c0-.4,.33-.72,.73-.71l19.29,.19c.4,0,.72,.33,.71,.73Z"/><path class="cls-14" d="M36.99,115.98c-.36-.04-.64-.35-.64-.72l.07-7.33c0-.14,.04-.26,.11-.37,.12,.19,.24,.34,.32,.42,.13,.13,.19,.07,.19,.41,0,.34,.03,5.01-.06,5.84-.05,.5-.01,1.22,.01,1.74Z"/><path class="cls-14" d="M57.15,108.13l-.07,7.33c0,.32-.21,.59-.5,.68-.13-1.2-.29-2.75-.28-3.08l.04-3.82c0-.41,.01-.87,.31-1.16,.1-.1,.22-.25,.34-.41,.11,.13,.17,.29,.17,.47Z"/><path class="cls-12" d="M57.08,114.71v.75c-.01,.4-.34,.72-.73,.71l-19.29-.19c-.4,0-.72-.33-.71-.73v-.35s1.44,.45,1.44,.45c0,0,.2-.45,.87-.28,.67,.17,1.47,.3,1.82,.31s3.37,.15,3.49,.03c.11-.11,1.95,.21,2.3,.21l2.94,.03c.48,0,2.72-.36,3.23-.35l1.98,.02c.42,0,1.86-.62,2.66-.61Z"/></g><g><path class="cls-13" d="M78.53,107.66l.26,7.32c.01,.32-.19,.6-.47,.7-.07,.03-.14,.04-.22,.04l-19.28,.7s-.05,0-.07,0c-.36-.02-.66-.32-.67-.69l-.26-7.32c0-.13,.03-.26,.09-.37,.12-.21,.34-.36,.61-.37l19.28-.7c.22,0,.42,.08,.55,.23,0,0,0,0,0,0,.11,.12,.18,.28,.19,.46Z"/><path class="cls-7" d="M78.53,107.66v.39s-.87,.25-.87,.25c0,0-.53-.38-.78-.37s-1.49,.43-2.03,.45c-.54,.02-1.79,.19-2.41-.13s-1.77-.09-1.9-.21c-.12-.11-1.14,.32-1.52,.33l-3.32,.12c-.29,.01-1.54-.08-1.73-.07-.19,0-2.14,.21-2.68,.23-.54,.02-1.03-.24-1.26-.23-.22,0-1.09,.02-1.59,.26-.24,.12-.44,.09-.61,0v-.28c-.02-.4,.29-.73,.68-.75l19.28-.7c.4-.01,.73,.3,.75,.69Z"/><path class="cls-14" d="M58.75,116.42c-.36-.02-.66-.32-.67-.69l-.26-7.32c0-.13,.03-.26,.09-.37,.13,.19,.25,.32,.34,.41,.13,.12,.19,.06,.21,.4,.01,.34,.26,5,.21,5.84-.03,.5,.04,1.22,.09,1.74Z"/><path class="cls-14" d="M78.53,107.66l.26,7.32c.01,.32-.19,.6-.47,.7-.18-1.19-.41-2.74-.42-3.07l-.14-3.81c-.01-.41-.03-.87,.26-1.18,.09-.1,.21-.26,.32-.43,.11,.12,.18,.28,.19,.46Z"/><path class="cls-12" d="M78.77,114.23l.03,.75c.01,.4-.3,.73-.69,.75l-19.28,.7c-.4,.01-.73-.3-.75-.69v-.35s1.44,.38,1.44,.38c0,0,.18-.45,.85-.32,.68,.14,1.48,.23,1.83,.22,.35-.01,3.38,0,3.48-.13,.11-.12,1.96,.12,2.31,.11l2.94-.11c.48-.02,2.7-.48,3.22-.5l1.98-.07c.42-.02,1.83-.71,2.63-.74Z"/></g><g><path class="cls-13" d="M100.2,107.94l.07,7.33c0,.32-.2,.59-.49,.69-.07,.02-.14,.04-.22,.04l-19.29,.17s-.05,0-.07,0c-.36-.03-.65-.34-.65-.71l-.07-7.33c0-.14,.03-.26,.1-.37,.12-.21,.35-.35,.61-.36l19.29-.17c.22,0,.41,.09,.55,.25,0,0,0,0,0,0,.11,.12,.18,.29,.18,.47Z"/><path class="cls-16" d="M100.2,107.94v.39s-.89,.23-.89,.23c0,0-.52-.39-.77-.39-.26,0-1.5,.39-2.04,.39s-1.79,.14-2.4-.2-1.77-.14-1.89-.26c-.12-.12-1.15,.28-1.53,.29l-3.33,.03c-.29,0-1.54-.12-1.73-.12s-2.14,.15-2.69,.16-1.03-.26-1.25-.26c-.22,0-1.09,0-1.6,.22-.25,.11-.44,.08-.61-.01v-.28c0-.4,.31-.72,.71-.73l19.29-.17c.4,0,.72,.32,.73,.71Z"/><path class="cls-14" d="M80.19,116.16c-.36-.03-.65-.34-.65-.71l-.07-7.33c0-.14,.03-.26,.1-.37,.12,.19,.24,.33,.33,.41,.13,.13,.19,.06,.2,.4,0,.34,.12,5,.05,5.84-.04,.5,.01,1.22,.05,1.74Z"/><path class="cls-14" d="M100.2,107.94l.07,7.33c0,.32-.2,.59-.49,.69-.15-1.2-.34-2.75-.34-3.08l-.03-3.82c0-.41,0-.87,.29-1.17,.1-.1,.21-.25,.33-.42,.11,.12,.18,.29,.18,.47Z"/><path class="cls-12" d="M100.26,114.51v.75c.01,.4-.31,.72-.71,.73l-19.29,.17c-.4,0-.72-.32-.73-.71v-.35s1.44,.42,1.44,.42c0,0,.19-.45,.86-.3,.67,.15,1.47,.27,1.83,.27,.35,0,3.38,.08,3.49-.03,.11-.11,1.95,.17,2.3,.17l2.94-.03c.48,0,2.72-.41,3.23-.41l1.98-.02c.42,0,1.85-.66,2.65-.66Z"/></g><g><g><path class="cls-16" d="M38.51,110.04c.36-.16,1.92-.84,1.11-.01-.81,.83-.98,.81-1.1,.81-.11,0,0-.8,0-.8Z"/><path class="cls-16" d="M39.88,112.56c.27,.63,.73,1.42,.5,.66s-.14-.84-.14-.84l-.35,.18Z"/><path class="cls-16" d="M43.7,110.18c.69,.52,1.57,.39,1.17,.59-.4,.19-1.16,.6-1.16,.47,0-.13-.2-.67,0-.67,.19,0,0-.39,0-.39Z"/><path class="cls-16" d="M46.99,110.56c-.54,.25-1.28,.3-1.12,.69s.19,1.05,.47,.77,.26-.44,.26-.61-.08-.36,.11-.36c.19,0,.29-.48,.29-.48Z"/><path class="cls-16" d="M43.57,113.76c-.15,.33,.48,.98,.56,.89,.08-.09,.15-.2-.1-.44-.25-.24-.46-.45-.46-.45Z"/><path class="cls-16" d="M47.9,113.22c.11,.42-.57,.79,0,.78,.58,0,1.05-.03,.78-.29-.27-.26,.05-.25-.4-.42-.45-.17-.39-.07-.39-.07Z"/><path class="cls-16" d="M49.36,111.54c.31,0,.51,.21,.44,.15-.07-.07-.1-.02-.1-.3,0-.29-.44,.16-.34,.16Z"/><path class="cls-16" d="M51.79,111.04c0,.27-.37,.58-.3,.64,.07,.07,.23,.54,.42,0s.48-.15,.47-.65,.26-.69,0-.61-.58,.62-.58,.62Z"/><path class="cls-16" d="M51.29,113.85c-.13,.13,0,.46,0,.46,0,0,.76,.09,.38-.18l-.38-.28Z"/><path class="cls-16" d="M51.66,112.84c0,.11,.35,.17,.35,.24,0,.08,0,.15-.17,.15-.18,0-.18-.4-.18-.4Z"/><path class="cls-16" d="M54.22,114.77c.74,0,1.69-.02,1.47-.24-.23-.22-.41-.56-.72-.25s-.75,.49-.75,.49Z"/><path class="cls-16" d="M54.57,111.99c-.29,0-1.05,.22-.92-.07,.13-.29-.22-.67,.18-.68s.73,.75,.73,.75Z"/></g><g><path class="cls-12" d="M38.51,109.7c.36-.16,1.92-.84,1.11-.01-.81,.83-.98,.81-1.1,.81s0-.8,0-.8Z"/><path class="cls-12" d="M39.88,112.22c.27,.63,.73,1.42,.5,.66s-.14-.84-.14-.84l-.35,.18Z"/><path class="cls-12" d="M43.7,109.84c.69,.52,1.57,.39,1.17,.59-.4,.19-1.16,.6-1.16,.47,0-.13-.2-.67,0-.67,.19,0,0-.39,0-.39Z"/><path class="cls-12" d="M46.99,110.22c-.54,.25-1.28,.3-1.12,.69,.16,.39,.19,1.05,.47,.77,.27-.28,.26-.44,.26-.61,0-.17-.08-.36,.11-.36,.19,0,.29-.48,.29-.48Z"/><path class="cls-12" d="M43.56,113.42c-.15,.33,.48,.98,.56,.89,.08-.09,.15-.2-.1-.44-.25-.24-.46-.45-.46-.45Z"/><path class="cls-12" d="M47.9,112.88c.11,.42-.57,.79,0,.78,.58,0,1.05-.03,.78-.29-.27-.26,.05-.25-.4-.42-.45-.17-.39-.07-.39-.07Z"/><path class="cls-12" d="M49.36,111.2c.31,0,.51,.21,.44,.15-.07-.07-.1-.02-.1-.3,0-.29-.44,.16-.34,.16Z"/><path class="cls-12" d="M51.79,110.7c0,.27-.37,.58-.3,.65,.07,.07,.23,.54,.42,0,.18-.55,.48-.15,.47-.65s.26-.69,0-.61-.58,.62-.58,.62Z"/><path class="cls-12" d="M51.29,113.51c-.13,.13,0,.46,0,.46,0,0,.76,.09,.38-.18l-.38-.28Z"/><path class="cls-12" d="M51.66,112.5c0,.11,.35,.17,.35,.24,0,.08,0,.15-.17,.15-.18,0-.18-.4-.18-.4Z"/><path class="cls-12" d="M54.21,114.43c.74,0,1.69-.02,1.47-.24-.23-.22-.41-.56-.72-.25-.31,.31-.75,.49-.75,.49Z"/><path class="cls-12" d="M54.57,111.65c-.29,0-1.05,.22-.92-.07,.13-.29-.22-.67,.18-.68,.4,0,.73,.75,.73,.75Z"/></g></g><g><g><path class="cls-16" d="M76.88,109.74c-.36-.16-1.92-.84-1.11-.01,.81,.83,.98,.81,1.1,.81,.11,0,0-.8,0-.8Z"/><path class="cls-16" d="M75.52,112.27c-.27,.63-.73,1.42-.5,.66s.14-.84,.14-.84l.35,.18Z"/><path class="cls-16" d="M71.7,109.89c-.69,.52-1.57,.39-1.17,.59,.4,.19,1.16,.6,1.16,.47,0-.13,.2-.67,0-.67-.19,0,0-.39,0-.39Z"/><path class="cls-16" d="M68.41,110.26c.54,.25,1.28,.3,1.12,.69s-.19,1.05-.47,.77c-.27-.28-.26-.44-.26-.61,0-.17,.08-.36-.11-.36-.19,0-.29-.48-.29-.48Z"/><path class="cls-16" d="M71.83,113.47c.15,.33-.48,.98-.56,.89-.08-.09-.15-.2,.1-.44s.46-.45,.46-.45Z"/><path class="cls-16" d="M67.5,112.92c-.11,.42,.57,.79,0,.78-.58,0-1.05-.03-.78-.29,.27-.26-.05-.25,.4-.42,.45-.17,.39-.07,.39-.07Z"/><path class="cls-16" d="M66.04,111.25c-.3,0-.51,.21-.44,.15,.07-.07,.1-.02,.1-.3s.44,.16,.34,.16Z"/><path class="cls-16" d="M63.6,110.75c0,.27,.37,.58,.3,.64s-.23,.54-.42,0c-.18-.55-.48-.15-.47-.65,0-.5-.26-.69,0-.61s.58,.62,.58,.62Z"/><path class="cls-16" d="M64.11,113.55c.13,.13,0,.46,0,.46,0,0-.76,.09-.38-.18l.38-.28Z"/><path class="cls-16" d="M63.74,112.54c0,.11-.35,.17-.35,.24,0,.08,0,.15,.17,.15,.18,0,.18-.4,.18-.4Z"/><path class="cls-16" d="M61.18,114.48c-.74,0-1.69-.02-1.47-.24,.23-.22,.41-.56,.72-.25,.31,.31,.75,.49,.75,.49Z"/><path class="cls-16" d="M60.83,111.7c.29,0,1.05,.22,.92-.07-.13-.29,.22-.67-.18-.68-.4,0-.73,.75-.73,.75Z"/></g><g><path class="cls-12" d="M76.89,109.4c-.36-.16-1.92-.84-1.11-.01,.81,.83,.98,.81,1.1,.81,.11,0,0-.8,0-.8Z"/><path class="cls-12" d="M75.52,111.92c-.27,.63-.73,1.42-.5,.66,.24-.76,.14-.84,.14-.84l.35,.18Z"/><path class="cls-12" d="M71.7,109.55c-.69,.52-1.57,.39-1.17,.59,.4,.19,1.16,.6,1.16,.47,0-.13,.2-.67,0-.67-.19,0,0-.39,0-.39Z"/><path class="cls-12" d="M68.41,109.92c.54,.25,1.28,.3,1.12,.69s-.19,1.05-.47,.77-.26-.44-.26-.61c0-.17,.08-.36-.11-.36-.19,0-.29-.48-.29-.48Z"/><path class="cls-12" d="M71.83,113.12c.15,.33-.48,.98-.56,.89-.08-.09-.15-.2,.1-.44,.25-.24,.46-.45,.46-.45Z"/><path class="cls-12" d="M67.5,112.58c-.11,.42,.57,.79,0,.78-.58,0-1.05-.03-.78-.29,.27-.26-.05-.25,.4-.42,.45-.17,.39-.07,.39-.07Z"/><path class="cls-12" d="M66.04,110.91c-.3,0-.51,.21-.44,.15,.07-.07,.1-.02,.1-.3,0-.29,.44,.16,.34,.16Z"/><path class="cls-12" d="M63.61,110.41c0,.27,.37,.58,.3,.64-.07,.07-.23,.54-.42,0-.18-.55-.48-.15-.47-.65,0-.5-.26-.69,0-.61s.58,.62,.58,.62Z"/><path class="cls-12" d="M64.11,113.21c.13,.13,0,.46,0,.46,0,0-.76,.09-.38-.18l.38-.28Z"/><path class="cls-12" d="M63.74,112.2c0,.11-.35,.17-.35,.24,0,.08,0,.15,.17,.15,.18,0,.18-.4,.18-.4Z"/><path class="cls-12" d="M61.18,114.14c-.74,0-1.69-.02-1.47-.24,.23-.22,.41-.56,.72-.25,.31,.31,.75,.49,.75,.49Z"/><path class="cls-12" d="M60.83,111.36c.29,0,1.05,.22,.92-.07s.22-.67-.18-.68c-.4,0-.73,.75-.73,.75Z"/></g></g><g><g><path class="cls-16" d="M81.35,113.59c.35,.17,1.88,.91,1.1,.05-.78-.86-.95-.85-1.07-.85-.11,0-.04,.8-.04,.8Z"/><path class="cls-16" d="M82.81,111.12c.29-.62,.79-1.39,.52-.64s-.17,.83-.17,.83l-.35-.19Z"/><path class="cls-16" d="M86.53,113.64c.71-.49,1.58-.33,1.19-.54-.39-.21-1.13-.65-1.14-.51,0,.13-.22,.66-.03,.67s-.02,.39-.02,.39Z"/><path class="cls-16" d="M89.83,113.39c-.53-.27-1.27-.34-1.1-.73,.17-.38,.23-1.04,.49-.75,.26,.29,.25,.45,.24,.62,0,.17-.09,.36,.1,.37,.19,0,.27,.49,.27,.49Z"/><path class="cls-16" d="M86.54,110.06c-.14-.33,.51-.96,.6-.87,.08,.09,.14,.21-.12,.44-.26,.23-.48,.43-.48,.43Z"/><path class="cls-16" d="M90.85,110.77c.12-.41-.54-.81,.04-.78,.58,.03,1.05,.07,.77,.32-.28,.25,.04,.25-.41,.4-.45,.15-.4,.06-.4,.06Z"/><path class="cls-16" d="M92.24,112.49c.3,.01,.52-.19,.45-.13-.07,.06-.1,.01-.11,.3-.01,.29-.43-.17-.34-.17Z"/><path class="cls-16" d="M94.65,113.09c.01-.27-.35-.59-.27-.66,.07-.07,.25-.53,.42,.02s.47,.17,.45,.66c-.02,.5,.23,.7-.03,.61s-.56-.64-.56-.64Z"/><path class="cls-16" d="M94.26,110.26c-.13-.14,.02-.46,.02-.46,0,0,.77-.07,.37,.2l-.39,.26Z"/><path class="cls-16" d="M94.59,111.29c0-.11,.36-.15,.36-.23,0-.08,0-.15-.17-.16-.18,0-.19,.39-.19,.39Z"/><path class="cls-16" d="M97.21,109.45c.74,.04,1.69,.08,1.46,.29s-.44,.54-.73,.22c-.29-.32-.73-.51-.73-.51Z"/><path class="cls-16" d="M97.46,112.24c-.29-.01-1.04-.26-.92,.04,.12,.3-.24,.66,.16,.68s.76-.72,.76-.72Z"/></g><g><path class="cls-12" d="M81.39,113.25c.35,.17,1.88,.91,1.1,.05s-.95-.85-1.07-.85c-.11,0-.04,.8-.04,.8Z"/><path class="cls-12" d="M82.85,110.78c.29-.62,.79-1.39,.52-.64s-.17,.83-.17,.83l-.35-.19Z"/><path class="cls-12" d="M86.57,113.3c.71-.49,1.58-.33,1.19-.54-.39-.21-1.13-.65-1.14-.51,0,.13-.22,.66-.03,.67s-.02,.39-.02,.39Z"/><path class="cls-12" d="M89.87,113.05c-.53-.27-1.27-.34-1.1-.73,.17-.38,.23-1.04,.49-.75,.26,.29,.25,.45,.24,.62s-.09,.36,.1,.37,.27,.49,.27,.49Z"/><path class="cls-12" d="M86.58,109.72c-.14-.33,.51-.96,.6-.87,.08,.09,.14,.21-.12,.44-.26,.23-.48,.43-.48,.43Z"/><path class="cls-12" d="M90.89,110.42c.12-.41-.54-.81,.04-.78,.58,.03,1.05,.07,.77,.32-.28,.25,.04,.25-.41,.4s-.4,.06-.4,.06Z"/><path class="cls-12" d="M92.28,112.15c.3,.01,.52-.19,.45-.13s-.1,.01-.11,.3c-.01,.29-.43-.17-.34-.17Z"/><path class="cls-12" d="M94.69,112.74c.01-.27-.35-.59-.27-.66,.07-.07,.25-.53,.42,.02,.16,.55,.47,.17,.45,.66-.02,.5,.23,.7-.03,.61-.26-.09-.56-.64-.56-.64Z"/><path class="cls-12" d="M94.3,109.92c-.13-.14,.02-.46,.02-.46,0,0,.77-.07,.37,.2l-.39,.26Z"/><path class="cls-12" d="M94.63,110.94c0-.11,.36-.15,.36-.23,0-.08,0-.15-.17-.16-.18,0-.19,.39-.19,.39Z"/><path class="cls-12" d="M97.25,109.11c.74,.04,1.69,.08,1.46,.29-.23,.21-.44,.54-.73,.22s-.73-.51-.73-.51Z"/><path class="cls-12" d="M97.5,111.9c-.29-.01-1.04-.26-.92,.04s-.24,.66,.16,.68c.4,.02,.76-.72,.76-.72Z"/></g></g></g></g></g><path class="cls-26" d="M40.12,90.61s0-.02,0-.03c-.92-4.68-7.66-7.74-14-7.74s-13.09,3.05-14,7.74c0,0,0,.02,0,.03-.07,.35-.11,.7-.11,1.06,0,2.92,2.37,5.29,5.29,5.29,1.84,0,3.46-.94,4.41-2.37,.95,1.43,2.57,2.37,4.41,2.37s3.46-.94,4.41-2.37c.95,1.43,2.57,2.37,4.41,2.37,2.92,0,5.29-2.37,5.29-5.29,0-.36-.04-.72-.11-1.06Z"/><path class="cls-11" d="M40.12,88.73s0-.02,0-.03c-.92-4.68-7.66-7.74-14-7.74s-13.09,3.05-14,7.74c0,0,0,.02,0,.03-.07,.35-.11,.7-.11,1.06,0,2.92,2.37,5.29,5.29,5.29,1.84,0,3.46-.94,4.41-2.37,.95,1.43,2.57,2.37,4.41,2.37s3.46-.94,4.41-2.37c.95,1.43,2.57,2.37,4.41,2.37,2.92,0,5.29-2.37,5.29-5.29,0-.36-.04-.72-.11-1.06Z"/><path class="cls-26" d="M105.12,90.61s0-.02,0-.03c-.92-4.68-7.66-7.74-14-7.74s-13.09,3.05-14,7.74c0,0,0,.02,0,.03-.07,.35-.11,.7-.11,1.06,0,2.92,2.37,5.29,5.29,5.29,1.84,0,3.46-.94,4.41-2.37,.95,1.43,2.57,2.37,4.41,2.37s3.46-.94,4.41-2.37c.95,1.43,2.57,2.37,4.41,2.37,2.92,0,5.29-2.37,5.29-5.29,0-.36-.04-.72-.11-1.06Z"/><path class="cls-11" d="M105.12,88.73s0-.02,0-.03c-.92-4.68-7.66-7.74-14-7.74s-13.09,3.05-14,7.74c0,0,0,.02,0,.03-.07,.35-.11,.7-.11,1.06,0,2.92,2.37,5.29,5.29,5.29,1.84,0,3.46-.94,4.41-2.37,.95,1.43,2.57,2.37,4.41,2.37s3.46-.94,4.41-2.37c.95,1.43,2.57,2.37,4.41,2.37,2.92,0,5.29-2.37,5.29-5.29,0-.36-.04-.72-.11-1.06Z"/><path class="cls-1" d="M60,112c26.64,0,48.3-16.51,48.3-36.8v-21.24H11.7v21.24c0,20.29,21.67,36.8,48.3,36.8Z"/><path class="cls-8" d="M108.3,75.2c0,20.29-21.67,36.8-48.3,36.8S11.7,95.49,11.7,75.2v-21.24H5.7v21.24c0,23.64,24.31,42.8,54.3,42.8s54.3-19.16,54.3-42.8v-21.24h-6v21.24Z"/></svg>