<?xml version="1.0" encoding="UTF-8"?><svg id="_레이어_1" xmlns="http://www.w3.org/2000/svg" xmlns:xlink="http://www.w3.org/1999/xlink" viewBox="0 0 120 120"><defs><style>.cls-1{fill:none;}.cls-2{fill:url(#linear-gradient);}.cls-3{fill:#f6964f;}.cls-4{fill:#e6e6cd;}.cls-5{fill:#f4fbff;}.cls-6{fill:#fff;}.cls-7{fill:#999;}.cls-8{fill:#960;}.cls-9{fill:#913a19;}.cls-10{fill:#d07416;}.cls-11{fill:#cee7ff;}.cls-12{fill:#cc9;}.cls-13{fill:#dbdbb7;}.cls-14{fill:#dc8731;}.cls-15{fill:#e18d20;}.cls-16{fill:#42a5f5;}.cls-17{fill:#976334;}.cls-18{fill:#9cf;}.cls-19{fill:#754e00;}.cls-20{fill:#503500;}.cls-21{fill:#4f2f19;}</style><clipPath id="clippath"><circle class="cls-1" cx="-80" cy="-80" r="58.5"/></clipPath><linearGradient id="linear-gradient" x1="60.41" y1="90.66" x2="60.41" y2="-2.52" gradientUnits="userSpaceOnUse"><stop offset="0" stop-color="#fff"/><stop offset=".33" stop-color="#c9ebff"/><stop offset=".36" stop-color="#c3e9ff"/><stop offset=".53" stop-color="#a7dfff"/><stop offset=".87" stop-color="#6ecbff"/><stop offset="1" stop-color="#59c3ff"/></linearGradient></defs><path class="cls-2" d="M107,22.94c0-2.62-2.12-4.74-4.74-4.74h-8.51c-4.85-8.85-17.94-15.2-33.33-15.2s-28.48,6.35-33.33,15.2h-8.51c-2.62,0-4.74,2.12-4.74,4.74v61.67c0,17.34,20.86,31.39,46.59,31.39s46.59-14.05,46.59-31.39V22.94Z"/><path class="cls-16" d="M15.21,83v2.89c0,16.63,20.01,30.11,44.69,30.11s44.69-13.48,44.69-30.11v-2.89H15.21Z"/><path class="cls-6" d="M103.56,17h-8.86C89.65,7.79,76.02,1.18,60,1.18S30.35,7.79,25.3,17h-8.86c-2.73,0-4.94,2.21-4.94,4.94v63.06h6V23h11.35l1.71-3.12c4.1-7.48,16.21-12.71,29.44-12.71s25.34,5.23,29.44,12.71l1.71,3.12h11.35v62h6V21.94c0-2.73-2.21-4.94-4.94-4.94Z"/><path class="cls-5" d="M104.31,42.28c.08-.34,.13-.68,.13-1.04,0-2.63-2.19-4.77-4.89-4.77-1.45,0-2.74,.63-3.63,1.6-.61-.31-1.29-.51-2.02-.51-2.16,0-3.94,1.55-4.26,3.58-1.36,.02-2.45,1.1-2.45,2.43s1.12,2.43,2.5,2.43h14.09c1.08,0,1.95-.85,1.95-1.9,0-.87-.6-1.59-1.41-1.82Z"/><g><g><polygon class="cls-7" points="102.79 79.1 77.52 51.93 78.02 51.46 100.81 75.98 77.23 16.99 77.86 16.74 102.79 79.1"/><path class="cls-15" d="M77.07,12h.49c.39,0,.71,.32,.71,.71V77.37h-1.9V12.71c0-.39,.32-.71,.71-.71Z"/><rect class="cls-8" x="76.37" y="69.66" width="1.9" height="7.71"/><polygon class="cls-13" points="76.37 17.33 40.04 64.21 76.37 64.21 76.37 17.33"/><polygon class="cls-12" points="72.93 21.76 72.93 64.21 76.37 64.21 76.37 17.33 72.93 21.76"/><g><polygon class="cls-6" points="46.75 55.55 76.37 55.55 76.37 53.69 48.19 53.69 46.75 55.55"/><polygon class="cls-6" points="53.11 47.35 76.37 47.35 76.37 45.49 54.54 45.49 53.11 47.35"/><polygon class="cls-6" points="59.46 39.15 76.37 39.15 76.37 37.3 60.9 37.3 59.46 39.15"/></g><path class="cls-4" d="M66.2,61.07h-12.6c-1,0-1.81-.81-1.81-1.81h0c0-1,.81-1.81,1.81-1.81h12.6c1,0,1.81,.81,1.81,1.81h0c0,1-.81,1.81-1.81,1.81Z"/><rect class="cls-4" x="56.97" y="48.79" width="11.04" height="3.61" rx="1.66" ry="1.66"/><path class="cls-4" d="M66.35,43.76h0c-1,0-1.81-.81-1.81-1.81h0c0-1,.81-1.81,1.81-1.81h0c1,0,1.81,.81,1.81,1.81h0c0,1-.81,1.81-1.81,1.81Z"/><path class="cls-3" d="M24,77.67l8.42,19.08h59.56l-.63-5.56c0-1.23,1.59-2.22,2.8-2.31,.06,0,.12,0,.18,0h0c5.74,0,10.38-4.65,10.38-10.38v-.82H24Z"/><path class="cls-10" d="M104.07,82.05c.41-1.11,.63-2.31,.63-3.56v-.82H24l1.93,4.38H104.07Z"/><g><path class="cls-6" d="M45.01,82.05c0,1.63-1.32,2.95-2.95,2.95s-2.95-1.32-2.95-2.95,1.32-2.95,2.95-2.95,2.95,1.32,2.95,2.95Z"/><path class="cls-6" d="M57.76,82.05c0,1.63-1.32,2.95-2.95,2.95s-2.95-1.32-2.95-2.95,1.32-2.95,2.95-2.95,2.95,1.32,2.95,2.95Z"/><path class="cls-6" d="M70.52,82.05c0,1.63-1.32,2.95-2.95,2.95s-2.95-1.32-2.95-2.95,1.32-2.95,2.95-2.95,2.95,1.32,2.95,2.95Z"/><path class="cls-6" d="M83.27,82.05c0,1.63-1.32,2.95-2.95,2.95s-2.95-1.32-2.95-2.95,1.32-2.95,2.95-2.95,2.95,1.32,2.95,2.95Z"/><path class="cls-6" d="M96.02,82.05c0,1.63-1.32,2.95-2.95,2.95s-2.95-1.32-2.95-2.95,1.32-2.95,2.95-2.95,2.95,1.32,2.95,2.95Z"/></g><g><path class="cls-17" d="M43.79,82.05c0,.95-.77,1.72-1.72,1.72s-1.72-.77-1.72-1.72,.77-1.72,1.72-1.72,1.72,.77,1.72,1.72Z"/><path class="cls-17" d="M56.54,82.05c0,.95-.77,1.72-1.72,1.72s-1.72-.77-1.72-1.72,.77-1.72,1.72-1.72,1.72,.77,1.72,1.72Z"/><path class="cls-17" d="M69.29,82.05c0,.95-.77,1.72-1.72,1.72s-1.72-.77-1.72-1.72,.77-1.72,1.72-1.72,1.72,.77,1.72,1.72Z"/><path class="cls-17" d="M82.04,82.05c0,.95-.77,1.72-1.72,1.72s-1.72-.77-1.72-1.72,.77-1.72,1.72-1.72,1.72,.77,1.72,1.72Z"/><path class="cls-17" d="M94.79,82.05c0,.95-.77,1.72-1.72,1.72s-1.72-.77-1.72-1.72,.77-1.72,1.72-1.72,1.72,.77,1.72,1.72Z"/></g><path class="cls-9" d="M30.42,88.91l.5,3.47,.27,.53h61v-1.71c0-1.15,.83-2.11,1.93-2.3H30.42Z"/><polygon class="cls-14" points="32.42 96.74 15.73 77.67 24 77.67 39.63 96.74 32.42 96.74"/><g><rect class="cls-9" x="22.17" y="72.93" width="12.96" height="4.73"/><polygon class="cls-21" points="32.64 77.67 24.67 77.67 24.71 74.89 32.68 74.89 32.64 77.67"/><rect class="cls-9" x="22.17" y="71.56" width="2.5" height="6.1"/><rect class="cls-9" x="32.64" y="71.56" width="2.5" height="6.1"/></g><path class="cls-10" d="M29.4,92.91h63.87c1.06,0,1.91,.86,1.91,1.91h0c0,1.06-.86,1.91-1.91,1.91H29.4c-1.06,0-1.91-.86-1.91-1.91h0c0-1.06,.86-1.91,1.91-1.91Z"/><g><path class="cls-15" d="M50.07,38h0c.32,0,.58,.26,.58,.58v39.49h-1.17V38.58c0-.32,.26-.58,.58-.58Z"/><rect class="cls-8" x="49.48" y="73.35" width="1.17" height="4.72"/><polygon class="cls-13" points="49.48 41.26 27.21 70 49.48 70 49.48 41.26"/><polygon class="cls-12" points="42.06 70 49.48 70 49.48 41.26 42.06 50.84 42.06 70"/></g><g><rect class="cls-15" x="58.12" y="69.02" width="29.62" height="8.83"/><rect class="cls-19" x="58.12" y="67.24" width="29.62" height="1.78"/><rect class="cls-9" x="58.12" y="65.64" width="29.62" height="1.6"/><rect class="cls-19" x="63.94" y="70.2" width="6.34" height="6.47"/><g><rect class="cls-19" x="75.81" y="70.2" width="6.34" height="6.47"/><rect class="cls-20" x="77.19" y="71.6" width="3.6" height="3.67"/><rect class="cls-20" x="65.32" y="71.6" width="3.6" height="3.67"/></g></g></g><g><path class="cls-18" d="M26.11,96.71c-1.53,0-2.77-1.24-2.77-2.77h-2.5c0,2.91,2.36,5.26,5.26,5.26s5.26-2.36,5.26-5.26h-2.5c0,1.53-1.24,2.77-2.77,2.77Z"/><path class="cls-18" d="M34.15,96.71c-1.53,0-2.77-1.24-2.77-2.77h-2.5c0,2.91,2.36,5.26,5.26,5.26s5.26-2.36,5.26-5.26h-2.5c0,1.53-1.24,2.77-2.77,2.77Z"/><path class="cls-18" d="M42.19,96.71c-1.53,0-2.77-1.24-2.77-2.77h-2.5c0,2.91,2.36,5.26,5.26,5.26s5.26-2.36,5.26-5.26h-2.5c0,1.53-1.24,2.77-2.77,2.77Z"/><path class="cls-18" d="M50.22,96.71c-1.53,0-2.77-1.24-2.77-2.77h-2.5c0,2.91,2.36,5.26,5.26,5.26s5.26-2.36,5.26-5.26h-2.5c0,1.53-1.24,2.77-2.77,2.77Z"/><path class="cls-18" d="M58.26,96.71c-1.53,0-2.77-1.24-2.77-2.77h-2.5c0,2.91,2.36,5.26,5.26,5.26s5.26-2.36,5.26-5.26h-2.5c0,1.53-1.24,2.77-2.77,2.77Z"/><path class="cls-18" d="M66.29,96.71c-1.53,0-2.77-1.24-2.77-2.77h-2.5c0,2.91,2.36,5.26,5.26,5.26s5.26-2.36,5.26-5.26h-2.5c0,1.53-1.24,2.77-2.77,2.77Z"/><path class="cls-18" d="M74.33,96.71c-1.53,0-2.77-1.24-2.77-2.77h-2.5c0,2.91,2.36,5.26,5.26,5.26s5.26-2.36,5.26-5.26h-2.5c0,1.53-1.24,2.77-2.77,2.77Z"/><path class="cls-18" d="M82.36,96.71c-1.53,0-2.77-1.24-2.77-2.77h-2.5c0,2.91,2.36,5.26,5.26,5.26s5.26-2.36,5.26-5.26h-2.5c0,1.53-1.24,2.77-2.77,2.77Z"/><path class="cls-18" d="M90.4,96.71c-1.53,0-2.77-1.24-2.77-2.77h-2.5c0,2.91,2.36,5.26,5.26,5.26s5.26-2.36,5.26-5.26h-2.5c0,1.53-1.24,2.77-2.77,2.77Z"/><path class="cls-18" d="M98.43,96.71c-1.53,0-2.77-1.24-2.77-2.77h-2.5c0,2.91,2.36,5.26,5.26,5.26s5.26-2.36,5.26-5.26h-2.5c0,1.53-1.24,2.77-2.77,2.77Z"/></g><path class="cls-11" d="M47.73,101.27c0,.84-.68,1.52-1.52,1.52s-1.52-.68-1.52-1.52,.68-1.52,1.52-1.52,1.52,.68,1.52,1.52Z"/><path class="cls-11" d="M31.95,101.27c0,.84-.68,1.52-1.52,1.52s-1.52-.68-1.52-1.52,.68-1.52,1.52-1.52,1.52,.68,1.52,1.52Z"/><path class="cls-11" d="M63.8,101.27c0,.84-.68,1.52-1.52,1.52s-1.52-.68-1.52-1.52,.68-1.52,1.52-1.52,1.52,.68,1.52,1.52Z"/><path class="cls-11" d="M79.87,101.27c0,.84-.68,1.52-1.52,1.52s-1.52-.68-1.52-1.52,.68-1.52,1.52-1.52,1.52,.68,1.52,1.52Z"/><path class="cls-11" d="M95.94,101.27c0,.84-.68,1.52-1.52,1.52s-1.52-.68-1.52-1.52,.68-1.52,1.52-1.52,1.52,.68,1.52,1.52Z"/></g><path class="cls-5" d="M41.31,33.28c.08-.34,.13-.68,.13-1.04,0-2.63-2.19-4.77-4.89-4.77-1.45,0-2.74,.63-3.63,1.6-.61-.31-1.29-.51-2.02-.51-2.16,0-3.94,1.55-4.26,3.58-1.36,.02-2.45,1.1-2.45,2.43s1.12,2.43,2.5,2.43h14.09c1.08,0,1.95-.85,1.95-1.9,0-.87-.6-1.59-1.41-1.82Z"/><path class="cls-1" d="M60,112.82c23.04,0,42.5-12.22,42.5-26.68v-1.14H17.5v1.14c0,14.46,19.46,26.68,42.5,26.68Z"/><path class="cls-6" d="M102.5,86.14c0,14.46-19.46,26.68-42.5,26.68s-42.5-12.22-42.5-26.68v-1.14h-6v1.14c0,18.05,21.71,32.68,48.5,32.68s48.5-14.63,48.5-32.68v-1.14h-6v1.14Z"/></svg>