<?xml version="1.0" encoding="UTF-8"?><svg id="_레이어_1" xmlns="http://www.w3.org/2000/svg" xmlns:xlink="http://www.w3.org/1999/xlink" viewBox="0 0 120 120"><defs><style>.cls-1,.cls-2,.cls-3{fill:none;}.cls-4,.cls-5,.cls-3{clip-rule:evenodd;}.cls-4,.cls-6,.cls-7{fill:#f2f2f2;}.cls-5,.cls-8{fill:#f4f4f4;}.cls-9{clip-path:url(#clippath);}.cls-10{fill:#f9cfc0;}.cls-11{fill:#f9cdcd;}.cls-12{fill:#ed5013;}.cls-13,.cls-14{fill:#fff;}.cls-15{fill:#ffc8a3;}.cls-16{fill:#fcc0c0;}.cls-17{fill:#ff6723;}.cls-18{fill:#ff6b44;}.cls-19{fill:#ccc;}.cls-20{fill:#d36262;}.cls-21{fill:#3fba34;}.cls-22{fill:#289e1a;}.cls-23{fill:#5e230d;}.cls-2{stroke:#d36262;stroke-linecap:round;stroke-linejoin:round;stroke-width:1.48px;}.cls-24{clip-path:url(#clippath-1);}.cls-25{clip-path:url(#clippath-4);}.cls-26{clip-path:url(#clippath-3);}.cls-27{clip-path:url(#clippath-2);}.cls-28{clip-path:url(#clippath-5);}.cls-29{fill:url(#_무제_그라디언트_3);}.cls-7,.cls-30,.cls-31,.cls-32,.cls-14,.cls-8{fill-rule:evenodd;}.cls-30{fill:#e0e0e0;}.cls-31{fill:#c9c9c9;}.cls-32{fill:#f37772;}</style><linearGradient id="_무제_그라디언트_3" x1="58.58" y1="112.52" x2="58.58" y2="12.61" gradientUnits="userSpaceOnUse"><stop offset="0" stop-color="#fff"/><stop offset=".43" stop-color="#c9ebff"/><stop offset=".57" stop-color="#c3e9ff"/><stop offset=".7" stop-color="#a7dfff"/><stop offset=".87" stop-color="#6ecbff"/><stop offset="1" stop-color="#59c3ff"/></linearGradient><clipPath id="clippath"><path class="cls-1" d="M100.37,31.29l-10.42-6.02V3.99H30.94V24.69l-11.42,6.6c-3.45,1.99-5.58,5.67-5.58,9.66v40.24c0,3.98,2.13,7.67,5.58,9.66l34.85,20.12c3.45,1.99,7.7,1.99,11.15,0l34.85-20.12c3.45-1.99,5.58-5.67,5.58-9.66V40.95c0-3.98-2.13-7.67-5.58-9.66Z"/></clipPath><clipPath id="clippath-1"><path class="cls-6" d="M38.36,30.69c-1.61-12.43,.64-22.69,7.65-22.69s9.77,10.29,8.66,22.78c-1.17,13.22-2.66,21.9-6.88,21.9s-7.8-9.45-9.43-21.98Z"/></clipPath><clipPath id="clippath-2"><path class="cls-4" d="M80.95,30.69c1.61-12.43-.64-22.69-7.65-22.69s-9.77,10.29-8.66,22.78c1.17,13.22,2.66,21.9,6.88,21.9s7.8-9.45,9.43-21.98Z"/></clipPath><clipPath id="clippath-3"><path class="cls-5" d="M74.87,99.15c0,10.54-8.2,10.81-16.3,10.81s-14.62-1.03-14.62-11.57,6.52-26.6,14.62-26.6,16.3,16.82,16.3,27.36Z"/></clipPath><clipPath id="clippath-4"><path class="cls-3" d="M65.44,84.45c0,5.79-2.29,19.12-6.03,19.12s-7.52-13.33-7.52-19.12,3.04-10.48,6.78-10.48,6.78,4.69,6.78,10.48Z"/></clipPath><clipPath id="clippath-5"><path class="cls-1" d="M91.07,63.03c0,13.04-13.81,23.61-30.85,23.61s-30.85-10.57-30.85-23.61,13.81-30.68,30.85-30.68,30.85,17.64,30.85,30.68Z"/></clipPath></defs><path class="cls-29" d="M108.54,83.08V38.27c0-3.98-2.13-7.67-5.58-9.66L64.16,6.21c-3.45-1.99-7.7-1.99-11.15,0L14.2,28.61c-3.45,1.99-5.58,5.67-5.58,9.66v44.81c0,3.98,2.13,7.67,5.58,9.66l38.8,22.4c3.45,1.99,7.7,1.99,11.15,0l38.8-22.4c3.45-1.99,5.58-5.67,5.58-9.66Z"/><path class="cls-13" d="M57.42,8.42c.78-.45,1.67-.69,2.58-.69s1.79,.24,2.58,.69l28.37,16.38v-6.93L65.58,3.22c-1.73-1-3.65-1.49-5.58-1.49s-3.85,.5-5.58,1.49L25.94,19.66v6.93L57.42,8.42Z"/><path class="cls-1" d="M25.94,29.99v-3.4l-9.33,5.38c-1.59,.92-2.58,2.63-2.58,4.46v47.12c0,1.83,.99,3.54,2.58,4.46l40.81,23.56c.78,.45,1.67,.69,2.58,.69s1.79-.24,2.58-.69l40.81-23.56c1.59-.92,2.58-2.63,2.58-4.46V36.44c0-1.83-.99-3.54-2.58-4.46l-12.44-7.18v5.2H25.94Z"/><path class="cls-13" d="M106.39,26.78l-15.44-8.92v6.93l12.44,7.18c1.59,.92,2.58,2.63,2.58,4.46v47.12c0,1.83-.99,3.54-2.58,4.46l-40.81,23.56c-.78,.45-1.67,.69-2.58,.69s-1.79-.24-2.58-.69l-40.81-23.56c-1.59-.92-2.58-2.63-2.58-4.46V36.44c0-1.83,.99-3.54,2.58-4.46l9.33-5.38v-6.93l-12.33,7.12c-3.45,1.99-5.58,5.67-5.58,9.66v47.12c0,3.98,2.13,7.67,5.58,9.66l40.81,23.56c1.73,1,3.65,1.49,5.58,1.49s3.85-.5,5.58-1.49l40.81-23.56c3.45-1.99,5.58-5.67,5.58-9.66V36.44c0-3.98-2.13-7.67-5.58-9.66Z"/><path class="cls-13" d="M31.68,35.36c-1.03,0-1.97,.36-2.71,.96,0,0,0,0,0,0,0-2.38-1.93-4.32-4.32-4.32s-4.32,1.93-4.32,4.32c0,.18,.01,.35,.04,.53-.79-.9-1.95-1.47-3.24-1.47-2.38,0-4.32,1.93-4.32,4.32s1.93,4.32,4.32,4.32h14.55c2.38,0,4.32-1.93,4.32-4.32s-1.93-4.32-4.32-4.32Z"/><g class="cls-9"><g><g><path class="cls-6" d="M38.36,30.69c-1.61-12.43,.64-22.69,7.65-22.69s9.77,10.29,8.66,22.78c-1.17,13.22-2.66,21.9-6.88,21.9s-7.8-9.45-9.43-21.98Z"/><g class="cls-24"><path class="cls-32" d="M41.25,28.69c-1.03-7.96,.41-14.54,4.9-14.54s6.26,6.59,5.55,14.59c-.75,8.47-1.7,14.03-4.41,14.03s-5-6.05-6.04-14.08Z"/></g></g><g><path class="cls-7" d="M80.95,30.69c1.61-12.43-.64-22.69-7.65-22.69s-9.77,10.29-8.66,22.78c1.17,13.22,2.66,21.9,6.88,21.9s7.8-9.45,9.43-21.98Z"/><g class="cls-27"><path class="cls-32" d="M78.06,28.69c1.03-7.96-.41-14.54-4.9-14.54s-6.26,6.59-5.55,14.59c.75,8.47,1.7,14.03,4.41,14.03s5-6.05,6.04-14.08Z"/></g></g><g><path class="cls-30" d="M58.27,100.76c0,8.33,5.23,8.55,10.4,8.55s11.21-.78,11.21-9.11-9.09-15.22-14.26-15.22-7.35,7.45-7.35,15.78Z"/><path class="cls-31" d="M71.22,107.85c0,1.64,2.6,1.46,5.81,1.46s5.81,.18,5.81-1.46-2.6-2.97-5.81-2.97-5.81,1.33-5.81,2.97Z"/><path class="cls-30" d="M60.18,100.76c0,8.33-5.23,8.55-10.4,8.55s-11.21-.78-11.21-9.11,9.09-15.22,14.26-15.22,7.35,7.45,7.35,15.78Z"/><path class="cls-31" d="M47.67,107.85c0,1.64-2.6,1.46-5.81,1.46s-5.81,.18-5.81-1.46,2.6-2.97,5.81-2.97,5.81,1.33,5.81,2.97Z"/><g><path class="cls-8" d="M74.87,99.15c0,10.54-8.2,10.81-16.3,10.81s-14.62-1.03-14.62-11.57,6.52-26.6,14.62-26.6,16.3,16.82,16.3,27.36Z"/><g class="cls-26"><path class="cls-8" d="M77.47,70.59c0,9.57-8.3,17.33-18.54,17.33s-18.54-7.76-18.54-17.33,8.3-17.33,18.54-17.33,18.54,7.76,18.54,17.33Z"/></g></g><path class="cls-14" d="M65.44,84.45c0,5.79-2.6,20.42-6.34,20.42s-7.21-14.64-7.21-20.42,3.04-10.48,6.78-10.48,6.78,4.69,6.78,10.48Z"/><g class="cls-25"><path class="cls-7" d="M77.47,70.59c0,9.57-8.3,17.33-18.54,17.33s-18.54-7.76-18.54-17.33,8.3-17.33,18.54-17.33,18.54,7.76,18.54,17.33Z"/></g><path class="cls-31" d="M57.41,109.4c0,1.64-2.6,1.46-5.81,1.46s-5.81,.18-5.81-1.46,2.6-2.97,5.81-2.97,5.81,1.33,5.81,2.97Z"/><path class="cls-31" d="M72.86,109.4c0,1.64-2.6,1.46-5.81,1.46s-5.81,.18-5.81-1.46,2.6-2.97,5.81-2.97,5.81,1.33,5.81,2.97Z"/><path class="cls-16" d="M55.55,89.53c.16,.85,.08,1.58-.17,1.62-.25,.05-.58-.6-.74-1.46-.16-.85-.08-1.58,.17-1.62,.25-.05,.58,.6,.74,1.46Z"/><path class="cls-16" d="M59.27,92.1c.01,.87-.18,1.57-.44,1.57-.26,0-.48-.69-.49-1.56-.01-.87,.18-1.57,.44-1.58,.26,0,.48,.7,.49,1.56Z"/><path class="cls-16" d="M59.09,86.8c.01,.87-.18,1.57-.44,1.58-.26,0-.48-.7-.49-1.56-.02-.87,.18-1.57,.44-1.58,.26,0,.48,.7,.49,1.56Z"/><path class="cls-16" d="M59.27,99.84c.01,.86-.18,1.57-.44,1.57-.26,0-.48-.69-.49-1.56-.01-.87,.18-1.57,.44-1.58,.26,0,.48,.7,.49,1.56Z"/><path class="cls-16" d="M56.65,94.86c.16,.85,.09,1.58-.17,1.63-.25,.05-.58-.61-.74-1.46-.16-.85-.08-1.58,.17-1.63,.2-.04,.63,.85,.74,1.46Z"/><path class="cls-16" d="M62.02,89.53c-.16,.85-.08,1.58,.17,1.62,.25,.05,.58-.6,.74-1.46,.16-.85,.08-1.58-.17-1.62-.25-.05-.58,.6-.74,1.46Z"/><path class="cls-16" d="M60.92,94.95c-.16,.85-.08,1.58,.17,1.63,.25,.05,.58-.6,.74-1.46,.16-.85,.08-1.58-.17-1.62-.25-.05-.58,.6-.74,1.45Z"/></g><g><path class="cls-13" d="M91.17,63.03c0,13.04-13.81,23.61-30.85,23.61s-30.85-10.57-30.85-23.61,13.81-30.68,30.85-30.68,30.85,17.64,30.85,30.68Z"/><g class="cls-28"><rect class="cls-6" x="28.79" y="31.14" width="31.03" height="56.5"/><path class="cls-19" d="M71.67,73.58c0,5.94-5.5,10.75-12.28,10.75s-12.28-4.81-12.28-10.75,5.5-10.75,12.28-10.75,12.28,4.81,12.28,10.75Z"/><circle class="cls-11" cx="33.75" cy="71.7" r="7.73"/><path class="cls-11" d="M94.84,71.74c0,4.27-3.46,7.73-7.73,7.73s-7.73-3.46-7.73-7.73,3.46-7.73,7.73-7.73,7.73,3.46,7.73,7.73Z"/></g><path class="cls-23" d="M50.69,62.59c0,1.89-1.53,3.43-3.42,3.43s-3.42-1.53-3.42-3.43,1.53-3.42,3.42-3.42,3.42,1.53,3.42,3.42Z"/><circle class="cls-13" cx="45.73" cy="61.36" r=".96"/><path class="cls-13" d="M48.68,62.48c0,.31-.26,.57-.57,.57s-.57-.26-.57-.57,.26-.57,.57-.57,.57,.26,.57,.57Z"/><g><path class="cls-23" d="M76.78,62.59c0,1.89-1.53,3.43-3.42,3.43s-3.42-1.53-3.42-3.43,1.53-3.42,3.42-3.42,3.42,1.53,3.42,3.42Z"/><circle class="cls-13" cx="71.82" cy="61.36" r=".96"/><path class="cls-13" d="M74.77,62.48c0,.31-.26,.57-.57,.57s-.57-.26-.57-.57,.26-.57,.57-.57,.57,.26,.57,.57Z"/></g><ellipse class="cls-10" cx="60.31" cy="72.65" rx="12.28" ry="10.75"/><path class="cls-2" d="M55.25,76.02c2.36,2.72,7.82,3.19,10.16-.23"/><line class="cls-2" x1="60.33" y1="68.74" x2="60.33" y2="78.21"/><path class="cls-20" d="M64.87,66.37c0,2.52-4.56,4.56-4.56,4.56,0,0-4.56-2.04-4.56-4.56s2.04-2.39,4.56-2.39,4.56-.13,4.56,2.39Z"/><path class="cls-13" d="M58.28,65.01c-.85,0-1.56,.49-1.56,1.08v.02c0,.59,.71,1.08,1.56,1.08s1.56-.49,1.56-1.08v-.02c0-.59-.71-1.08-1.56-1.08Z"/><path class="cls-13" d="M62.66,65.67c-.37,0-.69,.22-.69,.48h0c0,.27,.31,.49,.69,.49s.68-.22,.68-.48h0c0-.27-.31-.49-.68-.49Z"/></g></g></g><path class="cls-13" d="M106.12,59.24c-.68,0-1.31,.24-1.8,.64,0,0,0,0,0,0,0-1.59-1.29-2.88-2.88-2.88s-2.88,1.29-2.88,2.88c0,.12,0,.24,.02,.35-.53-.6-1.3-.98-2.16-.98-1.59,0-2.88,1.29-2.88,2.88s1.29,2.88,2.88,2.88h9.7c1.59,0,2.88-1.29,2.88-2.88s-1.29-2.88-2.88-2.88Z"/><g><path class="cls-22" d="M40.45,91.37c-1.66,1.1-2.92,2.84-3.59,5.3-.18,.68-.31,1.33-.37,1.97-.08,.75-.07,1.48,0,2.17-1.49,.6-3.71,1.1-6.4,.5-3.44-.76-4.67-3.45-3.87-5.32,.37-.87,1.18-1.57,2.41-1.82,0,0-2.86-1.51-2.62-3.75,.25-2.24,2.74-4.45,7.32-1.92,0,0-2.14-2.14,.34-3.23,1.96-.86,5.83,2.48,6.78,6.09h0Z"/><path class="cls-21" d="M40.45,91.37c-1.66,1.1-2.92,2.84-3.59,5.3-.18,.68-.31,1.33-.37,1.97-1.23,.55-2.74,.98-4.52,1.05-3.4,.14-5.45-1.73-5.75-3.7,.37-.87,1.18-1.57,2.41-1.82,0,0-2.86-1.51-2.62-3.75,.25-2.24,2.74-4.45,7.32-1.92,0,0-2.14-2.14,.34-3.23,1.96-.86,5.83,2.48,6.78,6.09h0Z"/><path class="cls-22" d="M31.08,97.44s.09-.06,.24-.11c.15-.05,.37-.09,.63-.09,.13,0,.27,.02,.42,.02,.15,0,.3,.02,.46,.03,.32,.02,.67,.05,1.01,.08,.34,.03,.69,.06,1.01,.09,.32,.03,.62,.06,.87,.08,.13,0,.24,.02,.35,.03,.1,0,.19,.01,.26,.02,.07,0,.12,0,.16,0,.04,0,.06,0,.06,0h.04c.14,0,.24,.13,.24,.27,0,.11-.08,.19-.17,.22,0,0-.02,0-.07,.02-.04,.01-.11,.04-.19,.06-.08,.02-.17,.04-.28,.06-.11,.02-.23,.04-.36,.07-.13,.02-.27,.04-.42,.06-.15,.02-.31,.04-.47,.06-.16,.02-.33,.03-.5,.05-.17,.01-.35,.03-.52,.04-.17,.01-.35,.02-.52,.03-.17,0-.34,.01-.5,.02-.16,0-.32,0-.47,.01-.15,0-.29,0-.42,0-.26,0-.48-.06-.63-.12-.15-.06-.24-.12-.24-.12-.24-.18-.29-.52-.11-.76,.04-.05,.08-.09,.13-.13h0Z"/><path class="cls-22" d="M32.19,91.7s0,0,.02,0c.01,0,.03,0,.06,0,.05,0,.13,.01,.22,.03,.18,.04,.42,.12,.67,.28,.12,.08,.25,.18,.39,.27,.14,.1,.28,.2,.43,.31,.15,.11,.3,.22,.46,.33,.16,.11,.31,.23,.47,.34,.31,.23,.63,.46,.92,.68,.15,.11,.29,.21,.42,.31,.13,.1,.26,.19,.38,.27,.12,.08,.22,.16,.32,.22,.09,.06,.18,.12,.24,.16,.03,.02,.06,.04,.09,.05,.01,0,.02,.01,.03,.02,0,0,.02,0,.03,.01,.03,.02,.05,.03,.05,.03l.05,.03c.13,.07,.18,.24,.1,.37-.06,.1-.16,.15-.27,.14,0,0-.03,0-.09-.01-.01,0-.03,0-.05,0-.02,0-.03,0-.05-.01-.04,0-.08-.02-.13-.03-.09-.02-.2-.06-.32-.1-.12-.04-.25-.09-.4-.15-.14-.06-.29-.12-.45-.19-.16-.07-.32-.15-.49-.23-.34-.17-.69-.35-1.04-.55-.17-.1-.35-.2-.51-.3-.17-.1-.33-.2-.49-.3-.16-.1-.31-.19-.45-.29-.14-.09-.28-.18-.4-.26-.24-.18-.41-.37-.51-.53-.05-.08-.09-.15-.11-.2-.01-.03-.02-.05-.02-.06,0-.01,0-.02,0-.02-.08-.25,.05-.52,.3-.6,.04-.01,.09-.02,.13-.02h0Z"/><path class="cls-22" d="M36.67,89.76s.02,0,.05,0c.03,0,.08,.02,.14,.05,.11,.05,.25,.13,.37,.27,.06,.07,.12,.15,.18,.24,.06,.09,.12,.18,.19,.27,.13,.19,.26,.4,.38,.61,.06,.11,.12,.21,.18,.32,.06,.11,.11,.22,.16,.32,.05,.11,.1,.21,.14,.31,.04,.1,.08,.2,.11,.29,.03,.09,.06,.17,.08,.25,.02,.08,.04,.15,.05,.21,.02,.13,.02,.19,.02,.19,0,.08-.06,.14-.14,.15-.05,0-.09-.02-.12-.05l-.02-.03s-.04-.05-.09-.12c-.03-.04-.07-.08-.11-.14-.04-.05-.1-.11-.16-.17-.06-.06-.13-.13-.19-.2-.07-.07-.14-.15-.22-.23-.15-.16-.32-.33-.48-.49-.08-.08-.16-.17-.24-.25-.08-.08-.16-.17-.24-.25-.08-.08-.15-.16-.22-.23-.07-.07-.14-.14-.19-.21-.11-.14-.16-.28-.19-.4-.01-.06-.02-.1-.02-.14,0-.03,0-.06,0-.06,0-.29,.25-.52,.54-.51,.01,0,.03,0,.04,0h0Z"/><path class="cls-12" d="M70.37,106.7c.01,.54-.05,1.08-.19,1.62-1.41,5.4-17.21,4.64-24.23,2.11-5.43-1.96-8.96-5.22-9.46-9.61-.11-.96-.07-1.98,.12-3.05,.07-.36,.15-.72,.25-1.09,.67-2.46,1.93-4.2,3.59-5.3,2.06-1.37,4.74-1.74,7.67-1.27,.28,.05,.57,.1,.86,.16,1.23,.27,2.5,.67,3.78,1.22,.07,.03,.13,.06,.2,.09,.22,.09,.44,.19,.67,.29,1.22,.54,2.58,1.19,3.98,1.92,.2,.11,.4,.21,.6,.32,1.56,.84,3.15,1.78,4.65,2.81,.15,.1,.3,.21,.45,.31,3.86,2.73,6.98,6.02,7.06,9.47h0Z"/><path class="cls-17" d="M70.37,106.7c-4.87,3.12-17.27,2.65-23.44,.69-5.74-1.83-9.57-5.08-10.32-9.63,.07-.36,.15-.72,.25-1.09,.67-2.46,1.93-4.2,3.59-5.3,2.06-1.37,4.74-1.74,7.67-1.27,.28,.05,.57,.1,.86,.16,1.23,.27,2.5,.67,3.78,1.22,.07,.03,.13,.06,.2,.09,.22,.09,.44,.19,.67,.29,1.22,.54,2.58,1.19,3.98,1.92,.2,.11,.4,.21,.6,.32,1.56,.84,3.15,1.78,4.65,2.81,.15,.1,.3,.21,.45,.31,3.86,2.73,6.98,6.02,7.06,9.47h0Z"/><path class="cls-12" d="M48.97,90.27s-.06,.07-.1,.1h-.01s-.03,.02-.1,.05c-.06,.03-.16,.07-.28,.13-.06,.03-.12,.07-.2,.1-.07,.04-.14,.08-.23,.13-.16,.1-.33,.21-.52,.34-.09,.06-.17,.12-.26,.19-.2-.04-.37-.07-.53-.09-.49-.08-.95,.25-1.02,.74-.04,.24,.02,.47,.15,.65-.24,.26-.47,.55-.69,.84-.18,.24-.35,.49-.51,.74-.16,.25-.31,.5-.44,.74-.07,.12-.13,.24-.19,.36-.06,.12-.12,.24-.17,.36-.11,.23-.19,.45-.27,.66-.07,.21-.13,.4-.19,.56-.06,.16-.14,.3-.2,.41-.03,.05-.06,.1-.09,.14-.03,.05-.05,.09-.08,.12-.05,.07-.08,.1-.08,.1h0c-.17,.2-.47,.21-.67,.04-.05-.04-.09-.1-.11-.15,0,0-.02-.04-.05-.12-.01-.04-.03-.08-.04-.15,0-.06-.02-.14-.02-.22,0-.16,0-.35,.05-.56,.02-.1,.05-.21,.09-.32,.04-.11,.08-.22,.13-.34,.1-.24,.21-.49,.34-.74,.06-.13,.14-.26,.21-.39,.08-.13,.15-.26,.24-.4,.16-.27,.35-.53,.54-.79,.19-.26,.41-.52,.63-.77,.22-.25,.45-.48,.69-.71,.24-.22,.48-.43,.73-.62,.24-.19,.49-.36,.73-.51,.12-.07,.24-.15,.36-.21,.12-.06,.23-.13,.34-.18,.22-.11,.43-.2,.62-.27,.09-.03,.18-.07,.26-.1,.02,0,.04-.01,.06-.02,.28,.05,.57,.1,.86,.16h0Z"/><path class="cls-12" d="M50.46,93.99c.37,.12,.75,.25,1.15,.4-.05,.1-.1,.21-.15,.31-.14,.28-.26,.55-.36,.78-.1,.23-.24,.4-.36,.51-.06,.05-.12,.09-.15,.12-.02,.01-.04,.02-.05,.03-.01,0-.02,0-.02,0-.24,.13-.55,.04-.68-.2-.01-.02-.02-.04-.03-.06v-.03s-.01,0-.02-.02c0-.01,0-.03-.01-.06,0-.05-.02-.12-.02-.21,0-.17,.04-.4,.17-.65,.06-.12,.13-.25,.21-.39,.07-.14,.16-.28,.24-.43,.02-.04,.05-.08,.08-.12h0Z"/><path class="cls-12" d="M53.62,91.87s-.03,.03-.05,.04l-.04,.02s-.02,0-.05,.03c-.03,.02-.08,.04-.13,.07-.03,.02-.06,.04-.09,.06-.03,.02-.07,.05-.1,.08-.07,.06-.15,.13-.23,.21-.08,.08-.17,.18-.25,.29-.05,.06-.09,.12-.14,.18-.32-.12-.63-.23-.93-.34,.03-.03,.07-.07,.1-.1,.06-.06,.13-.12,.19-.18,.07-.06,.13-.11,.2-.16,.13-.1,.26-.19,.39-.27,.07-.04,.12-.07,.19-.1,.06-.03,.12-.06,.18-.08,.03-.01,.07-.02,.1-.04,.22,.09,.44,.19,.67,.29h0Z"/><path class="cls-12" d="M58.21,94.11h-.01s-.11,.12-.3,.31c-.1,.09-.21,.21-.35,.34-.13,.14-.27,.29-.43,.46-.08,.08-.16,.17-.24,.26-.08,.09-.16,.19-.25,.29-.09,.1-.17,.2-.26,.31-.08,.11-.17,.22-.26,.33-.09,.11-.18,.23-.27,.35-.08,.12-.17,.24-.26,.36-.04,.06-.09,.12-.13,.18-.04,.06-.08,.13-.12,.19-.08,.13-.16,.26-.24,.38-.08,.13-.15,.26-.23,.39-.08,.13-.15,.26-.22,.39-.07,.13-.13,.26-.2,.39-.06,.13-.12,.26-.18,.39-.06,.13-.11,.25-.16,.38-.05,.12-.1,.25-.15,.37-.04,.12-.09,.24-.13,.35-.04,.11-.07,.22-.11,.33-.03,.1-.06,.21-.09,.3-.02,.05-.03,.09-.04,.14-.01,.04-.03,.09-.04,.13-.01,.04-.03,.08-.05,.12-.01,.04-.03,.07-.04,.11-.01,.03-.03,.07-.04,.1,0,.02-.01,.03-.02,.05,0,.02-.01,.03-.02,.05-.01,.03-.03,.06-.04,.09,0,.01-.01,.03-.02,.04v.02s-.01,0-.01,0c0-.01,0-.03,0-.03h0s0,.01,0,.01c-.02,.05-.05,.09-.06,.13-.04,.07-.06,.11-.06,.11h0c-.19,.3-.59,.37-.87,.18-.13-.09-.21-.21-.25-.35,0,0-.01-.04-.02-.12,0-.04-.01-.09-.02-.14h0s0-.02,0-.02c0,0,0-.03,0-.04h0s0,0,0,0v-.02s0-.03,0-.05c0-.03,0-.06,0-.1,0-.02,0-.04,0-.05,0-.02,0-.04,0-.06,0-.04,0-.09,.01-.13,0-.05,.01-.1,.02-.14,0-.05,.02-.1,.03-.15,.04-.2,.12-.42,.21-.66,.05-.12,.09-.24,.14-.37,.05-.13,.11-.25,.17-.38,.06-.13,.12-.26,.19-.4,.07-.13,.13-.27,.21-.41,.08-.14,.15-.27,.23-.41,.09-.14,.17-.27,.26-.41,.08-.14,.18-.27,.27-.41,.1-.13,.19-.27,.28-.4,.1-.13,.2-.26,.3-.39,.05-.06,.1-.13,.15-.19,.05-.06,.11-.12,.16-.18,.11-.12,.21-.24,.31-.36,.11-.12,.22-.23,.32-.34,.11-.11,.21-.22,.32-.32,.11-.1,.21-.2,.32-.29,.1-.09,.2-.18,.3-.27,.1-.09,.2-.16,.29-.24,.19-.15,.36-.29,.52-.41,.16-.11,.3-.21,.42-.29,.05-.04,.1-.07,.15-.1,.2,.11,.4,.21,.6,.32h0Z"/><path class="cls-12" d="M63.3,97.23h0s-.02,.01-.06,.03c-.04,.02-.09,.04-.16,.08-.03,.02-.07,.04-.11,.06-.04,.02-.08,.05-.13,.08-.02,.02-.04,.03-.07,.05-.02,.02-.05,.04-.07,.06-.05,.04-.1,.07-.15,.12-.1,.09-.21,.19-.31,.3-.05,.06-.11,.11-.16,.18-.05,.06-.11,.13-.16,.19-.1,.13-.21,.28-.31,.42-.1,.15-.2,.31-.29,.46-.09,.16-.19,.32-.27,.48-.09,.16-.17,.32-.25,.48-.08,.16-.15,.31-.21,.45-.07,.15-.13,.28-.18,.41-.05,.13-.11,.24-.17,.34-.06,.1-.12,.18-.17,.24-.05,.06-.1,.11-.14,.14-.02,.02-.03,.03-.04,.03-.01,0-.02,.01-.02,.01-.26,.2-.64,.16-.84-.11-.05-.07-.09-.14-.11-.22v-.05s-.01,0-.02-.02c0-.01,0-.04,0-.06,0-.05,0-.13,.02-.22,.01-.09,.04-.2,.08-.32,.04-.12,.1-.24,.18-.38,.07-.13,.16-.28,.25-.43,.09-.15,.19-.3,.3-.46,.11-.16,.22-.32,.34-.48,.12-.16,.25-.32,.38-.48,.13-.16,.27-.31,.42-.45,.07-.07,.14-.14,.22-.21,.04-.03,.07-.07,.11-.1,.04-.03,.08-.06,.11-.1,.07-.06,.15-.12,.23-.18,.07-.06,.15-.11,.23-.16,.15-.1,.3-.19,.44-.26,.07-.04,.14-.07,.21-.1,.03-.01,.07-.03,.1-.04,.03-.01,.06-.02,.1-.03,.1-.03,.18-.06,.26-.08,.15,.1,.3,.21,.45,.31h0Z"/><path class="cls-15" d="M60.11,98.38c-.24,.08-.52,.05-.75-.1-.72-.46-1.46-.9-2.2-1.32-.43-.24-.58-.78-.34-1.22,.24-.43,.78-.58,1.22-.34,.77,.43,1.54,.89,2.29,1.37,.42,.27,.54,.82,.27,1.23-.12,.18-.29,.31-.48,.37h0Z"/><path class="cls-18" d="M47.28,91.31s-.02,.01-.03,.02c-.1,.07-.19,.16-.29,.24-.2,.17-.4,.35-.61,.55-.16,.16-.32,.32-.48,.5-.13-.18-.19-.41-.15-.65,.08-.49,.54-.82,1.02-.74,.16,.03,.33,.06,.53,.09h0Z"/><path class="cls-18" d="M52.54,92.84c-.04,.05-.08,.11-.12,.17-.09,.13-.17,.26-.26,.4-.09,.14-.17,.28-.25,.43-.08,.14-.16,.29-.24,.44-.02,.04-.04,.08-.06,.13-.4-.15-.78-.28-1.15-.4,.07-.11,.14-.21,.21-.32,.1-.15,.21-.3,.32-.45,.05-.07,.11-.15,.17-.22,.06-.07,.12-.14,.18-.21,.09-.1,.18-.2,.27-.3,.3,.11,.61,.22,.93,.34h0Z"/><path class="cls-15" d="M51.35,92.8c-.06,.07-.12,.14-.18,.21-.06,.07-.12,.14-.17,.22-.11,.15-.22,.3-.32,.45-.07,.11-.14,.22-.21,.32-1.81-.6-3.19-.88-4-1.01-.25-.04-.46-.18-.59-.37,.16-.17,.32-.34,.48-.5,.2-.2,.41-.38,.61-.55,.1-.08,.2-.16,.29-.24,0,0,.02-.01,.03-.02,1,.19,2.49,.54,4.34,1.18-.09,.09-.18,.19-.27,.3h0Z"/><path class="cls-15" d="M54.87,94.78c-.11,.24-.31,.42-.55,.49-.2,.06-.42,.06-.63-.03-.73-.32-1.42-.6-2.07-.84,.02-.04,.04-.08,.06-.13,.08-.14,.15-.29,.24-.44,.08-.15,.16-.29,.25-.43,.08-.14,.17-.27,.26-.4,.04-.06,.08-.12,.12-.17,.59,.22,1.21,.48,1.86,.76,.45,.2,.66,.72,.46,1.18h0Z"/></g></svg>