<?xml version="1.0" encoding="UTF-8"?><svg id="_레이어_1" xmlns="http://www.w3.org/2000/svg" xmlns:xlink="http://www.w3.org/1999/xlink" viewBox="0 0 120 120"><defs><style>.cls-1{fill:url(#linear-gradient);}.cls-2{fill:#006d82;}.cls-3{fill:#fff;}.cls-4{fill:#fc0;}.cls-5{fill:#f90;}.cls-6{fill:#f60;}.cls-7{fill:#666;}.cls-8{fill:#ba9600;}.cls-9{fill:#cc0;}.cls-10{fill:#ddb800;}.cls-11{fill:#0783ff;}.cls-12{fill:#94cc00;}.cls-13{fill:#6ca736;}.cls-14{fill:url(#_무제_그라디언트_32);}</style><linearGradient id="_무제_그라디언트_32" x1="7.11" y1="60" x2="111.03" y2="60" gradientUnits="userSpaceOnUse"><stop offset="0" stop-color="#ffde0b"/><stop offset="1" stop-color="#ffce00"/></linearGradient><linearGradient id="linear-gradient" x1="20.1" y1="69.17" x2="99.9" y2="69.17" gradientTransform="translate(66.48 -22.17) rotate(45)" gradientUnits="userSpaceOnUse"><stop offset="0" stop-color="#ffde0b"/><stop offset="1" stop-color="#ffce00"/></linearGradient></defs><path class="cls-14" d="M111.03,83.56V36.44c0-3.98-2.13-7.67-5.58-9.66L64.64,3.22c-3.45-1.99-7.7-1.99-11.15,0L12.68,26.78c-3.45,1.99-5.58,5.67-5.58,9.66v47.12c0,3.98,2.13,7.67,5.58,9.66l40.81,23.56c3.45,1.99,7.7,1.99,11.15,0l40.81-23.56c3.45-1.99,5.58-5.67,5.58-9.66Z"/><path class="cls-3" d="M59.07,7.72c.9,0,1.79,.24,2.58,.69l40.81,23.56c1.59,.92,2.58,2.63,2.58,4.46v47.12c0,1.83-.99,3.54-2.58,4.46l-40.81,23.56c-.78,.45-1.67,.69-2.58,.69s-1.79-.24-2.58-.69L15.68,88.02c-1.59-.92-2.58-2.63-2.58-4.46V36.44c0-1.83,.99-3.54,2.58-4.46L56.49,8.42c.78-.45,1.67-.69,2.58-.69m0-6c-1.93,0-3.85,.5-5.58,1.49L12.68,26.78c-3.45,1.99-5.58,5.67-5.58,9.66v47.12c0,3.98,2.13,7.67,5.58,9.66l40.81,23.56c1.73,1,3.65,1.49,5.58,1.49s3.85-.5,5.58-1.49l40.81-23.56c3.45-1.99,5.58-5.67,5.58-9.66V36.44c0-3.98-2.13-7.67-5.58-9.66L64.64,3.22c-1.73-1-3.65-1.49-5.58-1.49h0Z"/><g><circle class="cls-1" cx="60" cy="69.17" r="39.9" transform="translate(-31.34 62.69) rotate(-45)"/><circle class="cls-10" cx="60" cy="69.17" r="30.1"/><circle class="cls-8" cx="60" cy="69.17" r="22.58"/><g><rect class="cls-5" x="55.9" y="69.17" width="8.2" height="18.35"/><g><g><polygon class="cls-9" points="73.22 28.49 60 69.17 46.78 28.49 73.22 28.49"/><circle class="cls-9" cx="60" cy="25.81" r="13.37"/></g><g><polygon class="cls-12" points="94.6 44.03 60 69.17 73.22 28.49 94.6 44.03"/><g><circle class="cls-12" cx="85.22" cy="34.42" r="13.37" transform="translate(43.9 116.52) rotate(-85.28)"/><path class="cls-13" d="M92.12,34.42c0,3.81-3.09,6.9-6.9,6.9s-6.9-3.09-6.9-6.9,3.09-6.9,6.9-6.9,6.9,3.09,6.9,6.9Z"/></g></g><g><polygon class="cls-9" points="101.29 69.17 94.6 44.03 60 69.17 101.29 69.17"/><g><circle class="cls-9" cx="101.04" cy="55.8" r="13.37"/><circle class="cls-4" cx="101.04" cy="55.8" r="6.9"/></g></g><g><polygon class="cls-12" points="25.4 44.03 60 69.17 46.78 28.49 25.4 44.03"/><g><circle class="cls-12" cx="34.78" cy="34.42" r="13.37" transform="translate(-4.99 5.91) rotate(-9.06)"/><path class="cls-13" d="M27.88,34.42c0,3.81,3.09,6.9,6.9,6.9s6.9-3.09,6.9-6.9-3.09-6.9-6.9-6.9-6.9,3.09-6.9,6.9Z"/></g></g><g><polygon class="cls-9" points="18.71 69.17 25.4 44.03 60 69.17 18.71 69.17"/><g><circle class="cls-9" cx="18.96" cy="55.8" r="13.37"/><circle class="cls-4" cx="18.96" cy="55.8" r="6.9"/></g></g></g><path class="cls-2" d="M77.62,63.37c-5.11-5.11-13.4-5.11-18.51,0l18.51,18.51c5.11-5.11,5.11-13.4,0-18.51Z"/><path class="cls-2" d="M42.36,63.37c5.11-5.11,13.4-5.11,18.51,0l-18.51,18.51c-5.11-5.11-5.11-13.4,0-18.51Z"/><path class="cls-11" d="M60,48.17c-11.6,0-21,9.4-21,21h42c0-11.6-9.4-21-21-21Z"/><path class="cls-4" d="M58.15,16.96c-.7-.12-1.41-.18-2.14-.18-7.12,0-12.89,5.77-12.89,12.89h15.04v-12.71Z"/><rect class="cls-11" x="56.01" y="21.05" width="8.62" height="37.61"/><circle class="cls-11" cx="56.62" cy="21.05" r="8.62" transform="translate(23.08 71.29) rotate(-76.67)"/><circle class="cls-3" cx="56.62" cy="21.05" r="5.23"/><circle class="cls-11" cx="59.86" cy="69.17" r="12.71"/><circle class="cls-7" cx="56.62" cy="21.05" r="2.39"/><path class="cls-2" d="M60,56.6c-6.94,0-12.57,5.63-12.57,12.57h25.14c0-6.94-5.63-12.57-12.57-12.57Z"/><path class="cls-5" d="M70.19,92.62h-20.66c0-3.03,2.45-5.48,5.48-5.48h9.7c3.03,0,5.48,2.45,5.48,5.48h0Z"/></g><path class="cls-6" d="M20.45,92.62H99.55c3.57,0,6.46,2.89,6.46,6.46h0c0,3.57-2.89,6.46-6.46,6.46H20.45c-3.57,0-6.46-2.89-6.46-6.46h0c0-3.57,2.89-6.46,6.46-6.46Z"/><path class="cls-4" d="M71.5,113.32h-23.29c-3.93,0-7.12-3.19-7.12-7.12h0c0-3.93,3.19-7.12,7.12-7.12h23.29c3.93,0,7.12,3.19,7.12,7.12h0c0,3.93-3.19,7.12-7.12,7.12Z"/></g></svg>