<?xml version="1.0" encoding="UTF-8"?><svg id="_레이어_1" xmlns="http://www.w3.org/2000/svg" xmlns:xlink="http://www.w3.org/1999/xlink" viewBox="0 0 120 120"><defs><style>.cls-1,.cls-2{fill:none;}.cls-3{fill:url(#linear-gradient);}.cls-4{opacity:.1;}.cls-5{fill:#f4fbff;}.cls-6{fill:#fff;}.cls-7{fill:#e83356;}.cls-8{fill:#63c864;}.cls-9{fill:#b8cdde;}.cls-10{fill:#bfd0da;}.cls-11,.cls-12{fill:#1c4e6b;}.cls-2{stroke:#97a8b5;stroke-width:.6px;}.cls-13{clip-path:url(#clippath-1);}.cls-12{stroke:#b8cdde;stroke-width:1.21px;}</style><clipPath id="clippath"><circle class="cls-1" cx="-80" cy="200" r="58.5"/></clipPath><linearGradient id="linear-gradient" x1="59.95" y1="119.25" x2="59.95" y2="15.16" gradientUnits="userSpaceOnUse"><stop offset="0" stop-color="#fff"/><stop offset=".33" stop-color="#c9ebff"/><stop offset=".36" stop-color="#c3e9ff"/><stop offset=".53" stop-color="#a7dfff"/><stop offset=".87" stop-color="#6ecbff"/><stop offset="1" stop-color="#59c3ff"/></linearGradient><clipPath id="clippath-1"><path class="cls-1" d="M28.44,118h63.12c12.91,0,23.38-10.08,23.38-22.52V44.8c0-23.64-24.6-42.8-54.94-42.8S5.06,21.16,5.06,44.8v50.68c0,12.44,10.47,22.52,23.38,22.52Z"/></clipPath></defs><path class="cls-6" d="M30.28,30.66c-4.14,0-7.5-3.36-7.5-7.5,0,4.14-3.36,7.5-7.5,7.5,4.14,0,7.5,3.36,7.5,7.5,0-4.14,3.36-7.5,7.5-7.5Z"/><path class="cls-6" d="M32.82,37.8c-1.6,0-2.9-1.3-2.9-2.9,0,1.6-1.3,2.9-2.9,2.9,1.6,0,2.9,1.3,2.9,2.9,0-1.6,1.3-2.9,2.9-2.9Z"/><g><path class="cls-3" d="M30.05,115h59.8c12.23,0,22.15-9.55,22.15-21.34V45.64c0-22.39-23.3-40.55-52.05-40.55S7.91,23.25,7.91,45.64v48.02c0,11.79,9.92,21.34,22.15,21.34Z"/><path class="cls-5" d="M105.46,73.11c.08-.34,.13-.68,.13-1.04,0-2.63-2.19-4.77-4.89-4.77-1.45,0-2.74,.63-3.63,1.6-.61-.31-1.29-.51-2.02-.51-2.16,0-3.94,1.55-4.26,3.58-1.36,.02-2.45,1.1-2.45,2.43s1.12,2.43,2.5,2.43h14.09c1.08,0,1.95-.85,1.95-1.9,0-.87-.6-1.59-1.41-1.82Z"/><path class="cls-5" d="M38.46,34.11c.08-.34,.13-.68,.13-1.04,0-2.63-2.19-4.77-4.89-4.77-1.45,0-2.74,.63-3.63,1.6-.61-.31-1.29-.51-2.02-.51-2.16,0-3.94,1.55-4.26,3.58-1.36,.02-2.45,1.1-2.45,2.43s1.12,2.43,2.5,2.43h14.09c1.08,0,1.95-.85,1.95-1.9,0-.87-.6-1.59-1.41-1.82Z"/><g class="cls-13"><path class="cls-6" d="M118.18,98.28c-.96-3.13-3.88-5.41-7.32-5.41,0-6.65-5.39-12.04-12.04-12.04-5.89,0-10.79,4.23-11.83,9.82-.19-.02-.39-.04-.59-.04-2.74,0-4.96,2.22-4.96,4.96,0,.04,0,.08,0,.12-.93-.4-1.95-.63-3.03-.63-2.55,0-4.8,1.24-6.19,3.14-1.64-3.17-4.94-5.34-8.75-5.34-4.81,0-8.81,3.45-9.68,8.01h-7.97c.3-.82,.46-1.7,.46-2.61,0-4.22-3.43-7.65-7.66-7.65-1.99,0-3.81,.76-5.17,2.01-2.03-3.81-6.03-6.4-10.64-6.4-5.78,0-10.61,4.07-11.77,9.5-.25-.01-.51-.03-.76-.03-3.15,0-6.02,1.21-8.16,3.19-.21,.19-.46,.37-.71,.55v39.91H119.87v-40.44c0-.11-.22-.59-1.69-.64Z"/></g><path class="cls-6" d="M60,8.03c26.96,0,48.9,16.49,48.9,36.76v50.68c0,9.09-7.78,16.49-17.34,16.49H28.44c-9.56,0-17.34-7.4-17.34-16.49V44.8c0-20.27,21.94-36.76,48.9-36.76m0-6.03C29.66,2,5.06,21.16,5.06,44.8v50.68c0,12.44,10.47,22.52,23.38,22.52h63.12c12.91,0,23.38-10.08,23.38-22.52V44.8c0-23.64-24.6-42.8-54.94-42.8h0Z"/><g><polygon class="cls-7" points="55.7 62.13 71.58 82.39 78.9 82.39 78.9 61.4 55.7 62.13"/><path class="cls-9" d="M77.39,69.41c0,1.47-1.19,2.66-2.66,2.66h-9.96c-1.47,0-2.66-1.19-2.66-2.66h0c0-1.47,1.19-2.66,2.66-2.66h9.96c1.47,0,2.66,1.19,2.66,2.66h0Z"/><path class="cls-6" d="M85.72,56.17l7.81-13.67,6.34,.24-.24,15.86s-12.45,11.23-14.64,11.23H26.93s-10.67-.03-10.03-3.91c1.23-7.41,8.66-9.76,14.64-9.76h54.17Z"/><path class="cls-10" d="M18.22,62.24c-.63,1.06-1.09,2.28-1.32,3.69-.64,3.87,10.03,3.91,10.03,3.91h58.05c1.36,0,6.66-4.32,10.5-7.6H18.22Z"/><polygon class="cls-7" points="57.75 65.17 71.58 44.12 78.9 44.12 78.9 65.11 57.75 65.17"/><path class="cls-12" d="M38.38,61.72c0,1.1-.89,2-2,2s-2-.9-2-2,.89-2,2-2,2,.9,2,2Z"/><path class="cls-12" d="M45.69,61.72c0,1.1-.9,2-2,2s-2-.9-2-2,.89-2,2-2,2,.9,2,2Z"/><path class="cls-12" d="M52.99,61.72c0,1.1-.89,2-2,2s-2-.9-2-2,.89-2,2-2,2,.9,2,2Z"/><polygon class="cls-8" points="85.84 55.82 99.78 53.27 99.79 46.82 89.63 49.18 85.84 55.82"/><path class="cls-2" d="M85.16,63.51c0,1.18-.96,2.13-2.13,2.13h0c-1.18,0-2.14-.95-2.14-2.13v-1.74c0-1.18,.96-2.13,2.14-2.13h0c1.18,0,2.13,.96,2.13,2.13v1.74Z"/><path class="cls-11" d="M27.24,64.43c1.6,0,2.9-1.3,2.9-2.9s-1.3-2.9-2.9-2.9h-5.4c-2.09,1.3-3.77,3.17-4.58,5.79h9.98Z"/><g><path class="cls-4" d="M17.26,64.43h9.98c1.6,0,2.9-1.3,2.9-2.9s-1.3-2.9-2.9-2.9h-5.4"/><path class="cls-9" d="M17,65.04l.43-1.21h9.8c1.26,0,2.29-1.03,2.29-2.29h0c0-1.27-1.03-2.29-2.29-2.3h-6.45s1.92-1.21,1.92-1.21h4.53c1.93,0,3.5,1.57,3.5,3.5h0c0,1.93-1.57,3.5-3.5,3.5h-10.24Z"/></g><path class="cls-9" d="M77.39,57.83c0,1.47-1.19,2.66-2.66,2.66h-9.96c-1.47,0-2.66-1.19-2.66-2.66h0c0-1.47,1.19-2.66,2.66-2.66h9.96c1.47,0,2.66,1.19,2.66,2.66h0Z"/><polygon class="cls-7" points="88.45 51.31 99.78 48.83 99.78 50.94 87.1 53.65 88.45 51.31"/><path class="cls-6" d="M62.13,57.53h15.23c-.15-1.33-1.26-2.36-2.63-2.36h-9.96c-1.37,0-2.48,1.03-2.63,2.36Z"/><rect class="cls-6" x="71.14" y="43.45" width="7.79" height="1.4"/></g></g></svg>