<?xml version="1.0" encoding="UTF-8"?><svg id="_레이어_1" xmlns="http://www.w3.org/2000/svg" xmlns:xlink="http://www.w3.org/1999/xlink" viewBox="0 0 120 120"><defs><style>.cls-1{fill:none;}.cls-2{filter:url(#luminosity-noclip-4);}.cls-3{opacity:.1;}.cls-4{mask:url(#mask);}.cls-5{filter:url(#luminosity-noclip-2);}.cls-6{fill:#674f31;}.cls-7{fill:#000a3c;}.cls-8,.cls-9{fill:#fff;}.cls-10{fill:#673945;}.cls-11{fill:#7466a1;}.cls-12{fill:#9f621a;}.cls-13{fill:#915000;}.cls-14{fill:#99665c;}.cls-15{fill:#bf8526;}.cls-16{fill:#dda860;}.cls-17{fill:#543440;}.cls-18{fill:#81501d;}.cls-19{fill:#2e1d00;}.cls-20{fill:#5d4a92;}.cls-21{fill:#764d4d;}.cls-22{fill:#523d8a;}.cls-23{fill:url(#linear-gradient-3);}.cls-23,.cls-24{mix-blend-mode:multiply;}.cls-25{clip-path:url(#clippath-1);}.cls-26{clip-path:url(#clippath-3);}.cls-27{clip-path:url(#clippath-2);}.cls-9{opacity:.2;}.cls-28{fill:url(#linear-gradient-4);}.cls-29{fill:url(#linear-gradient-2);}.cls-30{opacity:.14;}.cls-24{fill:url(#linear-gradient);}.cls-31{mask:url(#mask-3);}.cls-32{mask:url(#mask-2);}.cls-33{mask:url(#mask-1);}</style><clipPath id="clippath"><circle class="cls-1" cx="-80" cy="200" r="58.5"/></clipPath><clipPath id="clippath-1"><path class="cls-1" d="M-49.61,7.83h-59.4c-12.15,0-22,10.1-22,22.56v42.75c0,23.67,23.15,42.86,51.7,42.86s51.7-19.19,51.7-42.86V30.39c0-12.46-9.85-22.56-22-22.56Z"/></clipPath><clipPath id="clippath-2"><path class="cls-1" d="M30.38,116.1h60.78c12.43,0,22.51-9.71,22.51-21.69V45.6c0-22.76-23.68-41.21-52.9-41.21S7.87,22.84,7.87,45.6v48.8c0,11.98,10.08,21.69,22.51,21.69Z"/></clipPath><clipPath id="clippath-3"><circle class="cls-1" cx="59.61" cy="-81" r="55.5"/></clipPath><filter id="luminosity-noclip-2" x="-134.89" y="-143.08" width="251.58" height="159.14" color-interpolation-filters="sRGB" filterUnits="userSpaceOnUse"><feFlood flood-color="#fff" result="bg"/><feBlend in="SourceGraphic" in2="bg"/></filter><filter id="luminosity-noclip-3" x="8322" y="-8392" width="-32766" height="32766" color-interpolation-filters="sRGB" filterUnits="userSpaceOnUse"><feFlood flood-color="#fff" result="bg"/><feBlend in="SourceGraphic" in2="bg"/></filter><mask id="mask-1" x="8322" y="-8392" width="-32766" height="32766" maskUnits="userSpaceOnUse"/><linearGradient id="linear-gradient" x1="-134.89" y1="-63.51" x2="116.69" y2="-63.51" gradientUnits="userSpaceOnUse"><stop offset="0" stop-color="#fff"/><stop offset=".21" stop-color="#c6c6c6"/><stop offset=".76" stop-color="#393939"/><stop offset="1" stop-color="#000"/></linearGradient><mask id="mask" x="-134.89" y="-143.08" width="251.58" height="159.14" maskUnits="userSpaceOnUse"><g class="cls-5"><g class="cls-33"><path class="cls-24" d="M116.69-143.08v60.07c-21.07-1.15-42.79-.46-62.05,8.04-10.06,4.44-19.11,10.86-28.07,17.24C4.42-41.97-17.72-26.21-39.87-10.45-45.63-6.35-51.65-2.14-58.6-.83c-9.23,1.74-18.57-1.88-27.95-2.33-17.67-.85-33.29,9.28-48.34,19.21V-51.13c3.68-1.08,7.45-1.83,11.27-2.23,1.28-.13,2.57-.23,3.86-.32,8.51-.53,17.23-.26,24.96-3.72,1.92-.86,3.69-1.91,5.36-3.11,1.01-.73,1.98-1.51,2.92-2.34,2.13-1.88,4.08-3.99,5.94-6.24,9.02-10.88,15.82-24.8,28.94-29.54,1.07-.39,2.16-.7,3.26-.95,11.73-2.7,24.75,1.65,36.4-1.96,15.39-4.76,24.14-21.91,39.23-27.57,10.21-3.83,21.79-1.79,32.21-5,5.88-1.81,10.96-5.12,15.76-8.96h41.46Z"/></g></g></mask><linearGradient id="linear-gradient-2" x1="-134.89" y1="-63.51" x2="116.69" y2="-63.51" gradientUnits="userSpaceOnUse"><stop offset="0" stop-color="#f733b5"/><stop offset=".29" stop-color="#df309c"/><stop offset="1" stop-color="#a82c64"/></linearGradient><filter id="luminosity-noclip-4" x="-130.88" y="-109.73" width="247.57" height="142.38" color-interpolation-filters="sRGB" filterUnits="userSpaceOnUse"><feFlood flood-color="#fff" result="bg"/><feBlend in="SourceGraphic" in2="bg"/></filter><filter id="luminosity-noclip-5" x="8322" y="-8392" width="-32766" height="32766" color-interpolation-filters="sRGB" filterUnits="userSpaceOnUse"><feFlood flood-color="#fff" result="bg"/><feBlend in="SourceGraphic" in2="bg"/></filter><mask id="mask-3" x="8322" y="-8392" width="-32766" height="32766" maskUnits="userSpaceOnUse"/><linearGradient id="linear-gradient-3" x1="-130.88" y1="-38.54" x2="116.69" y2="-38.54" gradientUnits="userSpaceOnUse"><stop offset="0" stop-color="#000"/><stop offset=".24" stop-color="#393939"/><stop offset=".79" stop-color="#c6c6c6"/><stop offset="1" stop-color="#fff"/></linearGradient><mask id="mask-2" x="-130.88" y="-109.73" width="247.57" height="142.38" maskUnits="userSpaceOnUse"><g class="cls-2"><g class="cls-31"><path class="cls-23" d="M116.69-105.88v41c-2.76,1.99-5.82,3.57-8.98,4.68-8.91,3.11-18.55,3-27.92,2.28-9.37-.72-18.78-1.99-28.14-1.08-16.84,1.65-32.9,10.71-43.37,24.49C-.21-23.36-6.2-8.46-19.13-3.77c-8.06,2.92-16.97,1.02-25.39,2.43-11.76,1.98-21.52,10.16-30.88,17.82-9.35,7.65-19.66,15.37-31.55,16.12-11.89,.75-25.04-8.81-23.86-21.08,.7-7.25,6.14-13.28,12.44-16.55,6.3-3.27,13.43-4.26,20.4-5.28,15.79-2.3,31.66-4.96,46.58-10.82,14.91-5.87,28.95-15.2,38.19-28.68,3.43-5.01,6.41-10.76,11.59-13.74,4.69-2.7,10.32-2.61,15.66-3.11,10.55-.98,20.88-4.56,29.9-10.35,12.39-7.95,22.1-19.84,34.62-27.57,9.99-6.17,26.78-7.05,38.12-1.3Z"/></g></g></mask><linearGradient id="linear-gradient-4" x1="-130.88" y1="-38.54" x2="116.69" y2="-38.54" gradientUnits="userSpaceOnUse"><stop offset="0" stop-color="#a82c64"/><stop offset=".38" stop-color="#6f2962"/><stop offset="1" stop-color="#0c2561"/></linearGradient></defs><g class="cls-25"><g><polygon class="cls-9" points="-80.46 58.33 12.12 101.97 3.12 117.56 -80.46 58.33"/><polygon class="cls-9" points="-80.46 58.33 21.54 49.83 21.54 67.83 -80.46 58.33"/><polygon class="cls-9" points="-80.46 58.33 3.62 -.03 12.62 15.56 -80.46 58.33"/></g></g><g><g class="cls-27"><rect class="cls-7" x="5" y="89.4" width="118.44" height="27.69"/><g><rect class="cls-20" x="-3" y="2.1" width="120" height="38.46"/><rect class="cls-20" x="-1" y="40.55" width="118" height="28.19"/><g><rect class="cls-22" x="9.41" y="40.55" width="8.11" height="28.19"/><rect class="cls-22" x="36.41" y="40.55" width="8.11" height="28.19"/><rect class="cls-22" x="63.4" y="40.55" width="8.11" height="28.19"/><rect class="cls-22" x="90.4" y="40.55" width="8.11" height="28.19"/></g><rect class="cls-10" x="5" y="68.74" width="107" height="8.42"/><rect class="cls-10" x="5" y="77.16" width="107" height="14.66"/><rect class="cls-17" x="57.01" y="77.16" width="54.99" height="14.66"/><rect class="cls-17" x="5" y="77.16" width="107" height="7.33"/><rect class="cls-21" x="9.8" y="68.74" width="97.41" height="8.42"/><rect class="cls-14" x="9.8" y="68.74" width="97.41" height="4.21"/><rect class="cls-11" x="-3" y="40.55" width="120" height="7.71"/></g></g><path class="cls-8" d="M60,8.03c26.96,0,48.9,16.49,48.9,36.76v50.68c0,9.09-7.78,16.49-17.34,16.49H28.44c-9.56,0-17.34-7.4-17.34-16.49V44.8c0-20.27,21.94-36.76,48.9-36.76m0-6.03C29.66,2,5.06,21.16,5.06,44.8v50.68c0,12.44,10.47,22.52,23.38,22.52h63.12c12.91,0,23.38-10.08,23.38-22.52V44.8c0-23.64-24.6-42.8-54.94-42.8h0Z"/><g><path class="cls-13" d="M55.29,64.11h0c-2.38-3.21-6.9-3.88-10.11-1.5l-15.14,11.22c-3.21,2.38-3.88,6.9-1.5,10.11,2.38,3.21,6.9,3.88,10.11,1.5l15.14-11.22c3.21-2.38,3.88-6.9,1.5-10.11Z"/><rect class="cls-13" x="37.93" y="85.82" width="37.56" height="15.06"/><path class="cls-15" d="M63.46,100.88h0c-9.72,0-17.6-7.88-17.6-17.6v-14.37c0-9.72,7.88-17.6,17.6-17.6h0c9.72,0,17.6,7.88,17.6,17.6v14.37c0,9.72-7.88,17.6-17.6,17.6Z"/><path class="cls-16" d="M60.22,86.05h0c-5.47,0-9.91-4.44-9.91-9.91v-7.74c0-5.47,4.44-9.91,9.91-9.91h0c5.47,0,9.91,4.44,9.91,9.91v7.74c0,5.47-4.44,9.91-9.91,9.91Z"/><g><path class="cls-12" d="M87.1,33.09c0,3.79-3.08,6.87-6.87,6.87s-6.87-3.08-6.87-6.87,3.08-6.87,6.87-6.87,6.87,3.08,6.87,6.87Z"/><path class="cls-16" d="M83.47,33.09c0,1.79-1.45,3.24-3.24,3.24s-3.24-1.45-3.24-3.24,1.45-3.24,3.24-3.24,3.24,1.45,3.24,3.24Z"/><path class="cls-12" d="M55.09,33.09c0,3.79-3.08,6.87-6.87,6.87s-6.87-3.08-6.87-6.87,3.08-6.87,6.87-6.87,6.87,3.08,6.87,6.87Z"/><path class="cls-16" d="M51.46,33.09c0,1.79-1.45,3.24-3.24,3.24s-3.24-1.45-3.24-3.24,1.45-3.24,3.24-3.24,3.24,1.45,3.24,3.24Z"/><circle class="cls-15" cx="63.92" cy="49.02" r="20.47" transform="translate(-7.52 11.81) rotate(-9.97)"/><path class="cls-18" d="M65.13,28.59c-.4-.02-.81-.04-1.22-.04s-.81,.02-1.22,.04v20.43h2.44V28.59Z"/><g><path class="cls-6" d="M70.28,56.88c0,3.51-2.85,6.36-6.36,6.36s-6.36-2.85-6.36-6.36,2.85-6.36,6.36-6.36,6.36,2.85,6.36,6.36Z"/><g><circle class="cls-16" cx="69.07" cy="56.88" r="5.15"/><path class="cls-16" d="M63.92,56.88c0,2.85-2.31,5.15-5.15,5.15s-5.15-2.31-5.15-5.15,2.31-5.15,5.15-5.15,5.15,2.31,5.15,5.15Z"/><path class="cls-16" d="M63.92,46.57c-5.69,0-10.31,4.62-10.31,10.31h20.62c0-5.69-4.62-10.31-10.31-10.31Z"/></g><rect class="cls-6" x="62.7" y="46.99" width="2.44" height="14.19"/><path class="cls-19" d="M66.13,45.29h-4.42c-2.13,0-3.27,2.51-1.86,4.11l2.21,2.5c.99,1.12,2.73,1.12,3.71,0l2.21-2.5c1.41-1.6,.28-4.11-1.86-4.11Z"/></g><circle class="cls-19" cx="71.41" cy="43.85" r="1.95"/><circle class="cls-19" cx="57.05" cy="43.85" r="1.95"/><rect class="cls-18" x="61.15" y="33.09" width="5.52" height="1.69"/><rect class="cls-18" x="61.15" y="39.11" width="5.52" height="1.69"/></g><path class="cls-15" d="M96.34,80.47l-10.89-15.38c-2.31-3.26-6.82-4.03-10.07-1.72-3.26,2.31-4.03,6.82-1.72,10.07l10.89,15.38c2.31,3.26,6.82,4.03,10.07,1.72h0c3.26-2.31,4.03-6.82,1.72-10.07Z"/><g><path class="cls-12" d="M75.5,76.95c-4.3,0-7.78,3.48-7.78,7.78v8.36c0,4.3,3.48,7.78,7.78,7.78s7.78-3.48,7.78-7.78v-8.36c0-4.3-3.48-7.78-7.78-7.78Z"/><path class="cls-16" d="M80.15,92.69c0,2.57-2.08,4.66-4.66,4.66s-4.66-2.08-4.66-4.66,2.08-4.66,4.66-4.66,4.66,2.08,4.66,4.66Z"/><circle class="cls-16" cx="75.5" cy="82.89" r="1.94"/><circle class="cls-16" cx="80.15" cy="85.8" r="1.94"/><circle class="cls-16" cx="71.01" cy="85.8" r="1.94"/></g><g><path class="cls-12" d="M42.87,87.6l-5.91-5.91c-3.04-3.04-7.97-3.04-11.01,0h0c-3.04,3.04-3.04,7.97,0,11.01l5.91,5.91c3.04,3.04,7.97,3.04,11.01,0s3.04-7.97,0-11.01Z"/><path class="cls-16" d="M40.37,89.52c1.82,1.82,1.82,4.77,0,6.58-1.82,1.82-4.77,1.82-6.58,0-1.82-1.82-1.82-4.77,0-6.58,1.82-1.82,4.77-1.82,6.58,0Z"/><path class="cls-16" d="M31.52,84.5c.76,.76,.76,1.99,0,2.75-.76,.76-1.99,.76-2.75,0s-.76-1.99,0-2.75c.76-.76,1.99-.76,2.75,0Z"/><path class="cls-16" d="M36.87,83.27c.76,.76,.76,1.99,0,2.75-.76,.76-1.99,.76-2.75,0-.76-.76-.76-1.99,0-2.75,.76-.76,1.99-.76,2.75,0Z"/><circle class="cls-16" cx="29.03" cy="91.11" r="1.94"/></g></g></g><g class="cls-26"><g><g class="cls-3"><g class="cls-4"><path class="cls-29" d="M116.69-143.08v60.07c-21.07-1.15-42.79-.46-62.05,8.04-10.06,4.44-19.11,10.86-28.07,17.24C4.42-41.97-17.72-26.21-39.87-10.45-45.63-6.35-51.65-2.14-58.6-.83c-9.23,1.74-18.57-1.88-27.95-2.33-17.67-.85-33.29,9.28-48.34,19.21V-51.13c3.68-1.08,7.45-1.83,11.27-2.23,1.28-.13,2.57-.23,3.86-.32,8.51-.53,17.23-.26,24.96-3.72,1.92-.86,3.69-1.91,5.36-3.11,1.01-.73,1.98-1.51,2.92-2.34,2.13-1.88,4.08-3.99,5.94-6.24,9.02-10.88,15.82-24.8,28.94-29.54,1.07-.39,2.16-.7,3.26-.95,11.73-2.7,24.75,1.65,36.4-1.96,15.39-4.76,24.14-21.91,39.23-27.57,10.21-3.83,21.79-1.79,32.21-5,5.88-1.81,10.96-5.12,15.76-8.96h41.46Z"/></g></g><g class="cls-30"><g class="cls-32"><path class="cls-28" d="M116.69-105.88v41c-2.76,1.99-5.82,3.57-8.98,4.68-8.91,3.11-18.55,3-27.92,2.28-9.37-.72-18.78-1.99-28.14-1.08-16.84,1.65-32.9,10.71-43.37,24.49C-.21-23.36-6.2-8.46-19.13-3.77c-8.06,2.92-16.97,1.02-25.39,2.43-11.76,1.98-21.52,10.16-30.88,17.82-9.35,7.65-19.66,15.37-31.55,16.12-11.89,.75-25.04-8.81-23.86-21.08,.7-7.25,6.14-13.28,12.44-16.55,6.3-3.27,13.43-4.26,20.4-5.28,15.79-2.3,31.66-4.96,46.58-10.82,14.91-5.87,28.95-15.2,38.19-28.68,3.43-5.01,6.41-10.76,11.59-13.74,4.69-2.7,10.32-2.61,15.66-3.11,10.55-.98,20.88-4.56,29.9-10.35,12.39-7.95,22.1-19.84,34.62-27.57,9.99-6.17,26.78-7.05,38.12-1.3Z"/></g></g></g></g></svg>