<?xml version="1.0" encoding="UTF-8"?><svg id="_레이어_1" xmlns="http://www.w3.org/2000/svg" xmlns:xlink="http://www.w3.org/1999/xlink" viewBox="0 0 120 120"><defs><style>.cls-1{fill:none;}.cls-2{clip-path:url(#clippath);}.cls-3{fill:#6a6a6a;}.cls-4,.cls-5{fill:#fff;}.cls-6{fill:#ff4300;}.cls-7{fill:#f18a29;}.cls-8{fill:#33374b;}.cls-9{fill:#a6a5c2;}.cls-10{fill:#101010;}.cls-11{fill:#31d8f4;}.cls-12{fill:#4b4b5e;}.cls-13{clip-path:url(#clippath-3);}.cls-14{clip-path:url(#clippath-2);}.cls-5{opacity:.2;}</style><clipPath id="clippath"><circle class="cls-1" cx="60" cy="60" r="58.5"/></clipPath><clipPath id="clippath-1"><path class="cls-1" d="M-33.65,163.51c0-2.62-2.12-4.74-4.74-4.74h-8.49c-4.85-8.84-17.91-15.17-33.27-15.17s-28.43,6.33-33.27,15.17h-8.49c-2.62,0-4.74,2.12-4.74,4.74v61.55c0,17.3,20.82,31.33,46.5,31.33s46.5-14.03,46.5-31.33v-61.55Z"/></clipPath><clipPath id="clippath-2"><circle class="cls-1" cx="-79.5" cy="60.12" r="56.5"/></clipPath><clipPath id="clippath-3"><path class="cls-1" d="M90.39-132.17H31c-12.15,0-22,10.1-22,22.56v42.75c0,23.67,23.15,42.86,51.7,42.86s51.7-19.19,51.7-42.86v-42.75c0-12.46-9.85-22.56-22-22.56Z"/></clipPath></defs><g><circle class="cls-11" cx="60" cy="60" r="56"/><g class="cls-2"><g><polygon class="cls-5" points="60 60 -42 68.5 -42 50.5 60 60"/><polygon class="cls-5" points="60 60 -24.08 118.36 -33.08 102.77 60 60"/><polygon class="cls-5" points="60 60 16.36 152.58 .77 143.58 60 60"/><polygon class="cls-5" points="60 60 68.5 162 50.5 162 60 60"/><polygon class="cls-5" points="60 60 118.36 144.08 102.77 153.08 60 60"/><polygon class="cls-5" points="60 60 152.58 103.64 143.58 119.23 60 60"/><polygon class="cls-5" points="60 60 162 51.5 162 69.5 60 60"/><polygon class="cls-5" points="60 60 144.08 1.64 153.08 17.23 60 60"/><polygon class="cls-5" points="60 60 103.64 -32.58 119.23 -23.58 60 60"/><polygon class="cls-5" points="60 60 51.5 -42 69.5 -42 60 60"/><polygon class="cls-5" points="60 60 1.64 -24.08 17.23 -33.08 60 60"/><polygon class="cls-5" points="60 60 -32.58 16.36 -23.58 .77 60 60"/></g></g><path class="cls-4" d="M60,7.69c28.84,0,52.31,23.47,52.31,52.31s-23.47,52.31-52.31,52.31S7.69,88.84,7.69,60,31.16,7.69,60,7.69m0-6.19C27.69,1.5,1.5,27.69,1.5,60s26.19,58.5,58.5,58.5,58.5-26.19,58.5-58.5S92.31,1.5,60,1.5h0Z"/><g><path class="cls-12" d="M99.95,38.43l-51.67,.04,4.33-7.86c2.2-4,6.4-6.49,10.97-6.49l21.28-.03c4.69,0,8.97,2.6,11.14,6.75l3.94,7.58Z"/><path class="cls-12" d="M100.33,99.89l-77.15,.08-.06-62.19,75.74-.07c4.91,0,8.89,3.97,8.9,8.87l.03,45.82c.01,4.14-3.33,7.48-7.47,7.49Z"/><path class="cls-8" d="M100.33,99.89l-26.14,.03-.07-62.18,24.74-.02c4.91,0,8.89,3.97,8.9,8.87l.03,45.82c.01,4.14-3.33,7.48-7.47,7.49Z"/><g><path class="cls-10" d="M100.06,70.79c.02,14.27-11.55,25.84-25.8,25.85-14.27,.02-25.85-11.53-25.86-25.8-.02-14.27,11.53-25.84,25.8-25.86,14.27-.01,25.85,11.54,25.86,25.81Z"/><path class="cls-3" d="M95.66,70.8c0,11.84-9.58,21.44-21.41,21.45-11.84,.02-21.44-9.57-21.46-21.41,0-11.84,9.58-21.45,21.41-21.46,11.84-.02,21.44,9.57,21.45,21.41Z"/><path class="cls-9" d="M89.1,70.8c0,8.21-6.64,14.87-14.85,14.89-8.21,0-14.87-6.64-14.89-14.85,0-8.22,6.64-14.88,14.85-14.88,8.21-.01,14.88,6.64,14.89,14.85Z"/><path class="cls-10" d="M83.83,70.81c.01,5.39-4.36,9.75-9.74,9.75-5.38,.01-9.75-4.34-9.74-9.73-.01-5.38,4.34-9.75,9.73-9.76,5.39,0,9.76,4.36,9.76,9.74Z"/><path class="cls-4" d="M71.55,63.53c0,3.37-2.73,6.09-6.09,6.1-3.36,0-6.09-2.72-6.09-6.08,0-3.37,2.72-6.1,6.08-6.1,3.36,0,6.09,2.73,6.1,6.09Z"/></g><polygon class="cls-7" points="85.22 34.82 63.01 34.85 63.01 27.82 85.21 27.8 85.22 34.82"/><polygon class="cls-4" points="55.39 48.28 42.66 48.28 42.63 41.54 55.38 41.53 55.39 48.28"/><path class="cls-6" d="M48.59,53.88c0,1.29-1.04,2.33-2.32,2.33-1.28,0-2.33-1.05-2.34-2.33,0-1.28,1.04-2.33,2.33-2.33,1.29,0,2.32,1.04,2.33,2.33Z"/><polygon class="cls-9" points="102.03 48.23 95.24 48.24 95.25 42.51 102.03 42.5 102.03 48.23"/><path class="cls-12" d="M14.52,92.14c0,4.32,3.52,7.83,7.84,7.83l16.94-.02-.02-30.34-24.79,.03,.03,22.5Z"/><rect class="cls-10" x="18.95" y="29.86" width="18.25" height="7.04"/><path class="cls-12" d="M39.3,99.96l-16.94,.02c-4.33,0-7.84-3.51-7.84-7.83l-.05-52.9c0-2.44,1.97-4.41,4.4-4.41l15.56-.02c2.66,0,4.82,2.16,4.82,4.81l.06,60.33Z"/><rect class="cls-8" x="28.05" y="34.82" width="10.95" height="65.08"/></g><path class="cls-4" d="M48.26,21.6c-4.14,0-7.5-3.36-7.5-7.5,0,4.14-3.36,7.5-7.5,7.5,4.14,0,7.5,3.36,7.5,7.5,0-4.14,3.36-7.5,7.5-7.5Z"/><path class="cls-4" d="M50.8,28.74c-1.6,0-2.9-1.3-2.9-2.9,0,1.6-1.3,2.9-2.9,2.9,1.6,0,2.9,1.3,2.9,2.9,0-1.6,1.3-2.9,2.9-2.9Z"/></g><g class="cls-14"><g><polygon class="cls-5" points="-79.72 49.35 12.86 92.98 3.86 108.57 -79.72 49.35"/><polygon class="cls-5" points="-79.72 49.35 22.28 40.85 22.28 58.85 -79.72 49.35"/><polygon class="cls-5" points="-79.72 49.35 4.36 -9.02 13.36 6.57 -79.72 49.35"/></g></g><g class="cls-13"><g><polygon class="cls-5" points="59.54 -81.67 15.9 10.92 .31 1.92 59.54 -81.67"/><polygon class="cls-5" points="59.54 -81.67 68.04 20.33 50.04 20.33 59.54 -81.67"/><polygon class="cls-5" points="59.54 -81.67 117.9 2.42 102.31 11.42 59.54 -81.67"/></g></g></svg>