<?xml version="1.0" encoding="UTF-8"?><svg id="_레이어_1" xmlns="http://www.w3.org/2000/svg" xmlns:xlink="http://www.w3.org/1999/xlink" viewBox="0 0 120 120"><defs><style>.cls-1{fill:none;}.cls-2{clip-path:url(#clippath);}.cls-3{fill:#f7f7f7;}.cls-4{fill:#01ad9e;}.cls-5{fill:#015157;}.cls-6{fill:#000100;}.cls-7,.cls-8{fill:#fff;}.cls-9{fill:#f1eeed;}.cls-10{fill:#fd4864;}.cls-11{fill:#fddc64;}.cls-12{fill:#91dd45;}.cls-13{fill:#cbc9c0;}.cls-14{fill:#dbd9d9;}.cls-15{fill:#dbd9d3;}.cls-16{fill:#20aae1;}.cls-17{fill:#4c4d59;}.cls-18{fill:#79d9d7;}.cls-8{opacity:.2;}</style><clipPath id="clippath"><circle class="cls-1" cx="-80" cy="60" r="58.5"/></clipPath><clipPath id="clippath-1"><circle class="cls-1" cx="200.5" cy="200.12" r="56.5"/></clipPath></defs><g class="cls-2"><g><polygon class="cls-8" points="-78.79 61.41 13.79 105.05 4.79 120.63 -78.79 61.41"/><polygon class="cls-8" points="-78.79 61.41 23.21 52.91 23.21 70.91 -78.79 61.41"/><polygon class="cls-8" points="-78.79 61.41 5.29 3.05 14.29 18.63 -78.79 61.41"/></g></g><g><path class="cls-18" d="M109.36,80.56V37.44c0-3.98-2.13-7.67-5.58-9.66L66.44,6.22c-3.45-1.99-7.7-1.99-11.15,0L17.94,27.78c-3.45,1.99-5.58,5.67-5.58,9.66v43.12c0,3.98,2.13,7.67,5.58,9.66l37.35,21.56c3.45,1.99,7.7,1.99,11.15,0l37.35-21.56c3.45-1.99,5.58-5.67,5.58-9.66Z"/><path class="cls-4" d="M96.37,74.56v-29.12c0-3.98-2.13-7.67-5.58-9.66l-25.22-14.56c-3.45-1.99-7.7-1.99-11.15,0l-25.22,14.56c-3.45,1.99-5.58,5.67-5.58,9.66v29.12c0,3.98,2.13,7.67,5.58,9.66l25.22,14.56c3.45,1.99,7.7,1.99,11.15,0l25.22-14.56c3.45-1.99,5.58-5.67,5.58-9.66Z"/><path class="cls-5" d="M85.46,68.26v-16.52c0-3.98-2.13-7.67-5.58-9.66l-14.31-8.26c-3.45-1.99-7.7-1.99-11.15,0l-14.31,8.26c-3.45,1.99-5.58,5.67-5.58,9.66v16.52c0,3.98,2.13,7.67,5.58,9.66l14.31,8.26c3.45,1.99,7.7,1.99,11.15,0l14.31-8.26c3.45-1.99,5.58-5.67,5.58-9.66Z"/><path class="cls-7" d="M60,7.72c.9,0,1.79,.24,2.58,.69l40.81,23.56c1.59,.92,2.58,2.63,2.58,4.46v47.12c0,1.83-.99,3.54-2.58,4.46l-40.81,23.56c-.78,.45-1.67,.69-2.58,.69s-1.79-.24-2.58-.69l-40.81-23.56c-1.59-.92-2.58-2.63-2.58-4.46V36.44c0-1.83,.99-3.54,2.58-4.46L57.42,8.42c.78-.45,1.67-.69,2.58-.69m0-6c-1.93,0-3.85,.5-5.58,1.49L13.61,26.78c-3.45,1.99-5.58,5.67-5.58,9.66v47.12c0,3.98,2.13,7.67,5.58,9.66l40.81,23.56c1.73,1,3.65,1.49,5.58,1.49s3.85-.5,5.58-1.49l40.81-23.56c3.45-1.99,5.58-5.67,5.58-9.66V36.44c0-3.98-2.13-7.67-5.58-9.66L65.58,3.22c-1.73-1-3.65-1.49-5.58-1.49h0Z"/><g><rect class="cls-13" x="28.18" y="37.8" width="10.59" height="7.94"/><rect class="cls-15" x="42.75" y="47.07" width="35.75" height="27.81"/><path class="cls-13" d="M42.75,74.88h5.19c4.41-3.88,7.21-9.55,7.21-15.89,0-4.42-1.36-8.52-3.67-11.92h-8.72v27.81Z"/><rect class="cls-9" x="42.75" y="47.07" width="35.75" height="2.65"/><path class="cls-3" d="M44.46,73.31l-9.94-12.54-4.08,7.96-2.36-1.21,4.08-7.96-14.11-7.19-4.56,29.13c-1.83,4.11-.15,8.99,3.9,11.07,4.01,2.06,8.87,.64,11.19-3.14l15.87-16.11Z"/><path class="cls-15" d="M34.53,60.77l-4.08,7.96-1.26-.65-12.11,24.3c.11,.06,.22,.13,.33,.19,4.01,2.06,8.87,.64,11.19-3.14l19.93-21.17-13.99-7.49Z"/><circle class="cls-15" cx="33.95" cy="58.99" r="17.21" transform="translate(-20.99 18.82) rotate(-23.91)"/><path class="cls-17" d="M45.87,58.99c0,6.58-5.34,11.92-11.92,11.92s-11.92-5.34-11.92-11.92,5.34-11.92,11.92-11.92,11.92,5.34,11.92,11.92Z"/><g><polygon class="cls-14" points="28.66 56.34 24.21 56.34 24.21 61.63 28.66 61.63 31.31 58.99 28.66 56.34"/><polygon class="cls-14" points="36.13 53.69 36.13 49.72 30.83 49.72 30.83 53.69 33.48 56.34 36.13 53.69"/><polygon class="cls-14" points="39.25 56.34 36.6 58.99 39.25 61.63 42.75 61.63 42.75 56.34 39.25 56.34"/><polygon class="cls-14" points="30.83 64.28 30.83 68.25 36.13 68.25 36.13 64.28 33.48 61.63 30.83 64.28"/></g><rect class="cls-13" x="81.15" y="37.8" width="10.59" height="7.94" transform="translate(172.89 83.54) rotate(180)"/><path class="cls-3" d="M76.41,73.31l9.94-12.54,4.08,7.96,2.36-1.21-4.08-7.96,14.11-7.19,4.56,29.13c1.83,4.11,.15,8.99-3.9,11.07-4.01,2.06-8.87,.64-11.19-3.14l-15.87-16.11Z"/><path class="cls-15" d="M86.35,60.77l4.08,7.96,1.26-.65,12.11,24.3c-.11,.06-.22,.13-.33,.19-4.01,2.06-8.87,.64-11.19-3.14l-19.93-21.17,13.99-7.49Z"/><circle class="cls-15" cx="86.92" cy="58.99" r="17.21" transform="translate(-11.19 21.45) rotate(-13.23)"/><path class="cls-17" d="M75,58.99c0,6.58,5.34,11.92,11.92,11.92s11.92-5.34,11.92-11.92-5.34-11.92-11.92-11.92-11.92,5.34-11.92,11.92Z"/><path class="cls-9" d="M58.45,74.21c0-4.02-3.26-7.28-7.28-7.28s-7.28,3.26-7.28,7.28,3.26,7.28,7.28,7.28,7.28-3.26,7.28-7.28Z"/><circle class="cls-17" cx="51.17" cy="74.21" r="4.63"/><path class="cls-9" d="M78.98,74.21c0-4.02-3.26-7.28-7.28-7.28s-7.28,3.26-7.28,7.28,3.26,7.28,7.28,7.28,7.28-3.26,7.28-7.28Z"/><circle class="cls-17" cx="71.69" cy="74.21" r="4.63"/><rect class="cls-16" x="83.8" y="61.63" width="5.3" height="5.3"/><rect class="cls-12" x="83.8" y="49.72" width="5.3" height="5.3"/><path class="cls-11" d="M96.19,58.99c0,1.46-1.19,2.65-2.65,2.65s-2.65-1.19-2.65-2.65,1.19-2.65,2.65-2.65,2.65,1.19,2.65,2.65Z"/><path class="cls-10" d="M82.95,58.99c0,1.46-1.19,2.65-2.65,2.65s-2.65-1.19-2.65-2.65,1.19-2.65,2.65-2.65,2.65,1.19,2.65,2.65Z"/><rect class="cls-17" x="55.99" y="53.69" width="10.59" height="2.65"/><rect class="cls-17" x="54.66" y="58.99" width="5.3" height="2.65"/><rect class="cls-17" x="62.61" y="58.99" width="5.3" height="2.65"/><circle class="cls-6" cx="61.76" cy="66.93" r="1.32"/></g><path class="cls-7" d="M42.98,28.84c-3.16,0-5.72-2.56-5.72-5.72,0,3.16-2.56,5.72-5.72,5.72,3.16,0,5.72,2.56,5.72,5.72,0-3.16,2.56-5.72,5.72-5.72Z"/><path class="cls-7" d="M45.25,34.55c-1.25,0-2.27-1.01-2.27-2.27,0,1.25-1.01,2.27-2.27,2.27,1.25,0,2.27,1.01,2.27,2.27,0-1.25,1.01-2.27,2.27-2.27Z"/></g></svg>