<?xml version="1.0" encoding="UTF-8"?><svg id="_레이어_1" xmlns="http://www.w3.org/2000/svg" xmlns:xlink="http://www.w3.org/1999/xlink" viewBox="0 0 120 120"><defs><style>.cls-1{fill:none;}.cls-2{fill:#f7630c;}.cls-3{fill:#fff;}.cls-4{fill:#73aa24;}.cls-5{fill:#63c864;}.cls-6{fill:#d5e81f;}.cls-7{fill:url(#_무제_그라디언트_10);}</style><linearGradient id="_무제_그라디언트_10" x1="60.33" y1="116.93" x2="60.33" y2="5.93" gradientUnits="userSpaceOnUse"><stop offset="0" stop-color="#fff"/><stop offset=".69" stop-color="#c9ebff"/><stop offset=".9" stop-color="#a7dfff"/><stop offset="1" stop-color="#59c3ff"/></linearGradient></defs><g><path class="cls-7" d="M115.83,59.67c0-30.65-24.85-55.5-55.5-55.5S4.83,29.01,4.83,59.67c0,1.29,.06,2.57,.15,3.83H115.69c.09-1.27,.15-2.54,.15-3.83Z"/><path class="cls-5" d="M60.33,115.17c29.36,0,53.38-22.81,55.35-51.67H4.98c1.97,28.86,25.99,51.67,55.35,51.67Z"/></g><path class="cls-3" d="M60,1.5C36.05,1.5,15.48,15.9,6.43,36.5h6.86C21.91,19.43,39.6,7.69,60,7.69s38.09,11.74,46.71,28.81h6.86C104.52,15.9,83.95,1.5,60,1.5Z"/><g><path class="cls-2" d="M24.62,22.73c-.91-1.11-1.61-2.34-2.11-3.68-.5-1.35-.75-2.74-.75-4.17,0-.41,.16-.78,.48-1.1,.32-.32,.69-.48,1.1-.48,.44,0,.81,.16,1.12,.46,.3,.31,.46,.68,.46,1.12,0,1.58,.38,3.07,1.14,4.47,.76,1.4,1.8,2.53,3.11,3.38h8.73v3.16H20.24c-.44,0-.81-.15-1.12-.46-.31-.3-.46-.68-.46-1.12s.15-.81,.46-1.12c.3-.31,.68-.46,1.12-.46h4.39Z"/><path class="cls-6" d="M86.71,60.9c.26,.35,.53,.67,.81,.94,.28,.28,.65,.42,1.12,.42,.58,0,.99-.3,1.23-.88,1.43,.58,2.89,1.35,4.36,2.31,1.48,.95,2.81,2.04,3.99,3.29,1.19,1.24,2.15,2.62,2.9,4.12,.74,1.51,1.12,3.12,1.12,4.85,0,.47-.01,.93-.02,1.38-.02,.45-.08,.92-.2,1.38-.44,1.96-1.03,3.91-1.78,5.86-.74,1.95-1.76,3.71-3.05,5.29-1.26,1.55-2.76,2.86-4.49,3.95-1.74,1.08-3.64,1.99-5.68,2.74-2.05,.75-4.19,1.34-6.43,1.78-2.24,.44-4.48,.76-6.71,.98-2.24,.22-4.42,.37-6.54,.44-2.12,.07-4.08,.11-5.86,.11-1.14,0-2.17,0-3.09-.02-.92-.02-1.82-.04-2.7-.07-.88-.03-1.78-.06-2.7-.08-.92-.03-1.95-.06-3.09-.09H26.77c-.17-.29-.35-.51-.52-.66-.18-.15-.34-.26-.48-.35-.74-.41-1.44-.87-2.11-1.38-.67-.51-1.17-1.16-1.49-1.95,.56-.97,1.23-1.84,2.02-2.61,.79-.78,1.66-1.44,2.61-1.98,.95-.54,1.96-.96,3.03-1.25,1.07-.3,2.16-.44,3.27-.44h28.39c1.2,0,2.72-.04,4.58-.11,1.86-.07,3.84-.24,5.95-.48,2.11-.25,4.22-.62,6.34-1.12,2.12-.5,4.04-1.16,5.75-1.98,1.71-.82,3.1-1.83,4.17-3.03,1.06-1.2,1.6-2.65,1.6-4.34,0-.58-.16-1.13-.48-1.65-.33-.52-.7-.96-1.14-1.34-.03-.47-.15-.85-.35-1.16-.2-.3-.46-.56-.77-.76-.3-.21-.65-.38-1.03-.53-.38-.15-.76-.27-1.14-.39l-.35-.14c-1.4,1.76-2.97,3.36-4.7,4.81-1.72,1.45-3.57,2.69-5.55,3.73-1.98,1.04-4.04,1.84-6.21,2.41-2.16,.57-4.39,.86-6.67,.86h-9.48c-1.93,0-3.89-.16-5.86-.46-1.98-.31-3.91-.78-5.8-1.4-1.89-.63-3.69-1.44-5.42-2.42-1.72-.98-3.3-2.13-4.73-3.44-.18-.15-.38-.34-.62-.57-.24-.23-.47-.48-.7-.75-.24-.26-.44-.52-.63-.79-.19-.26-.3-.51-.33-.75-.17-.76-.32-1.54-.44-2.35-.12-.8-.17-1.6-.17-2.39,0-.15,.07-.37,.2-.66,.13-.29,.29-.61,.48-.94,.19-.34,.38-.65,.57-.92,.19-.28,.33-.49,.42-.63,1.2-1.61,2.72-2.92,4.58-3.93,1.86-1.01,3.85-1.81,5.97-2.39,2.12-.58,4.27-.99,6.45-1.21s4.19-.33,6.04-.33h15.79c1.05,0,2.11,.02,3.16,.04,1.06,.03,2.11,.07,3.16,.14l1.06-7.5c.11-.74,.23-1.35,.35-1.84,.12-.5,.17-1.13,.17-1.89,0-1.15-.08-2.41-.26-3.8-.17-1.39-.47-2.75-.88-4.08-.41-1.33-.98-2.56-1.71-3.68-.73-1.13-1.64-1.99-2.72-2.61h-21.24c-2.26,0-4.18-.45-5.77-1.36-1.6-.91-2.89-2.1-3.9-3.58-1.01-1.48-1.75-3.16-2.24-5.04-.48-1.89-.72-3.81-.72-5.77v-3.16h22.47c.08,0,.18,0,.29,.02,.1,.01,.2,.02,.28,.02,4.5,.32,8.46,1.42,11.87,3.29,3.4,1.87,6.26,4.3,8.58,7.28,2.31,2.98,4.05,6.4,5.22,10.27,1.17,3.86,1.75,7.92,1.75,12.2v14.52Zm-25.23,12.29c1.64,0,3.28-.23,4.94-.68,1.65-.45,3.13-1.19,4.45-2.22-.33-.47-.72-.88-1.19-1.22-.47-.35-.99-.65-1.56-.88-.57-.23-1.16-.4-1.76-.5-.6-.11-1.18-.16-1.74-.16h-12.63c-4.01,0-7.55,1.36-10.62,4.08,1.63,.61,3.38,1.03,5.24,1.25,1.86,.22,3.65,.33,5.38,.33h9.48Z"/><path class="cls-4" d="M102.24,74.99c.09,.5,.15,.99,.17,1.47,.03,.48,.04,.97,.04,1.47,0,3.42-.66,6.37-1.97,8.86-1.32,2.48-3.07,4.61-5.25,6.36-2.18,1.75-4.68,3.18-7.5,4.27-2.83,1.1-5.76,1.95-8.8,2.57-3.04,.62-6.07,1.03-9.08,1.25-3.02,.22-5.81,.33-8.39,.33H20.5c0-1.12,.13-2.21,.42-3.27,.28-1.07,.71-2.07,1.29-3.01H61.48c2.37,0,4.96-.08,7.77-.26,2.81-.18,5.64-.52,8.49-1.03,2.85-.51,5.64-1.24,8.38-2.17,2.74-.94,5.21-2.16,7.44-3.66,2.22-1.51,4.11-3.34,5.64-5.51,1.54-2.16,2.55-4.72,3.05-7.68m-15.53-14.79c.55,.18,1.1,.36,1.62,.55,.52,.19,1.03,.4,1.53,.63v3.77c0,.91-.02,1.76-.04,2.57-.03,.8-.1,1.6-.22,2.39-.12,.79-.29,1.58-.51,2.37-.22,.79-.5,1.61-.85,2.45-.53-.47-1.11-.86-1.74-1.19-.63-.32-1.26-.61-1.9-.88-1.17,2.2-2.58,4.09-4.21,5.71-1.64,1.61-3.45,2.95-5.44,4.04-1.99,1.08-4.12,1.89-6.41,2.41-2.28,.53-4.63,.79-7.07,.79h-9.48c-1.47,0-3.1-.08-4.91-.24-1.81-.16-3.65-.44-5.51-.84-1.86-.39-3.68-.93-5.46-1.62-1.79-.69-3.36-1.56-4.74-2.61-1.38-1.06-2.49-2.31-3.34-3.77-.85-1.47-1.27-3.17-1.27-5.13,0-1.06,.16-2.11,.48-3.16,.47,1.52,1.22,2.85,2.26,3.99,1.04,1.14,2.25,2.12,3.64,2.94,1.39,.82,2.9,1.49,4.54,2.02,1.64,.53,3.3,.95,4.98,1.27,1.68,.33,3.32,.55,4.94,.66,1.61,.12,3.07,.17,4.39,.17h9.48c3.22,0,6.34-.5,9.37-1.49,3.03-.99,5.72-2.44,8.08-4.34,2.35-1.9,4.24-4.21,5.66-6.94,1.42-2.72,2.13-5.82,2.13-9.3v2.76Zm-22.07,3.56c1.58,0,3.15,.04,4.72,.11,1.56,.07,3.13,.2,4.72,.37-.06,1.23-.38,2.35-.94,3.36-.57,1.01-1.33,1.89-2.26,2.65-1.02-.06-2.06-.1-3.11-.13-1.06-.03-2.09-.04-3.12-.04h-12.64c-1.76,0-3.55,.11-5.38,.33-1.83,.22-3.58,.62-5.25,1.21v-1.01c0-1.17,.38-2.18,1.12-3.03,.74-.85,1.66-1.56,2.76-2.13,1.1-.57,2.26-.99,3.49-1.27,1.23-.28,2.31-.42,3.25-.42h12.64Zm8.64-31.55c1.46,2.05,2.48,4.3,3.07,6.76,.58,2.46,.88,4.93,.88,7.41v11.45h-.22c-.5-.06-.98-.1-1.45-.13-.47-.03-.95-.06-1.45-.09v-11.23c0-2.48-.29-4.95-.88-7.41-.58-2.45-1.62-4.71-3.11-6.76h3.16Z"/><path d="M55.16,16.45c.88,0,1.62,.31,2.24,.92,.62,.61,.92,1.36,.92,2.24v3.12c0,.88-.3,1.62-.92,2.24-.61,.61-1.36,.92-2.24,.92s-1.59-.31-2.22-.94c-.63-.63-.94-1.37-.94-2.22v-3.12c0-.84,.31-1.58,.94-2.21,.63-.63,1.37-.94,2.22-.94"/></g><path class="cls-1" d="M60,112.31c28.84,0,52.31-23.47,52.31-52.31,0-8.45-2.03-16.43-5.6-23.5H13.29c-3.57,7.07-5.6,15.05-5.6,23.5,0,28.84,23.47,52.31,52.31,52.31Z"/><path class="cls-3" d="M112.31,60c0,28.84-23.47,52.31-52.31,52.31S7.69,88.84,7.69,60c0-8.45,2.03-16.43,5.6-23.5H6.43c-3.16,7.19-4.93,15.14-4.93,23.5,0,32.31,26.19,58.5,58.5,58.5s58.5-26.19,58.5-58.5c0-8.36-1.77-16.31-4.93-23.5h-6.86c3.57,7.07,5.6,15.05,5.6,23.5Z"/><path class="cls-5" d="M14.89,64.5s-.6-7.16-4.26-8c0,0,6.27-.18,8.92,6.44,0,0,1.32-5.96,7.95-5.96,0,0-4,2.45-3.66,7.52H14.89Z"/><path class="cls-5" d="M98.89,64.5s-.6-7.16-4.26-8c0,0,6.27-.18,8.92,6.44,0,0,1.32-5.96,7.95-5.96,0,0-4,2.45-3.66,7.52h-8.95Z"/></svg>