<?xml version="1.0" encoding="UTF-8"?><svg id="_레이어_1" xmlns="http://www.w3.org/2000/svg" xmlns:xlink="http://www.w3.org/1999/xlink" viewBox="0 0 120 120"><defs><style>.cls-1{fill:none;}.cls-2{fill:url(#linear-gradient);}.cls-3{clip-path:url(#clippath);}.cls-4{fill:#65c6d6;}.cls-5{fill:#e6e7e8;}.cls-6{fill:#ea3606;}.cls-7{fill:#e3e4e4;}.cls-8{fill:#e88900;}.cls-9{fill:#ff9e03;}.cls-10{fill:#fff;}.cls-11{fill:#fff2be;}.cls-12{fill:#fc0;}.cls-13{fill:#9fedff;}.cls-14{fill:#95249b;}.cls-15{fill:#aa36ad;}.cls-16{fill:#a9aaaa;}.cls-17{fill:#bcbec0;}.cls-18{fill:#a3c24c;}.cls-19{fill:#cc0;}.cls-20{fill:#d32a09;}.cls-21{fill:#dadbdd;}.cls-22{fill:#c7e3ff;}.cls-23{fill:#d74214;}.cls-24{fill:#6fd656;}.cls-25{fill:#9cf;}.cls-26{fill:#539a47;}.cls-27{fill:#5dbc42;}.cls-28{clip-path:url(#clippath-1);}</style><clipPath id="clippath"><path class="cls-1" d="M91.56-138.51H28.44c-12.91,0-23.38,10.08-23.38,22.52v50.68c0,23.64,24.6,42.8,54.94,42.8s54.94-19.16,54.94-42.8v-50.68c0-12.44-10.47-22.52-23.38-22.52Z"/></clipPath><linearGradient id="linear-gradient" x1="60.45" y1="114.09" x2="60.45" y2="9" gradientUnits="userSpaceOnUse"><stop offset="0" stop-color="#fff"/><stop offset=".33" stop-color="#c9ebff"/><stop offset=".36" stop-color="#c3e9ff"/><stop offset=".53" stop-color="#a7dfff"/><stop offset=".87" stop-color="#6ecbff"/><stop offset="1" stop-color="#59c3ff"/></linearGradient><clipPath id="clippath-1"><path class="cls-1" d="M30.27,115h60.37c12.35,0,22.36-9.65,22.36-21.55V44.98c0-22.61-23.53-40.94-52.55-40.94S7.91,22.37,7.91,44.98v48.48c0,11.9,10.01,21.55,22.36,21.55Z"/></clipPath></defs><g class="cls-3"><g><path class="cls-16" d="M48.78,10.74l3.98,5.99c.93,1.4,2.19,2.18,3.5,2.18l7.91-.03c1.44,0,2.8-.96,3.73-2.62l3.15-5.6-22.28,.08Z"/><path class="cls-7" d="M38.36,11.25l43.13-.16c2.36,0,4.53-1.31,5.63-3.4,.99-1.86,1.54-3.98,1.53-6.23l-.13-34.54c0-2.43-1.98-4.39-4.41-4.38l-48.74,.18c-2.43,0-4.39,1.98-4.38,4.41l.13,34.54c0,2.24,.58,4.36,1.58,6.22,1.12,2.08,3.29,3.36,5.65,3.36Z"/><path class="cls-10" d="M76.87-37.42l-34.25,.13c-.83,0-1.5,.67-1.51,1.49-.32,19.97-8.49,24.41-11.45,25.37-.63,.2-1.06,.79-1.05,1.45l.04,11.12c0,.84,.69,1.52,1.52,1.51l59.46-.22c.84,0,1.52-.69,1.51-1.52l-.04-11.12c0-.66-.43-1.25-1.07-1.44-2.97-.93-11.18-5.31-11.64-25.28-.02-.83-.7-1.49-1.52-1.48Z"/></g></g><g><path class="cls-2" d="M30.27,115h60.37c12.35,0,22.36-9.65,22.36-21.55V44.98c0-22.61-23.53-40.94-52.55-40.94S7.91,22.37,7.91,44.98v48.48c0,11.9,10.01,21.55,22.36,21.55Z"/><g class="cls-28"><g><circle class="cls-11" cx="38.38" cy="25.58" r="11.48" transform="translate(-6.84 34.63) rotate(-45)"/><g><path class="cls-18" d="M114.93,100.68c.46-1.68,.71-3.46,.71-5.29,0-11.03-8.95-19.98-19.98-19.98s-19.98,8.95-19.98,19.98c0,1.83,.25,3.6,.71,5.29h38.54Z"/><path class="cls-18" d="M46.66,100.68c.46-1.68,.71-3.46,.71-5.29,0-11.03-8.95-19.98-19.98-19.98s-19.98,8.95-19.98,19.98c0,1.83,.25,3.6,.71,5.29H46.66Z"/></g><rect class="cls-19" x="7.41" y="98.32" width="107.52" height="13.27"/><path class="cls-22" d="M103.72,38.76h-11.32c-3.35,0-6.07-2.72-6.07-6.07h0c0-3.35,2.72-6.07,6.07-6.07h11.32c3.35,0,6.07,2.72,6.07,6.07h0c0,3.35-2.72,6.07-6.07,6.07Z"/><path class="cls-25" d="M20.3,56.62H11.28c-3.35,0-6.07-2.72-6.07-6.07h0c0-3.35,2.72-6.07,6.07-6.07h9.02c3.35,0,6.07,2.72,6.07,6.07h0c0,3.35-2.72,6.07-6.07,6.07Z"/><circle class="cls-12" cx="38.38" cy="25.58" r="6.31" transform="translate(-6.87 16.63) rotate(-22.5)"/></g></g><g><g><path class="cls-13" d="M26.78,56.7c-5.07,0-9.18,4.11-9.18,9.18,0,1.15,.21,2.24,.6,3.26h8.58v-12.43Z"/><path class="cls-4" d="M26.78,56.7v12.43h8.58c.38-1.01,.6-2.11,.6-3.26,0-5.07-4.11-9.18-9.18-9.18Z"/></g><path class="cls-10" d="M28.04,65.77c0,.69-.56,1.26-1.26,1.26s-1.26-.56-1.26-1.26,.56-1.26,1.26-1.26,1.26,.56,1.26,1.26Z"/><path class="cls-10" d="M24.18,61.55c0,.9-.73,1.62-1.62,1.62s-1.62-.73-1.62-1.62,.73-1.62,1.62-1.62,1.62,.73,1.62,1.62Z"/><g><path class="cls-9" d="M23.79,65.88v3.26h-5.59c1.31,3.46,4.66,5.92,8.58,5.92l.81-6.09-.81-6.08c-1.65,0-2.99,1.34-2.99,2.99Z"/><path class="cls-8" d="M29.78,69.13v-3.26c0-1.65-1.34-2.99-2.99-2.99v12.17c3.92,0,7.27-2.46,8.58-5.92h-5.59Z"/></g><g><path class="cls-13" d="M95,56.7c-5.07,0-9.18,4.11-9.18,9.18,0,1.15,.21,2.24,.6,3.26h8.58v-12.43Z"/><path class="cls-4" d="M95,56.7v12.43h8.58c.38-1.01,.6-2.11,.6-3.26,0-5.07-4.11-9.18-9.18-9.18Z"/></g><path class="cls-10" d="M96.25,65.77c0,.69-.56,1.26-1.26,1.26s-1.26-.56-1.26-1.26,.56-1.26,1.26-1.26,1.26,.56,1.26,1.26Z"/><path class="cls-10" d="M92.4,61.55c0,.9-.72,1.62-1.62,1.62s-1.62-.73-1.62-1.62,.72-1.62,1.62-1.62,1.62,.73,1.62,1.62Z"/><g><path class="cls-9" d="M92,65.88v3.26h-5.59c1.31,3.46,4.66,5.92,8.58,5.92v-12.17c-1.65,0-2.99,1.34-2.99,2.99Z"/><path class="cls-8" d="M97.99,69.13v-3.26c0-1.65-1.34-2.99-2.99-2.99v12.17c3.92,0,7.27-2.46,8.58-5.92h-5.59Z"/></g><path class="cls-5" d="M28.64,65.88c0,1.03-.83,1.86-1.86,1.86s-1.86-.83-1.86-1.86,.83-1.86,1.86-1.86,1.86,.83,1.86,1.86Z"/><path class="cls-17" d="M96.86,65.88c0,1.03-.83,1.86-1.86,1.86s-1.86-.83-1.86-1.86,.83-1.86,1.86-1.86,1.86,.83,1.86,1.86Z"/><g><path class="cls-13" d="M60.89,22.6c-5.07,0-9.18,4.11-9.18,9.18,0,1.15,.21,2.24,.6,3.26h8.58v-12.43Z"/><path class="cls-4" d="M60.89,22.6v12.43h8.58c.38-1.01,.6-2.11,.6-3.26,0-5.07-4.11-9.18-9.18-9.18Z"/></g><path class="cls-10" d="M62.15,31.66c0,.69-.56,1.26-1.26,1.26s-1.26-.56-1.26-1.26,.56-1.26,1.26-1.26,1.26,.56,1.26,1.26Z"/><path class="cls-10" d="M58.29,27.45c0,.89-.73,1.62-1.62,1.62s-1.62-.73-1.62-1.62,.73-1.62,1.62-1.62,1.62,.73,1.62,1.62Z"/><g><path class="cls-6" d="M57.9,31.77v3.26h-5.59c1.31,3.46,4.66,5.92,8.58,5.92v-12.17c-1.65,0-2.99,1.34-2.99,2.99Z"/><path class="cls-20" d="M63.88,35.03v-3.26c0-1.65-1.34-2.99-2.99-2.99v12.17c3.92,0,7.27-2.46,8.58-5.92h-5.59Z"/></g><g><path class="cls-13" d="M60.89,90.81c-5.07,0-9.18,4.11-9.18,9.18,0,1.15,.21,2.24,.6,3.26h8.58v-12.43Z"/><path class="cls-4" d="M60.89,90.81v12.43h8.58c.38-1.01,.6-2.11,.6-3.26,0-5.07-4.11-9.18-9.18-9.18Z"/></g><path class="cls-10" d="M62.15,99.88c0,.7-.56,1.26-1.26,1.26s-1.26-.56-1.26-1.26,.56-1.26,1.26-1.26,1.26,.56,1.26,1.26Z"/><path class="cls-10" d="M58.29,95.66c0,.89-.73,1.62-1.62,1.62s-1.62-.72-1.62-1.62,.73-1.62,1.62-1.62,1.62,.73,1.62,1.62Z"/><g><path class="cls-6" d="M57.9,99.98v3.26h-5.59c1.31,3.46,4.66,5.92,8.58,5.92v-12.17c-1.65,0-2.99,1.34-2.99,2.99Z"/><path class="cls-20" d="M63.88,103.24v-3.26c0-1.65-1.34-2.99-2.99-2.99v12.17c3.92,0,7.27-2.46,8.58-5.92h-5.59Z"/></g><g><path class="cls-13" d="M36.77,80.82c-5.07,0-9.18,4.11-9.18,9.18,0,1.15,.21,2.24,.6,3.26h8.58v-12.43Z"/><path class="cls-4" d="M36.77,80.82v12.43h8.58c.38-1.01,.6-2.11,.6-3.26,0-5.07-4.11-9.18-9.18-9.18Z"/></g><path class="cls-10" d="M38.03,89.89c0,.69-.56,1.26-1.26,1.26s-1.26-.56-1.26-1.26,.56-1.26,1.26-1.26,1.26,.56,1.26,1.26Z"/><path class="cls-10" d="M34.17,85.67c0,.89-.73,1.62-1.62,1.62s-1.62-.72-1.62-1.62,.73-1.62,1.62-1.62,1.62,.72,1.62,1.62Z"/><g><path class="cls-24" d="M33.78,90v3.26h-5.59c1.31,3.46,4.66,5.92,8.58,5.92v-12.17c-1.65,0-2.99,1.34-2.99,2.99Z"/><path class="cls-27" d="M39.76,93.25v-3.26c0-1.65-1.34-2.99-2.99-2.99v12.17c3.92,0,7.27-2.46,8.58-5.92h-5.59Z"/></g><g><path class="cls-13" d="M85.01,32.58c-5.07,0-9.18,4.11-9.18,9.18,0,1.15,.21,2.24,.6,3.26h8.58v-12.43Z"/><path class="cls-4" d="M85.01,32.58v12.43h8.58c.38-1.01,.6-2.11,.6-3.26,0-5.07-4.11-9.18-9.18-9.18Z"/></g><path class="cls-10" d="M86.26,41.65c0,.69-.56,1.26-1.26,1.26s-1.26-.56-1.26-1.26c0-.69,.56-1.26,1.26-1.26s1.26,.56,1.26,1.26Z"/><path class="cls-10" d="M82.41,37.44c0,.89-.73,1.62-1.62,1.62s-1.62-.73-1.62-1.62,.72-1.62,1.62-1.62c.89,0,1.62,.73,1.62,1.62Z"/><g><path class="cls-24" d="M82.01,41.76v3.26h-5.59c1.31,3.46,4.66,5.92,8.58,5.92v-12.17c-1.65,0-2.99,1.34-2.99,2.99Z"/><path class="cls-27" d="M88,45.02v-3.26c0-1.65-1.34-2.99-2.99-2.99v12.17c3.92,0,7.27-2.46,8.58-5.92h-5.59Z"/></g><path class="cls-5" d="M38.63,90c0,1.03-.83,1.86-1.86,1.86-1.03,0-1.86-.83-1.86-1.86,0-1.03,.83-1.86,1.86-1.86s1.86,.83,1.86,1.86Z"/><path class="cls-17" d="M86.87,41.76c0,1.03-.83,1.86-1.86,1.86s-1.86-.83-1.86-1.86,.83-1.86,1.86-1.86,1.86,.83,1.86,1.86Z"/><g><path class="cls-13" d="M36.77,32.58c-5.07,0-9.18,4.11-9.18,9.18,0,1.15,.21,2.24,.6,3.26h8.58v-12.43Z"/><path class="cls-4" d="M36.77,32.58v12.43h8.58c.38-1.01,.6-2.11,.6-3.26,0-5.07-4.11-9.18-9.18-9.18Z"/></g><path class="cls-10" d="M38.03,41.65c0,.69-.56,1.26-1.26,1.26s-1.26-.56-1.26-1.26,.56-1.26,1.26-1.26,1.26,.56,1.26,1.26Z"/><path class="cls-10" d="M34.17,37.44c0,.89-.73,1.62-1.62,1.62s-1.62-.73-1.62-1.62,.73-1.62,1.62-1.62,1.62,.73,1.62,1.62Z"/><g><path class="cls-15" d="M33.78,41.76v3.26h-5.59c1.31,3.46,4.66,5.92,8.58,5.92v-12.17c-1.65,0-2.99,1.34-2.99,2.99Z"/><path class="cls-14" d="M39.76,45.02v-3.26c0-1.65-1.34-2.99-2.99-2.99v12.17c3.92,0,7.27-2.46,8.58-5.92h-5.59Z"/></g><g><path class="cls-13" d="M85.01,80.82c-5.07,0-9.18,4.11-9.18,9.18,0,1.15,.21,2.24,.6,3.26h8.58v-12.43Z"/><path class="cls-4" d="M85.01,80.82v12.43h8.58c.39-1.01,.6-2.11,.6-3.26,0-5.07-4.11-9.18-9.18-9.18Z"/></g><path class="cls-10" d="M86.26,89.89c0,.69-.56,1.26-1.26,1.26s-1.26-.56-1.26-1.26c0-.69,.56-1.26,1.26-1.26s1.26,.56,1.26,1.26Z"/><g><path class="cls-15" d="M82.01,90v3.26h-5.59c1.31,3.46,4.66,5.92,8.58,5.92v-12.17c-1.65,0-2.99,1.34-2.99,2.99Z"/><path class="cls-14" d="M88,93.25v-3.26c0-1.65-1.34-2.99-2.99-2.99v12.17c3.92,0,7.27-2.46,8.58-5.92h-5.59Z"/></g><path class="cls-5" d="M38.63,41.76c0,1.03-.83,1.86-1.86,1.86s-1.86-.83-1.86-1.86,.83-1.86,1.86-1.86,1.86,.83,1.86,1.86Z"/><path class="cls-17" d="M86.87,90c0,1.03-.83,1.86-1.86,1.86-1.03,0-1.86-.83-1.86-1.86s.83-1.86,1.86-1.86,1.86,.83,1.86,1.86Z"/><g><path class="cls-1" d="M59.7,85.88v-17.14l-12.12,12.12c3.26,2.9,7.48,4.76,12.12,5.03Z"/><path class="cls-1" d="M59.7,63.02v-17.14c-4.63,.27-8.85,2.13-12.12,5.03l12.12,12.12Z"/><path class="cls-1" d="M40.89,67.06c.27,4.63,2.13,8.85,5.03,12.12l12.12-12.12h-17.14Z"/><path class="cls-1" d="M45.91,52.58c-2.9,3.26-4.76,7.48-5.03,12.12h17.14l-12.12-12.12Z"/><path class="cls-1" d="M62.07,45.88v17.14l12.12-12.12c-3.26-2.9-7.48-4.76-12.12-5.03Z"/><path class="cls-1" d="M63.75,64.69h17.14c-.27-4.63-2.13-8.85-5.03-12.12l-12.12,12.12Z"/><path class="cls-1" d="M75.86,79.18c2.9-3.26,4.76-7.48,5.03-12.12h-17.14l12.12,12.12Z"/><path class="cls-1" d="M62.07,85.88c4.64-.27,8.85-2.13,12.12-5.03l-12.12-12.12v17.14Z"/><path class="cls-17" d="M95,64.69h-11.93c-.28-5.23-2.37-9.99-5.67-13.65l8.44-8.44c.46-.46,.46-1.21,0-1.67-.46-.46-1.21-.46-1.67,0l-8.44,8.44c-3.66-3.29-8.42-5.39-13.65-5.67v-11.93c0-.65-.53-1.18-1.18-1.18V101.17c.65,0,1.18-.53,1.18-1.18v-11.93c5.23-.28,9.99-2.37,13.65-5.67l8.44,8.44c.46,.46,1.21,.46,1.67,0,.46-.46,.46-1.21,0-1.67l-8.44-8.44c3.29-3.66,5.39-8.42,5.67-13.65h11.93c.65,0,1.19-.53,1.19-1.18s-.53-1.18-1.19-1.18Zm-32.92-18.82c4.64,.27,8.85,2.13,12.12,5.03l-12.12,12.12v-17.14Zm0,40.01v-17.14l12.12,12.12c-3.26,2.9-7.48,4.76-12.12,5.03Zm1.67-21.19l12.12-12.12c2.9,3.26,4.76,7.48,5.03,12.12h-17.14Zm12.12,14.48l-12.12-12.12h17.14c-.27,4.63-2.13,8.85-5.03,12.12Z"/><path class="cls-5" d="M60.89,30.59c-.65,0-1.18,.53-1.18,1.18v11.93c-5.23,.28-9.99,2.37-13.65,5.67l-8.44-8.44c-.46-.46-1.21-.46-1.67,0-.46,.46-.46,1.21,0,1.67l8.44,8.44c-3.29,3.66-5.39,8.42-5.67,13.65h-11.93c-.65,0-1.18,.53-1.18,1.18s.53,1.18,1.18,1.18h11.93c.28,5.23,2.37,9.99,5.67,13.65l-8.44,8.44c-.46,.46-.46,1.21,0,1.67,.46,.46,1.21,.46,1.67,0l8.44-8.44c3.66,3.29,8.42,5.39,13.65,5.67v11.93c0,.65,.53,1.18,1.18,1.18h0V30.59h0Zm-14.97,21.99l12.12,12.12h-17.14c.27-4.63,2.13-8.85,5.03-12.12Zm0,26.6c-2.9-3.26-4.76-7.48-5.03-12.12h17.14l-12.12,12.12Zm13.79,6.7c-4.63-.27-8.85-2.13-12.12-5.03l12.12-12.12v17.14Zm0-22.86l-12.12-12.12c3.26-2.9,7.48-4.76,12.12-5.03v17.14Z"/></g><path class="cls-9" d="M27.51,65.88c0,.4-.32,.72-.73,.72s-.73-.32-.73-.72,.32-.73,.73-.73,.73,.32,.73,.73Z"/><path class="cls-9" d="M95.72,65.88c0,.4-.32,.72-.73,.72s-.72-.32-.72-.72,.32-.73,.72-.73,.73,.32,.73,.73Z"/><path class="cls-26" d="M37.5,90c0,.4-.32,.73-.73,.73s-.72-.33-.72-.73,.32-.72,.72-.72,.73,.32,.73,.72Z"/><path class="cls-26" d="M85.73,41.76c0,.4-.32,.73-.72,.73s-.72-.32-.72-.73c0-.4,.32-.72,.72-.72s.72,.32,.72,.72Z"/><path class="cls-15" d="M37.5,41.76c0,.4-.32,.73-.73,.73s-.72-.32-.72-.73,.32-.72,.72-.72,.73,.32,.73,.72Z"/><path class="cls-15" d="M85.73,90c0,.4-.32,.73-.72,.73s-.72-.33-.72-.73,.32-.72,.72-.72,.72,.33,.72,.72Z"/><g><path class="cls-17" d="M80.67,107.23l-14.02-34.29c2.05-1.69,3.35-4.25,3.35-7.11,0-5.06-4.07-9.16-9.12-9.22v18.44c.36,0,1.96-.03,2.3-.07l13.18,33.08-16.05,.04,.56,3.93h21.74l-1.96-4.79Z"/><path class="cls-5" d="M60.78,75.06s.07,0,.11,0v-18.44s-.07,0-.11,0c-5.09,0-9.22,4.13-9.22,9.22,0,2.93,1.37,5.55,3.51,7.24l-13.97,34.16-1.96,4.79h21.74v-3.93l-15.49-.03,13.17-33.06c.32,.03,1.88,.05,2.21,.05Z"/></g><g><path class="cls-5" d="M60.89,98.13c-1.03,0-1.86,.83-1.86,1.86s.83,1.86,1.86,1.86h0v-3.72h0Z"/><path class="cls-17" d="M62.75,99.98c0-1.03-.83-1.86-1.86-1.86v3.72c1.03,0,1.86-.83,1.86-1.86Z"/></g><path class="cls-23" d="M61.61,99.98c0,.4-.32,.72-.72,.72s-.73-.32-.73-.72,.32-.72,.73-.72,.72,.33,.72,.72Z"/><g><path class="cls-5" d="M60.89,29.91c-1.03,0-1.86,.83-1.86,1.86s.83,1.86,1.86,1.86h0v-3.72h0Z"/><path class="cls-17" d="M62.75,31.77c0-1.03-.83-1.86-1.86-1.86v3.72c1.03,0,1.86-.83,1.86-1.86Z"/></g><path class="cls-23" d="M61.61,31.77c0,.4-.32,.72-.72,.72s-.73-.32-.73-.72,.32-.73,.73-.73,.72,.32,.72,.73Z"/><g><path class="cls-17" d="M55.41,65.88c0,3.02,2.45,5.47,5.47,5.47v-10.94c-3.02,0-5.47,2.45-5.47,5.47Z"/><path class="cls-21" d="M60.88,60.41v10.94c3.02,0,5.47-2.45,5.47-5.47s-2.45-5.47-5.47-5.47Z"/></g></g><path class="cls-10" d="M60,8.03c26.96,0,48.9,16.49,48.9,36.76v50.68c0,9.09-7.78,16.49-17.34,16.49H28.44c-9.56,0-17.34-7.4-17.34-16.49V44.8c0-20.27,21.94-36.76,48.9-36.76m0-6.03C29.66,2,5.06,21.16,5.06,44.8v50.68c0,12.44,10.47,22.52,23.38,22.52h63.12c12.91,0,23.38-10.08,23.38-22.52V44.8c0-23.64-24.6-42.8-54.94-42.8h0Z"/></g></svg>