<?xml version="1.0" encoding="UTF-8"?><svg id="_레이어_1" xmlns="http://www.w3.org/2000/svg" xmlns:xlink="http://www.w3.org/1999/xlink" viewBox="0 0 120 120"><defs><style>.cls-1{fill:none;}.cls-2{clip-path:url(#clippath);}.cls-3{fill:#f4d025;}.cls-4{fill:#00d3c2;}.cls-5{fill:#00bffe;}.cls-6{fill:#005a72;}.cls-7{fill:#005f7f;}.cls-8{fill:#007398;}.cls-9{fill:#009173;}.cls-10{fill:#0085b2;}.cls-11{fill:#fff;}.cls-12{fill:#00a2d9;}.cls-13{fill:#b3ecff;}.cls-14{fill:#8de2ff;}.cls-15{fill:#d8b421;}.cls-16{fill:#def62a;}.cls-17{fill:#3d6ab0;}.cls-18{fill:#3b3b3b;}.cls-19{fill:#76ddfe;}.cls-20{fill:#27658d;}.cls-21{fill:#27467a;}</style><clipPath id="clippath"><path class="cls-1" d="M89.57,4.76H29.75C17.52,4.76,7.6,14.42,7.6,26.35v48.59c0,22.66,23.31,41.03,52.06,41.03s52.06-18.37,52.06-41.03V26.35c0-11.93-9.92-21.59-22.15-21.59Z"/></clipPath></defs><g class="cls-2"><g><rect id="BG_COLOR" class="cls-6" x="-17.72" y="-10.03" width="154.42" height="154.42"/><path class="cls-7" d="M136.7,6.19V144.38H-17.72V3.72C-8.3,5.16,1.14,6.67,10.29,9.36c12.12,3.56,23.83,9.22,36.41,10.13,15.82,1.15,31.08-5.29,46.48-9.16,14.2-3.56,28.92-4.96,43.53-4.14Z"/><path class="cls-8" d="M136.69,28.13v116.26H-17.72V21.96c15.36,3.2,31.33,.47,46.89-1.96,20.94-3.27,42.44-5.98,63.13-1.2,14.82,3.43,29.43,10.67,44.4,9.32Z"/><path class="cls-10" d="M136.69,26.46v117.93H-17.72V26.6c16.34,.17,31.54,9.4,47.84,11.75,13.09,1.89,26.39-.72,39.19-4.07,12.79-3.35,25.49-7.47,38.66-8.67,9.55-.87,19.17-.19,28.72,.85Z"/><path class="cls-12" d="M136.69,62.52v81.86H-17.72V48.46c10.73-3.73,23.03-3.72,34.16-3.39,22.96,.68,43.17,10.82,65.42,15.02,18.04,3.41,36.51,2.98,54.84,2.43Z"/><path class="cls-5" d="M136.7,57.46v86.93H-17.72V69.49c10.45,1.88,21.09,3.03,31.64,2.03,18.08-1.71,35.03-9.6,52.82-13.31,21.25-4.43,43.21-2.8,64.83-1.14,1.71,.13,3.41,.26,5.12,.39Z"/><path class="cls-19" d="M136.69,84.62v59.76H-17.72v-60.99c20.25-1.19,40.73,2.26,59.62,10.06,4.79,1.98,9.51,4.24,14.51,5.49,11.12,2.78,22.99,.35,33.3-4.84,4.75-2.39,9.24-5.34,14.09-7.49,10.33-4.58,22.14-5.27,32.89-1.99Z"/><path class="cls-14" d="M136.69,99.09v45.29H-17.72v-45.46c8.88-1.24,17.94,2.38,26.44,5.8,13.11,5.27,26.75,10.25,40.79,9.7,13.3-.52,25.91-5.97,38.41-10.75,12.51-4.78,25.78-9.01,38.95-6.97,3.33,.51,6.59,1.42,9.82,2.39Z"/><path class="cls-13" d="M136.69,117.04v27.34H-17.72v-34.78c1.7-.33,3.84-.73,6.17-1.15,7.03-1.27,15.84-2.72,19.89-2.94,9.97-.54,20.18,.58,29.35,4.74,6.46,2.93,12.25,7.28,18.54,10.59,18.22,9.59,40.12,9.88,59.53,3.35,6.99-2.35,13.77-5.56,20.94-7.15Z"/></g></g><path class="cls-11" d="M91.2,8c9.43,0,17.11,7.41,17.11,16.52v50.68c0,20.29-21.67,36.8-48.3,36.8S11.7,95.49,11.7,75.2V24.52c0-9.11,7.67-16.52,17.11-16.52h62.39m0-6H28.8C16.04,2,5.7,12.08,5.7,24.52v50.68c0,23.64,24.31,42.8,54.3,42.8s54.3-19.16,54.3-42.8V24.52c0-12.44-10.35-22.52-23.11-22.52h0Z"/><g><g><g><g><path class="cls-16" d="M50.55,85.28c-.32,7.19-6.14,12.93-13.34,12.92-7.19,0-13.01-5.75-13.31-12.94H14.99c.3,12.15,10.12,21.91,22.23,21.93,12.1,0,21.93-9.75,22.26-21.9h-8.92Z"/><rect class="cls-16" x="-20.17" y="41.42" width="79.24" height="8.89" transform="translate(-26.44 65.28) rotate(-89.94)"/></g><g><g><rect class="cls-20" x="23.77" y="39.81" width="81.97" height="19.06"/><rect class="cls-21" x="44.8" y="48" width="35.87" height="20.76"/><g><path class="cls-16" d="M103,39.77l-74.14-.06v15.74h-.01v9.66s0,0,0,0c.03,7.3,6.14,13.22,13.7,13.22,5.9,0,10.89-3.61,12.83-8.67h.06s6.07-14.19,6.07-14.19h8.82s6.05,14.22,6.05,14.22h.06c1.93,5.05,6.91,8.68,12.82,8.69,7.56,0,13.68-5.91,13.73-13.21h0s0-9.67,0-9.67h0l.02-15.74Z"/><path class="cls-4" d="M97.95,44.05h-19.34s0-.05,0-.05l-24-.02v.03s-20.76-.01-20.76-.01l-.02,20.18h0c-.03,.24-.08,.47-.08,.71,0,4.66,3.9,8.44,8.71,8.45,4.2,0,7.72-2.89,8.53-6.72l6.71-15.33h16.36s6.69,15.36,6.69,15.36c.82,3.83,4.32,6.72,8.52,6.72,4.81,0,8.72-3.77,8.72-8.43,0-.24-.05-.47-.07-.71h0s.02-20.18,.02-20.18Z"/></g></g><rect class="cls-21" x="12.16" y="52.37" width="14.64" height="6.46"/><rect class="cls-21" x="12.13" y="39.78" width="14.64" height="6.47"/></g><rect class="cls-9" x="49.26" y="82.82" width="11.08" height="4.61"/></g><path class="cls-11" d="M41.78,46.95c.58,2.94-1.34,5.78-4.29,6.36-2.94,.57-5.78-1.35-6.35-4.3-.57-2.94,1.35-5.78,4.28-6.35,2.94-.57,5.79,1.35,6.35,4.29Z"/><path class="cls-11" d="M68.64,73.73c.58,2.94-1.34,5.78-4.29,6.36-2.94,.57-5.78-1.35-6.35-4.3-.57-2.94,1.35-5.78,4.28-6.35,2.94-.57,5.79,1.35,6.35,4.29Z"/><path class="cls-11" d="M61.83,67.72c.47,2.39-1.09,4.71-3.49,5.18-2.39,.46-4.71-1.1-5.17-3.5-.46-2.39,1.1-4.71,3.49-5.17,2.4-.47,4.71,1.1,5.17,3.49Z"/></g><rect class="cls-20" x="13.2" y="3.97" width="12.27" height="5.81"/></g><g><path class="cls-17" d="M78.34,85.64h3.15s0-5.68,0-5.68h-.03c-1.73,0-3.12,1.39-3.12,3.12v2.56Z"/><path class="cls-17" d="M78.34,92.69h3.15v5.68h-.03c-1.73,0-3.12-1.39-3.12-3.12v-2.56Z"/><path class="cls-3" d="M63.77,88.93l.14,.14c7.59,7.59,19.89,7.59,27.47,0l.14-.14-.14-.14c-7.59-7.59-19.88-7.59-27.47,0l-.14,.14Z"/><path class="cls-15" d="M74.64,83.32v11.23c-3.94-.63-7.73-2.44-10.77-5.47l-.14-.14,.14-.14c3.03-3.04,6.83-4.85,10.77-5.47Z"/><path class="cls-18" d="M68.99,88.93c0,.76,.61,1.37,1.37,1.37s1.37-.61,1.37-1.37c0-.76-.61-1.37-1.37-1.37s-1.37,.61-1.37,1.37Z"/><path class="cls-17" d="M98.52,81.93h-.07c-3.83,0-6.93,3.1-6.93,6.93v.07s7,0,7,0v-7Z"/></g></svg>