<?xml version="1.0" encoding="UTF-8"?><svg id="_레이어_1" xmlns="http://www.w3.org/2000/svg" xmlns:xlink="http://www.w3.org/1999/xlink" viewBox="0 0 120 120"><defs><style>.cls-1,.cls-2{fill:none;}.cls-3{clip-path:url(#clippath);}.cls-4{fill:#f2f2f2;}.cls-5{fill:#6b3620;}.cls-6{fill:#6a3520;}.cls-7{fill:#ee514f;}.cls-8{fill:#fff;}.cls-9{fill:#f36f69;}.cls-10{fill:#e2e2e2;}.cls-11{fill:#81452d;}.cls-12{fill:#82462e;}.cls-13{fill:#63c864;}.cls-14{fill:#8b4c34;}.cls-15{fill:#915037;}.cls-16{fill:#321914;}.cls-17{fill:#8f4f36;}.cls-18{fill:#864830;}.cls-19{fill:#95533a;}.cls-20{fill:#713a24;}.cls-21{fill:#703a23;}.cls-22{fill:#703923;}.cls-23{fill:#96543b;}.cls-24{fill:#884a32;}.cls-25{fill:#9c583f;}.cls-26{fill:#763d26;}.cls-27{fill:#773e27;}.cls-28{fill:#7c412a;}.cls-29{clip-path:url(#clippath-1);}.cls-30{clip-path:url(#clippath-4);}.cls-31{clip-path:url(#clippath-3);}.cls-32{clip-path:url(#clippath-2);}.cls-33{clip-path:url(#clippath-7);}.cls-34{clip-path:url(#clippath-8);}.cls-35{clip-path:url(#clippath-6);}.cls-36{clip-path:url(#clippath-5);}.cls-37{clip-path:url(#clippath-9);}.cls-38{clip-path:url(#clippath-10);}.cls-39{clip-path:url(#clippath-11);}.cls-40{fill:url(#_무제_그라디언트_8);}.cls-2{stroke:#fff;stroke-linecap:round;stroke-miterlimit:3.86;stroke-width:2.11px;}</style><linearGradient id="_무제_그라디언트_8" x1="59.5" y1="117.19" x2="59.5" y2="2.19" gradientUnits="userSpaceOnUse"><stop offset="0" stop-color="#fff"/><stop offset=".72" stop-color="#c9ebff"/><stop offset=".88" stop-color="#a7dfff"/><stop offset="1" stop-color="#59c3ff"/></linearGradient><clipPath id="clippath"><circle class="cls-1" cx="60.5" cy="58.59" r="55.5"/></clipPath><clipPath id="clippath-1"><path class="cls-25" d="M61.04,33.58c-4.98-6.16-4.07-18.49-4.07-18.49,0,0,12.26,1.67,17.24,7.82,4.99,6.16,2.44,16.48,2.44,16.48,0,0-10.63,.34-15.61-5.81Z"/></clipPath><clipPath id="clippath-2"><path class="cls-25" d="M40.7,89.42c0-10.08,4.76-21.09,20.22-21.5,16.69-.44,20.84,11.81,20.84,21.89s-10.1,18.26-20.2,18.26-20.87-8.57-20.87-18.65Z"/></clipPath><clipPath id="clippath-3"><path class="cls-1" d="M33.45,77.89c0-4.14,3.83-14.56,3.83-17.07,0-11.92,9.67-21.58,21.6-21.58s21.6,9.66,21.6,21.58c0,2.84,3.07,13.11,3.07,17.07,0,10.65-11.22,19.28-25.06,19.28s-25.05-8.63-25.05-19.28Z"/></clipPath><clipPath id="clippath-4"><polygon class="cls-1" points="77.93 95.25 73.6 105.96 25.08 86.36 29.41 75.64 77.93 95.25 77.93 95.25"/></clipPath><clipPath id="clippath-5"><polygon class="cls-1" points="95.37 52.09 77.8 95.58 29.27 75.97 46.84 32.49 95.37 52.09 95.37 52.09"/></clipPath><clipPath id="clippath-6"><path class="cls-6" d="M38.48,29.53c-7.06-3.6-18.93-.13-18.93-.13,0,0,4.18,11.64,11.24,15.24,7.06,3.6,16.63-1.04,16.63-1.04,0,0-1.87-10.47-8.93-14.06Z"/></clipPath><clipPath id="clippath-7"><path class="cls-25" d="M36.53,72.25c0-4.14,3.83-14.56,3.83-17.07,0-11.92,9.67-21.58,21.6-21.58s21.6,9.66,21.6,21.58c0,2.84,3.07,13.11,3.07,17.07,0,10.65-11.22,19.28-25.05,19.28s-25.06-8.63-25.06-19.28Z"/></clipPath><clipPath id="clippath-8"><path class="cls-1" d="M61.28,61.49V29.92c-21.05,0-24.99,32.83-24.85,37.17,.27,8.37,8.75,14.8,14.76,13.87,6.3-.98,10.09-19.47,10.09-19.47Z"/></clipPath><clipPath id="clippath-9"><polygon class="cls-1" points="70.98 61.05 74.92 73.93 41.03 84.29 37.1 71.42 70.98 61.05 70.98 61.05"/></clipPath><clipPath id="clippath-10"><polygon class="cls-1" points="61.15 28.91 71.09 61.39 37.2 71.75 27.27 39.27 61.15 28.91 61.15 28.91"/></clipPath><clipPath id="clippath-11"><path class="cls-9" d="M53.05,86.74c5.36,1.39,11.06,1.39,17.08,0,0,4.72-3.82,8.54-8.54,8.54s-8.54-3.82-8.54-8.54Z"/></clipPath></defs><circle class="cls-40" cx="59.5" cy="60.59" r="57.5"/><g class="cls-3"><rect class="cls-13" x="-15" y="80.09" width="160" height="57"/></g><path class="cls-8" d="M108.98,44.35c-.68,0-1.31,.2-1.8,.53,0,0,0,0,0,0,0-1.31-1.29-2.37-2.88-2.37s-2.88,1.06-2.88,2.37c0,.1,0,.19,.02,.29-.53-.5-1.3-.81-2.16-.81-1.59,0-2.88,1.06-2.88,2.37s1.29,2.37,2.88,2.37h9.7c1.59,0,2.88-1.06,2.88-2.37s-1.29-2.37-2.88-2.37Z"/><path class="cls-8" d="M7.69,59.59C7.69,30.74,31.16,7.27,60,7.27c21.89,0,40.68,13.52,48.46,32.65l4.57-5.03C103.72,14.93,83.48,1.09,60,1.09,27.69,1.09,1.5,27.28,1.5,59.59c0,25.46,16.27,47.11,38.98,55.15l4.57-5.03C23.47,103.26,7.69,83.24,7.69,59.59Z"/><g><g><path class="cls-25" d="M61.04,33.58c-4.98-6.16-4.07-18.49-4.07-18.49,0,0,12.26,1.67,17.24,7.82,4.99,6.16,2.44,16.48,2.44,16.48,0,0-10.63,.34-15.61-5.81Z"/><g class="cls-29"><path class="cls-9" d="M60.79,20.55c2.76,.54,7.54,.79,10.62,4.59,3.1,3.82,2.21,8.44,1.82,10.66-2.25-.08-5.31-.54-8.4-4.36-3.08-3.8-4.09-8.08-4.04-10.89Z"/></g></g><g><polygon class="cls-27" points="63.88 85.36 73.99 85.36 73.99 110.58 63.88 110.58 63.88 85.36 63.88 85.36"/><path class="cls-27" d="M61.07,113.09c0-3.63,3.41-6.46,7.77-6.46s7.91,2.83,7.91,6.46h-15.68Z"/></g><g><polygon class="cls-27" points="47.83 85.36 57.95 85.36 57.95 110.58 47.83 110.58 47.83 85.36 47.83 85.36"/><path class="cls-27" d="M45.02,113.09c0-3.63,3.41-6.46,7.77-6.46s7.91,2.83,7.91,6.46h-15.68Z"/></g><g><path class="cls-25" d="M40.7,89.42c0-10.08,4.76-21.09,20.22-21.5,16.69-.44,20.84,11.81,20.84,21.89s-10.1,18.26-20.2,18.26-20.87-8.57-20.87-18.65Z"/><g class="cls-32"><g><path class="cls-27" d="M61.28,122.29v-40.27c-30.2-9.06-24.99,32.83-24.85,37.17,.27,8.37,8.75,14.81,14.76,13.87,6.3-.98,10.09-10.78,10.09-10.78Z"/><g class="cls-31"><g><g class="cls-30"><g><polygon class="cls-27" points="77.93 95.25 75.77 100.61 27.24 81 29.41 75.64 77.93 95.25 77.93 95.25"/><polygon class="cls-27" points="75.77 100.61 73.6 105.96 25.08 86.36 27.24 81 75.77 100.61 75.77 100.61"/></g></g><g class="cls-36"><g><polygon class="cls-25" points="95.37 52.09 93.17 57.53 44.65 37.92 46.84 32.49 95.37 52.09 95.37 52.09"/><polygon class="cls-23" points="93.17 57.53 90.97 62.96 42.45 43.36 44.65 37.92 93.17 57.53 93.17 57.53"/><polygon class="cls-15" points="90.97 62.96 88.78 68.4 40.25 48.8 42.45 43.36 90.97 62.96 90.97 62.96"/><polygon class="cls-14" points="88.78 68.4 86.58 73.84 38.06 54.23 40.25 48.8 88.78 68.4 88.78 68.4"/><polygon class="cls-18" points="86.58 73.84 84.39 79.27 35.86 59.67 38.06 54.23 86.58 73.84 86.58 73.84"/><polygon class="cls-11" points="84.39 79.27 82.19 84.71 33.67 65.1 35.86 59.67 84.39 79.27 84.39 79.27"/><polygon class="cls-28" points="82.19 84.71 79.99 90.14 31.47 70.54 33.67 65.1 82.19 84.71 82.19 84.71"/><polygon class="cls-27" points="79.99 90.14 77.8 95.58 29.27 75.97 31.47 70.54 79.99 90.14 79.99 90.14"/></g></g></g></g><path class="cls-16" d="M36.53,75.29c0-4.14,3.83-14.56,3.83-17.07,0-11.92,9.67-21.58,21.6-21.58s21.6,9.66,21.6,21.58c0,2.84,3.07,13.11,3.07,17.07,0,10.65-11.22,19.28-25.05,19.28s-25.06-8.63-25.06-19.28Z"/></g></g></g><g><path class="cls-6" d="M38.48,29.53c-7.06-3.6-18.93-.13-18.93-.13,0,0,4.18,11.64,11.24,15.24,7.06,3.6,16.63-1.04,16.63-1.04,0,0-1.87-10.47-8.93-14.06Z"/><g class="cls-35"><path class="cls-7" d="M25.7,32.51c1.1,2.59,2.34,7.21,6.7,9.44,4.38,2.23,8.71,.4,10.8-.43-.55-2.18-.85-5.68-5.23-7.92-4.36-2.22-9.53-1.72-12.27-1.08Z"/></g></g><g><path class="cls-25" d="M36.53,72.25c0-4.14,3.83-14.56,3.83-17.07,0-11.92,9.67-21.58,21.6-21.58s21.6,9.66,21.6,21.58c0,2.84,3.07,13.11,3.07,17.07,0,10.65-11.22,19.28-25.05,19.28s-25.06-8.63-25.06-19.28Z"/><g class="cls-33"><g><g class="cls-34"><g><g class="cls-37"><g><polygon class="cls-25" points="70.97 61.07 72.94 67.5 39.05 77.86 37.09 71.43 70.97 61.07 70.97 61.07"/><polygon class="cls-25" points="72.94 67.5 74.91 73.94 41.02 84.3 39.05 77.86 72.94 67.5 72.94 67.5"/></g></g><g class="cls-38"><g><polygon class="cls-5" points="61.14 28.92 62.25 32.53 28.36 42.89 27.26 39.28 61.14 28.92 61.14 28.92"/><polygon class="cls-21" points="62.25 32.53 63.35 36.14 29.46 46.5 28.36 42.89 62.25 32.53 62.25 32.53"/><polygon class="cls-26" points="63.35 36.14 64.45 39.75 30.57 50.11 29.46 46.5 63.35 36.14 63.35 36.14"/><polygon class="cls-28" points="64.45 39.75 65.56 43.36 31.67 53.72 30.57 50.11 64.45 39.75 64.45 39.75"/><polygon class="cls-12" points="65.56 43.36 66.66 46.97 32.77 57.33 31.67 53.72 65.56 43.36 65.56 43.36"/><polygon class="cls-24" points="66.66 46.97 67.76 50.58 33.88 60.94 32.77 57.33 66.66 46.97 66.66 46.97"/><polygon class="cls-17" points="67.76 50.58 68.87 54.18 34.98 64.54 33.88 60.94 67.76 50.58 67.76 50.58"/><polygon class="cls-19" points="68.87 54.18 69.97 57.79 36.08 68.15 34.98 64.54 68.87 54.18 68.87 54.18"/><polygon class="cls-25" points="69.97 57.79 71.07 61.4 37.19 71.76 36.08 68.15 69.97 57.79 69.97 57.79"/></g></g></g></g><path class="cls-22" d="M43.59,56.83c0-4.79,3.05-8.68,6.81-8.68s6.81,3.88,6.81,8.68-3.05,8.68-6.81,8.68-6.81-3.88-6.81-8.68Z"/><path class="cls-20" d="M47.26,77.52c0-4.57,5.9-8.28,13.18-8.28s13.18,3.71,13.18,8.28-5.9,8.28-13.18,8.28-13.18-3.71-13.18-8.28Z"/></g></g></g><path class="cls-16" d="M47.55,56.81c0-2.04,1.21-3.69,2.71-3.69s2.71,1.65,2.71,3.69-1.21,3.69-2.71,3.69-2.71-1.65-2.71-3.69Z"/><g><path class="cls-16" d="M48.5,76.28c0-4.57,5.9-8.28,13.18-8.28s13.18,3.71,13.18,8.28-5.9,8.28-13.18,8.28-13.18-3.71-13.18-8.28Z"/><path class="cls-2" d="M63.69,71.59c2.63,.41,4.81,1.36,7.12,3.35"/><path class="cls-2" d="M59.62,71.16c.81,0-.72-.04,0,0"/></g><path class="cls-16" d="M69.12,56.81c0-2.04,1.21-3.69,2.71-3.69s2.71,1.65,2.71,3.69-1.21,3.69-2.71,3.69-2.71-1.65-2.71-3.69Z"/><g><path class="cls-9" d="M53.05,86.74c5.36,1.39,11.06,1.39,17.08,0,0,4.72-3.82,8.54-8.54,8.54s-8.54-3.82-8.54-8.54Z"/><g class="cls-39"><polygon class="cls-7" points="51.45 81.37 61.49 81.37 61.49 99.3 51.45 99.3 51.45 81.37 51.45 81.37"/></g></g><path class="cls-8" d="M50.1,55.88c-.25-.73-.07-1.46,.41-1.62,.48-.16,1.06,.3,1.32,1.03,.25,.73,.07,1.46-.41,1.62s-1.06-.3-1.32-1.03Z"/><path class="cls-8" d="M71.78,55.88c-.25-.73-.07-1.46,.41-1.62,.48-.16,1.06,.3,1.32,1.03,.25,.73,.07,1.46-.41,1.62-.47,.16-1.06-.3-1.32-1.03Z"/><path class="cls-27" d="M47.66,101.5c-8.26,6.28-18.8,.87-24.34-6.25,.49,4.76,3.06,7.77,7.51,9.38-2.24,.6-4.41,.36-6.33-1,.67,4.41,7.98,6.37,11.61,5-.73,.69-2.03,1.89-3.15,1.85,4,1.88,7.57-1.12,10.92-2.97l-2.15,2.65c3.92-.88,6.3-3.37,8.74-6.38-.6-.99-1.84-1.75-2.82-2.28Z"/></g><path class="cls-8" d="M25.55,43.45c-1.03,0-1.97,.36-2.71,.96,0,0,0,0,0,0,0-2.38-1.93-4.32-4.32-4.32s-4.32,1.93-4.32,4.32c0,.18,.01,.35,.04,.53-.79-.9-1.95-1.47-3.24-1.47-2.38,0-4.32,1.93-4.32,4.32s1.93,4.32,4.32,4.32h14.55c2.38,0,4.32-1.93,4.32-4.32s-1.93-4.32-4.32-4.32Z"/><path class="cls-13" d="M17.52,82.09s-.58-6.92-4.12-7.74c0,0,6.07-.17,8.63,6.23,0,0,1.28-5.77,7.69-5.77,0,0-3.87,2.37-3.54,7.27h-8.66Z"/><path class="cls-13" d="M93.8,81.09s-.58-6.92-4.12-7.74c0,0,6.07-.17,8.63,6.23,0,0,1.28-5.77,7.69-5.77,0,0-3.87,2.37-3.54,7.27h-8.66Z"/><path class="cls-1" d="M60,7.27C31.16,7.27,7.69,30.74,7.69,59.59c0,23.65,15.78,43.67,37.36,50.12L108.46,39.92C100.68,20.8,81.89,7.27,60,7.27Z"/><path class="cls-8" d="M118.5,59.59c0-8.83-1.97-17.19-5.47-24.69l-4.57,5.03c2.47,6.07,3.85,12.71,3.85,19.66,0,28.84-23.47,52.31-52.31,52.31-5.2,0-10.21-.77-14.95-2.19l-4.57,5.03c6.11,2.16,12.67,3.35,19.52,3.35,32.31,0,58.5-26.19,58.5-58.5Z"/><g><path class="cls-10" d="M96.67,105.04c-.13-.51-.31-.88-.54-1.18h0s-.05-.06-.07-.09c-2.54-3.24-2.8-4.07-2.8-4.07,0-.87,.32-1.5,.62-2.08,.35-.68,.62-1.22,.38-2.18-.34-1.35-1.04-2.36-2.02-2.92-.23-.13-.47-.23-.72-.31,.31,.5,.55,1.07,.72,1.71,.31,1.23-.08,1.99-.42,2.65-.29,.56-.52,1.02-.38,1.77l-.34-.25s-1.14-.18-1.22-.17c-.08,.01-.98,1.52-1.08,1.67-.09,.16,3.03,3.4,3.03,3.4l2.73,1.07c-.02,.86-.26,1.63-.71,2.29-.64,.94-1.7,1.62-3.06,1.97-1.72,.43-3.23-.31-4.22-.9-2.05-1.23-3.73-1.62-5.3-1.22l-12.03,3.02c-1.56,.39-2.86,1.53-4.09,3.58-.59,.99-1.58,2.36-3.3,2.79-1.36,.34-2.62,.24-3.63-.28,.67-.96,1.74-2.45,1.89-2.52,.22-.09,.27-2.44,.34-2.53,.07-.09-.18-1.19-.18-1.19l-2.85-3.67-.85,1.73c-.24-.76-.66-1.05-1.19-1.42-.62-.43-1.31-.91-1.62-2.14-.16-.64-.22-1.26-.18-1.84-.19,.19-.35,.4-.49,.62-.6,.96-.74,2.18-.4,3.53,.24,.96,.74,1.3,1.36,1.74,.53,.37,1.11,.77,1.52,1.54,0,0-.6,2.79-.59,5.34,0,0,0,0,0,0-.01,.29,.02,.61,.11,.98,.94,3.74,3.75,3.63,5.33,3.23,1.16-.29,2.12-1.13,3.01-2.63,.71-1.19,1.44-2.12,2.23-2.86,.97-.9,2.05-1.51,3.2-1.8l13.75-3.46c1.16-.29,2.39-.27,3.67,.07,1.04,.27,2.12,.75,3.31,1.46,1.5,.9,2.74,1.18,3.9,.89,1.59-.4,4.11-1.63,3.17-5.37Z"/><path class="cls-4" d="M94.31,106.67c.74-1.1,.91-2.48,.51-4.1,0-.52-2.6-3.18-2.6-3.18-.01-.02-.03-.03-.04-.05-.01-.02-.03-.05-.07-.1-.09-.14-.16-.31-.21-.5-.23-.91,.02-1.4,.34-2.03,.35-.68,.74-1.45,.42-2.7-.16-.65-.41-1.23-.73-1.74-.02,0-.05-.02-.07-.02-.02,0-.05-.01-.07-.02-.03,0-.05-.01-.07-.02-.03,0-.05-.01-.08-.02-.03,0-.05-.01-.08-.02-.02,0-.04,0-.06-.01,0,0-.02,0-.03,0-.02,0-.04,0-.06-.01-.04,0-.09-.02-.13-.02-.01,0-.02,0-.03,0-.02,0-.03,0-.05,0,0,0-.02,0-.03,0-.02,0-.04,0-.06,0-.05,0-.11,0-.16-.01-.03,0-.05,0-.08,0-.03,0-.05,0-.08,0-.05,0-.11,0-.16,0-.02,0-.05,0-.07,0-.02,0-.05,0-.07,0-.03,0-.05,0-.08,0,0,0-.02,0-.03,0-.03,0-.06,0-.08,0-.02,0-.04,0-.07,0-.01,0-.02,0-.04,0-.02,0-.04,0-.06,0-.06,0-.12,.01-.19,.02-.01,0-.02,0-.04,0-.02,0-.05,0-.07,.01-.07,.01-.15,.03-.22,.04-.01,0-.03,0-.04,0-.02,0-.05,.01-.07,.02-.01,0-.03,0-.04,0-.11,.03-.23,.06-.34,.09-1.1,.33-1.99,1.14-2.87,2.62-.84,1.4-1.56,2.34-2.36,3.06-.91,.83-1.92,1.36-3.16,1.67l-13.98,3.52c-1.24,.31-2.37,.32-3.57,.02-1.04-.26-2.13-.75-3.53-1.58-1.48-.89-2.65-1.18-3.77-.95-.12,.02-.23,.05-.34,.08-.01,0-.03,0-.04,.01-.02,0-.05,.01-.07,.02-.01,0-.02,0-.04,.01-.07,.02-.15,.04-.22,.07-.02,0-.05,.02-.07,.02-.01,0-.02,0-.04,.01-.06,.02-.12,.04-.18,.07-.02,0-.04,.01-.05,.02-.01,0-.02,0-.03,.01-.02,0-.04,.02-.06,.03-.03,.01-.05,.02-.08,.03,0,0-.02,0-.03,.01-.02,.01-.05,.02-.07,.03-.02,.01-.04,.02-.06,.03-.02,.01-.04,.02-.06,.03-.02,.01-.05,.03-.07,.04-.02,.01-.05,.03-.07,.04-.02,0-.03,.02-.05,.03-.02,0-.03,.02-.05,.03-.02,.01-.04,.02-.06,.04-.04,.02-.08,.05-.12,.07-.02,.01-.04,.02-.05,.04,0,0-.02,.01-.02,.02-.02,.01-.03,.02-.04,.03-.04,.03-.09,.07-.13,.1-.02,.01-.03,.02-.05,.04,0,0-.02,.01-.03,.02-.01,0-.02,.02-.04,.03-.04,.04-.09,.07-.13,.11-.02,.01-.03,.03-.05,.04,0,0,0,0-.01,.01-.02,.02-.03,.03-.05,.05-.02,.02-.04,.04-.05,.05-.04,.6,.02,1.22,.18,1.88,.31,1.25,1.02,1.74,1.65,2.18,.58,.4,1.03,.72,1.26,1.62,.05,.2,.06,.37,.05,.54,0,.05-.01,.09-.01,.12,0,.02,0,.04,0,.06l-.55,2.93c-.03,.13-.05,.23-.06,.29,0,.02,0,.04,0,.06l-.09,.5s0,.01,0,.02c0,.02-.01,.05-.02,.07-.01,.04-.03,.08-.04,.13,0,0,0,.02,0,.03,.41,1.62,1.21,2.76,2.38,3.37,1.02,.54,2.3,.64,3.69,.29,1.75-.44,2.75-1.83,3.35-2.84,1.25-2.09,2.57-3.24,4.16-3.64l12.24-3.08c1.59-.4,3.3,0,5.39,1.24,1.01,.6,2.55,1.35,4.3,.91,1.39-.35,2.47-1.04,3.11-2Z"/></g></svg>