<?xml version="1.0" encoding="UTF-8"?><svg xmlns="http://www.w3.org/2000/svg" xmlns:xlink="http://www.w3.org/1999/xlink" viewBox="0 0 120 120"><defs><style>.cls-1{fill:none;}.cls-2{fill:url(#linear-gradient);}.cls-3{clip-path:url(#clippath);}.cls-4{fill:#00d3c2;}.cls-5{fill:#efdba3;}.cls-6{fill:#f4fbff;}.cls-7,.cls-8{fill:#f5f5f5;}.cls-9{fill:#fff;}.cls-10{fill:#f44063;}.cls-11,.cls-12{fill:#ff7f00;}.cls-13{fill:#04bcaa;}.cls-14,.cls-15{fill:#4c4b63;}.cls-8,.cls-12,.cls-15{mix-blend-mode:multiply;}.cls-12,.cls-15{opacity:.5;}.cls-16{fill:#652e1d;fill-rule:evenodd;}.cls-17{isolation:isolate;}</style><linearGradient id="linear-gradient" x1="60.05" y1="119.25" x2="60.05" y2="15.16" gradientUnits="userSpaceOnUse"><stop offset="0" stop-color="#fff"/><stop offset=".33" stop-color="#c9ebff"/><stop offset=".36" stop-color="#c3e9ff"/><stop offset=".53" stop-color="#a7dfff"/><stop offset=".87" stop-color="#6ecbff"/><stop offset="1" stop-color="#59c3ff"/></linearGradient><clipPath id="clippath"><path class="cls-1" d="M28.44,118h63.12c12.91,0,23.38-10.08,23.38-22.52V44.8c0-23.64-24.6-42.8-54.94-42.8S5.06,21.16,5.06,44.8v50.68c0,12.44,10.47,22.52,23.38,22.52Z"/></clipPath><clipPath id="clippath-1"><path class="cls-1" d="M230.39,147.83h-59.4c-12.15,0-22,10.1-22,22.56v42.75c0,23.67,23.15,42.86,51.7,42.86s51.7-19.19,51.7-42.86v-42.75c0-12.46-9.85-22.56-22-22.56Z"/></clipPath></defs><g class="cls-17"><g id="_레이어_1"><g><path class="cls-2" d="M30.15,115h59.8c12.23,0,22.15-9.55,22.15-21.34V45.64c0-22.39-23.3-40.55-52.05-40.55S8,23.25,8,45.64v48.02c0,11.79,9.92,21.34,22.15,21.34Z"/><path class="cls-16" d="M73.86,107.54v1.82c0,.69-.64,1.24-1.43,1.24h-20.88c-.8,0-1.43-.55-1.43-1.24v-1.82c3.34-.89,7.44-1.41,11.85-1.41s8.51,.52,11.89,1.41h0Z"/><path class="cls-6" d="M36.56,54.95s0-.06,0-.09c0-3.85-3.2-6.97-7.15-6.97-.02,0-.05,0-.07,0-1.65-2.77-4.72-4.64-8.24-4.64-5.26,0-9.53,4.16-9.53,9.29,0,.13,.01,.26,.02,.39-2.34,.19-4.18,2.11-4.18,4.44,0,2.46,2.05,4.46,4.57,4.46h23.78c1.97,0,3.57-1.56,3.57-3.48,0-1.66-1.19-3.05-2.79-3.4Z"/><path class="cls-6" d="M107.46,70.11c.08-.34,.13-.68,.13-1.04,0-2.63-2.19-4.77-4.89-4.77-1.45,0-2.74,.63-3.63,1.6-.61-.31-1.29-.51-2.02-.51-2.16,0-3.94,1.55-4.26,3.58-1.36,.02-2.45,1.1-2.45,2.43s1.12,2.43,2.5,2.43h14.09c1.08,0,1.95-.85,1.95-1.9,0-.87-.6-1.59-1.41-1.82Z"/><g class="cls-3"><path class="cls-9" d="M118.18,98.28c-.96-3.13-3.88-5.41-7.32-5.41,0-6.65-5.39-12.04-12.04-12.04-5.89,0-10.79,4.23-11.83,9.82-.19-.02-.39-.04-.59-.04-2.74,0-4.96,2.22-4.96,4.96,0,.04,0,.08,0,.12-.93-.4-1.95-.63-3.03-.63-2.55,0-4.8,1.24-6.19,3.14-1.64-3.17-4.94-5.34-8.75-5.34-4.81,0-8.81,3.45-9.68,8.01h-7.97c.3-.82,.46-1.7,.46-2.61,0-4.22-3.43-7.65-7.66-7.65-1.99,0-3.81,.76-5.17,2.01-2.03-3.81-6.03-6.4-10.64-6.4-5.78,0-10.61,4.07-11.77,9.5-.25-.01-.51-.03-.76-.03-3.15,0-6.02,1.21-8.16,3.19-.21,.19-.46,.37-.71,.55v39.91H119.87v-40.44c0-.11-.22-.59-1.69-.64Z"/></g><path class="cls-9" d="M60,8.03c26.96,0,48.9,16.49,48.9,36.76v50.68c0,9.09-7.78,16.49-17.34,16.49H28.44c-9.56,0-17.34-7.4-17.34-16.49V44.8c0-20.27,21.94-36.76,48.9-36.76m0-6.03C29.66,2,5.06,21.16,5.06,44.8v50.68c0,12.44,10.47,22.52,23.38,22.52h63.12c12.91,0,23.38-10.08,23.38-22.52V44.8c0-23.64-24.6-42.8-54.94-42.8h0Z"/><g><g><g><rect class="cls-5" x="63.19" y="87.52" width=".75" height="7.68" transform="translate(-21.54 19.64) rotate(-15.05)"/><polygon class="cls-5" points="65.03 87.52 64.29 87.65 65.62 95.21 66.36 95.08 65.03 87.52"/></g><g><rect class="cls-5" x="67.59" y="90.99" width="7.68" height=".75" transform="translate(-35.35 136.62) rotate(-74.96)"/><polygon class="cls-5" points="69.96 87.52 70.7 87.65 69.37 95.21 68.63 95.08 69.96 87.52"/></g></g><path class="cls-10" d="M61.84,89.54c-.41,0-.75-.34-.75-.75s.34-.75,.75-.75h11.31c.42,0,.75,.34,.75,.75s-.33,.75-.75,.75h-11.31Z"/><g><g><path class="cls-11" d="M67.5,15.19c-16.57,0-30,13.43-30,30,0,6.67,2.17,12.82,5.85,17.8,0,0,0,.01,.01,.01l18.48,25.04s0,0,0,0h11.31s18.5-25.06,18.5-25.06c3.68-4.98,5.85-11.14,5.85-17.8,0-16.57-13.43-30-30-30Z"/><path class="cls-12" d="M73.15,88.05l18.5-25.06c3.68-4.98,5.85-11.14,5.85-17.8,0-16.57-13.43-30-30-30V88.05h5.66Z"/></g><g><path class="cls-7" d="M67.5,15.19c-13.42,0-24.3,13.43-24.3,30,0,6.67,1.76,12.82,4.74,17.8,0,0,0,.01,0,.01l14.97,25.04s0,0,0,0h9.16s14.98-25.06,14.98-25.06c2.98-4.98,4.74-11.14,4.74-17.8,0-16.57-10.88-30-24.3-30Z"/><path class="cls-8" d="M72.08,88.05l14.98-25.06c2.98-4.98,4.74-11.14,4.74-17.8,0-16.57-10.88-30-24.3-30V88.05h4.58Z"/></g><g><path class="cls-11" d="M67.5,15.19c-8.3,0-15.02,13.43-15.02,30,0,6.67,1.09,12.82,2.93,17.8,0,0,0,.01,0,.01l9.25,25.04s0,0,0,0h5.66s9.26-25.06,9.26-25.06c1.84-4.98,2.93-11.14,2.93-17.8,0-16.57-6.73-30-15.02-30Z"/><path class="cls-12" d="M70.33,88.05l9.26-25.06c1.84-4.98,2.93-11.14,2.93-17.8,0-16.57-6.73-30-15.02-30V88.05h2.83Z"/></g><g><path class="cls-7" d="M67.5,15.19c-3.05,0-5.53,13.43-5.53,30,0,6.67,.4,12.82,1.08,17.8,0,0,0,.01,0,.01l3.41,25.04s0,0,0,0h2.08s3.41-25.06,3.41-25.06c.68-4.98,1.08-11.14,1.08-17.8,0-16.57-2.47-30-5.53-30Z"/><path class="cls-8" d="M68.54,88.05l3.41-25.06c.68-4.98,1.08-11.14,1.08-17.8,0-16.57-2.47-30-5.53-30V88.05h1.04Z"/></g></g><g><path class="cls-14" d="M61.84,94.98v5.71c0,2.49,2.01,4.5,4.5,4.5h2.31c2.49,0,4.5-2.01,4.5-4.5v-5.71h-11.31Z"/><path class="cls-15" d="M67.5,105.19h1.15c2.49,0,4.5-2.01,4.5-4.5v-5.71h-5.66v10.21Z"/></g></g><g><g><g><rect class="cls-5" x="32.63" y="96.29" width=".31" height="3.22" transform="translate(-24.29 11.87) rotate(-15.05)"/><polygon class="cls-5" points="33.4 96.29 33.09 96.34 33.65 99.51 33.96 99.46 33.4 96.29"/></g><g><rect class="cls-5" x="34.47" y="97.74" width="3.22" height=".31" transform="translate(-67.83 107.33) rotate(-74.96)"/><polygon class="cls-5" points="35.47 96.29 35.78 96.34 35.22 99.51 34.91 99.46 35.47 96.29"/></g></g><path class="cls-10" d="M32.06,97.14c-.17,0-.31-.14-.31-.31s.14-.31,.31-.31h4.74c.17,0,.31,.14,.31,.32s-.14,.31-.31,.31h-4.74Z"/><g><g><path class="cls-4" d="M34.43,66c-6.94,0-12.56,5.63-12.56,12.56,0,2.79,.91,5.37,2.45,7.45,0,0,0,0,0,0l7.74,10.49s0,0,0,0h4.74s7.75-10.5,7.75-10.5c1.54-2.09,2.45-4.66,2.45-7.45,0-6.94-5.63-12.56-12.56-12.56Z"/><path class="cls-13" d="M36.8,96.51l7.75-10.49c1.54-2.09,2.45-4.66,2.45-7.45,0-6.94-5.63-12.56-12.56-12.56v30.51h2.37Z"/></g><g><path class="cls-7" d="M34.43,66c-5.62,0-10.18,5.63-10.18,12.56,0,2.79,.74,5.37,1.98,7.45,0,0,0,0,0,0l6.27,10.49s0,0,0,0h3.84s6.27-10.5,6.27-10.5c1.25-2.09,1.98-4.66,1.98-7.45,0-6.94-4.55-12.56-10.18-12.56Z"/><path class="cls-8" d="M36.35,96.51l6.27-10.49c1.25-2.09,1.98-4.66,1.98-7.45,0-6.94-4.55-12.56-10.18-12.56v30.51h1.92Z"/></g><g><path class="cls-4" d="M34.43,66c-3.47,0-6.29,5.63-6.29,12.56,0,2.79,.46,5.37,1.23,7.45,0,0,0,0,0,0l3.88,10.49s0,0,0,0h2.37s3.88-10.5,3.88-10.5c.77-2.09,1.23-4.66,1.23-7.45,0-6.94-2.82-12.56-6.29-12.56Z"/><path class="cls-13" d="M35.54,96.5l3.93-10.47c.78-2.08,1.25-4.66,1.26-7.45,.03-6.94-2.75-12.58-6.23-12.59l-.15,30.51h1.19Z"/></g><g><path class="cls-7" d="M34.43,66c-1.28,0-2.32,5.63-2.32,12.56,0,2.79,.17,5.37,.45,7.45,0,0,0,0,0,0l1.43,10.49s0,0,0,0h.87s1.43-10.5,1.43-10.5c.28-2.09,.45-4.66,.45-7.45,0-6.94-1.04-12.56-2.32-12.56Z"/><path class="cls-8" d="M34.87,96.51l1.43-10.49c.28-2.09,.45-4.66,.45-7.45,0-6.94-1.04-12.56-2.32-12.56v30.51h.44Z"/></g></g><g><path class="cls-14" d="M32.06,99.41v2.39c0,1.04,.84,1.88,1.88,1.88h.97c1.04,0,1.89-.84,1.89-1.88v-2.39h-4.74Z"/><path class="cls-15" d="M34.43,103.69h.48c1.04,0,1.89-.84,1.89-1.88v-2.39h-2.37v4.28Z"/></g></g></g></g></g></svg>