<?xml version="1.0" encoding="UTF-8"?><svg id="_레이어_1" xmlns="http://www.w3.org/2000/svg" xmlns:xlink="http://www.w3.org/1999/xlink" viewBox="0 0 120 120"><defs><style>.cls-1{fill:none;}.cls-2{fill:url(#linear-gradient);}.cls-3{clip-path:url(#clippath);}.cls-4{fill:#004543;}.cls-5{fill:#00bffe;}.cls-6{fill:#005a72;}.cls-7{fill:#005f7f;}.cls-8{fill:#007398;}.cls-9{fill:#0085b2;}.cls-10{fill:#683d19;}.cls-11{fill:#fff;}.cls-12{fill:#66381a;}.cls-13{fill:#994f2e;}.cls-14{fill:#6d3a1d;}.cls-15{fill:#00a2d9;}.cls-16{fill:#934f2a;}.cls-17{fill:#b3ecff;}.cls-18{fill:#8de2ff;}.cls-19{fill:#894527;}.cls-20{fill:#75431d;}.cls-21{fill:#754420;}.cls-22{fill:#773f20;}.cls-23{fill:#76ddfe;}.cls-24{clip-path:url(#clippath-1);}.cls-25{fill:url(#linear-gradient-8);}.cls-26{fill:url(#linear-gradient-9);}.cls-27{fill:url(#linear-gradient-3);}.cls-28{fill:url(#linear-gradient-4);}.cls-29{fill:url(#linear-gradient-2);}.cls-30{fill:url(#linear-gradient-6);}.cls-31{fill:url(#linear-gradient-7);}.cls-32{fill:url(#linear-gradient-5);}.cls-33{fill:url(#linear-gradient-10);}</style><clipPath id="clippath"><path class="cls-1" d="M89.57-135.24H29.75c-12.24,0-22.15,9.67-22.15,21.59v48.59c0,22.66,23.31,41.03,52.06,41.03s52.06-18.37,52.06-41.03v-48.59c0-11.93-9.92-21.59-22.15-21.59Z"/></clipPath><clipPath id="clippath-1"><path class="cls-1" d="M106.87,24.24c0-2.53-2.05-4.58-4.58-4.58h-8.21c-4.68-8.54-17.31-14.66-32.15-14.66s-27.47,6.12-32.15,14.66h-8.21c-2.53,0-4.58,2.05-4.58,4.58v59.49c0,16.72,20.12,30.28,44.94,30.28s44.94-13.56,44.94-30.28V24.24Z"/></clipPath><linearGradient id="linear-gradient" x1="61.15" y1="71.2" x2="61.15" y2="94.68" gradientUnits="userSpaceOnUse"><stop offset="0" stop-color="#44a4a3"/><stop offset="1" stop-color="#9aedec"/></linearGradient><linearGradient id="linear-gradient-2" x1="55.68" y1="94.36" x2="55.68" y2="121.56" gradientUnits="userSpaceOnUse"><stop offset="0" stop-color="#248382"/><stop offset="1" stop-color="#47c4c3"/></linearGradient><linearGradient id="linear-gradient-3" x1="61.3" y1="117.22" x2="61.3" y2="128.99" gradientUnits="userSpaceOnUse"><stop offset="0" stop-color="#186b6a"/><stop offset="1" stop-color="#47c4c3"/></linearGradient><linearGradient id="linear-gradient-4" x1="59.37" y1="88.8" x2="59.37" y2="106.1" gradientUnits="userSpaceOnUse"><stop offset="0" stop-color="#248281"/><stop offset="1" stop-color="#65d6d5"/></linearGradient><linearGradient id="linear-gradient-5" x1="61.23" y1="77.68" x2="61.23" y2="100.54" gradientUnits="userSpaceOnUse"><stop offset="0" stop-color="#2b8e8d"/><stop offset="1" stop-color="#88dedd"/></linearGradient><linearGradient id="linear-gradient-6" x1="61.5" y1="62.24" x2="61.5" y2="80.16" gradientUnits="userSpaceOnUse"><stop offset="0" stop-color="#4aa9a8"/><stop offset="1" stop-color="#bcf7f6"/></linearGradient><linearGradient id="linear-gradient-7" x1="61.43" y1="55.76" x2="61.43" y2="74.97" gradientUnits="userSpaceOnUse"><stop offset="0" stop-color="#74c4c3"/><stop offset="1" stop-color="#c2efee"/></linearGradient><linearGradient id="linear-gradient-8" x1="61.2" y1="50.2" x2="61.2" y2="64.4" gradientUnits="userSpaceOnUse"><stop offset="0" stop-color="#83cdcc"/><stop offset="1" stop-color="#defffe"/></linearGradient><linearGradient id="linear-gradient-9" x1="60.86" y1="46.8" x2="60.86" y2="61.01" gradientUnits="userSpaceOnUse"><stop offset="0" stop-color="#98d8d7"/><stop offset="1" stop-color="#defffe"/></linearGradient><linearGradient id="linear-gradient-10" x1="60.81" y1="51.12" x2="60.81" y2="-10.94" gradientUnits="userSpaceOnUse"><stop offset=".28" stop-color="#def4fa"/><stop offset="1" stop-color="#9ce6e5"/></linearGradient></defs><g class="cls-3"><g><rect id="BG_COLOR" class="cls-6" x="-17.72" y="-150.03" width="154.42" height="154.42"/><path class="cls-7" d="M136.7-133.81V4.38H-17.72V-136.28c9.42,1.44,18.85,2.95,28.01,5.64,12.12,3.56,23.83,9.22,36.41,10.13,15.82,1.15,31.08-5.29,46.48-9.16,14.2-3.56,28.92-4.96,43.53-4.14Z"/><path class="cls-8" d="M136.69-111.87V4.38H-17.72V-118.04c15.36,3.2,31.33,.47,46.89-1.96,20.94-3.27,42.44-5.98,63.13-1.2,14.82,3.43,29.43,10.67,44.4,9.32Z"/><path class="cls-9" d="M136.69-113.54V4.38H-17.72V-113.4c16.34,.17,31.54,9.4,47.84,11.75,13.09,1.89,26.39-.72,39.19-4.07,12.79-3.35,25.49-7.47,38.66-8.67,9.55-.87,19.17-.19,28.72,.85Z"/><path class="cls-15" d="M136.69-77.48V4.38H-17.72V-91.54c10.73-3.73,23.03-3.72,34.16-3.39,22.96,.68,43.17,10.82,65.42,15.02,18.04,3.41,36.51,2.98,54.84,2.43Z"/><path class="cls-5" d="M136.7-82.54V4.38H-17.72V-70.51c10.45,1.88,21.09,3.03,31.64,2.03,18.08-1.71,35.03-9.6,52.82-13.31,21.25-4.43,43.21-2.8,64.83-1.14,1.71,.13,3.41,.26,5.12,.39Z"/><path class="cls-23" d="M136.69-55.38V4.38H-17.72V-56.61c20.25-1.19,40.73,2.26,59.62,10.06,4.79,1.98,9.51,4.24,14.51,5.49,11.12,2.78,22.99,.35,33.3-4.84,4.75-2.39,9.24-5.34,14.09-7.49,10.33-4.58,22.14-5.27,32.89-1.99Z"/><path class="cls-18" d="M136.69-40.91V4.38H-17.72V-41.07c8.88-1.24,17.94,2.38,26.44,5.8,13.11,5.27,26.75,10.25,40.79,9.7,13.3-.52,25.91-5.97,38.41-10.75,12.51-4.78,25.78-9.01,38.95-6.97,3.33,.51,6.59,1.42,9.82,2.39Z"/><path class="cls-17" d="M136.69-22.96V4.38H-17.72V-30.39c1.7-.33,3.84-.73,6.17-1.15,7.03-1.27,15.84-2.72,19.89-2.94,9.97-.54,20.18,.58,29.35,4.74,6.46,2.93,12.25,7.28,18.54,10.59,18.22,9.59,40.12,9.88,59.53,3.35,6.99-2.35,13.77-5.56,20.94-7.15Z"/></g></g><g><g class="cls-24"><g><path class="cls-2" d="M55.88,92.49c27.39,8.06,47.19-14.52,70.3-11.72,.24-1.07,.46-2.15,.65-3.23-13.3-.33-25.48-6.89-36.35-8.13-12.97-1.48-18.99,8.69-35.06,8.69-9.6,0-23.78-7.52-32.89-8.69-7.32-.94-19.13,1.17-27.03,2.91,.18,1.96,.45,3.89,.8,5.8,13.09,.24,32.15,6.31,59.59,14.38Z"/><path class="cls-29" d="M31.17,94.29c-8.63,.09-17.66,1.81-25.52,3.89,6.22,9.73,14.91,17.73,25.19,23.11,11.16-3.41,26.7-6.09,44.18-3.15,6.73,1.13,12.16,2.26,16.73,3.34,5.07-2.61,9.76-5.84,13.96-9.61-44.4-2.68-47.7-17.87-74.54-17.59Z"/><path class="cls-27" d="M30.84,121.29c9.16,4.8,19.59,7.51,30.65,7.51s21.19-2.65,30.25-7.32c-4.56-1.08-10-2.21-16.73-3.34-17.48-2.94-33.02-.26-44.18,3.15Z"/><path class="cls-28" d="M118.87,95.69c-7.07-3.78-16.89-7.26-29.56-6.12-7.67,.69-31.05,11.35-63.01-1.16-8.47-3.32-18.22-2.96-26.44-1.54,1.57,3.97,3.52,7.75,5.79,11.31,7.86-2.08,16.89-3.79,25.52-3.89,26.85-.29,30.15,14.91,74.54,17.59,5.19-4.66,9.64-10.11,13.16-16.19Z"/><path class="cls-32" d="M26.3,92.12c31.95,12.51,55.33,1.85,63.01,1.16,12.68-1.14,22.5,2.33,29.56,6.12,3.32-5.73,5.81-11.99,7.3-18.63-23.11-2.8-42.91,19.78-70.3,11.72-27.43-8.07-46.5-14.14-59.59-14.38,.78,4.32,2,8.49,3.57,12.47,8.22-1.42,17.97-1.77,26.44,1.54Z"/><path class="cls-30" d="M127.68,62.23c-2.29,.34-4.66,.81-6.94,1.45-9.57,2.68-18.53,5.66-30.89-.93-12.35-6.59-18.15,10.26-33.65,10.88-11.93,.48-17.61-7.68-25.26-8.85-8.34-1.27-11.26,1-20.27,2.66-8.96,1.66-12.21-.16-15.47-.95,0,1.96,.12,3.89,.29,5.81,7.9-1.74,19.71-3.85,27.03-2.91,9.11,1.18,23.29,8.69,32.89,8.69,16.06,0,22.09-10.18,35.06-8.69,10.88,1.24,23.05,7.8,36.35,8.13,.63-3.68,.98-7.47,.98-11.33,0-1.33-.04-2.66-.12-3.97Z"/><path class="cls-31" d="M10.67,67.45c9.01-1.67,11.93-3.94,20.27-2.66,7.65,1.17,13.33,9.32,25.26,8.85,15.51-.62,21.3-17.47,33.65-10.88,12.35,6.59,21.31,3.61,30.89,.93,2.29-.64,4.66-1.11,6.94-1.45-.22-3.67-.75-7.26-1.54-10.75-8.69,.95-17.77,6.05-28.6,7.63-14.83,2.16-17.88-1.97-30.09-3.82-12.21-1.85-14.15,5.52-38.25,6.72-19.58,.97-29.8-5.19-32.94-7.54-.69,3.81-1.07,7.73-1.07,11.73,0,.1,0,.2,0,.3,3.26,.79,6.51,2.61,15.47,.95Z"/><path class="cls-25" d="M29.2,62.01c24.09-1.2,26.03-8.57,38.25-6.72,12.21,1.85,15.26,5.98,30.09,3.82,10.84-1.58,19.92-6.68,28.6-7.63-.31-1.34-.64-2.66-1.03-3.97-5.39,1.76-12.84-.6-20.28-.1-10.42,.69-18.76,8.25-35.89,6.57-9.07-.89-17.05-4.86-23.99-3.25-6.09,1.42-18.28,10.2-29.3,8.87-7.34-.88-14.01-4.01-19.03-7.09-.14,.64-.24,1.3-.36,1.95,3.14,2.34,13.36,8.51,32.94,7.54Z"/><path class="cls-26" d="M44.95,50.74c6.94-1.61,14.92,2.36,23.99,3.25,17.13,1.68,25.47-5.88,35.89-6.57,7.44-.5,14.89,1.86,20.28,.1-.17-.59-.35-1.19-.54-1.78-5.78,2.01-24.41-3.16-31.44-2.72-8.69,.53-15.83,8.83-20.15,9.26-6.19,.61-9.84-4.15-16.33-5.69-6.49-1.54-13.59,2.84-17.14,3.46-3.55,.62-9.3-2.75-15.79-1.89-6.68,.89-11.2,5.98-19.04,4.85-3.25-.47-5.73-1.32-7.63-2.37-.15,.63-.29,1.26-.43,1.9,5.02,3.08,11.69,6.21,19.03,7.09,11.02,1.32,23.21-7.46,29.3-8.87Z"/><path class="cls-33" d="M23.72,48.15c6.49-.86,12.24,2.51,15.79,1.89,3.55-.62,10.66-5,17.14-3.46,6.49,1.54,10.14,6.3,16.33,5.69,4.33-.43,11.47-8.73,20.15-9.26,7.03-.43,25.66,4.74,31.44,2.72C115.94,19.14,90.97-.1,61.5-.1,30.24-.1,4.06,21.53-2.95,50.63c1.9,1.05,4.38,1.9,7.63,2.37,7.84,1.13,12.36-3.96,19.04-4.85Z"/><path class="cls-4" d="M110.06,29.06c.77-.02,1.8-.6,2.36-.65,.56-.04,.74,.17,1.21,.47,.47,.3,1.08-.1,1.37-.61,.3-.51,1.33-.3,1.82-.19,.49,.12,1.4-.05,1.76-.28-1.06,.47-2.68-.28-3.15-.27-.47,.01-1.2,.43-1.48,.47-.28,.04-1.1,.02-1.61,.09-.51,.07-1.2,.5-2.29,.95Z"/><path class="cls-4" d="M30.47,31.8s7.8-5.5,15.32-4.6c2.77-4.86,12.25-6.44,14.65-5.8-6.45,1.19-10.54,3.62-11.68,6.17-1.14,2.55-1.73,3.99-3.58,3.36-1.84-.63-7.07-3.08-14.71,.87Z"/><path class="cls-4" d="M103.91,65.89s7.43-.96,12.32,2.4c3.71-2.36,10.86,0,12.29,1.33-4.91-1.53-8.64-1.34-10.37,.01-1.72,1.35-2.66,2.14-3.71,1.03-1.05-1.11-3.79-4.72-10.53-4.77Z"/><path class="cls-4" d="M8.86,13.78c1.78,1.04,3.51,.86,4.21,.86,.56-.59,1.19-.51,1.19-.51,0,0,1.8-1.84,2.18-3.41-.27,2.23-1.79,3.83-1.79,3.83,0,0-.35,1.15-1.37,.83-1.02-.32-3.22-.19-4.41-1.59Z"/><path class="cls-4" d="M115.06,83.72c.99,.37,2.61,.16,3.34,.4,.74,.24,.85,.6,1.3,1.23,.45,.63,1.42,.43,2.06-.06,.64-.5,1.85,.3,2.42,.7,.56,.4,1.81,.66,2.38,.55-1.6,.05-3.26-1.74-3.87-1.97-.61-.22-1.75-.08-2.13-.17-.38-.09-1.41-.54-2.1-.72-.69-.18-1.79,.01-3.41,.03Z"/><path class="cls-4" d="M-6.95,78.66s5.82-5.03,11.92-4.92c1.84-4.12,9.31-6.15,11.29-5.83-5.08,1.47-8.17,3.75-8.88,5.89-.71,2.14-1.07,3.34-2.6,2.98-1.53-.36-5.92-1.9-11.73,1.88Z"/><path class="cls-4" d="M21.46,44.51s2.78-3.15,5.29-2.81c.41,.6,2.38-.15,2.73,.02,1.6,.54,3.74,2.62,3.66,2.97-.72-3-4.21-3.8-4.21-3.8-.48-.66-1.32-.52-2.38-.04-1.2,.48-4.08,1.38-5.09,3.66Z"/><path class="cls-4" d="M77.28,37.43c1.98-.05,4.64-1.56,6.09-1.66,1.45-.11,1.9,.43,3.12,1.22,1.22,.79,2.77-.25,3.54-1.56,.77-1.32,3.44-.78,4.7-.48,1.26,.3,3.61-.14,4.52-.71-2.74,1.21-6.9-.73-8.11-.7-1.22,.04-3.1,1.1-3.81,1.21-.72,.11-2.83,.05-4.15,.23-1.32,.17-3.1,1.28-5.91,2.46Z"/><g><path class="cls-12" d="M65.3,76.5h-.24v-8.61h-6.21v8.61h-.24c-.71,0-1.28,.57-1.28,1.28v3.36c0,.71,.57,1.28,1.28,1.28h.61v1.18h-1.04v6.91h7.54v-6.91h-1.04v-1.18h.61c.71,0,1.28-.57,1.28-1.28v-3.36c0-.71-.57-1.28-1.28-1.28Z"/><path class="cls-12" d="M58.61,117.62h.24v8.61h6.21v-8.61h.24c.71,0,1.28-.57,1.28-1.28v-3.36c0-.71-.57-1.28-1.28-1.28h-.61v-1.18h1.04v-6.91h-7.54v6.91h1.04v1.18h-.61c-.71,0-1.28,.57-1.28,1.28v3.36c0,.71,.57,1.28,1.28,1.28Z"/><path class="cls-12" d="M82.51,100.41v-.24h8.61v-6.21h-8.61v-.24c0-.71-.57-1.28-1.28-1.28h-3.36c-.71,0-1.28,.57-1.28,1.28v.61h-1.18v-1.04h-6.91v7.54h6.91v-1.04h1.18v.61c0,.71,.57,1.28,1.28,1.28h3.36c.71,0,1.28-.57,1.28-1.28Z"/><path class="cls-12" d="M41.4,93.72v.24h-8.61v6.21h8.61v.24c0,.71,.57,1.28,1.28,1.28h3.36c.71,0,1.28-.57,1.28-1.28v-.61h1.18v1.04h6.91v-7.54h-6.91v1.04h-1.18v-.61c0-.71-.57-1.28-1.28-1.28h-3.36c-.71,0-1.28,.57-1.28,1.28Z"/><path class="cls-12" d="M78.86,84.89l-.17-.17,6.09-6.09-4.39-4.39-6.09,6.09-.17-.17c-.5-.5-1.31-.5-1.81,0l-2.38,2.38c-.5,.5-.5,1.31,0,1.81l.43,.43-.83,.83-.73-.73-4.89,4.89,5.33,5.33,4.89-4.89-.73-.73,.83-.83,.43,.43c.5,.5,1.31,.5,1.81,0l2.38-2.38c.5-.5,.5-1.31,0-1.81Z"/><path class="cls-12" d="M45.06,109.23l.17,.17-6.09,6.09,4.39,4.39,6.09-6.09,.17,.17c.5,.5,1.31,.5,1.81,0l2.38-2.38c.5-.5,.5-1.31,0-1.81l-.43-.43,.83-.83,.73,.73,4.89-4.89-5.33-5.33-4.89,4.89,.73,.73-.83,.83-.43-.43c-.5-.5-1.31-.5-1.81,0l-2.38,2.38c-.5,.5-.5,1.31,0,1.81Z"/><path class="cls-12" d="M74.13,113.96l.17-.17,6.09,6.09,4.39-4.39-6.09-6.09,.17-.17c.5-.5,.5-1.31,0-1.81l-2.38-2.38c-.5-.5-1.31-.5-1.81,0l-.43,.43-.83-.83,.73-.73-4.89-4.89-5.33,5.33,4.89,4.89,.73-.73,.83,.83-.43,.43c-.5,.5-.5,1.31,0,1.81l2.38,2.38c.5,.5,1.31,.5,1.81,0Z"/><path class="cls-12" d="M49.79,80.16l-.17,.17-6.09-6.09-4.39,4.39,6.09,6.09-.17,.17c-.5,.5-.5,1.31,0,1.81l2.38,2.38c.5,.5,1.31,.5,1.81,0l.43-.43,.83,.83-.73,.73,4.89,4.89,5.33-5.33-4.89-4.89-.73,.73-.83-.83,.43-.43c.5-.5,.5-1.31,0-1.81l-2.38-2.38c-.5-.5-1.31-.5-1.81,0Z"/><g><rect class="cls-12" x="60.15" y="52.91" width="3.62" height="6.3"/><rect class="cls-12" x="58.13" y="56.54" width="7.65" height="2.26"/><rect class="cls-12" x="57.33" y="58.47" width="9.25" height="2.26"/><rect class="cls-12" x="59.14" y="58.96" width="5.63" height="6.89"/><rect class="cls-12" x="58.23" y="43.47" width="7.44" height="10.36" rx="1.89" ry="1.89"/></g><g><rect class="cls-12" x="61.64" y="52.91" width="2.13" height="6.3"/><rect class="cls-12" x="61.64" y="56.54" width="4.14" height="2.26"/><rect class="cls-12" x="61.64" y="58.47" width="4.94" height="2.26"/><rect class="cls-12" x="61.64" y="58.96" width="3.13" height="6.89"/><path class="cls-12" d="M64.48,43.47h-2.84v10.36h2.84c.66,0,1.2-.54,1.2-1.2v-7.96c0-.66-.54-1.2-1.2-1.2Z"/></g><g><rect class="cls-12" x="101.51" y="94.27" width="3.62" height="6.3" transform="translate(200.75 -5.9) rotate(90)"/><rect class="cls-12" x="97.89" y="96.3" width="7.65" height="2.26" transform="translate(199.14 -4.29) rotate(90)"/><rect class="cls-12" x="95.16" y="96.3" width="9.25" height="2.26" transform="translate(197.21 -2.36) rotate(90)"/><rect class="cls-12" x="94.16" y="93.98" width="5.63" height="6.89" transform="translate(194.4 .45) rotate(90)"/><rect class="cls-12" x="107.02" y="92.25" width="7.44" height="10.36" rx="1.89" ry="1.89" transform="translate(208.16 -13.31) rotate(90)"/></g><g><rect class="cls-12" x="18.78" y="94.27" width="3.62" height="6.3" transform="translate(-76.83 118.02) rotate(-90)"/><rect class="cls-12" x="18.38" y="96.3" width="7.65" height="2.26" transform="translate(-75.22 119.63) rotate(-90)"/><rect class="cls-12" x="19.5" y="96.3" width="9.25" height="2.26" transform="translate(-73.3 121.55) rotate(-90)"/><rect class="cls-12" x="24.12" y="93.98" width="5.63" height="6.89" transform="translate(-70.49 124.36) rotate(-90)"/><rect class="cls-12" x="9.45" y="92.25" width="7.44" height="10.36" rx="1.89" ry="1.89" transform="translate(-84.25 110.6) rotate(-90)"/></g><g><rect class="cls-12" x="89.4" y="65.02" width="3.62" height="6.3" transform="translate(74.92 -44.52) rotate(45)"/><rect class="cls-12" x="86.25" y="68.19" width="7.65" height="2.26" transform="translate(75.39 -43.39) rotate(45)"/><rect class="cls-12" x="84.08" y="69.55" width="9.25" height="2.26" transform="translate(75.96 -42.02) rotate(45)"/><rect class="cls-12" x="83.9" y="69.22" width="5.63" height="6.89" transform="translate(76.78 -40.04) rotate(45)"/><rect class="cls-12" x="92.73" y="57.75" width="7.44" height="10.36" rx="1.89" ry="1.89" transform="translate(72.75 -49.77) rotate(45)"/></g><rect class="cls-12" x="34.38" y="118.74" width="5.63" height="6.89" transform="translate(-22.9 234.89) rotate(-135)"/><rect class="cls-12" x="83.9" y="118.74" width="5.63" height="6.89" transform="translate(234.44 147.27) rotate(135)"/><g><rect class="cls-12" x="30.9" y="65.02" width="3.62" height="6.3" transform="translate(-38.63 43.1) rotate(-45)"/><rect class="cls-12" x="30.02" y="68.19" width="7.65" height="2.26" transform="translate(-39.1 44.23) rotate(-45)"/><rect class="cls-12" x="30.58" y="69.55" width="9.25" height="2.26" transform="translate(-39.66 45.6) rotate(-45)"/><rect class="cls-12" x="34.38" y="69.22" width="5.63" height="6.89" transform="translate(-40.49 47.58) rotate(-45)"/><rect class="cls-12" x="23.74" y="57.75" width="7.44" height="10.36" rx="1.89" ry="1.89" transform="translate(-36.46 37.85) rotate(-45)"/></g><circle class="cls-10" cx="61.96" cy="97.06" r="8.44" transform="translate(-38.79 152.83) rotate(-86.41)"/><circle class="cls-16" cx="61.96" cy="97.06" r="6.54"/><circle class="cls-10" cx="61.96" cy="97.06" r="2.74"/><path class="cls-19" d="M61.96,62.98c-18.79,0-34.07,15.29-34.07,34.08s15.28,34.07,34.07,34.07,34.07-15.29,34.07-34.07-15.28-34.08-34.07-34.08Zm0,60.38c-14.53,0-26.3-11.77-26.3-26.3s11.77-26.3,26.3-26.3,26.3,11.78,26.3,26.3-11.77,26.3-26.3,26.3Z"/><path class="cls-12" d="M61.96,68.54c-15.73,0-28.52,12.79-28.52,28.52s12.79,28.52,28.52,28.52,28.52-12.79,28.52-28.52-12.79-28.52-28.52-28.52Zm0,54.82c-14.53,0-26.3-11.77-26.3-26.3s11.77-26.3,26.3-26.3,26.3,11.78,26.3,26.3-11.77,26.3-26.3,26.3Z"/><path class="cls-22" d="M58.19,83.61v6.91h3.55v-22.62h-2.88v8.61h-.24c-.71,0-1.28,.57-1.28,1.28v3.36c0,.71,.57,1.28,1.28,1.28h.61v1.18h-1.04Z"/><path class="cls-22" d="M61.73,126.22v-22.62h-3.55v6.91h1.04v1.18h-.61c-.71,0-1.28,.57-1.28,1.28v3.36c0,.71,.57,1.28,1.28,1.28h.24v8.61h2.88Z"/><path class="cls-22" d="M41.4,93.72v.24h-8.61v6.21h8.61v.24c0,.71,.57,1.28,1.28,1.28h3.36c.71,0,1.28-.57,1.28-1.28v-.61h1.18v1.04h6.91v-7.54h-6.91v1.04h-1.18v-.61c0-.71-.57-1.28-1.28-1.28h-3.36c-.71,0-1.28,.57-1.28,1.28Z"/><path class="cls-22" d="M45.06,109.23l.17,.17-6.09,6.09,4.39,4.39,6.09-6.09,.17,.17c.5,.5,1.31,.5,1.81,0l2.38-2.38c.5-.5,.5-1.31,0-1.81l-.43-.43,.83-.83,.73,.73,4.89-4.89-5.33-5.33-4.89,4.89,.73,.73-.83,.83-.43-.43c-.5-.5-1.31-.5-1.81,0l-2.38,2.38c-.5,.5-.5,1.31,0,1.81Z"/><path class="cls-22" d="M49.79,80.16l-.17,.17-6.09-6.09-4.39,4.39,6.09,6.09-.17,.17c-.5,.5-.5,1.31,0,1.81l2.38,2.38c.5,.5,1.31,.5,1.81,0l.43-.43,.83,.83-.73,.73,4.89,4.89,5.33-5.33-4.89-4.89-.73,.73-.83-.83,.43-.43c.5-.5,.5-1.31,0-1.81l-2.38-2.38c-.5-.5-1.31-.5-1.81,0Z"/><g><rect class="cls-22" x="60.15" y="52.91" width="1.59" height="6.3"/><rect class="cls-22" x="58.13" y="56.54" width="3.6" height="2.26"/><rect class="cls-22" x="57.33" y="58.47" width="4.4" height="2.26"/><rect class="cls-22" x="59.14" y="58.96" width="2.59" height="6.89"/><path class="cls-22" d="M61.73,43.47h-2.3c-.66,0-1.2,.54-1.2,1.2v7.96c0,.66,.54,1.2,1.2,1.2h2.3v-10.36Z"/></g><g><rect class="cls-22" x="61.64" y="52.91" width=".09" height="6.3"/><rect class="cls-22" x="61.64" y="56.54" width=".09" height="2.26"/><rect class="cls-22" x="61.64" y="58.47" width=".09" height="2.26"/><rect class="cls-22" x="61.64" y="58.96" width=".09" height="6.89"/><rect class="cls-22" x="61.64" y="43.47" width=".09" height="10.36"/></g><g><rect class="cls-22" x="18.78" y="94.27" width="3.62" height="6.3" transform="translate(-76.83 118.02) rotate(-90)"/><rect class="cls-22" x="18.38" y="96.3" width="7.65" height="2.26" transform="translate(-75.22 119.63) rotate(-90)"/><rect class="cls-22" x="19.5" y="96.3" width="9.25" height="2.26" transform="translate(-73.3 121.55) rotate(-90)"/><rect class="cls-22" x="24.12" y="93.98" width="5.63" height="6.89" transform="translate(-70.49 124.36) rotate(-90)"/><rect class="cls-22" x="9.45" y="92.25" width="7.44" height="10.36" rx="1.89" ry="1.89" transform="translate(-84.25 110.6) rotate(-90)"/></g><rect class="cls-22" x="34.38" y="118.74" width="5.63" height="6.89" transform="translate(-22.9 234.89) rotate(-135)"/><g><rect class="cls-22" x="30.9" y="65.02" width="3.62" height="6.3" transform="translate(-38.63 43.1) rotate(-45)"/><rect class="cls-22" x="30.02" y="68.19" width="7.65" height="2.26" transform="translate(-39.1 44.23) rotate(-45)"/><rect class="cls-22" x="30.58" y="69.55" width="9.25" height="2.26" transform="translate(-39.66 45.6) rotate(-45)"/><rect class="cls-22" x="34.38" y="69.22" width="5.63" height="6.89" transform="translate(-40.49 47.58) rotate(-45)"/><rect class="cls-22" x="23.74" y="57.75" width="7.44" height="10.36" rx="1.89" ry="1.89" transform="translate(-36.46 37.85) rotate(-45)"/></g><path class="cls-21" d="M61.73,88.63c-4.55,.12-8.22,3.85-8.22,8.43s3.67,8.31,8.22,8.43v-16.86Z"/><path class="cls-13" d="M61.73,90.53c-3.5,.12-6.31,3-6.31,6.53s2.81,6.41,6.31,6.53v-13.06Z"/><path class="cls-20" d="M61.73,94.35c-1.4,.12-2.51,1.28-2.51,2.71s1.11,2.6,2.51,2.71v-5.43Z"/><path class="cls-16" d="M61.73,123.35c-14.42-.12-26.07-11.84-26.07-26.29s11.65-26.18,26.07-26.3v-7.77c-18.69,.12-33.85,15.36-33.85,34.07s15.16,33.94,33.85,34.07v-7.77Z"/><path class="cls-14" d="M61.73,123.35c-14.42-.12-26.07-11.84-26.07-26.29s11.65-26.18,26.07-26.3v-2.22c-15.62,.12-28.3,12.86-28.3,28.52s12.67,28.39,28.3,28.51v-2.22Z"/></g></g></g><path class="cls-11" d="M60,7.18c13.23,0,25.34,5.23,29.44,12.71l1.71,3.12h11.35v63.14c0,14.46-19.46,26.68-42.5,26.68s-42.5-12.22-42.5-26.68V23h11.35l1.71-3.12c4.1-7.48,16.21-12.71,29.44-12.71m0-6c-16.02,0-29.65,6.61-34.7,15.82h-8.86c-2.73,0-4.94,2.21-4.94,4.94V86.14c0,18.05,21.71,32.68,48.5,32.68s48.5-14.63,48.5-32.68V21.94c0-2.73-2.21-4.94-4.94-4.94h-8.86C89.65,7.79,76.02,1.18,60,1.18h0Z"/></g></svg>