<?xml version="1.0" encoding="UTF-8"?><svg id="_레이어_1" xmlns="http://www.w3.org/2000/svg" xmlns:xlink="http://www.w3.org/1999/xlink" viewBox="0 0 120 120"><defs><style>.cls-1{fill:none;}.cls-2{fill:url(#linear-gradient);}.cls-3{clip-path:url(#clippath);}.cls-4{fill:#ebf3ff;}.cls-5{fill:#e6e7e7;}.cls-6{fill:#fafcff;}.cls-7{fill:#e8f2ff;}.cls-8{fill:#e48e24;}.cls-9{fill:#fff;}.cls-10{fill:#f1f7ff;}.cls-11{fill:#fbae16;}.cls-12{fill:#b5d9ff;}.cls-13{fill:#bdf;}.cls-14{fill:#bfdeff;}.cls-15{fill:#c0dfff;}.cls-16{fill:#cfe7ff;}.cls-17{fill:#c4e1ff;}.cls-18{fill:#d9e9ff;}.cls-19{fill:#dfeeff;}.cls-20{fill:#c7e2ff;}.cls-21{fill:#3a393a;}.cls-22{fill:url(#linear-gradient-8);}.cls-23{fill:url(#linear-gradient-9);}.cls-24{fill:url(#linear-gradient-3);}.cls-25{fill:url(#linear-gradient-4);}.cls-26{fill:url(#linear-gradient-2);}.cls-27{fill:url(#linear-gradient-6);}.cls-28{fill:url(#linear-gradient-7);}.cls-29{fill:url(#linear-gradient-5);}.cls-30{opacity:.3;}.cls-31{fill:url(#linear-gradient-14);}.cls-32{fill:url(#linear-gradient-18);}.cls-33{fill:url(#linear-gradient-22);}.cls-34{fill:url(#linear-gradient-20);}.cls-35{fill:url(#linear-gradient-21);}.cls-36{fill:url(#linear-gradient-23);}.cls-37{fill:url(#linear-gradient-15);}.cls-38{fill:url(#linear-gradient-19);}.cls-39{fill:url(#linear-gradient-16);}.cls-40{fill:url(#linear-gradient-17);}.cls-41{fill:url(#linear-gradient-13);}.cls-42{fill:url(#linear-gradient-12);}.cls-43{fill:url(#linear-gradient-10);}.cls-44{fill:url(#linear-gradient-11);}</style><linearGradient id="linear-gradient" x1="60.05" y1="-3.65" x2="60.05" y2="101.86" gradientUnits="userSpaceOnUse"><stop offset="0" stop-color="#5a97df"/><stop offset=".31" stop-color="#5d99e0"/><stop offset=".57" stop-color="#67a0e4"/><stop offset=".82" stop-color="#79adea"/><stop offset="1" stop-color="#8cbbf2"/><stop offset="1" stop-color="#81b3ed"/><stop offset="1" stop-color="#649ee3"/><stop offset="1" stop-color="#5795de"/></linearGradient><clipPath id="clippath"><path class="cls-1" d="M29.78,116.3l60.03-.22c12.28-.04,22.2-9.78,22.16-21.75l-.18-48.76c-.08-22.74-23.54-41.09-52.4-40.99C30.53,4.68,7.21,23.2,7.29,45.94l.18,48.76c.04,11.97,10.03,21.64,22.31,21.59Z"/></clipPath><linearGradient id="linear-gradient-2" x1="-620.5" y1="13095.23" x2="-620.5" y2="13035.95" gradientTransform="translate(681 -12976.23)" gradientUnits="userSpaceOnUse"><stop offset="0" stop-color="#fff"/><stop offset=".34" stop-color="#eaf5ff"/><stop offset=".7" stop-color="#dbeeff"/><stop offset=".99" stop-color="#d6ecff"/></linearGradient><linearGradient id="linear-gradient-3" x1="39.67" y1="67.31" x2="39.67" y2="20.51" gradientUnits="userSpaceOnUse"><stop offset="0" stop-color="#cbe5ff"/><stop offset=".1" stop-color="#c1e0fc"/><stop offset=".33" stop-color="#b2d8f8"/><stop offset=".59" stop-color="#a9d4f5"/><stop offset=".99" stop-color="#a7d3f5"/></linearGradient><linearGradient id="linear-gradient-4" x1="29.3" y1="75.86" x2="29.3" y2="59.31" gradientUnits="userSpaceOnUse"><stop offset="0" stop-color="#c6e3ff"/><stop offset=".05" stop-color="#c1e0fd"/><stop offset=".34" stop-color="#b0d8f8"/><stop offset=".64" stop-color="#a5d2f5"/><stop offset=".99" stop-color="#a2d1f5"/></linearGradient><linearGradient id="linear-gradient-5" x1="-6.66" y1="83.24" x2="2.74" y2="83.24" gradientUnits="userSpaceOnUse"><stop offset="0" stop-color="#c0dfff"/><stop offset=".61" stop-color="#a5d1f7"/><stop offset=".99" stop-color="#9accf5"/></linearGradient><linearGradient id="linear-gradient-6" x1="29.92" y1="52.92" x2="34.63" y2="52.92" xlink:href="#linear-gradient-5"/><linearGradient id="linear-gradient-7" x1="26.22" y1="68.08" x2="37.33" y2="68.08" gradientUnits="userSpaceOnUse"><stop offset="0" stop-color="#c0dfff"/><stop offset=".05" stop-color="#bcddfe"/><stop offset=".35" stop-color="#a9d3f9"/><stop offset=".67" stop-color="#9dcdf5"/><stop offset=".99" stop-color="#9accf5"/></linearGradient><linearGradient id="linear-gradient-8" x1="88.04" y1="68.78" x2="88.04" y2="86.75" gradientUnits="userSpaceOnUse"><stop offset="0" stop-color="#c0dfff"/><stop offset=".34" stop-color="#abd4f9"/><stop offset=".68" stop-color="#9ecef6"/><stop offset=".99" stop-color="#9accf5"/></linearGradient><linearGradient id="linear-gradient-9" x1="46.11" y1="62.97" x2="51.65" y2="62.97" gradientUnits="userSpaceOnUse"><stop offset="0" stop-color="#c0dfff"/><stop offset=".58" stop-color="#a6d2f8"/><stop offset=".99" stop-color="#9accf5"/></linearGradient><linearGradient id="linear-gradient-10" x1="52.73" y1="62.86" x2="63.9" y2="82.21" gradientUnits="userSpaceOnUse"><stop offset="0" stop-color="#c0dfff"/><stop offset=".31" stop-color="#b9dbfd"/><stop offset=".75" stop-color="#a7d2f8"/><stop offset=".99" stop-color="#9accf5"/></linearGradient><linearGradient id="linear-gradient-11" x1="49.4" y1="73.43" x2="55.91" y2="84.71" xlink:href="#linear-gradient-5"/><linearGradient id="linear-gradient-12" x1="54.78" y1="104.25" x2="57.49" y2="99.56" gradientUnits="userSpaceOnUse"><stop offset="0" stop-color="#cfe7ff"/><stop offset=".01" stop-color="#cde6fe"/><stop offset=".35" stop-color="#b9dbf9"/><stop offset=".67" stop-color="#add5f6"/><stop offset=".99" stop-color="#a9d3f5"/></linearGradient><linearGradient id="linear-gradient-13" x1="69.86" y1="108" x2="69.86" y2="91.65" gradientUnits="userSpaceOnUse"><stop offset="0" stop-color="#c4e1ff"/><stop offset=".02" stop-color="#bfdefd"/><stop offset=".13" stop-color="#aed6f9"/><stop offset=".27" stop-color="#a2d0f7"/><stop offset=".46" stop-color="#9bccf5"/><stop offset=".99" stop-color="#9accf5"/></linearGradient><linearGradient id="linear-gradient-14" x1="89.2" y1="107.27" x2="129.38" y2="107.27" xlink:href="#linear-gradient-13"/><linearGradient id="linear-gradient-15" x1="96.31" y1="98.79" x2="105.33" y2="98.79" gradientUnits="userSpaceOnUse"><stop offset="0" stop-color="#cfe7ff"/><stop offset=".5" stop-color="#b9dbf9"/><stop offset=".99" stop-color="#a9d3f5"/></linearGradient><linearGradient id="linear-gradient-16" x1="83.39" y1="103.63" x2="94.27" y2="97.35" gradientUnits="userSpaceOnUse"><stop offset="0" stop-color="#cfe7ff"/><stop offset=".2" stop-color="#c4e1fc"/><stop offset=".67" stop-color="#b0d6f6"/><stop offset=".99" stop-color="#a9d3f5"/></linearGradient><linearGradient id="linear-gradient-17" x1="108.79" y1="97.52" x2="113.56" y2="97.52" xlink:href="#linear-gradient-13"/><linearGradient id="linear-gradient-18" x1="8.76" y1="116.95" x2="8.76" y2="116.03" gradientUnits="userSpaceOnUse"><stop offset="0" stop-color="#cfe7ff"/><stop offset=".07" stop-color="#c9e4fd"/><stop offset=".35" stop-color="#b7daf8"/><stop offset=".66" stop-color="#acd4f5"/><stop offset=".99" stop-color="#a9d3f5"/></linearGradient><linearGradient id="linear-gradient-19" x1="26.29" y1="109.18" x2="28.59" y2="109.18" xlink:href="#linear-gradient-13"/><linearGradient id="linear-gradient-20" x1="14.86" y1="82.49" x2="20.62" y2="82.49" xlink:href="#linear-gradient-13"/><linearGradient id="linear-gradient-21" x1="93.51" y1="114.07" x2="93.51" y2="107.53" xlink:href="#linear-gradient-13"/><linearGradient id="linear-gradient-22" x1="66.16" y1="113.03" x2="66.16" y2="105.06" gradientUnits="userSpaceOnUse"><stop offset="0" stop-color="#cfe7ff"/><stop offset=".28" stop-color="#bfdefa"/><stop offset=".69" stop-color="#aed6f6"/><stop offset=".99" stop-color="#a9d3f5"/></linearGradient><linearGradient id="linear-gradient-23" x1="76.99" y1="114.07" x2="76.99" y2="103.78" xlink:href="#linear-gradient-13"/></defs><g><path class="cls-2" d="M29.96,116.29l60.51-.22c12.38-.05,22.37-9.86,22.33-21.93l-.18-49.15c-.08-22.92-23.73-41.42-52.81-41.31C30.72,3.79,7.21,22.46,7.29,45.38l.18,49.15c.04,12.06,10.11,21.81,22.49,21.76Z"/><g class="cls-3"><g><rect class="cls-26" y="59.72" width="121" height="59.28" transform="translate(121 178.72) rotate(180)"/><g><polygon class="cls-19" points="-13.91 75.86 72.51 75.86 69.61 70.79 64.18 70.79 60.91 57.02 56.75 57.02 52.58 25.13 38.45 20.51 6.75 62.45 -7.2 63.72 -13.91 75.86"/><polygon class="cls-10" points="38.45 20.51 47.15 29.78 52.58 25.13 38.45 20.51"/><polygon class="cls-10" points="56.75 57.02 53.19 59.31 59.41 59.31 60.91 57.02 56.75 57.02"/><polygon class="cls-10" points="69.61 70.79 65.75 73.26 60.13 72.42 64.18 70.79 69.61 70.79"/><polygon class="cls-10" points="6.75 62.45 2.4 66.86 -7.2 63.72 6.75 62.45"/><polygon class="cls-13" points="2.4 66.86 .13 75.86 -2.13 75.86 -13.91 75.86 -7.2 63.72 2.4 66.86"/><path class="cls-13" d="M11.09,70.79l-13.22,5.07H72.51l-6.76-2.6-5.62-.85s-27.66-5.4-27.93-5.1c-.27,.3-16.85,2.48-16.85,2.48l-4.26,1Z"/><polygon class="cls-16" points="38.45 20.51 6.75 62.45 .38 74.9 31.57 68.52 47.15 29.78 38.45 20.51"/><polygon class="cls-13" points="59.41 59.31 60.13 72.42 49.23 70.79 53.19 59.31 59.41 59.31"/><polygon class="cls-24" points="38.45 20.51 32.2 67.31 47.15 29.78 38.45 20.51"/><polygon class="cls-25" points="64.3 74.47 60.33 74.4 60.13 72.03 59.41 59.31 55.12 72.03 55.78 74.31 16.71 73.57 7.59 65.23 .38 74.9 -7.81 73.26 -13.91 75.86 72.51 75.86 64.3 74.47"/></g><g><polygon class="cls-18" points="-9.44 86.75 125.6 86.75 126.47 69.06 112.59 63.66 92.72 28.58 74.74 25.51 70.5 36.77 54.43 42.03 51.65 53.57 45.07 56.79 36.89 45.54 28.12 50.11 18.92 77.1 -6.66 79.73 -9.44 86.75"/><polygon class="cls-20" points="37.33 49.41 30.61 86.75 16.48 86.75 18.92 77.1 28.12 50.11 36.65 48.02 37.33 49.41"/><path class="cls-15" d="M120.04,70.48l-.16,.59-4.37,15.68H56.03s34.27-34.73,34.42-35.17c.15-.44,29.59,18.9,29.59,18.9h0Z"/><polygon class="cls-4" points="28.12 50.11 34.63 50.5 37.33 49.41 36.89 45.54 28.12 50.11"/><polygon class="cls-4" points="54.43 42.03 71.96 41.13 74.74 25.51 90.45 51.09 110.33 65.85 126.47 69.06 112.35 63.22 92.72 28.58 74.74 25.51 70.5 36.77 54.43 42.03"/><polygon class="cls-4" points="110.33 65.85 120.04 70.48 126 68.97 110.33 65.85"/><polygon class="cls-4" points="18.92 77.1 -1.25 82.85 -6.66 79.73 18.92 77.1"/><polygon class="cls-14" points="71.96 41.13 63.34 56.74 59.25 73.11 56.03 86.75 41.42 86.75 45.07 56.79 51.65 53.57 54.43 42.03 71.96 41.13"/><polygon class="cls-12" points="-1.25 82.85 2.74 86.75 13.85 83.53 19.3 86.75 -9.44 86.75 -6.66 79.73 -1.25 82.85"/><polygon class="cls-12" points="41.42 86.75 31.17 81.8 26.9 86.75 41.42 86.75"/><polygon class="cls-29" points="-6.66 79.73 -1.96 82.44 2.74 86.75 -5.34 83.24 -6.66 79.73"/><polygon class="cls-27" points="34.63 50.5 29.92 55.33 32.74 50.5 34.63 50.5"/><polygon class="cls-28" points="26.22 86.75 37.33 49.41 30.61 86.75 26.22 86.75"/><path class="cls-22" d="M115.51,86.75l4.53-16.27-9.26,11.5-21.24,2.63,15.39-15.55c.13-.13-.03-.34-.19-.25l-24.26,14.44-24.45,3.51h59.48Z"/><path class="cls-23" d="M51.65,53.57l-.15,.54-5.16,18.18c-.04,.14-.25,.1-.23-.04l1.45-16.67,4.09-2Z"/><polygon class="cls-43" points="52.38 86.75 63.34 56.74 56.03 86.75 52.38 86.75"/><path class="cls-44" d="M48.93,86.75l6.33-16.66c.08-.21,.4-.12,.35,.1l-3.24,16.55h-3.45Z"/><polygon class="cls-12" points="70.5 36.77 71.96 41.13 74.74 25.51 70.5 36.77"/></g><g><polygon class="cls-7" points="50.51 108 129.38 108 133.38 87.04 116.05 83.89 108.3 92.01 105.51 90.19 96.31 90.8 94.25 95.95 89.76 97.46 82.98 88.01 67.07 88.37 61.3 99.52 47.85 100.25 50.51 108"/><polygon class="cls-6" points="67.07 88.37 79.39 91.65 82.98 88.01 67.07 88.37"/><polygon class="cls-6" points="96.31 90.8 105.33 92.98 108.3 92.01 105.51 90.19 96.31 90.8"/><polygon class="cls-6" points="116.05 83.89 114.72 88.5 131.26 89.4 133.38 87.04 116.05 83.89"/><polygon class="cls-6" points="47.85 100.25 60.99 101.58 61.3 99.52 47.85 100.25"/><polygon class="cls-17" points="129.38 108 110.02 102.44 104.1 105.7 105.33 92.98 96.31 90.8 94.25 95.95 94.01 96.9 89.76 97.46 88.61 98.55 84.47 105.5 80.74 105.03 60.7 106.05 75.84 105.28 79.39 91.65 67.07 88.37 60.99 101.58 47.85 100.25 50.51 108 55.25 107.09 50.67 108 129.38 108"/><polygon class="cls-17" points="108.3 92.01 108.91 105.76 114.72 88.5 116.05 83.89 108.3 92.01"/><polygon class="cls-17" points="131.26 89.4 127.08 107.34 114.72 88.5 131.26 89.4"/><path class="cls-42" d="M62.78,106.43l-1.78-4.85s-13.3-1.35-13.14-1.33,12.36,3.3,12.36,3.3l2.57,2.88Z"/><g><polygon class="cls-41" points="75.84 105.28 79.39 91.65 69.08 105.62 50.51 108 89.2 108 75.35 106.55 75.84 105.28"/><polygon class="cls-31" points="103.7 106.55 89.2 108 129.38 108 103.7 106.55"/></g><polygon class="cls-37" points="96.31 90.8 102.3 95.36 103.66 106.79 104.1 105.7 105.33 92.98 96.31 90.8"/><polygon class="cls-39" points="89.76 97.46 89.88 98.37 88.61 98.55 84.47 105.5 90.13 100.4 94.01 96.9 89.76 97.46"/><polygon class="cls-40" points="108.79 103.12 109.72 101.49 113.56 91.93 110.02 102.44 108.79 103.12"/></g><g><polygon class="cls-7" points="-15.16 116.95 32.68 116.95 33.28 108.44 33.93 106.6 30.19 103.89 29.6 99.23 18.87 77.4 14.86 77.94 11.61 100.86 6.24 104.85 -3.18 104.85 -7.09 110.45 -11.96 111.32 -15.16 116.95"/><polygon class="cls-6" points="14.86 77.94 17.81 78.92 18.87 77.4 14.86 77.94"/><polygon class="cls-6" points="33.93 106.6 27 105.44 30.19 103.89 33.93 106.6"/><polygon class="cls-6" points="11.61 100.86 9.39 106.6 -2.93 106.37 -3.18 104.85 6.24 104.85 11.61 100.86"/><polygon class="cls-17" points="-2.93 106.37 -8.31 115.33 9.39 106.6 -2.93 106.37"/><path class="cls-17" d="M33.93,106.6l-6.94-1.16-9.18-26.52-2.95-.98-3.25,22.92-.34,4.58,10.15,10.59c-.38,.22-13.11-1.25-13.11-1.25l-16.62,.54v-2.87l-3.65-1.14-3.2,5.63H32.68l-6.66-3.2,7.25-5.14,.66-2.01Z"/><polygon class="cls-17" points="29.6 99.23 27 105.44 30.19 103.89 29.6 99.23"/><polygon class="cls-32" points="32.68 116.95 21.41 116.03 16.47 116.49 8.12 116.03 -15.16 116.95 32.68 116.95"/><polygon class="cls-38" points="27 105.44 26.29 112.92 28.59 105.71 27 105.44"/><polygon class="cls-34" points="17.81 78.92 20.62 87.03 14.86 77.94 17.81 78.92"/></g></g></g><path class="cls-9" d="M60,2C30.01,2,5.7,21.16,5.7,44.8v2.58h6v-2.58c0-20.29,21.67-36.8,48.3-36.8s48.3,16.51,48.3,36.8v2.58h6v-2.58c0-23.64-24.31-42.8-54.3-42.8Z"/><ellipse class="cls-30" cx="58.71" cy="97.88" rx="23.75" ry="4.5"/><g><path class="cls-9" d="M46.19,95.69c-6.38-2.43-8.49-10.7-8.72-15.21-.18-3.44,.2-5.84,1.03-9.33,.21-.79,.7-2.89,1.32-5.55,1-4.29,2.36-10.17,3.23-13.27,.8-2.87,.86-5.83,.91-8.43,.03-1.52,.06-2.95,.23-4.21,.57-4.17,2.23-7.86,4.57-10.13,2.82-2.74,6.44-4.18,10.47-4.19h.02c4.03,0,7.65,1.45,10.47,4.19,2.34,2.27,4.01,5.96,4.57,10.13,.17,1.25,.2,2.69,.23,4.21,.05,2.61,.1,5.56,.91,8.43,.87,3.1,2.23,8.98,3.23,13.27,.62,2.66,1.1,4.75,1.32,5.55,.82,3.49,1.21,5.89,1.03,9.32-.24,4.51-2.34,12.77-8.72,15.21h-26.07Z"/><g><circle class="cls-21" cx="52.45" cy="38.36" r="1.2" transform="translate(13.99 90.73) rotate(-89.89)"/><circle class="cls-21" cx="66.54" cy="38.17" r="1.2"/></g><path class="cls-5" d="M76.5,62.04c-.61-1.6-4.54-9.17-8.11-12.19,.41,1.31,2.11,7.11,2.59,9.01,1.69,6.71,4.94,18.05,.15,24.8-2.07,2.92-5.52,5.4-11.62,5.44h-.03c-6.1-.05-9.54-2.52-11.62-5.44-4.79-6.76-1.54-18.1,.15-24.8,.48-1.91,2.18-7.7,2.59-9.01-3.58,3.02-7.5,10.59-8.11,12.19-5.83,15.23-4.36,24.74-1.12,29.3,2.1,2.95,5.74,5.36,9.12,6.35,2.98,.87,5.7,1.29,8.99,1.27,3.29,.02,6.04-.39,9.02-1.27,3.38-.99,7.02-3.4,9.12-6.35,3.24-4.57,4.71-14.08-1.12-29.3Z"/><path class="cls-21" d="M84.52,65.07c-4.2-5.86-7-9.08-8.54-13.3-1.57-4.49-.82-9.31-1.29-12.78-.56-4.12-2.21-7.94-4.67-10.33-2.58-2.5-6.16-4.28-10.71-4.28s-8.13,1.78-10.71,4.28c-2.46,2.38-4.11,6.21-4.67,10.33-.47,3.47,.29,8.29-1.29,12.78-1.54,4.22-4.34,7.44-8.54,13.3-6.22,8.67-4.9,15.27-3.95,14.19,5.1-5.79,7.47-7.62,8.03-8.44-.8,3.41-1.23,5.92-1.04,9.48,.26,5,2.59,13.11,8.94,15.52-1.2-.66-6.63-6.1-5.41-16.55,.9-7.67,4.01-21.24,9.75-29.41-1.66-2.74-6.37-8.47-3.06-14.32,1.85-3.27,6.85-3.62,8.73-.25,1.24,2.23,.61,5.31-.95,7.33h8.34c-1.5-1.8-2.19-5.09-.95-7.33,1.88-3.37,6.88-3.01,8.73,.25,3.31,5.86-1.4,11.58-3.06,14.32,5.73,8.17,8.85,21.73,9.75,29.41,1.22,10.45-4.21,15.89-5.41,16.55,6.34-2.4,8.67-10.51,8.94-15.52,.19-3.56-.24-6.07-1.04-9.48,.56,.82,2.93,2.65,8.03,8.44,.95,1.08,2.27-5.52-3.95-14.19Z"/><g><path class="cls-5" d="M32.88,71.82c-2.23,3.86-2.54,7.44-2.54,7.44,0,.06,7.48-7.62,8.04-8.44,0,0,1.19-4.89,2.52-7.64-3.38,2.28-6.24,5.57-8.02,8.64Z"/><path class="cls-5" d="M86.1,71.84c2.23,3.86,2.54,7.44,2.54,7.44,0,.06-7.48-7.62-8.04-8.44,0,0-1.19-4.89-2.52-7.64,3.38,2.28,6.24,5.57,8.02,8.64Z"/></g><g><path class="cls-11" d="M59.49,39.28c-1.44,0-4.17,3.32-4.17,3.32,2-.03,4.17,2.11,4.17,2.11,0,0,2.31-2.11,4.17-2.11,0,0-2.74-3.32-4.17-3.32Z"/><path class="cls-8" d="M59.49,39.28v4.19l-2.71-.56c1.47,.58,2.71,1.81,2.71,1.81,0,0,2.31-2.11,4.17-2.11,0,0-2.74-3.32-4.17-3.32Z"/></g><g><g><path class="cls-8" d="M46.24,94.67c-5.3,0-6.51,4.96-6.51,4.96l3.25-1.09,3.24,1.68s0,0,0,0l3.24-1.68,3.25,1.09s-1.16-4.96-6.46-4.96Z"/><path class="cls-11" d="M41.91,97.32s1.28-2.65,4.33-2.65,4.27,2.65,4.27,2.65c-.46-.15-1.19-.1-1.63,.13l-2.67,1.38-2.67-1.38c-.43-.22-1.16-.28-1.63-.13Z"/></g><g><path class="cls-8" d="M72.79,94.67c-5.3,0-6.51,4.96-6.51,4.96l3.25-1.09,3.24,1.68s0,0,0,0l3.24-1.68,3.25,1.09s-1.16-4.96-6.46-4.96Z"/><path class="cls-11" d="M68.47,97.32s1.28-2.65,4.33-2.65,4.27,2.65,4.27,2.65c-.46-.15-1.19-.1-1.63,.13l-2.67,1.38-2.67-1.38c-.43-.22-1.16-.28-1.63-.13Z"/></g></g><g><g><path class="cls-21" d="M68.34,38.28c0,1.03-.84,1.87-1.87,1.87s-1.87-.84-1.87-1.87,.84-1.86,1.87-1.86,1.87,.83,1.87,1.86Z"/><circle class="cls-9" cx="65.64" cy="37.61" r=".52"/><path class="cls-9" d="M67.24,38.22c0,.17-.14,.31-.31,.31s-.31-.14-.31-.31,.14-.31,.31-.31,.31,.14,.31,.31Z"/></g><g><path class="cls-21" d="M54.05,38.28c0,1.03-.84,1.87-1.87,1.87s-1.87-.84-1.87-1.87,.84-1.86,1.87-1.86,1.87,.83,1.87,1.86Z"/><circle class="cls-9" cx="51.35" cy="37.61" r=".52"/><path class="cls-9" d="M52.95,38.22c0,.17-.14,.31-.31,.31s-.31-.14-.31-.31,.14-.31,.31-.31,.31,.14,.31,.31Z"/></g></g></g><g><polygon class="cls-7" points="63.6 114.07 102.84 114.07 109.05 102.78 91.07 98.87 79.4 101.55 70.86 100.69 60.47 105.15 63.6 114.07"/><polygon class="cls-17" points="91.4 113.08 85.18 112.45 92.44 102.68 84.76 103.78 76.28 111.56 70.86 113.36 70.29 114.07 75.18 114.07 84.05 114.07 102.84 114.07 91.4 113.08"/><polygon class="cls-17" points="60.47 105.15 63.6 114.07 71.85 114.07 71.85 104.11 60.47 105.15"/><path class="cls-17" d="M91.16,103.54s-.76,7.69-.62,7.54c.14-.14,7.07-6.93,7.07-6.93l-6.45-.61Z"/><polygon class="cls-9" points="108.87 103.12 96.67 104.87 84.76 103.78 71.71 105.06 60.47 105.15 70.86 100.69 80.39 101.29 91.07 98.87 109.05 102.78 108.87 103.12"/><polygon class="cls-17" points="90.53 113.78 96.76 107.53 102.84 114.07 90.53 113.78"/><polygon class="cls-35" points="96.76 107.53 94.53 114.07 90.26 114.07 96.76 107.53"/><path class="cls-33" d="M60.47,105.15c.21,0,9.36,1.15,9.36,1.15l2.03,6.73v-7.97l-11.39,.09Z"/><polygon class="cls-36" points="69.22 114.07 76.28 111.56 84.76 103.78 79.83 111.82 77.69 114.07 69.22 114.07"/></g><path class="cls-1" d="M28.8,112h62.39c9.43,0,17.11-7.41,17.11-16.52V47.38H11.7v48.1c0,9.11,7.67,16.52,17.11,16.52Z"/></g><path class="cls-9" d="M108.3,95.48c0,9.11-7.67,16.52-17.11,16.52H28.8c-9.43,0-17.11-7.41-17.11-16.52V47.38H5.7v48.1c0,12.44,10.35,22.52,23.11,22.52h62.39c12.76,0,23.11-10.08,23.11-22.52V47.38h-6v48.1Z"/></svg>