<?xml version="1.0" encoding="UTF-8"?><svg id="_레이어_1" xmlns="http://www.w3.org/2000/svg" xmlns:xlink="http://www.w3.org/1999/xlink" viewBox="0 0 120 120"><defs><style>.cls-1{fill:url(#linear-gradient);}.cls-2{fill:#e3deca;}.cls-3{fill:#fff;}.cls-4{fill:#ffcd00;}.cls-5{fill:#f90;}.cls-6{fill:#f60;}.cls-7{fill:#993;}.cls-8{fill:#92dbf7;}.cls-9{fill:#666667;}.cls-10{fill:#963;}.cls-11{fill:#323233;}.cls-12{fill:#ba9600;}.cls-13{fill:#a8cf00;}.cls-14{fill:#c9da15;}.cls-15{fill:#ddb800;}.cls-16{fill:#404041;}.cls-17{fill:#1bb4ee;}.cls-18{fill:#535354;}.cls-19{fill:#6d4256;}.cls-20{fill:#4f4f50;}.cls-21{fill:#282829;}</style><linearGradient id="linear-gradient" x1="4.92" y1="59" x2="116.92" y2="59" gradientUnits="userSpaceOnUse"><stop offset="0" stop-color="#ffde0b"/><stop offset="1" stop-color="#ffce00"/></linearGradient></defs><circle class="cls-1" cx="60.92" cy="59" r="56"/><circle class="cls-15" cx="60" cy="59.92" r="40.95"/><circle class="cls-12" cx="60" cy="59.92" r="28.67"/><path class="cls-3" d="M60,7.61c28.84,0,52.31,23.47,52.31,52.31s-23.47,52.31-52.31,52.31S7.69,88.76,7.69,59.92,31.16,7.61,60,7.61m0-6.19C27.69,1.42,1.5,27.61,1.5,59.92s26.19,58.5,58.5,58.5,58.5-26.19,58.5-58.5S92.31,1.42,60,1.42h0Z"/><g><path class="cls-14" d="M65.86,13.85v11.65h18.1c2.89,0,5.63,1.27,7.5,3.48l1.28,1.51v-9.06c0-4.18-3.39-7.58-7.58-7.58h-19.3Z"/><path class="cls-13" d="M65.86,22.17v3.33h18.1c2.89,0,5.63,1.27,7.5,3.48l1.28,1.51v-8.32h-26.88Z"/><path class="cls-19" d="M85,25.55c2.5,.27,4.82,1.48,6.46,3.42l1.28,1.51v-9.06c0-1.86-.68-3.57-1.79-4.89-3.15,1.94-5.39,5.2-5.95,9.01Z"/><rect class="cls-10" x="26.23" y="86.09" width="66.77" height="5.98"/><path class="cls-5" d="M59.62,118.58h0c-7.06,0-12.38-6.41-11.08-13.35l5.08-27.06h12.58l4.54,27.29c1.14,6.87-4.16,13.12-11.12,13.12Z"/><path class="cls-6" d="M59.48,118.58s.09,0,.14,0h0c6.97,0,12.26-6.25,11.12-13.12l-3.61-21.7h-7.65v34.82Z"/><path class="cls-18" d="M53.61,78.17l-4.32,23c1.73,3.92,5.64,6.73,10.32,6.73h0c4.73,0,8.68-2.88,10.38-6.88l-3.8-22.85h-12.58Z"/><rect class="cls-11" x="49.22" y="19.91" width="20.52" height="26.93"/><path class="cls-11" d="M59.65,78.17v29.73c4.71-.01,8.65-2.89,10.35-6.88l-3.8-22.85h-6.55Z"/><path class="cls-4" d="M63.7,59.25c0,11.55,8.28,22.62,2.27,30.93-3.61,4.98-6.49,8.19-6.49,8.19,0,0-2.8-3.21-6.34-8.16-6.03-8.44-1.92-19.77-1.92-30.96s-3.33,4,8,4,4.49-15.33,4.49-4Z"/><path class="cls-16" d="M59.48,36.58c-11.33,0-20.52,9.19-20.52,20.52s8.15,24.67,14.18,33.11c2.05,.39,4.17,.6,6.34,.6s4.39-.22,6.49-.63c6.01-8.3,14.02-21.54,14.02-33.08s-9.19-20.52-20.52-20.52Z"/><path class="cls-11" d="M59.48,90.81c2.22,0,4.39-.22,6.49-.63,2-2.76,4.22-6.07,6.29-9.68,4.16-7.24-12.79,3.26-12.79,3.26v7.05Z"/><path class="cls-3" d="M46.95,80.64c3.74,1.99,8,3.13,12.53,3.13s8.99-1.18,12.78-3.26c4.16-7.24,7.73-15.7,7.73-23.4H38.96c0,7.55,3.72,16.15,7.99,23.54Z"/><path class="cls-2" d="M59.48,83.76c4.63,0,8.99-1.18,12.78-3.26,4.16-7.24,7.73-15.7,7.73-23.4,0-2.96-.63-5.77-1.76-8.31h-18.76v34.97Z"/><path class="cls-20" d="M67.41,60.42c0,11.33,3.4,17.19-7.93,17.19s-20.52-9.19-20.52-20.52,9.19-20.52,20.52-20.52,7.93,12.51,7.93,23.84Z"/><path class="cls-11" d="M79.99,57.1c0-11.33-9.19-20.52-20.52-20.52v41.03c11.33,0,20.52-9.19,20.52-20.52Z"/><circle class="cls-16" cx="59.48" cy="20.46" r="10.26" transform="translate(25.95 73.68) rotate(-76.77)"/><path class="cls-21" d="M69.73,20.46c0-5.67-4.59-10.26-10.26-10.26V30.72c5.67,0,10.26-4.59,10.26-10.26Z"/><path class="cls-8" d="M65.34,20.46c0,3.24-2.62,5.86-5.86,5.86s-5.86-2.62-5.86-5.86,2.62-5.86,5.86-5.86,5.86,2.62,5.86,5.86Z"/><path class="cls-17" d="M65.34,20.46c0-3.24-2.62-5.86-5.86-5.86v11.72c3.24,0,5.86-2.62,5.86-5.86Z"/><path class="cls-16" d="M61.71,20.46c0,1.23-1,2.23-2.23,2.23s-2.23-1-2.23-2.23,1-2.23,2.23-2.23,2.23,1,2.23,2.23Z"/><circle class="cls-9" cx="59.48" cy="57.1" r="10.26" transform="translate(-9.72 101.93) rotate(-76.77)"/><rect class="cls-10" x="77.37" y="87.62" width="4.94" height="11.34" transform="translate(-42.58 83.78) rotate(-45)"/><path class="cls-7" d="M82.29,75.77v2.89h2.89c3.78,0,6.85-3.07,6.85-6.85v-2.89h-2.89c-3.78,0-6.85,3.07-6.85,6.85Z"/><path class="cls-7" d="M32.87,105.9v2.89h2.89c3.78,0,6.85-3.07,6.85-6.85v-2.89h-2.89c-3.78,0-6.85,3.07-6.85,6.85Z"/><path class="cls-7" d="M34.64,74.46h-1.89v1.89c0,2.48,2.01,4.49,4.49,4.49h1.89v-1.89c0-2.48-2.01-4.49-4.49-4.49Z"/></g></svg>