<?xml version="1.0" encoding="UTF-8"?><svg id="_레이어_1" xmlns="http://www.w3.org/2000/svg" xmlns:xlink="http://www.w3.org/1999/xlink" viewBox="0 0 120 120"><defs><style>.cls-1{fill:none;}.cls-2{clip-path:url(#clippath);}.cls-3{fill:#f4fbff;}.cls-4{fill:#f60000;}.cls-5,.cls-6{fill:#fff;}.cls-7{fill:red;}.cls-8{fill:#78ecff;}.cls-9{fill:url(#_무제_그라디언트_13-3);}.cls-10{fill:url(#_무제_그라디언트_13-2);}.cls-11{clip-path:url(#clippath-1);}.cls-12{fill:url(#_무제_그라디언트_19);}.cls-13{fill:url(#_무제_그라디언트_13);}.cls-6{opacity:.2;}</style><clipPath id="clippath"><path class="cls-1" d="M90.22,4.67H31.42c-12.03,0-21.78,9.5-21.78,21.23v47.77c0,22.28,22.91,40.34,51.18,40.34s51.18-18.06,51.18-40.34V25.9c0-11.72-9.75-21.23-21.78-21.23Z"/></clipPath><linearGradient id="_무제_그라디언트_13" x1="86.39" y1="72.3" x2="86.44" y2="53.14" gradientUnits="userSpaceOnUse"><stop offset="0" stop-color="#24b0e2"/><stop offset="1" stop-color="#5fcfe9"/></linearGradient><linearGradient id="_무제_그라디언트_13-2" x1="25.5" y1="97.8" x2="25.6" y2="60.36" xlink:href="#_무제_그라디언트_13"/><linearGradient id="_무제_그라디언트_13-3" x1="53.29" y1="79.5" x2="53.37" y2="48.04" xlink:href="#_무제_그라디언트_13"/><linearGradient id="_무제_그라디언트_19" x1="40.75" y1="58.04" x2="80.82" y2="135.99" gradientUnits="userSpaceOnUse"><stop offset="0" stop-color="#0f62c6"/><stop offset=".07" stop-color="#156cc9"/><stop offset=".24" stop-color="#2381d1"/><stop offset=".44" stop-color="#2d90d6"/><stop offset=".66" stop-color="#3399da"/><stop offset="1" stop-color="#359cdb"/></linearGradient><clipPath id="clippath-1"><circle class="cls-1" cx="60" cy="200" r="58.5"/></clipPath></defs><g><path class="cls-8" d="M89.63,5.74H31.94c-11.8,0-21.37,9.32-21.37,20.83v46.86c0,21.86,22.48,39.57,50.21,39.57s50.21-17.72,50.21-39.57V26.57c0-11.5-9.57-20.83-21.37-20.83Z"/><g class="cls-2"><g><path class="cls-5" d="M61.94,48.27c-.35,0-.64-.28-.64-.62V27.63c0-.34,.29-.62,.64-.62s.64,.28,.64,.62v20.02c0,.34-.29,.62-.64,.62Z"/><polygon class="cls-4" points="67.79 38.19 67.79 29.82 77.14 30.31 74.3 34.57 77.39 39.08 67.79 38.19"/><polygon class="cls-7" points="61.94 36.64 61.94 28.08 69.66 28.51 69.66 37.21 61.94 36.64"/><path class="cls-5" d="M63.26,26.54c0,.71-.59,1.28-1.32,1.28s-1.32-.58-1.32-1.28,.59-1.28,1.32-1.28,1.32,.58,1.32,1.28Z"/><g><polygon class="cls-13" points="89.42 51.79 75.13 65.93 89.42 74.29 97.68 67.42 89.42 51.79"/><polygon class="cls-10" points="38.31 57.74 8.99 80.82 22.52 101.66 42.06 92.73 38.31 57.74"/><polygon class="cls-9" points="62.36 45.83 40.56 65.93 60.1 82.77 66.12 58.49 62.36 45.83"/><polygon class="cls-12" points="20.27 86.03 35.3 83.05 32.29 77.1 38.31 57.74 56.34 71.14 53.34 65.19 62.36 59.23 57.85 53.28 62.36 45.83 84.91 65.19 87.91 60.72 90.92 65.19 93.93 62.21 89.42 57.74 89.42 51.79 114.97 72.63 114.97 118.74 5.24 118.74 5.24 93.47 20.27 86.03"/></g><path class="cls-3" d="M41.91,33.34s0-.04,0-.06c0-2.57-2.13-4.65-4.77-4.65-.02,0-.03,0-.05,0-1.1-1.85-3.14-3.09-5.49-3.09-3.51,0-6.35,2.77-6.35,6.19,0,.09,0,.17,.01,.26-1.56,.13-2.79,1.4-2.79,2.96,0,1.64,1.37,2.97,3.05,2.97h15.86c1.32,0,2.38-1.04,2.38-2.32,0-1.11-.8-2.03-1.86-2.27Z"/><path class="cls-3" d="M90.52,42.2c.05-.22,.08-.46,.08-.7,0-1.76-1.46-3.18-3.26-3.18-.97,0-1.83,.42-2.42,1.07-.4-.21-.86-.34-1.35-.34-1.44,0-2.63,1.04-2.84,2.38-.91,.02-1.64,.73-1.64,1.62s.75,1.62,1.67,1.62h9.4c.72,0,1.3-.57,1.3-1.27,0-.58-.4-1.06-.94-1.21Z"/><path class="cls-3" d="M123.3,78.27c-3.31,.15-6.09,2.26-7.14,5.17h-5.41c-.35-2.66-2.69-4.71-5.51-4.71-.02,0-.03,0-.05,0-1.28-2.15-3.67-3.6-6.41-3.6s-5.13,1.45-6.41,3.61c-1.63,.07-3.07,.83-4.04,1.97-.99-1.4-2.64-2.31-4.51-2.31-.02,0-.03,0-.05,0-1.26-2.12-3.62-3.55-6.32-3.55s-5.06,1.43-6.32,3.56c-2.43,.11-4.45,1.76-5.05,3.97-.12-.03-.24-.06-.36-.08-.2-3.2-2.92-5.73-6.25-5.73-.02,0-.04,0-.05,0-1.44-2.43-4.14-4.06-7.23-4.06-4.61,0-8.35,3.64-8.35,8.14,0,0,0,.01,0,.02-1.03-1.78-2.99-2.98-5.24-2.98-.56,0-1.11,.08-1.63,.22-1.03-3.8-4.49-6.63-8.67-6.82-2.17-3.65-6.22-6.11-10.86-6.11s-8.69,2.45-10.86,6.1c-.03,0-.05,0-.08,0-2.82,0-5.35,1.21-7.07,3.12-.38-.24-.84-.37-1.33-.37-.23,0-.46,.03-.68,.09-.43-1.58-1.86-2.75-3.6-2.83-.9-1.52-.99,44.26-.99,44.26H124.69s.44-40.15-1.39-37.06Z"/></g></g><path class="cls-5" d="M91.39,8c9.43,0,17.11,7.41,17.11,16.52v50.68c0,20.29-21.67,36.8-48.3,36.8S11.89,95.49,11.89,75.2V24.52c0-9.11,7.67-16.52,17.11-16.52h62.39m0-6H29C16.24,2,5.89,12.08,5.89,24.52v50.68c0,23.64,24.31,42.8,54.3,42.8s54.3-19.16,54.3-42.8V24.52c0-12.44-10.35-22.52-23.11-22.52h0Z"/></g><g class="cls-11"><g><polygon class="cls-6" points="61.21 201.41 104.84 108.82 120.43 117.82 61.21 201.41"/><polygon class="cls-6" points="61.21 201.41 52.71 99.41 70.71 99.41 61.21 201.41"/><polygon class="cls-6" points="61.21 201.41 2.84 117.32 18.43 108.32 61.21 201.41"/></g></g></svg>