<?xml version="1.0" encoding="UTF-8"?><svg id="_레이어_1" xmlns="http://www.w3.org/2000/svg" xmlns:xlink="http://www.w3.org/1999/xlink" viewBox="0 0 120 120"><defs><style>.cls-1,.cls-2{fill:none;}.cls-2{stroke:#321914;stroke-linecap:round;stroke-miterlimit:3.86;stroke-width:.46px;}.cls-3{clip-path:url(#clippath);}.cls-4{fill:#ffde74;}.cls-5{fill:#eb8a3e;}.cls-6{fill:#fef69f;}.cls-7{fill:#fff;}.cls-8{fill:#ffbda2;}.cls-9{fill:#c26d24;}.cls-10{fill:#b6651d;}.cls-11{fill:#bc6920;}.cls-12{fill:#321914;}.cls-13{fill:#ce762c;}.cls-14{fill:#a64416;}.cls-15{fill:#af6018;}.cls-16{fill:#b06119;}.cls-17{fill:#e38539;}.cls-18{fill:#d57b30;}.cls-19{fill:#c87228;}.cls-20{fill:#dc8034;}.cls-21{clip-path:url(#clippath-1);}.cls-22{clip-path:url(#clippath-4);}.cls-23{clip-path:url(#clippath-3);}.cls-24{clip-path:url(#clippath-2);}.cls-25{clip-path:url(#clippath-6);}.cls-26{fill:url(#_무제_그라디언트_22);}</style><linearGradient id="_무제_그라디언트_22" x1="59.89" y1="1.24" x2="60.1" y2="113.24" gradientUnits="userSpaceOnUse"><stop offset="0" stop-color="#e57853"/><stop offset="1" stop-color="#ffb663"/></linearGradient><clipPath id="clippath"><path class="cls-5" d="M40.98,92.55c0-9.45,4.45-19.76,18.94-20.14,15.64-.41,19.53,11.06,19.53,20.51s-9.46,17.1-18.92,17.1-19.55-8.03-19.55-17.47Z"/></clipPath><clipPath id="clippath-1"><path class="cls-5" d="M33.5,71.34c4.44-.99,4.81-18.74,5.13-16.92,4.26-8.97,14.03-11.22,21.58-11.22,8.22,0,18.75,3.96,22.2,11.21-.25-3.27,1.45,20.18,4.54,16.93,0,11.36-11.98,20.57-26.74,20.57s-26.72-9.21-26.72-20.57Z"/></clipPath><clipPath id="clippath-2"><path class="cls-1" d="M59.76,93.87V38.57c-25.38-.21-31.44,37.92-31.29,42.55,.28,8.93,10.66,16.44,17.07,15.44,6.72-1.04,14.22-2.69,14.22-2.69Z"/></clipPath><clipPath id="clippath-3"><polygon class="cls-1" points="71.9 77.64 75.46 89.27 34.17 101.89 30.62 90.26 71.9 77.64 71.9 77.64"/></clipPath><clipPath id="clippath-4"><polygon class="cls-1" points="59.57 37.29 72.01 78 30.73 90.62 18.28 49.91 59.57 37.29 59.57 37.29"/></clipPath><clipPath id="clippath-6"><path class="cls-12" d="M53.73,72.99c0-4.44,12.72-4.95,12.72,0,0,2.21-6.36,3.99-6.36,3.99,0,0-6.36-1.79-6.36-3.99Z"/></clipPath></defs><circle class="cls-26" cx="60" cy="60" r="56"/><g><path class="cls-4" d="M76.22,39.56s.01-.05,.01-.07c0-3.15-7.19-5.7-16.07-5.7-.05,0-.11,0-.16,0-3.7-2.27-10.6-3.79-18.52-3.79-11.82,0-21.41,3.4-21.41,7.59,0,.11,.03,.21,.05,.32-5.26,.16-9.4,1.72-9.4,3.63,0,2.01,4.6,3.64,10.28,3.64h53.45c4.44,0,8.03-1.28,8.03-2.85,0-1.36-2.69-2.49-6.28-2.78Z"/><path class="cls-4" d="M112.61,58.24s0-.03,0-.05c0-2.3-4.45-4.16-9.95-4.16-.03,0-.07,0-.1,0-2.29-1.66-6.56-2.77-11.47-2.77-7.32,0-13.26,2.48-13.26,5.55,0,.08,.02,.15,.03,.23-3.26,.12-5.82,1.26-5.82,2.65,0,1.47,2.85,2.66,6.37,2.66h33.1c2.75,0,4.97-.93,4.97-2.08,0-.99-1.66-1.82-3.89-2.03Z"/><g><g><path class="cls-15" d="M52.73,105.1c-1.09,5.62-6.54,9.29-12.16,8.2-5.62-1.09-9.29-6.53-8.2-12.16,.02-.09,.04-.18,.06-.27,.62-3.18,4.94-2.5,4.15,.98l-.02,.1c-.64,3.31,1.52,6.52,4.83,7.16,3.31,.64,6.52-1.52,7.16-4.83,.64-3.26,5.27-4.76,4.18,.81Z"/><path class="cls-12" d="M33.98,104.44c1.79,.35,3.51-.83,3.87-2.61,.54-2.63-2.55-3.35-2-6.12,0,0-3.97,2.18-4.49,4.86-.35,1.79,.82,3.53,2.61,3.87Z"/></g><g><g><polygon class="cls-15" points="46.95 99.37 56.42 99.37 56.42 113.97 46.95 113.97 46.95 99.37 46.95 99.37"/><path class="cls-15" d="M44.31,116.32c0-3.4,3.19-6.05,7.28-6.05s7.41,2.65,7.41,6.05h-14.69Z"/><polygon class="cls-5" points="63.69 99.37 73.17 99.37 73.17 113.97 63.69 113.97 63.69 99.37 63.69 99.37"/><path class="cls-5" d="M61.06,116.32c0-3.4,3.19-6.05,7.28-6.05s7.41,2.65,7.41,6.05h-14.69Z"/><g><path class="cls-5" d="M40.98,92.55c0-9.45,4.45-19.76,18.94-20.14,15.64-.41,19.53,11.06,19.53,20.51s-9.46,17.1-18.92,17.1-19.55-8.03-19.55-17.47Z"/><g class="cls-3"><path class="cls-15" d="M60.26,123.34v-37.72c-28.3-8.49-23.41,30.76-23.28,34.83,.25,7.84,8.2,13.87,13.83,13,5.9-.91,9.45-10.1,9.45-10.1Z"/></g></g></g><path class="cls-14" d="M22.9,62.72c0-20.38,16.52-36.9,36.9-36.9s36.9,16.52,36.9,36.9-21.21,36.52-36.44,43.09c-16.05-6.89-37.35-22.72-37.35-43.09Z"/><g><path class="cls-5" d="M66.18,49.46c0-5.66,4.59-10.25,10.25-10.25s10.25,4.59,10.25,10.25-4.59,10.25-10.25,10.25-10.25-4.59-10.25-10.25Z"/><path class="cls-12" d="M81.52,49.46c0,2.81-2.28,5.08-5.08,5.08s-5.09-2.28-5.09-5.08,2.28-5.08,5.09-5.08,5.08,2.28,5.08,5.08Z"/><path class="cls-5" d="M33.75,49.46c0-5.66,4.59-10.25,10.25-10.25s10.25,4.59,10.25,10.25-4.59,10.25-10.25,10.25-10.25-4.59-10.25-10.25Z"/><path class="cls-12" d="M49.08,49.46c0,2.81-2.28,5.08-5.09,5.08s-5.08-2.28-5.08-5.08,2.28-5.08,5.08-5.08,5.09,2.28,5.09,5.08Z"/><g><path class="cls-5" d="M33.5,71.34c4.44-.99,4.81-18.74,5.13-16.92,4.26-8.97,14.03-11.22,21.58-11.22,8.22,0,18.75,3.96,22.2,11.21-.25-3.27,1.45,20.18,4.54,16.93,0,11.36-11.98,20.57-26.74,20.57s-26.72-9.21-26.72-20.57Z"/><g class="cls-21"><g><g class="cls-24"><g><g class="cls-23"><g><polygon class="cls-5" points="71.89 77.65 73.67 83.47 32.38 96.09 30.6 90.27 71.89 77.65 71.89 77.65"/><polygon class="cls-5" points="73.67 83.47 75.45 89.28 34.16 101.91 32.38 96.09 73.67 83.47 73.67 83.47"/></g></g><g class="cls-22"><g><polygon class="cls-16" points="59.55 37.3 60.8 41.37 19.51 54 18.27 49.93 59.55 37.3 59.55 37.3"/><polygon class="cls-10" points="60.8 41.37 62.04 45.44 20.76 58.07 19.51 54 60.8 41.37 60.8 41.37"/><polygon class="cls-11" points="62.04 45.44 63.29 49.52 22 62.14 20.76 58.07 62.04 45.44 62.04 45.44"/><polygon class="cls-9" points="63.29 49.52 64.53 53.59 23.25 66.21 22 62.14 63.29 49.52 63.29 49.52"/><polygon class="cls-19" points="64.53 53.59 65.78 57.66 24.49 70.28 23.25 66.21 64.53 53.59 64.53 53.59"/><polygon class="cls-13" points="65.78 57.66 67.02 61.73 25.74 74.35 24.49 70.28 65.78 57.66 65.78 57.66"/><polygon class="cls-18" points="67.02 61.73 68.27 65.8 26.98 78.42 25.74 74.35 67.02 61.73 67.02 61.73"/><polygon class="cls-20" points="68.27 65.8 69.51 69.87 28.22 82.49 26.98 78.42 68.27 65.8 68.27 65.8"/><polygon class="cls-17" points="69.51 69.87 70.75 73.94 29.47 86.56 28.22 82.49 69.51 69.87 69.51 69.87"/><polygon class="cls-5" points="70.75 73.94 72 78.01 30.71 90.63 29.47 86.56 70.75 73.94 70.75 73.94"/></g></g></g></g><path class="cls-8" d="M35.6,90.01c0-9.01,11.05-16.32,24.67-16.32s24.67,7.31,24.67,16.32-11.05,16.32-24.67,16.32-24.67-7.31-24.67-16.32Z"/></g></g></g><g><path class="cls-12" d="M41.1,64.36c0-2.14,1.67-3.87,3.74-3.87s3.74,1.73,3.74,3.87-1.67,3.87-3.74,3.87-3.74-1.73-3.74-3.87Z"/><path class="cls-7" d="M44.76,63.86c-.19-.55,.1-1.16,.66-1.35,.56-.19,1.16,.1,1.35,.66,.19,.55-.1,1.16-.66,1.35-.55,.19-1.16-.1-1.35-.66Z"/></g><path class="cls-12" d="M70.04,64.36c0-2.14,1.67-3.87,3.74-3.87s3.74,1.73,3.74,3.87-1.67,3.87-3.74,3.87-3.74-1.73-3.74-3.87Z"/><path class="cls-7" d="M73.7,63.86c-.19-.55,.1-1.16,.66-1.35,.56-.19,1.16,.1,1.35,.66,.19,.55-.1,1.16-.66,1.35-.56,.19-1.16-.1-1.35-.66Z"/><path class="cls-12" d="M48.89,80.04c0-.14,.01-.28,.03-.42,.04-.31,.5-.31,.61,0,.54,2.36,2.65,4.11,5.17,4.11,2.32,0,4.29-1.49,5.01-3.57v-3.6c0-.5,.82-.5,.82,0v3.6c.72,2.08,2.69,3.57,5.01,3.57,2.52,0,4.63-1.76,5.17-4.11,.04-.27,.54-.33,.61,0,.02,.14,.03,.28,.03,.42,0,3.21-2.61,5.82-5.82,5.82-2.45,0-4.55-1.52-5.41-3.67-.85,2.15-2.95,3.67-5.41,3.67-3.21,0-5.82-2.6-5.82-5.82Z"/><g><path class="cls-12" d="M53.73,72.99c0-4.44,12.72-4.95,12.72,0,0,2.21-6.36,3.99-6.36,3.99,0,0-6.36-1.79-6.36-3.99Z"/><g class="cls-25"><path class="cls-7" d="M61.11,71.19c.06-.37,.87-.53,1.79-.37,.92,.16,1.62,.59,1.56,.96-.06,.37-.87,.53-1.79,.37-.92-.16-1.62-.59-1.56-.96Z"/></g></g></g><path class="cls-14" d="M52.82,43.82c-2.24,12.08,9.31,6.94,9.09,15.88,8.08-7.57,8.58-11.46,4.81-17.8-3.11-1.2-13.91,1.92-13.91,1.92Z"/><path class="cls-2" d="M54.67,76.49c-5.59-4.65-20.6-8.01-33.49-1.43"/><path class="cls-2" d="M53.29,77.98c-7.47-2.35-18.4-3.74-27.61,1.29"/><path class="cls-2" d="M53.22,80.19c-7.93-2.6-18,.41-24.04,5.51"/><path class="cls-2" d="M65.84,76.49c5.59-4.65,20.6-8.01,33.49-1.43"/><path class="cls-2" d="M67.21,77.98c7.47-2.35,18.4-3.74,27.61,1.29"/><path class="cls-2" d="M67.29,80.19c7.93-2.6,18,.41,24.04,5.51"/></g></g></g><g><path class="cls-6" d="M68.95,18.99c-.46,0-.84,.37-.84,.84,0,.25,.11,.48,.29,.63l-3.23,3.19-3.79-6.67c.59-.1,1.03-.61,1.03-1.23,0-.69-.56-1.25-1.25-1.25s-1.25,.56-1.25,1.25c0,.61,.44,1.13,1.03,1.23l-3.88,6.67-3.14-3.18c.18-.15,.3-.38,.3-.64,0-.46-.37-.84-.84-.84s-.84,.37-.84,.84,.37,.84,.84,.84c.02,0,.05,0,.07,0l.76,7.92c-.15,.1-.25,.23-.25,.38,0,.3,.39,.54,.88,.54h12.63c.49,0,.88-.24,.88-.54,0-.15-.09-.28-.25-.38l.02-.25,.79-7.5c-.02,.15-.06,.41-.14,.73l.09-.9s.05,0,.07,0c.46,0,.84-.37,.84-.84s-.37-.84-.84-.84Z"/><path class="cls-6" d="M66.95,20.67l-.02,.17c.01-.11,.02-.17,.02-.17Z"/></g><path class="cls-7" d="M60,7.69c28.84,0,52.31,23.47,52.31,52.31s-23.47,52.31-52.31,52.31S7.69,88.84,7.69,60,31.16,7.69,60,7.69m0-6.19C27.69,1.5,1.5,27.69,1.5,60s26.19,58.5,58.5,58.5,58.5-26.19,58.5-58.5S92.31,1.5,60,1.5h0Z"/></svg>