<?xml version="1.0" encoding="UTF-8"?><svg xmlns="http://www.w3.org/2000/svg" xmlns:xlink="http://www.w3.org/1999/xlink" viewBox="0 0 120 120"><defs><style>.cls-1,.cls-2,.cls-3{fill:none;}.cls-2{stroke-dasharray:0 0 4.09 4.09;}.cls-2,.cls-3{stroke:#fff;stroke-linecap:round;stroke-miterlimit:10;}.cls-4{clip-path:url(#clippath);}.cls-5{fill:#00c3e8;}.cls-6{fill:#007aea;}.cls-7{fill:#fcfcfc;}.cls-8,.cls-9{fill:#fff;}.cls-10{fill:#b57338;}.cls-11{fill:#bac4bb;}.cls-12{fill:#8f5113;}.cls-13{fill:#d97e46;}.cls-14{fill:#bfedf2;}.cls-15{fill:#d0d9d1;}.cls-16{fill:#a35113;}.cls-17{fill:#5ae2f2;}.cls-18{fill:url(#linear-gradient-4);}.cls-18,.cls-19{mix-blend-mode:screen;opacity:.35;}.cls-19{fill:url(#linear-gradient-3);}.cls-20{clip-path:url(#clippath-1);}.cls-21{clip-path:url(#clippath-2);}.cls-22{fill:url(#_무제_그라디언트_32);}.cls-9{opacity:.2;}.cls-23{fill:url(#linear-gradient-2);}.cls-24{fill:url(#linear-gradient);mix-blend-mode:multiply;}.cls-25{isolation:isolate;}</style><linearGradient id="_무제_그라디언트_32" x1="5" y1="60" x2="115" y2="60" gradientUnits="userSpaceOnUse"><stop offset="0" stop-color="#ffde0b"/><stop offset="1" stop-color="#ffce00"/></linearGradient><clipPath id="clippath"><circle class="cls-1" cx="60" cy="60" r="58.5"/></clipPath><clipPath id="clippath-1"><circle class="cls-1" cx="60" cy="60" r="58.5"/></clipPath><clipPath id="clippath-2"><path class="cls-1" d="M88.89,143.8H29.72c-12.1,0-21.91,9.74-21.91,21.75v48.93c0,22.82,23.06,41.32,51.5,41.32s51.5-18.5,51.5-41.32v-48.93c0-12.01-9.81-21.75-21.91-21.75Z"/></clipPath><linearGradient id="linear-gradient" x1="7586.18" y1="1243.34" x2="7586.18" y2="1163.16" gradientTransform="translate(7645.88 1354) rotate(-180)" gradientUnits="userSpaceOnUse"><stop offset="0" stop-color="#c69c6d"/><stop offset=".2" stop-color="#c79e70"/><stop offset=".37" stop-color="#cba57a"/><stop offset=".52" stop-color="#d2b08b"/><stop offset=".66" stop-color="#dbc1a4"/><stop offset=".8" stop-color="#e7d6c3"/><stop offset=".94" stop-color="#f6f0e9"/><stop offset="1" stop-color="#fff"/></linearGradient><linearGradient id="linear-gradient-2" x1="7462.09" y1="1204.27" x2="7723.52" y2="1204.27" gradientTransform="translate(7645.88 1354) rotate(-180)" gradientUnits="userSpaceOnUse"><stop offset="0" stop-color="#1bc0d9"/><stop offset="1" stop-color="#1bdbd9"/></linearGradient><linearGradient id="linear-gradient-3" x1="7480.23" y1="1228.95" x2="7704.6" y2="1228.95" gradientTransform="translate(7645.88 1354) rotate(-180)" gradientUnits="userSpaceOnUse"><stop offset="0" stop-color="#fff"/><stop offset=".37" stop-color="#949494"/><stop offset=".68" stop-color="#444"/><stop offset=".89" stop-color="#131313"/><stop offset="1" stop-color="#000"/></linearGradient><linearGradient id="linear-gradient-4" x1="7480.23" y1="1237.29" x2="7704.6" y2="1237.29" xlink:href="#linear-gradient-3"/></defs><g class="cls-25"><g id="_레이어_1"><g><circle class="cls-22" cx="60" cy="60" r="55"/><g class="cls-4"><g><polygon class="cls-9" points="61.21 61.41 -40.79 69.91 -40.79 51.91 61.21 61.41"/><polygon class="cls-9" points="61.21 61.41 -22.88 119.77 -31.88 104.18 61.21 61.41"/><polygon class="cls-9" points="61.21 61.41 17.57 153.99 1.98 144.99 61.21 61.41"/><polygon class="cls-9" points="61.21 61.41 69.71 163.41 51.71 163.41 61.21 61.41"/><polygon class="cls-9" points="61.21 61.41 119.57 145.49 103.98 154.49 61.21 61.41"/><polygon class="cls-9" points="61.21 61.41 153.79 105.05 144.79 120.63 61.21 61.41"/><polygon class="cls-9" points="61.21 61.41 163.21 52.91 163.21 70.91 61.21 61.41"/><polygon class="cls-9" points="61.21 61.41 145.29 3.05 154.29 18.63 61.21 61.41"/><polygon class="cls-9" points="61.21 61.41 104.84 -31.18 120.43 -22.18 61.21 61.41"/><polygon class="cls-9" points="61.21 61.41 52.71 -40.59 70.71 -40.59 61.21 61.41"/><polygon class="cls-9" points="61.21 61.41 2.84 -22.68 18.43 -31.68 61.21 61.41"/><polygon class="cls-9" points="61.21 61.41 -31.38 17.77 -22.38 2.18 61.21 61.41"/></g></g><g class="cls-20"><g><polygon class="cls-12" points="65.35 9.5 50.75 102.46 55.74 102.46 70.22 10.26 65.35 9.5"/><path class="cls-5" d="M92.52,55.27v.23c-.13,17.58-14.41,31.77-32,31.77s-31.98-14.32-31.98-32c0-6.14,1.74-11.89,4.75-16.77,3.12-5.06,7.61-9.2,12.96-11.86h.02c4.3-2.17,9.13-3.37,14.26-3.37,3.6,0,7.06,.59,10.3,1.71,3.58,1.2,6.87,3.02,9.74,5.36,3.84,3.09,6.96,7.05,9.03,11.58,1.89,4.06,2.92,8.59,2.92,13.35Z"/><path class="cls-13" d="M60.53,15.71c-1.04,0-2.06,.05-3.08,.13l.34,4.57c.91-.07,1.82-.14,2.75-.14,19.33,0,35,15.67,35,35s-15.67,35-35,35c-5.89,0-11.44-1.47-16.31-4.04l-2.26,3.97c5.54,2.95,11.86,4.63,18.57,4.63,21.85,0,39.56-17.71,39.56-39.56S82.38,15.71,60.53,15.71Z"/><path class="cls-10" d="M38.35,99.8h31.25c.9,0,1.62,.73,1.62,1.62v3.71H36.73v-3.71c0-.9,.73-1.62,1.62-1.62Z"/><path class="cls-12" d="M33.34,105.13h41.27c.9,0,1.62,.73,1.62,1.62v3.71H31.72v-3.71c0-.9,.73-1.62,1.62-1.62Z"/><path class="cls-6" d="M81.17,53.29c-.67-.93-2.02-1.45-3.02-.87-.63,.36-1.22,1.13-1.9,.87-.45-.17-.62-.71-.93-1.09-.83-1-2.45-.62-3.67-1.09-.46-.18-.87-.48-1.31-.71-1.59-.83-3.67-.59-5.03,.57l.07-.1c-1.45-.47-2.94-.94-4.47-.94-1.53,0-3.13,.54-4.06,1.76-1.08,1.41-1.02,3.37-.79,5.13,.16,1.24,.41,2.51,1.12,3.54,1.03,1.51,2.85,2.24,4.51,3.01,1.66,.77,3.41,1.84,3.94,3.59,.64,2.08,.72,5-.76,6.6-1.48,1.6-3.26,3.11-3.82,5.22-.29,1.08,0,2.54,1.1,2.78,.63,.14,1.27-.21,1.71-.67s.73-1.05,1.11-1.57c.74-1.03,1.79-1.8,2.8-2.57,2.77-2.11,4.03-5.12,6.55-7.53,3.64-3.46,7.19-7.63,7.54-12.64,.08-1.15-.04-2.37-.7-3.31Z"/><path class="cls-6" d="M67.7,30.23c-.38,2.02,.35,4.39-.95,6-.76,.94-2,1.3-3.15,1.69-1.13,.39-2.37,.99-2.81,2.1-.26,.62-.33,1.48-.95,1.71-.3,.12-.61,.05-.92-.02-.9-.16-1.81-.21-2.73-.15-.26,.02-.56,.07-.74,.26-.16,.18-.18,.44-.2,.67-.08,2.28,.66,4.58,2.04,6.39l.18,.08c-.38,.72-1.46,.44-2.18,.08-3.55-1.77-7.51-3.25-11.4-2.58-1.86,.33-3.86,1.1-5.54,.23-.12-1.41,.1-2.84-.07-4.25-.18-1.4-.87-2.87-2.18-3.42-.85-.36-1.94-.3-2.81-.54,3.12-5.06,7.61-9.2,12.96-11.86h.02c1.89,.2,3.73,.69,5.62,.94,1.89,.23,3.86,.21,5.59-.61,.57-.26,1.1-.62,1.68-.85,1.28-.51,2.71-.43,4.07-.3,1.31,.11,2.68,.3,3.81,1,.3,.2,.59,.43,.77,.76,.44,.79,.07,1.77-.1,2.66Z"/><path class="cls-6" d="M80.56,30.33c-.05,.36-.3,.67-.62,.84-.38,.23-.82,.31-1.26,.36-1.33,.16-2.79,.18-3.84-.64-.53-.41-.89-.97-1.23-1.51-.92-1.48-1.86-2.94-2.78-4.4,3.58,1.2,6.87,3.02,9.74,5.36Z"/><path class="cls-6" d="M92.52,55.27v.23s-.07,.03-.1,.03c-.16,.05-.33,.05-.48-.02-.25-.13-.31-.46-.39-.74-.26-1.03-1.1-1.91-2.14-2.23-.15-.05-.31-.08-.39-.21-.08-.11-.08-.25-.08-.38,0-2.91,.05-5.8,.15-8.71,.02-.46,.07-.99,.41-1.28,.03-.03,.07-.05,.1-.05,1.89,4.06,2.92,8.59,2.92,13.35Z"/><path class="cls-17" d="M55.54,67.43c-.06-1.52-.3-3.23-1.52-4.15-.3-.23-.65-.39-.97-.6-2.41-1.6-2.34-5.32-4.42-7.33-1.43-1.38-7.02-3.32-7.9-3.6-1.55-.48-3.29-.75-4.68,.69-.93,.97-.93,3.27-.96,4.5-.07,3.56,.77,7.12,2.43,10.28,.24,.46,.5,.9,.77,1.34,1.68,2.7,3.96,5.01,6.64,6.72,1.34,.85,2.78,1.56,4.27,2.09,1.59,.57,2.99,1.08,4.17-.47,2.01-2.63,2.3-6.17,2.16-9.48Z"/><path class="cls-14" d="M49.57,64.17c-.03-.74-.15-1.56-.73-2.01-.15-.11-.32-.19-.47-.29-1.17-.78-1.13-2.58-2.14-3.55-.69-.67-3.4-1.61-3.82-1.74-.75-.23-1.59-.36-2.26,.34-.45,.47-.45,1.58-.46,2.18-.03,1.72,.37,3.45,1.17,4.97,.12,.22,.24,.44,.37,.65,.81,1.31,1.92,2.42,3.21,3.25,.65,.41,1.34,.75,2.07,1.01,.77,.27,1.45,.52,2.02-.23,.97-1.27,1.12-2.99,1.05-4.59Z"/></g></g><path class="cls-8" d="M60,7.69c28.84,0,52.31,23.47,52.31,52.31s-23.47,52.31-52.31,52.31S7.69,88.84,7.69,60,31.16,7.69,60,7.69m0-6.19C27.69,1.5,1.5,27.69,1.5,60s26.19,58.5,58.5,58.5,58.5-26.19,58.5-58.5S92.31,1.5,60,1.5h0Z"/><g><path class="cls-3" d="M21.54,58.22s-.6,.47-1.56,1.25"/><path class="cls-2" d="M16.86,62.11c-6.43,5.62-15.66,14.97-1.36,11.39,18.54-4.64,45.02-15.63,59.84-25.82"/><path class="cls-3" d="M77.02,46.5c.55-.4,1.08-.8,1.6-1.2"/></g><g><polygon class="cls-11" points="81.43 35.89 81.68 43.73 108.6 23.06 81.43 35.89"/><polygon class="cls-7" points="81.43 35.89 73.48 29.18 108.6 23.06 81.43 35.89"/><polygon class="cls-15" points="108.6 23.06 83.75 38.13 81.68 43.73 108.6 23.06"/><polygon class="cls-7" points="92.17 46.7 108.6 23.06 83.75 38.13 92.17 46.7"/></g></g><path class="cls-16" d="M73.53,10.83c-.36,2.28-2.5,3.84-4.78,3.48-2.28-.36-3.84-2.5-3.48-4.78,.36-2.28,2.5-3.84,4.78-3.48,2.28,.36,3.84,2.5,3.48,4.78Z"/><g class="cls-21"><g><path class="cls-24" d="M125,115H-5.6v69.33c11.62,6.34,25.57,8.97,36.48,3.7,12.3-5.95,10.81-17.19,21.83-20.08,12.64-3.32,17.52,10.7,36.73,13.01,15.84,1.91,29.93-5.49,35.57-9.05v-56.91Z"/><path class="cls-23" d="M125,115H-5.6v63.46c11.62,5.84,25.57,8.26,36.48,3.4,12.3-5.48,10.81-15.82,21.83-18.48,12.64-3.05,17.52,9.85,36.73,11.98,15.84,1.76,29.93-5.05,35.57-8.33v-52.03Z"/><path class="cls-19" d="M125,115H-5.6v14.19c10.84,4.76,27.69,7.71,40.01,4.67,10.56-2.6,9.28-7.52,18.73-8.78,10.85-1.45,15.04,4.68,31.52,5.69,16.94,1.04,31.55-4.24,32.71-4.72,3.02-1.24,5.42-2.6,7.63-3.94v-7.11Z"/><path class="cls-18" d="M-5.6,115v1.55c10.84,1.51,27.69,2.45,40.01,1.48,10.56-.83,9.28-2.39,18.73-2.79,10.85-.46,15.04,1.49,31.52,1.81,16.94,.33,31.55-1.35,32.71-1.5,1.38-.18,2.62-.37,3.78-.56H-5.6Z"/></g></g></g></g></svg>