<?xml version="1.0" encoding="UTF-8"?><svg id="_레이어_1" xmlns="http://www.w3.org/2000/svg" xmlns:xlink="http://www.w3.org/1999/xlink" viewBox="0 0 120 120"><defs><style>.cls-1{fill:none;}.cls-2{fill:url(#linear-gradient);}.cls-3{clip-path:url(#clippath);}.cls-4{opacity:.1;}.cls-5{fill:#e65f41;}.cls-6,.cls-7{fill:#fff;}.cls-8{fill:#fff2be;}.cls-9{fill:#fc0;}.cls-10{fill:#ebc287;}.cls-11{fill:#f0d1b6;}.cls-12{fill:#6b5542;}.cls-13{fill:#936037;}.cls-14{fill:#666;}.cls-15{fill:#d94f2e;}.cls-16{fill:#a3c24c;}.cls-17{fill:#cc0;}.cls-18{fill:#c7e3ff;}.cls-19{fill:#9cf;}.cls-20{clip-path:url(#clippath-2);}.cls-7,.cls-21{opacity:.2;}</style><clipPath id="clippath"><circle class="cls-1" cx="-80" cy="60" r="58.5"/></clipPath><clipPath id="clippath-1"><path class="cls-1" d="M-49.61-132.17h-59.4c-12.15,0-22,10.1-22,22.56v42.75c0,23.67,23.15,42.86,51.7,42.86S-27.61-43.19-27.61-66.86v-42.75c0-12.46-9.85-22.56-22-22.56Z"/></clipPath><linearGradient id="linear-gradient" x1="60" y1="114.01" x2="60" y2="10.01" gradientUnits="userSpaceOnUse"><stop offset="0" stop-color="#fff"/><stop offset=".33" stop-color="#c9ebff"/><stop offset=".36" stop-color="#c3e9ff"/><stop offset=".53" stop-color="#a7dfff"/><stop offset=".87" stop-color="#6ecbff"/><stop offset="1" stop-color="#59c3ff"/></linearGradient><clipPath id="clippath-2"><path class="cls-1" d="M30.15,115h59.8c12.23,0,22.15-9.55,22.15-21.34V45.64c0-22.39-23.3-40.55-52.05-40.55S8,23.25,8,45.64v48.02c0,11.79,9.92,21.34,22.15,21.34Z"/></clipPath></defs><g class="cls-3"><g><polygon class="cls-7" points="-80 60 12.58 103.64 3.58 119.23 -80 60"/><polygon class="cls-7" points="-80 60 22 51.5 22 69.5 -80 60"/><polygon class="cls-7" points="-80 60 4.08 1.64 13.08 17.23 -80 60"/></g></g><g><path class="cls-2" d="M30.13,114.9h59.74c12.22,0,22.13-9.55,22.13-21.32V45.61c0-22.37-23.28-40.51-52-40.51S8,23.24,8,45.61v47.97c0,11.78,9.91,21.32,22.13,21.32Z"/><g class="cls-20"><g><circle class="cls-8" cx="37.38" cy="31.58" r="11.48" transform="translate(-11.38 35.68) rotate(-45)"/><g><path class="cls-16" d="M114.93,114.68c.46-1.68,.71-3.46,.71-5.29,0-11.03-8.95-19.98-19.98-19.98s-19.98,8.95-19.98,19.98c0,1.83,.25,3.6,.71,5.29h38.54Z"/><path class="cls-16" d="M46.66,114.68c.46-1.68,.71-3.46,.71-5.29,0-11.03-8.95-19.98-19.98-19.98s-19.98,8.95-19.98,19.98c0,1.83,.25,3.6,.71,5.29H46.66Z"/></g><polygon class="cls-10" points="91.15 106.32 59.82 31.81 28.49 106.32 91.15 106.32"/><polygon class="cls-5" points="38.88 81.61 80.76 81.61 70.69 57.65 48.96 57.65 38.88 81.61"/><polygon class="cls-13" points="73.56 106.32 59.82 74.75 46.09 106.32 73.56 106.32"/><polygon class="cls-11" points="52.61 23.23 59.82 31.81 67.04 23.23 52.61 23.23"/><g><g><polygon class="cls-15" points="52.42 81.59 59.8 66.78 67.17 81.59 52.42 81.59"/><polygon class="cls-15" points="38.89 81.59 52.42 81.59 45.09 66.86 38.89 81.59"/></g><polygon class="cls-15" points="67.17 81.59 80.75 81.59 74.54 66.8 67.17 81.59"/></g><rect class="cls-12" x="24.55" y="106.32" width="71.11" height="6"/><rect class="cls-17" x="7.41" y="112.32" width="107.52" height="7.73"/><g><polygon class="cls-15" points="59.8 57.65 54.37 67.05 48.94 57.65 59.8 57.65"/><polygon class="cls-15" points="70.65 57.65 65.23 67.05 59.8 57.65 70.65 57.65"/></g><path class="cls-18" d="M95.72,55.76h-11.32c-3.35,0-6.07-2.72-6.07-6.07h0c0-3.35,2.72-6.07,6.07-6.07h11.32c3.35,0,6.07,2.72,6.07,6.07h0c0,3.35-2.72,6.07-6.07,6.07Z"/><polygon class="cls-21" points="59.82 31.81 83.32 106.32 91.15 106.32 59.82 31.81"/><polygon class="cls-21" points="59.82 31.81 36.32 106.32 28.49 106.32 59.82 31.81"/><path class="cls-19" d="M27.3,70.62h-9.02c-3.35,0-6.07-2.72-6.07-6.07h0c0-3.35,2.72-6.07,6.07-6.07h9.02c3.35,0,6.07,2.72,6.07,6.07h0c0,3.35-2.72,6.07-6.07,6.07Z"/><circle class="cls-9" cx="37.38" cy="31.58" r="6.31" transform="translate(-9.24 16.71) rotate(-22.5)"/><path class="cls-6" d="M80.18,80.62c-1.61,3.26-4.95,5.51-8.84,5.51-5.44,0-9.85-4.41-9.85-9.85,0-.23,.02-.45,.03-.67l-2.25-.9c-.07,.52-.11,1.04-.11,1.57,0,6.73,5.45,12.18,12.18,12.18,4.7,0,8.77-2.67,10.8-6.56l-1.97-1.28Z"/><path class="cls-6" d="M39.61,80.62c1.61,3.26,4.95,5.51,8.84,5.51,5.44,0,9.85-4.41,9.85-9.85,0-.23-.02-.45-.03-.67l2.25-.9c.07,.52,.11,1.04,.11,1.57,0,6.73-5.45,12.18-12.18,12.18-4.7,0-8.77-2.67-10.8-6.56l1.97-1.28Z"/><path class="cls-14" d="M62.35,74.75c0,1.39-1.13,2.53-2.53,2.53s-2.53-1.13-2.53-2.53,1.13-2.53,2.53-2.53,2.53,1.13,2.53,2.53Z"/><path class="cls-14" d="M83.29,81.61c0,1.39-1.13,2.53-2.53,2.53s-2.53-1.13-2.53-2.53,1.13-2.53,2.53-2.53,2.53,1.13,2.53,2.53Z"/><path class="cls-14" d="M41.41,81.61c0,1.39-1.13,2.53-2.53,2.53s-2.53-1.13-2.53-2.53,1.13-2.53,2.53-2.53,2.53,1.13,2.53,2.53Z"/></g></g><polygon class="cls-4" points="56.36 21.23 59.82 29.81 52.61 21.23 56.36 21.23"/><polygon class="cls-4" points="63.29 21.23 59.82 29.81 67.04 21.23 63.29 21.23"/><path class="cls-6" d="M60,8.03c26.96,0,48.9,16.49,48.9,36.76v50.68c0,9.09-7.78,16.49-17.34,16.49H28.44c-9.56,0-17.34-7.4-17.34-16.49V44.8c0-20.27,21.94-36.76,48.9-36.76m0-6.03C29.66,2,5.06,21.16,5.06,44.8v50.68c0,12.44,10.47,22.52,23.38,22.52h63.12c12.91,0,23.38-10.08,23.38-22.52V44.8c0-23.64-24.6-42.8-54.94-42.8h0Z"/></g></svg>