<svg width="18" height="20" viewBox="0 0 18 20" fill="none" xmlns="http://www.w3.org/2000/svg">
<path fill-rule="evenodd" clip-rule="evenodd" d="M0.386059 6.69972C0.142473 6.88917 0 7.18048 0 7.48907V19C0 19.5523 0.447716 20 1 20H17C17.5523 20 18 19.5523 18 19V7.48907C18 7.18048 17.8575 6.88917 17.6139 6.69972L9.61394 0.477494C9.25283 0.19663 8.74717 0.19663 8.38606 0.477493L0.386059 6.69972ZM10 13C10 12.4477 9.55229 12 9 12C8.44771 12 8 12.4477 8 13V15C8 15.5523 8.44771 16 9 16C9.55229 16 10 15.5523 10 15V13Z" fill="#1EC7FC"/>
</svg>
