<svg width="24" height="19" viewBox="0 0 24 19" fill="none" xmlns="http://www.w3.org/2000/svg">
<path d="M0.471598 1.59701L2.58471 1.59701L2.58471 0.61343C2.58471 0.369352 2.74696 0.160085 2.97071 0.115965C3.3586 0.0390587 3.77932 0.000200621 4.22079 0.000200659C5.74576 0.000200793 7.55919 0.449295 9.61052 1.33534C10.7301 1.81884 11.6024 2.29789 11.9998 2.52618C12.3973 2.29789 13.2695 1.81884 14.389 1.33534C16.4405 0.449094 18.2539 -4.99851e-07 19.7789 -3.66534e-07C20.2204 -3.27939e-07 20.6411 0.0388578 21.029 0.115764C21.2527 0.160087 21.415 0.369354 21.415 0.613229L21.415 1.59681L23.4999 1.59681C23.7604 1.59681 23.9716 1.82328 23.9716 2.10278L23.9716 18.494C23.9716 18.7735 23.7604 19 23.4999 19L12.0016 19L11.9999 19L11.9982 19L0.471596 19C0.211052 19 -6.26764e-05 18.7735 -6.2652e-05 18.494L-6.1219e-05 2.10298C-6.11946e-05 1.82348 0.211054 1.59701 0.471598 1.59701ZM22.0566 3.60895L21.4152 3.60895L21.4152 15.6724C21.4152 15.8239 21.3523 15.9676 21.2431 16.0638C21.1339 16.1599 20.9907 16.1986 20.8522 16.1688C20.8473 16.1678 20.3532 16.0664 19.4885 16.0664C18.3026 16.0664 16.5795 16.2486 14.4758 16.9881L22.0566 16.9881L22.0566 3.60895ZM1.94325 16.9881L9.5243 16.9881C7.42052 16.2486 5.69746 16.0664 4.51152 16.0664C3.64688 16.0664 3.15277 16.1678 3.14881 16.1686C3.01033 16.1984 2.86657 16.1599 2.75734 16.0638C2.6481 15.9676 2.58471 15.8241 2.58471 15.6726L2.58471 3.60894L1.94325 3.60894L1.94325 16.9881Z" fill="#FDB751"/>
<path d="M12 2V17" stroke="white"/>
</svg>
